G04*
G04 #@! TF.GenerationSoftware,Altium Limited,Altium Designer,23.10.1 (27)*
G04*
G04 Layer_Color=32896*
%FSLAX44Y44*%
%MOMM*%
G71*
G04*
G04 #@! TF.SameCoordinates,671930CB-C111-41D6-978D-B382350784AC*
G04*
G04*
G04 #@! TF.FilePolarity,Positive*
G04*
G01*
G75*
%ADD12C,0.1524*%
%ADD30C,0.2540*%
D12*
X416341Y56726D02*
X418034Y58418D01*
X421419D01*
X423112Y56726D01*
Y49954D01*
X421419Y48262D01*
X418034D01*
X416341Y49954D01*
X412956Y48262D02*
X409570D01*
X411263D01*
Y58418D01*
X412956Y56726D01*
X404492D02*
X402799Y58418D01*
X399413D01*
X397720Y56726D01*
Y49954D01*
X399413Y48262D01*
X402799D01*
X404492Y49954D01*
Y56726D01*
X394335D02*
X392642Y58418D01*
X389257D01*
X387564Y56726D01*
Y55033D01*
X389257Y53340D01*
X387564Y51647D01*
Y49954D01*
X389257Y48262D01*
X392642D01*
X394335Y49954D01*
Y51647D01*
X392642Y53340D01*
X394335Y55033D01*
Y56726D01*
X392642Y53340D02*
X389257D01*
X363976Y37086D02*
Y47242D01*
X358898D01*
X357205Y45550D01*
Y42164D01*
X358898Y40471D01*
X363976D01*
X360591D02*
X357205Y37086D01*
X353820D02*
X350434D01*
X352127D01*
Y47242D01*
X353820Y45550D01*
X345356D02*
X343663Y47242D01*
X340277D01*
X338585Y45550D01*
Y38778D01*
X340277Y37086D01*
X343663D01*
X345356Y38778D01*
Y45550D01*
X335199D02*
X333506Y47242D01*
X330121D01*
X328428Y45550D01*
Y43857D01*
X330121Y42164D01*
X328428Y40471D01*
Y38778D01*
X330121Y37086D01*
X333506D01*
X335199Y38778D01*
Y40471D01*
X333506Y42164D01*
X335199Y43857D01*
Y45550D01*
X333506Y42164D02*
X330121D01*
X478542Y9442D02*
X488698D01*
Y14520D01*
X487006Y16213D01*
X483620D01*
X481927Y14520D01*
Y9442D01*
Y12828D02*
X478542Y16213D01*
Y19599D02*
Y22984D01*
Y21292D01*
X488698D01*
X487006Y19599D01*
X478542Y28063D02*
Y31448D01*
Y29756D01*
X488698D01*
X487006Y28063D01*
X488698Y43298D02*
X487006Y39912D01*
X483620Y36527D01*
X480234D01*
X478542Y38219D01*
Y41605D01*
X480234Y43298D01*
X481927D01*
X483620Y41605D01*
Y36527D01*
X486313Y534757D02*
X479131Y541939D01*
X475540Y538348D01*
Y535954D01*
X477934Y533560D01*
X480328D01*
X483919Y537151D01*
X481525Y534757D02*
Y529969D01*
X479131Y527575D02*
X476737Y525182D01*
X477934Y526379D01*
X470752Y533560D01*
X473146D01*
X467161Y527575D02*
X464768D01*
X462374Y525182D01*
Y522788D01*
X467161Y518000D01*
X469556D01*
X471949Y520394D01*
Y522788D01*
X467161Y527575D01*
X453995Y516803D02*
X457586Y518000D01*
X462374Y518000D01*
X464768Y515606D01*
Y513212D01*
X462374Y510818D01*
X459980D01*
X458783Y512015D01*
Y514409D01*
X462374Y518000D01*
X363984Y496830D02*
X374140D01*
Y501908D01*
X372448Y503601D01*
X369062D01*
X367369Y501908D01*
Y496830D01*
Y500215D02*
X363984Y503601D01*
Y506986D02*
Y510372D01*
Y508679D01*
X374140D01*
X372448Y506986D01*
Y515450D02*
X374140Y517143D01*
Y520529D01*
X372448Y522221D01*
X365676D01*
X363984Y520529D01*
Y517143D01*
X365676Y515450D01*
X372448D01*
Y525607D02*
X374140Y527300D01*
Y530686D01*
X372448Y532378D01*
X365676D01*
X363984Y530686D01*
Y527300D01*
X365676Y525607D01*
X372448D01*
X515716Y520845D02*
Y510688D01*
X520794D01*
X522487Y512381D01*
Y515766D01*
X520794Y517459D01*
X515716D01*
X519101D02*
X522487Y520845D01*
X525872D02*
X529258D01*
X527565D01*
Y510688D01*
X525872Y512381D01*
X534336D02*
X536029Y510688D01*
X539415D01*
X541108Y512381D01*
Y519152D01*
X539415Y520845D01*
X536029D01*
X534336Y519152D01*
Y512381D01*
X544493D02*
X546186Y510688D01*
X549571D01*
X551264Y512381D01*
Y514073D01*
X549571Y515766D01*
X547879D01*
X549571D01*
X551264Y517459D01*
Y519152D01*
X549571Y520845D01*
X546186D01*
X544493Y519152D01*
X471628Y104553D02*
Y114710D01*
X466549D01*
X464856Y113017D01*
Y109631D01*
X466549Y107938D01*
X471628D01*
X468242D02*
X464856Y104553D01*
X461471D02*
X458085D01*
X459778D01*
Y114710D01*
X461471Y113017D01*
X453007D02*
X451314Y114710D01*
X447929D01*
X446236Y113017D01*
Y106246D01*
X447929Y104553D01*
X451314D01*
X453007Y106246D01*
Y113017D01*
X442850Y106246D02*
X441157Y104553D01*
X437772D01*
X436079Y106246D01*
Y113017D01*
X437772Y114710D01*
X441157D01*
X442850Y113017D01*
Y111324D01*
X441157Y109631D01*
X436079D01*
X372194Y463469D02*
X373886Y461776D01*
Y458391D01*
X372194Y456698D01*
X365422D01*
X363730Y458391D01*
Y461776D01*
X365422Y463469D01*
X363730Y466854D02*
Y470240D01*
Y468547D01*
X373886D01*
X372194Y466854D01*
Y475318D02*
X373886Y477011D01*
Y480397D01*
X372194Y482090D01*
X365422D01*
X363730Y480397D01*
Y477011D01*
X365422Y475318D01*
X372194D01*
Y485475D02*
X373886Y487168D01*
Y490554D01*
X372194Y492246D01*
X365422D01*
X363730Y490554D01*
Y487168D01*
X365422Y485475D01*
X372194D01*
X503155Y509162D02*
X501463Y510855D01*
Y514240D01*
X503155Y515933D01*
X509926D01*
X511619Y514240D01*
Y510855D01*
X509926Y509162D01*
X511619Y505776D02*
Y502391D01*
Y504084D01*
X501463D01*
X503155Y505776D01*
Y497312D02*
X501463Y495620D01*
Y492234D01*
X503155Y490541D01*
X509926D01*
X511619Y492234D01*
Y495620D01*
X509926Y497312D01*
X503155D01*
X501463Y480385D02*
X503155Y483770D01*
X506541Y487156D01*
X509926D01*
X511619Y485463D01*
Y482077D01*
X509926Y480385D01*
X508234D01*
X506541Y482077D01*
Y487156D01*
X568875Y512542D02*
X567182Y510849D01*
X563797D01*
X562104Y512542D01*
Y519313D01*
X563797Y521006D01*
X567182D01*
X568875Y519313D01*
X572261Y521006D02*
X575646D01*
X573953D01*
Y510849D01*
X572261Y512542D01*
X580724D02*
X582417Y510849D01*
X585803D01*
X587495Y512542D01*
Y519313D01*
X585803Y521006D01*
X582417D01*
X580724Y519313D01*
Y512542D01*
X590881D02*
X592574Y510849D01*
X595960D01*
X597652Y512542D01*
Y514235D01*
X595960Y515928D01*
X594267D01*
X595960D01*
X597652Y517621D01*
Y519313D01*
X595960Y521006D01*
X592574D01*
X590881Y519313D01*
X446106Y39454D02*
X447799Y41146D01*
X451184D01*
X452877Y39454D01*
Y32682D01*
X451184Y30990D01*
X447799D01*
X446106Y32682D01*
X442720Y30990D02*
X439335D01*
X441028D01*
Y41146D01*
X442720Y39454D01*
X434256Y30990D02*
X430871D01*
X432564D01*
Y41146D01*
X434256Y39454D01*
X425793Y30990D02*
X422407D01*
X424100D01*
Y41146D01*
X425793Y39454D01*
X472567Y81958D02*
X470874Y80266D01*
X467489D01*
X465796Y81958D01*
Y88730D01*
X467489Y90422D01*
X470874D01*
X472567Y88730D01*
X475952Y90422D02*
X479338D01*
X477645D01*
Y80266D01*
X475952Y81958D01*
X484416D02*
X486109Y80266D01*
X489495D01*
X491188Y81958D01*
Y88730D01*
X489495Y90422D01*
X486109D01*
X484416Y88730D01*
Y81958D01*
X494573Y88730D02*
X496266Y90422D01*
X499651D01*
X501344Y88730D01*
Y81958D01*
X499651Y80266D01*
X496266D01*
X494573Y81958D01*
Y83651D01*
X496266Y85344D01*
X501344D01*
X775181Y22299D02*
X766717D01*
X765024Y23992D01*
Y27377D01*
X766717Y29070D01*
X775181D01*
X765024Y32456D02*
Y35841D01*
Y34148D01*
X775181D01*
X773488Y32456D01*
Y40919D02*
X775181Y42612D01*
Y45998D01*
X773488Y47691D01*
X766717D01*
X765024Y45998D01*
Y42612D01*
X766717Y40919D01*
X773488D01*
X765024Y51076D02*
Y54462D01*
Y52769D01*
X775181D01*
X773488Y51076D01*
D30*
X509500Y205497D02*
Y423497D01*
Y422997D02*
X542500Y390497D01*
X509500Y422497D02*
Y423497D01*
Y416497D02*
Y423497D01*
X509000Y422997D02*
X509500D01*
X473500Y387497D02*
X509000Y422997D01*
X380500Y201497D02*
Y419497D01*
Y418997D02*
X413500Y386497D01*
X380500Y418497D02*
Y419497D01*
Y412497D02*
Y419497D01*
X380000Y418997D02*
X380500D01*
X344500Y383497D02*
X380000Y418997D01*
X251500Y199497D02*
Y417497D01*
Y416997D02*
X284500Y384497D01*
X251500Y416497D02*
Y417497D01*
Y410497D02*
Y417497D01*
X251000Y416997D02*
X251500D01*
X215500Y381497D02*
X251000Y416997D01*
M02*
