M48
;Layer_Color=9474304
;FILE_FORMAT=4:2
METRIC,TZ
;TYPE=PLATED
T01F00S00C0.30
T02F00S00C0.60
T03F00S00C0.99
T04F00S00C1.10
%
T01
X203Y178
X356
X508
X660
X813
X965
X1118
X1270
X1422
X1575
X1727
X1880
X2032
X1956Y330
X1803
X1651
X1499
X1346
X1194
X1041
X889
X737
X584
X432
X279
X356Y483
X508
X660
X813
X965
X1118
X1270
X1422
X1575
X1727
X1880
X2032
X1803Y635
X1651
X1499
X1346
X1194
X1041
X889
X737
X584
X432
X279
X356Y787
X508
X660
X813
X965
X1118
X1270
X1422
X1575
X1727
X1803Y940
X1956
X2108
X2261
X2184Y1092
X2032
X1880
X1727
X1575
X1422
X1270
X1118
X965
X813
X660
X508
X356
X203
X279Y1245
X432
X584
X737
X889
X1041
X1118Y1397
X965
X813
X660
X508
X356
X203
X279Y1549
X432
X584
X737
X889
X1041
X1118Y1702
X1270
X1422
X1575
X1727
X1880
X2032
X2184
X2337
X2489
X2642
X2718Y1854
X2565
X2413
X2261
X2108
X1956
X1803
X1651
X1499
X1346
X1194
X1041
X889
X737
X584
X432
X279
X356Y2007
X508
X660
X813
X965
X1118
X1270
X1422
X1575
X1727
X1880
X2032
X2184
X2337
X2489
X2642
X2794
X2718Y2159
X2565
X2413
X2261
X2108
X1956
X1803
X1651
X1499
X1346
X1194
X1041
X889
X737
X584
X432
X279
X356Y2311
X508
X660
X813
X965
X1118
X1270
X1422
X1575
X1727
X1880
X2032
X2184
X2337
X2489
X2642
X2794
X2718Y2464
X2565
X2413
X2261
X2108
X1956
X1803
X1651
X1499
X1346
X1194
X1041
X889
X737
X584
X432
X279
X356Y2616
X508
X660
X813
X965
X1118
X1270
X1422
X1575
X1727
X1880
X2032
X2184
X2337
X2489
X2642
X2794
X2718Y2769
X2565
X2413
X2261
X2108
X1956
X1803
X1651
X1499
X1346
X1194
X1041
X889
X737
X584
X432
X279
X356Y2921
X508
X660
X813
X965
X1118
X1270
X1422
X1575
X1727
X1880
X2032
X2184
X2337
X2489
X2642
X2794
X2718Y3073
X2565
X2413
X2261
X2108
X1956
X1803
X1651
X1499
X1346
X1194
X1041
X889
X737
X584
X432
X279
X356Y3226
X508
X660
X813
X965
X1118
X1270
X1422
X1575
X1727
X1880
X2032
X2184
X2337
X2489
X2642
X2794
X2718Y3378
X2565
X2413
X2261
X2108
X1956
X1803
X1651
X1499
X1346
X1194
X1041
X889
X737
X584
X432
X279
X356Y3531
X508
X660
X813
X965
X1118
X1270
X1422
X1575
X1727
X1880
X2032
X2184
X2337
X2489
X2642
X2794
X2718Y3683
X2565
X2413
X2261
X2108
X1956
X1803
X1651
X1499
X1346
X1194
X1041
X889
X737
X584
X432
X279
X203Y3531
Y3226
Y2921
Y2616
Y2311
Y2007
Y1702
X356
X508
X660
X813
X965
X1041Y940
X1194
X1346
X1499
X1651
X1727Y1397
X2184
X2489
X2642Y1092
X2794
X2718Y940
X889
X737
X584
X432
X279
X203Y787
Y483
X2870Y940
X3023
X3175
X3251Y1092
X3099
X2946
Y1397
X3251
X3327Y1549
X3404Y1702
X3556
X3708
X3861
X4013
X4166
X4089Y1854
X3937
X3785
X3632
X3480
X3327
X3175
X3251Y1702
X3099
X2946
Y2007
X3023Y2159
X2870
X2946Y2311
X3023Y2464
X2870
X2946Y2616
X3023Y2769
X2870
X2946Y2921
X3099
X3251
X3404
X3556
X3708
X3861
X4013
X4166
X4089Y3073
X3937
X3785
X3632
X3480
X3327
X3175
X3023
X2870
X2946Y3226
X3099
X3251
X3404
X3556
X3708
X3861
X4013
X4166
X4089Y3378
X3937
X3785
X3632
X3480
X3327
X3175
X3023
X2870
X2946Y3531
X3099
X3251
X3404
X3556
X3708
X3861
X4013
X4166
X4318
X4089Y3683
X3937
X3785
X3632
X3480
X3327
X3175
X3023
X2870
X4699
X4905Y3594
X5004Y3683
X5156
X5385Y3531
X5461Y3378
X5766
X5918
X6071
X6147Y3531
X5994
X5842
X5690
X5766Y3683
X5918
X6071
X6375
X6528
X6680
X6756Y3531
X6604
X6452
X6528Y3378
X6680
X6756Y3226
X6604
X6452
X6528Y3073
X6680
X6756Y2921
X6604
X6452
X6528Y2769
X6680
X6756Y2616
X6604
X6452
X6528Y2464
X6680
X6756Y2311
X6528Y2159
X6604Y2007
X6147
X6071Y2159
X5766
X5613
X5461
X5537Y2311
X5690
X5842
X5766Y2464
X5613
X5461
X5537Y2616
X5690
X5812Y2621
X5918Y2769
Y3073
X6071
X6147Y3226
X5994
X5842
X5613Y3073
X5385Y2921
X5461Y2769
X5385Y2616
Y2311
Y2007
X5537
X5690
X5842
X5918Y1854
X5766
X5613
X5461
X5537Y1702
X5690
X5842
X5994
Y1397
X6299
X6147Y1092
X5994
X6071Y940
X6223
X6375
X6528
X6680
Y635
X6528
X6375
X6223
X6071
X6147Y483
X6299
X6452
X6604
X6756
X6680Y330
X6528
X6375
X6223
X6071
X5918
X5994Y483
Y178
X6147
X6299
X6452
X6604
X6756
X5842
X5690
X5537
X5385
X4928
X4318
X4166
X4013
X3861
X4242Y330
X4394
X4318Y1092
X4166
X4013
X3861
X3708
X3556
X3632Y940
X3556Y787
X4775Y1092
X4928
X5232
X5385
X5537
X5690
X5766Y940
X5613
X5461
X5309
X5156
X5232Y787
X5385
X5537
X5690
X5461Y635
X5309
X5537Y1397
X5385Y1702
X5156Y1854
Y2159
Y2464
Y2769
Y3073
X6147Y2921
X6375Y3073
Y3378
Y2769
X4623Y1702
X6909
X7061
X7214
X7366
X7518
X7671
X7823
X7899Y1854
X7747
X7595
X7442
X7290
X7137
X6985
X7061Y2007
X7214
X7366
X7518
X7671
X7823
X7976
X8128
X8204Y2159
X8052
X7899
X7747
X7595
X7442
X7290
X7137
X6985
X6833
X6909Y2311
X7061
X7214
X7366
X7518
X7671
X7823
X7976
X8128
X8280
X8433
X8509Y2464
X8357
X8204
X8052
X7899
X7747
X7595
X7442
X7290
X7137
X6985
X6833
X6909Y2616
X7061
X7214
X7366
X7518
X7671
X7823
X7976
X8128
X8280
X8433
X8509Y2769
X8357
X8204
X8052
X7899
X7747
X7595
X7442
X7290
X7137
X6985
X6833
X6909Y2921
X7061
X7214
X7366
X7518
X7671
X7823
X7976
X8128
X8280
X8433
X8585
X8738
X8890
X8814Y3073
X8661
X8509
X8357
X8204
X8052
X7899
X7747
X7595
X7442
X7290
X7137
X6985
X6833
X6909Y3226
X7061
X7214
X7366
X7518
X7671
X7823
X7976
X8128
X8280
X8433
X8585
X8738
X8890
X8966Y3378
X8814
X8661
X8509
X8357
X8204
X8052
X7899
X7747
X7595
X7442
X7290
X7137
X6985
X6833
X6909Y3531
X7061
X7214
X7366
X7518
X7671
X7823
X7976
X8128
X8280
X8433
X8585
X8738
X8890
X8966Y3683
X8814
X8661
X8509
X8357
X8204
X8052
X7899
X7747
X7595
X7442
X7290
X7137
X6985
X6833
X6909Y2007
X7442Y1549
X7595
X8052
X8204
X8357
X8509
X8661
X8738Y1702
X8585
X8433
X8280
X8128
X8357Y1854
X8509
X8661
X8738Y2007
X8585
X8433
X8661Y2159
X8738Y2311
X8814Y2464
X8966
X9271
X9195Y2311
X9119Y2159
X8966
X9042Y2007
X9195
X9271Y1854
X9423
X9576
X9728
X9881
X9804Y1702
X9652
X9500
X9347
X9195
X9042
X9119Y1854
X8966
Y1549
X9119
X9271
X9423
X9576
X9728
X9881
X9652Y1397
Y1092
X9804
X9500
X9347
X9195
X9042
X8890
X8966Y940
X9119
X9271
Y1245
X9119
X9042Y1413
X8585Y1092
X8433
X8280
X8128
X7976
X7823
X7671
X7518
X7595Y940
X7747
X7899
X8052
X8204
X8357
X8509
X8661
Y635
X8814
X8966
X9119
X9271
X9423
X9576
X9728
X9881
X9804Y483
X9652
X9500
X9347
X9195
X9042
X8890
X8738
X8585
X8433
X8280
X8128
X7976
X7823
X7671
X7518
X7366
X7214
X7061
X6909
X6985Y635
X7137
X7290
X7442
X7595
X7747
X7899
X8052
X8204
X8357
X8509
Y330
X8661
X8814
X8966
X9119
X9271
X9423
X9576
X9728
X9881
X9804Y178
X9652
X9500
X9347
X9195
X9042
X8890
X8738
X8585
X8433
X8280
X8128
X7976
X7823
X7671
X7518
X7366
X7214
X7061
X6909
X6985Y330
X7137
X7290
X7442
X7595
X7747
X7899
X8052
X8204
X8357
X7899Y1245
X7747
X7442Y940
X7290
X7137
X6985
X6833
Y635
Y330
X9652Y787
Y2007
X9728Y2159
X9576
X9652Y2311
X9804
X9881Y2464
X9728
X9576
X9652Y2616
X9500
X9576Y2769
X9652Y2921
X9804
X9881Y3073
X9728
X9576
X9423
X9271
X9347Y2921
X9500
X9195
Y3226
Y3531
X9271Y3683
X9576
X9728
X9881
X9804Y3531
X9652
X9500
X9576Y3378
X9652Y3226
X9500Y2311
Y3835
X9652
X9804
Y4140
X9652
X9500
X9347
X9195
X9271Y4293
X9423
X9576
X9728
X9881
X9804Y4445
X9652
X9500
X9347
X9195
X9119Y4293
X8814
X8661
X8509
X8357
X8204
X8052
X7899
X7747
X7595
X7671Y4445
X7823
X7976
X8128
X8280
X8433
X8585
X8738
X8890
X8966Y4597
X8814
X8661
X8509
X8357
X8204
X8052
X7899
X7747
X7595
X7442
X7290
X7366Y4750
X7518
X7671
X7823
X7976
X8128
X8280
X8433
X8585
X8738
X8890
X8966Y4902
X8814
X8661
X8509
X8357
X8204
X8052
X7899
X7747
X7595
X7442
X7290
X7366Y5055
X7518
X7671
X7823
X7976
X8128
X8280
X8433
X8585
X8738
X8890
X9271Y4902
X9195Y4750
X9652
X9804
X9881Y4902
X9728
X9576
X9652Y5055
X9804
X9500
X9576Y5207
X9652Y5359
X9500
X9576Y5512
X9728
X9881
X9804Y5664
X9652
X9500
X9347
X9195
X9042
X8890
X8738
X8585
X8433
X8280
X8128
X7976
X7823
X7671
X7518
X7595Y5817
X7747
X7899
X8052
X8204
X8357
X8509
X8661
X8814
X8966
X9119
X9271
X9423
X9576
X9728
X9881
X9804Y5969
X9652
X9500
X9347
X9195
X9042
X8890
X8738
X8585
X8433
X8280
X8128
X7976
X7823
X7671
X7518
X7366
X7442Y6121
X7595
X7747
X7899
X8052
X8204
X8357
X8509
X8661
X8814
X8966
X9119
X9271
X9423
X9576
X9728
X9881
X9804Y6274
X9652
X9500
X9347
X9195
X9042
X8890
X8738
X8585
X8433
X8280
X8128
X7976
X7823
X7671
X7518
X7366
X7442Y6426
X7595
X7747
X7899
X8052
X8204
X8357
X8509
X8661
X8814
X8966
X9119
X9271
X9423
X9576
X9728
X9881
X9804Y6579
X9652
X9500
X9347
X9195
X9042
X8890
X8738
X8585
X8433
X8280
X8128
X7976
X7823
X7671
X7518
X7366
X7214
X7290Y6731
X7442
X7595
X7747
X7899
X8052
X8204
X8357
X8509
X8661
X8814
X8966
X9119
X9271
X9423
X9576
X9728
X9881
X9804Y6883
X9652
X9500
X9347
X9195
X9042
X8890
X8738
X8585
X8433
X8280
X8128
X7976
X7823
X7671
X7518
X7366
X7214
X7290Y7036
X7442
X7595
X7747
X7899
X8052
X8204
X8357
X8509
X8661
X8814
X8966
X9119
X9271
X9423
X9576
X9728
X9881
X9423Y5512
X9271
X9119
X8966
X8814
X8661
X8509
X8357
X8204
X8052
X7899
X7747
X7518Y5359
X7366
X7214
X7290Y5512
X7214Y5664
X6909
X6833Y5512
X6909Y5359
X6833Y5207
X6909Y5055
X6833Y4902
X6909Y4750
X6833Y4597
X6909Y4445
X7061
X7137Y4293
X6985
X6833
X6909Y4140
X7061
X7214
X7366
X7442Y3988
X7290
X7137
X6985
X6833
X6909Y3835
X7061
X7214
X7366
X7518
X7671
X7823
X7976
X8128
X8280
X8433
X8585
X8738
Y4140
X8890
X8585
X8433
X8280
X8128
X7976
X7823
X7671
X7518Y4445
X7366
X7214Y4750
Y5055
X7290Y5207
X7442
X7595
X7442Y5817
X7290Y6426
X7137Y6731
Y7036
X9576Y4597
Y3988
X6680
X6528
X6375
X6452Y4140
X6604
X6756
X6680Y4293
X6756Y4445
X6604
X6680Y4597
X6756Y4750
X6604
X6680Y4902
X6756Y5055
Y5359
X6452
X6299
X6147
X6223Y5512
X6375
Y5207
X6452Y5055
X6147
X5994
X6071Y4902
X5994Y4750
X5842
X5918Y4597
X6071
X5994Y4445
X6071Y4293
X5918
X5994Y4140
X6147
X6071Y3988
X5918
X5994Y3835
X6147
X6452
X6604
X6756
X5080
X4928
X4775
X4623
X4547Y3988
X4394
X4318Y4140
X4089Y4293
X4013Y4445
X3785Y4597
X3708Y4750
X3785Y4902
X3632
X3708Y5055
X3785Y5207
X3861Y5359
X4013
X3937Y5512
X4013Y5969
Y6274
X4166
X3861
X3708
X3785Y6426
X3937
X4013Y6579
X3861
X3937Y6731
X3785
X3861Y6883
X4013
X4166
X4242Y7036
X4089
X3937
X3785
X3632
X3480
X3327
X3175
X3404Y6883
X3556
X3708
X3480Y6731
X3404Y6579
X3251Y5969
X2946
X2870Y6121
Y5817
X3099Y5664
X3404
X3708Y5969
X4470
Y5664
X5004Y5207
X5080Y5055
X5156Y4902
X5004
X5080Y4750
X4928
X5004Y4597
X5156
X5080Y4445
X4928
X5004Y4293
X5156
X5080Y4140
X4928
X5004Y3988
X5156
X4851
Y4293
Y4597
X5385Y4750
X5461Y4902
X5766
X5690Y5055
X5766Y5207
X6071Y5512
X6299Y5969
Y6274
X6452
X6604
X6756
X6147
X5918Y6426
X5766
X5613
X5690Y6579
X5842
X5994
X6071Y6731
X5918
X5766
X5613
X5461
X5537Y6883
X5690
X5842
X5994
X6147
X6223Y7036
X6071
X5918
X5766
X5613
X5461
X5385Y6883
Y6579
X5537
X5232Y5969
X4242Y6731
X4013Y3835
X3861
X3708
X3556
X3404
X3251
X3099
X2946
X3023Y3988
X3175
X3327
X3480
X3632
X3785
X3708Y4140
X3556
X3404
X3251
X3099
X2946
X3023Y4293
X3175
X3327
X3480
X3404Y4445
X3251
X3099
X2946
X2870Y4293
Y3988
X2718
X2565
X2413
X2261
X2108
X1956
X1803
X1651
X1499
X1346
X1194
X1041
X889
X737
X584
X432
X279
X356Y4140
X508
X660
X813
X965
X1118
X1270
X1422
X1575
X1727
X1880
X2032
X2184
X2337
X2489
X2642
X2794
X2718Y4293
X2565
X2413
X2261
X2108
X1956
X1803
X1651
X1499
X1346
X1194
X1041
X889
X737
X584
X432
X279
X356Y4445
X508
X660
X813
X965
X1118
X1270
X1422
X1575
X1727
X1880
X2032
X2184
X2337
X2489
X2642
X2794
Y3835
X2642
X2489
X2337
X2184
X2032
X1880
X1727
X1575
X1422
X1270
X1118
X965
X813
X660
X508
X356
X203
Y4140
Y4445
X279Y4597
X432
X584
X737
X889
X1041
X1194
X1346
X1499
X1651
X1803
X1956
X2108
X2184Y4750
X2032
X1880
X1727
X1575
X1422
X1270
X1118
X965
X813
X660
X508
X356
X203
X279Y4902
X432
X584
X737
X889
X1041
X1194
X1346
X1499
X1651
X1803
X1956
X2108
X2184Y5055
X2032
X1880
X1727
X1575
X1422
X1270
X1118
X965
X813
X660
X508
X356
X203
X279Y5207
X432
X584
X737
X889
X1041
X1194
X1346
X1499
X1651
X1803
X1956
X1880Y5359
X1727
X1575
X1422
X1270
X1118
X965
X813
X660
X508
X356
X203
X279Y5512
X432
X584
X737
X889
X1041
X1194
X1346
X1499
X1651
X1727Y5664
X1880
X1575
X1422
X1270
X1118
X965
X813
X660
X508
X356
X203
Y5969
Y6274
X356
X508
X660
X813
X965
X1118
X1270
X1422
X1575
X1727
X1880
X2032
X2108Y6426
X1956
X1803
X1651
X1499
X1346
X1194
X1041
X889
X737
X584
X432
X279
X356Y6579
X508
X660
X813
X965
X1118
X1270
X1422
X1575
X1727
X1880
X2032
X2108Y6731
X1956
X1803
X1651
X1499
X1346
X1194
X1041
X889
X737
X584
X432
X279
X356Y6883
X508
X660
X813
X965
X1118
X1270
X1422
X1575
X1727
X1880
X2032
X2108Y7036
X1956
X1803
X1651
X1499
X1346
X1194
X1041
X889
X737
X584
X432
X279
X203Y6883
Y6579
X813Y5969
X1270
X1575
X2337
Y5664
X2642
X2794
Y5969
X2184Y5359
T02
X8664Y2718
T03
X9384Y2078
X9834
Y2728
X9384
Y3348
X9834
Y3998
X9384
X9384Y4617
X9834
Y5267
X9384
T04
X1332Y1267
Y1521
X1586
X1840
X2094
X2348
X2602
Y1267
X2348
X2094
X1840
X1586
X1962Y695
X2216
X2470
X2724
X2978
X3232
X3745
X3999
X4253
X4507
X4761
X5015
X4888Y1267
X4634
X4380
X4126
X3872
X3618
Y1521
X3872
X4126
X4380
X4634
X4888
X5142
Y1267
X5396
X5650
X5904
X6158
X6412
X6666
Y1521
X6412
X6158
X5904
X5650
X5396
X3110Y1521
X2856
Y1267
X3110
X6920Y1267
X7174
Y1521
X6920
X6920Y5839
X7174
Y6093
X6920
X6666
Y5839
X6412
X6158
X5904
X5650
X5396
X5142
X4888
X4634
X4380
X4126
X3872
X3618
X3364
X3110
Y6093
X3364
X3618
X3872
X4126
X4380
X4634
X4888
X5142
X5396
X5650
X5904
X6158
X6412
X5912Y5527
X5658
X5404
X5150
X4896
X4642
X4388
X4134
X3721
X3467
X3213
X2959
X2705
X2451
X2197
X1943
X1942Y5839
X1688
X1434
X1180
X926
X672
X418
Y6093
X672
X926
X1180
X1434
X1688
X1942
X2196
Y5839
X2450
X2704
Y6093
X2450
M30
