G04*
G04 #@! TF.GenerationSoftware,Altium Limited,Altium Designer,23.10.1 (27)*
G04*
G04 Layer_Physical_Order=2*
G04 Layer_Color=16711680*
%FSLAX44Y44*%
%MOMM*%
G71*
G04*
G04 #@! TF.SameCoordinates,671930CB-C111-41D6-978D-B382350784AC*
G04*
G04*
G04 #@! TF.FilePolarity,Positive*
G04*
G01*
G75*
%ADD22C,0.3000*%
%ADD23R,0.7000X0.6000*%
G04:AMPARAMS|DCode=27|XSize=0.7mm|YSize=0.6mm|CornerRadius=0mm|HoleSize=0mm|Usage=FLASHONLY|Rotation=135.000|XOffset=0mm|YOffset=0mm|HoleType=Round|Shape=Rectangle|*
%AMROTATEDRECTD27*
4,1,4,0.4596,-0.0354,0.0354,-0.4596,-0.4596,0.0354,-0.0354,0.4596,0.4596,-0.0354,0.0*
%
%ADD27ROTATEDRECTD27*%

%ADD28R,0.6000X0.7000*%
%ADD33C,0.5080*%
G04:AMPARAMS|DCode=34|XSize=1.65mm|YSize=1.65mm|CornerRadius=0.4125mm|HoleSize=0mm|Usage=FLASHONLY|Rotation=180.000|XOffset=0mm|YOffset=0mm|HoleType=Round|Shape=RoundedRectangle|*
%AMROUNDEDRECTD34*
21,1,1.6500,0.8250,0,0,180.0*
21,1,0.8250,1.6500,0,0,180.0*
1,1,0.8250,-0.4125,0.4125*
1,1,0.8250,0.4125,0.4125*
1,1,0.8250,0.4125,-0.4125*
1,1,0.8250,-0.4125,-0.4125*
%
%ADD34ROUNDEDRECTD34*%
%ADD35C,1.6500*%
%ADD36R,1.5000X1.5000*%
%ADD37C,1.5000*%
%ADD38C,0.6350*%
%ADD39C,0.8040*%
%ADD40C,1.3000*%
G36*
X997801Y2197D02*
X2197D01*
Y714083D01*
X997801D01*
X997801Y2197D01*
D02*
G37*
%LPC*%
G36*
X717418Y619134D02*
X714867Y618798D01*
X712491Y617814D01*
X710450Y616248D01*
X708884Y614207D01*
X707899Y611830D01*
X707564Y609280D01*
X707899Y606729D01*
X708884Y604353D01*
X710450Y602312D01*
X712491Y600746D01*
X714867Y599761D01*
X717418Y599426D01*
X719968Y599761D01*
X722345Y600746D01*
X724386Y602312D01*
X725952Y604353D01*
X726936Y606729D01*
X727272Y609280D01*
X726936Y611830D01*
X725952Y614207D01*
X724386Y616248D01*
X722345Y617814D01*
X719968Y618798D01*
X717418Y619134D01*
D02*
G37*
G36*
X692018D02*
X689467Y618798D01*
X687091Y617814D01*
X685050Y616248D01*
X683484Y614207D01*
X682499Y611830D01*
X682164Y609280D01*
X682499Y606729D01*
X683484Y604353D01*
X685050Y602312D01*
X687091Y600746D01*
X689467Y599761D01*
X692018Y599426D01*
X694568Y599761D01*
X696945Y600746D01*
X698986Y602312D01*
X700552Y604353D01*
X701536Y606729D01*
X701872Y609280D01*
X701536Y611830D01*
X700552Y614207D01*
X698986Y616248D01*
X696945Y617814D01*
X694568Y618798D01*
X692018Y619134D01*
D02*
G37*
G36*
X666618D02*
X664067Y618798D01*
X661691Y617814D01*
X659650Y616248D01*
X658084Y614207D01*
X657099Y611830D01*
X656764Y609280D01*
X657099Y606729D01*
X658084Y604353D01*
X659650Y602312D01*
X661691Y600746D01*
X664067Y599761D01*
X666618Y599426D01*
X669168Y599761D01*
X671545Y600746D01*
X673586Y602312D01*
X675152Y604353D01*
X676136Y606729D01*
X676472Y609280D01*
X676136Y611830D01*
X675152Y614207D01*
X673586Y616248D01*
X671545Y617814D01*
X669168Y618798D01*
X666618Y619134D01*
D02*
G37*
G36*
X641218D02*
X638667Y618798D01*
X636291Y617814D01*
X634250Y616248D01*
X632684Y614207D01*
X631699Y611830D01*
X631364Y609280D01*
X631699Y606729D01*
X632684Y604353D01*
X634250Y602312D01*
X636291Y600746D01*
X638667Y599761D01*
X641218Y599426D01*
X643768Y599761D01*
X646145Y600746D01*
X648186Y602312D01*
X649752Y604353D01*
X650736Y606729D01*
X651072Y609280D01*
X650736Y611830D01*
X649752Y614207D01*
X648186Y616248D01*
X646145Y617814D01*
X643768Y618798D01*
X641218Y619134D01*
D02*
G37*
G36*
X615818D02*
X613267Y618798D01*
X610891Y617814D01*
X608850Y616248D01*
X607284Y614207D01*
X606299Y611830D01*
X605964Y609280D01*
X606299Y606729D01*
X607284Y604353D01*
X608850Y602312D01*
X610891Y600746D01*
X613267Y599761D01*
X615818Y599426D01*
X618368Y599761D01*
X620745Y600746D01*
X622786Y602312D01*
X624352Y604353D01*
X625336Y606729D01*
X625672Y609280D01*
X625336Y611830D01*
X624352Y614207D01*
X622786Y616248D01*
X620745Y617814D01*
X618368Y618798D01*
X615818Y619134D01*
D02*
G37*
G36*
X590418D02*
X587867Y618798D01*
X585491Y617814D01*
X583450Y616248D01*
X581884Y614207D01*
X580899Y611830D01*
X580564Y609280D01*
X580899Y606729D01*
X581884Y604353D01*
X583450Y602312D01*
X585491Y600746D01*
X587867Y599761D01*
X590418Y599426D01*
X592968Y599761D01*
X595345Y600746D01*
X597386Y602312D01*
X598952Y604353D01*
X599936Y606729D01*
X600272Y609280D01*
X599936Y611830D01*
X598952Y614207D01*
X597386Y616248D01*
X595345Y617814D01*
X592968Y618798D01*
X590418Y619134D01*
D02*
G37*
G36*
X539618D02*
X537067Y618798D01*
X534691Y617814D01*
X532650Y616248D01*
X531084Y614207D01*
X530099Y611830D01*
X529764Y609280D01*
X530099Y606729D01*
X531084Y604353D01*
X532650Y602312D01*
X534691Y600746D01*
X537067Y599761D01*
X539618Y599426D01*
X542168Y599761D01*
X544545Y600746D01*
X546586Y602312D01*
X548152Y604353D01*
X549136Y606729D01*
X549472Y609280D01*
X549136Y611830D01*
X548152Y614207D01*
X546586Y616248D01*
X544545Y617814D01*
X542168Y618798D01*
X539618Y619134D01*
D02*
G37*
G36*
X514218D02*
X511667Y618798D01*
X509291Y617814D01*
X507250Y616248D01*
X505684Y614207D01*
X504699Y611830D01*
X504364Y609280D01*
X504699Y606729D01*
X505684Y604353D01*
X507250Y602312D01*
X509291Y600746D01*
X511667Y599761D01*
X514218Y599426D01*
X516768Y599761D01*
X519145Y600746D01*
X521186Y602312D01*
X522752Y604353D01*
X523736Y606729D01*
X524072Y609280D01*
X523736Y611830D01*
X522752Y614207D01*
X521186Y616248D01*
X519145Y617814D01*
X516768Y618798D01*
X514218Y619134D01*
D02*
G37*
G36*
X488818D02*
X486267Y618798D01*
X483891Y617814D01*
X481850Y616248D01*
X480284Y614207D01*
X479299Y611830D01*
X478964Y609280D01*
X479299Y606729D01*
X480284Y604353D01*
X481850Y602312D01*
X483891Y600746D01*
X486267Y599761D01*
X488818Y599426D01*
X491368Y599761D01*
X493745Y600746D01*
X495786Y602312D01*
X497352Y604353D01*
X498336Y606729D01*
X498672Y609280D01*
X498336Y611830D01*
X497352Y614207D01*
X495786Y616248D01*
X493745Y617814D01*
X491368Y618798D01*
X488818Y619134D01*
D02*
G37*
G36*
X463418D02*
X460867Y618798D01*
X458491Y617814D01*
X456450Y616248D01*
X454884Y614207D01*
X453899Y611830D01*
X453564Y609280D01*
X453899Y606729D01*
X454884Y604353D01*
X456450Y602312D01*
X458491Y600746D01*
X460867Y599761D01*
X463418Y599426D01*
X465968Y599761D01*
X468345Y600746D01*
X470386Y602312D01*
X471952Y604353D01*
X472936Y606729D01*
X473272Y609280D01*
X472936Y611830D01*
X471952Y614207D01*
X470386Y616248D01*
X468345Y617814D01*
X465968Y618798D01*
X463418Y619134D01*
D02*
G37*
G36*
X438018D02*
X435467Y618798D01*
X433091Y617814D01*
X431050Y616248D01*
X429484Y614207D01*
X428499Y611830D01*
X428164Y609280D01*
X428499Y606729D01*
X429484Y604353D01*
X431050Y602312D01*
X433091Y600746D01*
X435467Y599761D01*
X438018Y599426D01*
X440568Y599761D01*
X442945Y600746D01*
X444986Y602312D01*
X446552Y604353D01*
X447536Y606729D01*
X447872Y609280D01*
X447536Y611830D01*
X446552Y614207D01*
X444986Y616248D01*
X442945Y617814D01*
X440568Y618798D01*
X438018Y619134D01*
D02*
G37*
G36*
X412618D02*
X410067Y618798D01*
X407691Y617814D01*
X405650Y616248D01*
X404084Y614207D01*
X403099Y611830D01*
X402764Y609280D01*
X403099Y606729D01*
X404084Y604353D01*
X405650Y602312D01*
X407691Y600746D01*
X410067Y599761D01*
X412618Y599426D01*
X415168Y599761D01*
X417545Y600746D01*
X419586Y602312D01*
X421152Y604353D01*
X422136Y606729D01*
X422472Y609280D01*
X422136Y611830D01*
X421152Y614207D01*
X419586Y616248D01*
X417545Y617814D01*
X415168Y618798D01*
X412618Y619134D01*
D02*
G37*
G36*
X387218D02*
X384667Y618798D01*
X382291Y617814D01*
X380250Y616248D01*
X378684Y614207D01*
X377699Y611830D01*
X377364Y609280D01*
X377699Y606729D01*
X378684Y604353D01*
X380250Y602312D01*
X382291Y600746D01*
X384667Y599761D01*
X387218Y599426D01*
X389768Y599761D01*
X392145Y600746D01*
X394186Y602312D01*
X395752Y604353D01*
X396736Y606729D01*
X397072Y609280D01*
X396736Y611830D01*
X395752Y614207D01*
X394186Y616248D01*
X392145Y617814D01*
X389768Y618798D01*
X387218Y619134D01*
D02*
G37*
G36*
X361818D02*
X359267Y618798D01*
X356891Y617814D01*
X354850Y616248D01*
X353284Y614207D01*
X352299Y611830D01*
X351964Y609280D01*
X352299Y606729D01*
X353284Y604353D01*
X354850Y602312D01*
X356891Y600746D01*
X359267Y599761D01*
X361818Y599426D01*
X364368Y599761D01*
X366745Y600746D01*
X368786Y602312D01*
X370352Y604353D01*
X371336Y606729D01*
X371672Y609280D01*
X371336Y611830D01*
X370352Y614207D01*
X368786Y616248D01*
X366745Y617814D01*
X364368Y618798D01*
X361818Y619134D01*
D02*
G37*
G36*
X336418D02*
X333867Y618798D01*
X331491Y617814D01*
X329450Y616248D01*
X327884Y614207D01*
X326899Y611830D01*
X326564Y609280D01*
X326899Y606729D01*
X327884Y604353D01*
X329450Y602312D01*
X331491Y600746D01*
X333867Y599761D01*
X336418Y599426D01*
X338968Y599761D01*
X341345Y600746D01*
X343386Y602312D01*
X344952Y604353D01*
X345936Y606729D01*
X346272Y609280D01*
X345936Y611830D01*
X344952Y614207D01*
X343386Y616248D01*
X341345Y617814D01*
X338968Y618798D01*
X336418Y619134D01*
D02*
G37*
G36*
X311018D02*
X308467Y618798D01*
X306091Y617814D01*
X304050Y616248D01*
X302484Y614207D01*
X301499Y611830D01*
X301164Y609280D01*
X301499Y606729D01*
X302484Y604353D01*
X304050Y602312D01*
X306091Y600746D01*
X308467Y599761D01*
X311018Y599426D01*
X313568Y599761D01*
X315945Y600746D01*
X317986Y602312D01*
X319552Y604353D01*
X320536Y606729D01*
X320872Y609280D01*
X320536Y611830D01*
X319552Y614207D01*
X317986Y616248D01*
X315945Y617814D01*
X313568Y618798D01*
X311018Y619134D01*
D02*
G37*
G36*
X270378Y619134D02*
X267827Y618798D01*
X265451Y617814D01*
X263410Y616248D01*
X261844Y614207D01*
X260859Y611830D01*
X260523Y609280D01*
X260859Y606729D01*
X261844Y604353D01*
X263410Y602312D01*
X265451Y600746D01*
X267827Y599761D01*
X270378Y599426D01*
X272928Y599761D01*
X275305Y600746D01*
X277346Y602312D01*
X278912Y604353D01*
X279896Y606729D01*
X280232Y609280D01*
X279896Y611830D01*
X278912Y614207D01*
X277346Y616248D01*
X275305Y617814D01*
X272928Y618798D01*
X270378Y619134D01*
D02*
G37*
G36*
X244978D02*
X242427Y618798D01*
X240051Y617814D01*
X238010Y616248D01*
X236444Y614207D01*
X235459Y611830D01*
X235124Y609280D01*
X235459Y606729D01*
X236444Y604353D01*
X238010Y602312D01*
X240051Y600746D01*
X242427Y599761D01*
X244978Y599426D01*
X247528Y599761D01*
X249905Y600746D01*
X251946Y602312D01*
X253512Y604353D01*
X254496Y606729D01*
X254832Y609280D01*
X254496Y611830D01*
X253512Y614207D01*
X251946Y616248D01*
X249905Y617814D01*
X247528Y618798D01*
X244978Y619134D01*
D02*
G37*
G36*
X219578D02*
X217027Y618798D01*
X214651Y617814D01*
X212610Y616248D01*
X211044Y614207D01*
X210059Y611830D01*
X209723Y609280D01*
X210059Y606729D01*
X210825Y604881D01*
X204833Y598889D01*
X204165Y597890D01*
X203931Y596712D01*
Y590504D01*
X201931Y589825D01*
X201146Y590848D01*
X199105Y592414D01*
X196728Y593398D01*
X194178Y593734D01*
X191627Y593398D01*
X189251Y592414D01*
X187210Y590848D01*
X185644Y588807D01*
X184659Y586430D01*
X184324Y583880D01*
X184659Y581329D01*
X185644Y578953D01*
X187210Y576912D01*
X189251Y575346D01*
X191627Y574361D01*
X194178Y574026D01*
X196728Y574361D01*
X199105Y575346D01*
X201146Y576912D01*
X201931Y577935D01*
X203931Y577256D01*
Y559480D01*
X201931Y558801D01*
X201268Y559665D01*
X199227Y561231D01*
X196850Y562215D01*
X194300Y562551D01*
X191749Y562215D01*
X189373Y561231D01*
X187332Y559665D01*
X185766Y557624D01*
X184781Y555247D01*
X184446Y552697D01*
X184781Y550146D01*
X185766Y547770D01*
X187332Y545729D01*
X189373Y544163D01*
X191749Y543178D01*
X194300Y542843D01*
X196850Y543178D01*
X199227Y544163D01*
X201268Y545729D01*
X201931Y546593D01*
X203931Y545914D01*
Y527812D01*
X204165Y526634D01*
X204833Y525635D01*
X207013Y523454D01*
X207013Y523454D01*
X212453Y518015D01*
X213452Y517347D01*
X214630Y517113D01*
X224875D01*
X225862Y516515D01*
X226460Y515528D01*
Y459428D01*
X226458D01*
X226701Y457585D01*
X226721Y457536D01*
X227412Y455868D01*
X228544Y454393D01*
X230019Y453261D01*
X231736Y452550D01*
X233579Y452307D01*
X235422Y452550D01*
X237140Y453261D01*
X238615Y454393D01*
X239746Y455868D01*
X240310Y457228D01*
X241370Y457508D01*
X242453Y457417D01*
X242618Y457088D01*
X242861Y455245D01*
X242881Y455196D01*
X243572Y453528D01*
X244704Y452053D01*
X246179Y450921D01*
X247896Y450210D01*
X249739Y449967D01*
X251582Y450210D01*
X253300Y450921D01*
X254774Y452053D01*
X255906Y453528D01*
X256597Y455196D01*
X256618Y455245D01*
X256811Y456712D01*
X258828D01*
X259021Y455245D01*
X259041Y455196D01*
X259732Y453528D01*
X260864Y452053D01*
X262339Y450921D01*
X264056Y450210D01*
X265899Y449967D01*
X267742Y450210D01*
X269460Y450921D01*
X270935Y452053D01*
X272066Y453528D01*
X272757Y455196D01*
X272778Y455245D01*
X272971Y456712D01*
X274988D01*
X275181Y455245D01*
X275201Y455196D01*
X275892Y453528D01*
X277024Y452053D01*
X278499Y450921D01*
X280216Y450210D01*
X282059Y449967D01*
X283902Y450210D01*
X285620Y450921D01*
X287094Y452053D01*
X288226Y453528D01*
X288917Y455196D01*
X288937Y455245D01*
X289131Y456712D01*
X291148D01*
X291341Y455245D01*
X291361Y455196D01*
X292052Y453528D01*
X293184Y452053D01*
X294659Y450921D01*
X296376Y450210D01*
X298219Y449967D01*
X300062Y450210D01*
X301780Y450921D01*
X303255Y452053D01*
X304386Y453528D01*
X305077Y455196D01*
X305098Y455245D01*
X305291Y456712D01*
X307308D01*
X307501Y455245D01*
X307521Y455196D01*
X308212Y453528D01*
X309344Y452053D01*
X310819Y450921D01*
X312536Y450210D01*
X314379Y449967D01*
X316222Y450210D01*
X317940Y450921D01*
X319414Y452053D01*
X320546Y453528D01*
X321237Y455196D01*
X321258Y455245D01*
X321451Y456712D01*
X323468D01*
X323661Y455245D01*
X323681Y455196D01*
X324372Y453528D01*
X325504Y452053D01*
X326979Y450921D01*
X328696Y450210D01*
X330539Y449967D01*
X332382Y450210D01*
X334100Y450921D01*
X335574Y452053D01*
X336706Y453528D01*
X337397Y455196D01*
X337417Y455245D01*
X337660Y457088D01*
X337658D01*
Y515528D01*
X338256Y516515D01*
X339243Y517113D01*
X346516D01*
Y515672D01*
X356556D01*
Y517113D01*
X358140D01*
X359318Y517347D01*
X360317Y518015D01*
X372777Y530475D01*
X373445Y531474D01*
X373679Y532652D01*
Y542816D01*
X376225D01*
X378428Y543255D01*
X380295Y544502D01*
X381543Y546369D01*
X381981Y548572D01*
Y556822D01*
X381543Y559025D01*
X380295Y560892D01*
X378428Y562140D01*
X376225Y562578D01*
X367975D01*
X365772Y562140D01*
X363905Y560892D01*
X362658Y559025D01*
X362219Y556822D01*
Y548572D01*
X362658Y546369D01*
X363905Y544502D01*
X365772Y543255D01*
X367521Y542907D01*
Y533927D01*
X358483Y524889D01*
X356556Y524712D01*
Y524712D01*
X346516D01*
Y523271D01*
X338619D01*
Y523273D01*
X336776Y523030D01*
X336727Y523010D01*
X335059Y522319D01*
X333584Y521187D01*
X332452Y519712D01*
X331761Y518044D01*
X331741Y517995D01*
X331578Y516760D01*
X329578Y516891D01*
Y529868D01*
X329580D01*
X329338Y531711D01*
X329317Y531760D01*
X328626Y533428D01*
X327494Y534903D01*
X326020Y536035D01*
X324302Y536746D01*
X322459Y536989D01*
X320616Y536746D01*
X318899Y536035D01*
X317424Y534903D01*
X316292Y533428D01*
X315601Y531760D01*
X315581Y531711D01*
X315388Y530244D01*
X313371D01*
X313178Y531711D01*
X313157Y531760D01*
X312466Y533428D01*
X311334Y534903D01*
X309860Y536035D01*
X308142Y536746D01*
X306299Y536989D01*
X304456Y536746D01*
X302739Y536035D01*
X301264Y534903D01*
X300132Y533428D01*
X299441Y531760D01*
X299421Y531711D01*
X299228Y530244D01*
X297211D01*
X297017Y531711D01*
X296997Y531760D01*
X296306Y533428D01*
X295175Y534903D01*
X293700Y536035D01*
X291982Y536746D01*
X290139Y536989D01*
X288296Y536746D01*
X286579Y536035D01*
X285104Y534903D01*
X283972Y533428D01*
X283281Y531760D01*
X283261Y531711D01*
X283068Y530244D01*
X281051D01*
X280858Y531711D01*
X280837Y531760D01*
X280146Y533428D01*
X279014Y534903D01*
X277540Y536035D01*
X275822Y536746D01*
X273979Y536989D01*
X272136Y536746D01*
X270419Y536035D01*
X268944Y534903D01*
X267812Y533428D01*
X267121Y531760D01*
X267101Y531711D01*
X266908Y530244D01*
X264891D01*
X264697Y531711D01*
X264677Y531760D01*
X263986Y533428D01*
X262854Y534903D01*
X261380Y536035D01*
X259662Y536746D01*
X257819Y536989D01*
X255976Y536746D01*
X254259Y536035D01*
X252784Y534903D01*
X251652Y533428D01*
X250961Y531760D01*
X250941Y531711D01*
X250748Y530244D01*
X248731D01*
X248538Y531711D01*
X248517Y531760D01*
X247826Y533428D01*
X246695Y534903D01*
X245220Y536035D01*
X243502Y536746D01*
X241659Y536989D01*
X239816Y536746D01*
X238099Y536035D01*
X236624Y534903D01*
X235492Y533428D01*
X234801Y531760D01*
X234781Y531711D01*
X234538Y529868D01*
X234540D01*
Y516891D01*
X232540Y516760D01*
X232378Y517995D01*
X232357Y518044D01*
X231666Y519712D01*
X230534Y521187D01*
X229060Y522319D01*
X227391Y523010D01*
X227342Y523030D01*
X225499Y523273D01*
Y523271D01*
X215905D01*
X211368Y527809D01*
X211368Y527809D01*
X210089Y529087D01*
Y545888D01*
X212089Y546567D01*
X212732Y545729D01*
X214773Y544163D01*
X217150Y543178D01*
X219700Y542843D01*
X222250Y543178D01*
X224627Y544163D01*
X226668Y545729D01*
X228234Y547770D01*
X229219Y550146D01*
X229554Y552697D01*
X229219Y555247D01*
X228234Y557624D01*
X226668Y559665D01*
X224627Y561231D01*
X222250Y562215D01*
X219700Y562551D01*
X217150Y562215D01*
X214773Y561231D01*
X212732Y559665D01*
X212089Y558827D01*
X210089Y559506D01*
Y576911D01*
X212089Y577590D01*
X212610Y576912D01*
X214651Y575346D01*
X217027Y574361D01*
X219578Y574026D01*
X222128Y574361D01*
X224505Y575346D01*
X226546Y576912D01*
X228112Y578953D01*
X229096Y581329D01*
X229432Y583880D01*
X229096Y586430D01*
X228112Y588807D01*
X226546Y590848D01*
X224505Y592414D01*
X222128Y593398D01*
X219578Y593734D01*
X217027Y593398D01*
X214651Y592414D01*
X212610Y590848D01*
X212089Y590169D01*
X210089Y590848D01*
Y595437D01*
X215179Y600527D01*
X217027Y599761D01*
X219578Y599426D01*
X222128Y599761D01*
X224505Y600746D01*
X226546Y602312D01*
X228112Y604353D01*
X229096Y606729D01*
X229432Y609280D01*
X229096Y611830D01*
X228112Y614207D01*
X226546Y616248D01*
X224505Y617814D01*
X222128Y618798D01*
X219578Y619134D01*
D02*
G37*
G36*
X194178D02*
X191627Y618798D01*
X189251Y617814D01*
X187210Y616248D01*
X185644Y614207D01*
X184659Y611830D01*
X184324Y609280D01*
X184659Y606729D01*
X185644Y604353D01*
X187210Y602312D01*
X189251Y600746D01*
X191627Y599761D01*
X194178Y599426D01*
X196728Y599761D01*
X199105Y600746D01*
X201146Y602312D01*
X202712Y604353D01*
X203696Y606729D01*
X204032Y609280D01*
X203696Y611830D01*
X202712Y614207D01*
X201146Y616248D01*
X199105Y617814D01*
X196728Y618798D01*
X194178Y619134D01*
D02*
G37*
G36*
X168778D02*
X166227Y618798D01*
X163851Y617814D01*
X161810Y616248D01*
X160244Y614207D01*
X159259Y611830D01*
X158924Y609280D01*
X159259Y606729D01*
X160244Y604353D01*
X161810Y602312D01*
X163851Y600746D01*
X166227Y599761D01*
X168778Y599426D01*
X171328Y599761D01*
X173705Y600746D01*
X175746Y602312D01*
X177312Y604353D01*
X178296Y606729D01*
X178632Y609280D01*
X178296Y611830D01*
X177312Y614207D01*
X175746Y616248D01*
X173705Y617814D01*
X171328Y618798D01*
X168778Y619134D01*
D02*
G37*
G36*
X143378D02*
X140827Y618798D01*
X138451Y617814D01*
X136410Y616248D01*
X134844Y614207D01*
X133859Y611830D01*
X133524Y609280D01*
X133859Y606729D01*
X134844Y604353D01*
X136410Y602312D01*
X138451Y600746D01*
X140827Y599761D01*
X143378Y599426D01*
X145928Y599761D01*
X148305Y600746D01*
X150346Y602312D01*
X151912Y604353D01*
X152896Y606729D01*
X153232Y609280D01*
X152896Y611830D01*
X151912Y614207D01*
X150346Y616248D01*
X148305Y617814D01*
X145928Y618798D01*
X143378Y619134D01*
D02*
G37*
G36*
X92578D02*
X90027Y618798D01*
X87651Y617814D01*
X85610Y616248D01*
X84044Y614207D01*
X83059Y611830D01*
X82724Y609280D01*
X83059Y606729D01*
X84044Y604353D01*
X85610Y602312D01*
X87651Y600746D01*
X90027Y599761D01*
X92578Y599426D01*
X95128Y599761D01*
X97505Y600746D01*
X99546Y602312D01*
X101112Y604353D01*
X102096Y606729D01*
X102432Y609280D01*
X102096Y611830D01*
X101112Y614207D01*
X99546Y616248D01*
X97505Y617814D01*
X95128Y618798D01*
X92578Y619134D01*
D02*
G37*
G36*
X67178D02*
X64627Y618798D01*
X62251Y617814D01*
X60210Y616248D01*
X58644Y614207D01*
X57659Y611830D01*
X57323Y609280D01*
X57659Y606729D01*
X58644Y604353D01*
X60210Y602312D01*
X62251Y600746D01*
X64627Y599761D01*
X67178Y599426D01*
X69728Y599761D01*
X72105Y600746D01*
X74146Y602312D01*
X75712Y604353D01*
X76696Y606729D01*
X77032Y609280D01*
X76696Y611830D01*
X75712Y614207D01*
X74146Y616248D01*
X72105Y617814D01*
X69728Y618798D01*
X67178Y619134D01*
D02*
G37*
G36*
X41778D02*
X39227Y618798D01*
X36851Y617814D01*
X34810Y616248D01*
X33244Y614207D01*
X32259Y611830D01*
X31923Y609280D01*
X32259Y606729D01*
X33244Y604353D01*
X34810Y602312D01*
X36851Y600746D01*
X39227Y599761D01*
X41778Y599426D01*
X44328Y599761D01*
X46705Y600746D01*
X48746Y602312D01*
X50312Y604353D01*
X51296Y606729D01*
X51632Y609280D01*
X51296Y611830D01*
X50312Y614207D01*
X48746Y616248D01*
X46705Y617814D01*
X44328Y618798D01*
X41778Y619134D01*
D02*
G37*
G36*
X717418Y593734D02*
X714867Y593399D01*
X712491Y592414D01*
X710450Y590848D01*
X708884Y588807D01*
X707899Y586430D01*
X707564Y583880D01*
X707899Y581329D01*
X708884Y578953D01*
X710450Y576912D01*
X712491Y575346D01*
X714867Y574361D01*
X717418Y574026D01*
X719968Y574361D01*
X722345Y575346D01*
X724386Y576912D01*
X725952Y578953D01*
X726936Y581329D01*
X727272Y583880D01*
X726936Y586430D01*
X725952Y588807D01*
X724386Y590848D01*
X722345Y592414D01*
X719968Y593399D01*
X717418Y593734D01*
D02*
G37*
G36*
X692018D02*
X689467Y593399D01*
X687091Y592414D01*
X685050Y590848D01*
X683484Y588807D01*
X682499Y586430D01*
X682164Y583880D01*
X682499Y581329D01*
X683484Y578953D01*
X685050Y576912D01*
X687091Y575346D01*
X689467Y574361D01*
X692018Y574026D01*
X694568Y574361D01*
X696945Y575346D01*
X698986Y576912D01*
X700552Y578953D01*
X701536Y581329D01*
X701872Y583880D01*
X701536Y586430D01*
X700552Y588807D01*
X698986Y590848D01*
X696945Y592414D01*
X694568Y593399D01*
X692018Y593734D01*
D02*
G37*
G36*
X666618D02*
X664067Y593399D01*
X661691Y592414D01*
X659650Y590848D01*
X658084Y588807D01*
X657099Y586430D01*
X656764Y583880D01*
X657099Y581329D01*
X658084Y578953D01*
X659650Y576912D01*
X661691Y575346D01*
X664067Y574361D01*
X666618Y574026D01*
X669168Y574361D01*
X671545Y575346D01*
X673586Y576912D01*
X675152Y578953D01*
X676136Y581329D01*
X676472Y583880D01*
X676136Y586430D01*
X675152Y588807D01*
X673586Y590848D01*
X671545Y592414D01*
X669168Y593399D01*
X666618Y593734D01*
D02*
G37*
G36*
X615818D02*
X613267Y593399D01*
X610891Y592414D01*
X608850Y590848D01*
X607284Y588807D01*
X606299Y586430D01*
X605964Y583880D01*
X606299Y581329D01*
X607284Y578953D01*
X608850Y576912D01*
X610891Y575346D01*
X613267Y574361D01*
X615818Y574026D01*
X618368Y574361D01*
X620745Y575346D01*
X622786Y576912D01*
X624352Y578953D01*
X625336Y581329D01*
X625672Y583880D01*
X625336Y586430D01*
X624352Y588807D01*
X622786Y590848D01*
X620745Y592414D01*
X618368Y593399D01*
X615818Y593734D01*
D02*
G37*
G36*
X590418D02*
X587867Y593399D01*
X585491Y592414D01*
X583450Y590848D01*
X581884Y588807D01*
X580899Y586430D01*
X580564Y583880D01*
X580899Y581329D01*
X581884Y578953D01*
X583450Y576912D01*
X585491Y575346D01*
X587867Y574361D01*
X590418Y574026D01*
X592968Y574361D01*
X595345Y575346D01*
X597386Y576912D01*
X598952Y578953D01*
X599936Y581329D01*
X600272Y583880D01*
X599936Y586430D01*
X598952Y588807D01*
X597386Y590848D01*
X595345Y592414D01*
X592968Y593399D01*
X590418Y593734D01*
D02*
G37*
G36*
X565018D02*
X562467Y593399D01*
X560091Y592414D01*
X558050Y590848D01*
X556484Y588807D01*
X555499Y586430D01*
X555164Y583880D01*
X555499Y581329D01*
X556484Y578953D01*
X558050Y576912D01*
X560091Y575346D01*
X562467Y574361D01*
X565018Y574026D01*
X567568Y574361D01*
X569945Y575346D01*
X571986Y576912D01*
X573552Y578953D01*
X574536Y581329D01*
X574872Y583880D01*
X574536Y586430D01*
X573552Y588807D01*
X571986Y590848D01*
X569945Y592414D01*
X567568Y593399D01*
X565018Y593734D01*
D02*
G37*
G36*
X539618D02*
X537067Y593399D01*
X534691Y592414D01*
X532650Y590848D01*
X531084Y588807D01*
X530099Y586430D01*
X529764Y583880D01*
X530099Y581329D01*
X531084Y578953D01*
X532650Y576912D01*
X534691Y575346D01*
X537067Y574361D01*
X539618Y574026D01*
X542168Y574361D01*
X544545Y575346D01*
X546586Y576912D01*
X548152Y578953D01*
X549136Y581329D01*
X549472Y583880D01*
X549136Y586430D01*
X548152Y588807D01*
X546586Y590848D01*
X544545Y592414D01*
X542168Y593399D01*
X539618Y593734D01*
D02*
G37*
G36*
X514218D02*
X511667Y593399D01*
X509291Y592414D01*
X507250Y590848D01*
X505684Y588807D01*
X504699Y586430D01*
X504364Y583880D01*
X504699Y581329D01*
X505684Y578953D01*
X507250Y576912D01*
X509291Y575346D01*
X511667Y574361D01*
X514218Y574026D01*
X516768Y574361D01*
X519145Y575346D01*
X521186Y576912D01*
X522752Y578953D01*
X523736Y581329D01*
X524072Y583880D01*
X523736Y586430D01*
X522752Y588807D01*
X521186Y590848D01*
X519145Y592414D01*
X516768Y593399D01*
X514218Y593734D01*
D02*
G37*
G36*
X488818D02*
X486267Y593399D01*
X483891Y592414D01*
X481850Y590848D01*
X480284Y588807D01*
X479299Y586430D01*
X478964Y583880D01*
X479299Y581329D01*
X480284Y578953D01*
X481850Y576912D01*
X483891Y575346D01*
X486267Y574361D01*
X488818Y574026D01*
X491368Y574361D01*
X493745Y575346D01*
X495786Y576912D01*
X497352Y578953D01*
X498336Y581329D01*
X498672Y583880D01*
X498336Y586430D01*
X497352Y588807D01*
X495786Y590848D01*
X493745Y592414D01*
X491368Y593399D01*
X488818Y593734D01*
D02*
G37*
G36*
X463418D02*
X460867Y593399D01*
X458491Y592414D01*
X456450Y590848D01*
X454884Y588807D01*
X453899Y586430D01*
X453564Y583880D01*
X453899Y581329D01*
X454884Y578953D01*
X456450Y576912D01*
X458491Y575346D01*
X460867Y574361D01*
X463418Y574026D01*
X465968Y574361D01*
X468345Y575346D01*
X470386Y576912D01*
X471952Y578953D01*
X472936Y581329D01*
X473272Y583880D01*
X472936Y586430D01*
X471952Y588807D01*
X470386Y590848D01*
X468345Y592414D01*
X465968Y593399D01*
X463418Y593734D01*
D02*
G37*
G36*
X438018D02*
X435467Y593399D01*
X433091Y592414D01*
X431050Y590848D01*
X429484Y588807D01*
X428499Y586430D01*
X428164Y583880D01*
X428499Y581329D01*
X429484Y578953D01*
X431050Y576912D01*
X433091Y575346D01*
X435467Y574361D01*
X438018Y574026D01*
X440568Y574361D01*
X442945Y575346D01*
X444986Y576912D01*
X446552Y578953D01*
X447536Y581329D01*
X447872Y583880D01*
X447536Y586430D01*
X446552Y588807D01*
X444986Y590848D01*
X442945Y592414D01*
X440568Y593399D01*
X438018Y593734D01*
D02*
G37*
G36*
X412618D02*
X410067Y593399D01*
X407691Y592414D01*
X405650Y590848D01*
X404084Y588807D01*
X403099Y586430D01*
X402764Y583880D01*
X403099Y581329D01*
X404084Y578953D01*
X405650Y576912D01*
X407691Y575346D01*
X410067Y574361D01*
X412618Y574026D01*
X415168Y574361D01*
X417545Y575346D01*
X419586Y576912D01*
X421152Y578953D01*
X422136Y581329D01*
X422472Y583880D01*
X422136Y586430D01*
X421152Y588807D01*
X419586Y590848D01*
X417545Y592414D01*
X415168Y593399D01*
X412618Y593734D01*
D02*
G37*
G36*
X387218D02*
X384667Y593399D01*
X382291Y592414D01*
X380250Y590848D01*
X378684Y588807D01*
X377699Y586430D01*
X377364Y583880D01*
X377699Y581329D01*
X378684Y578953D01*
X380250Y576912D01*
X382291Y575346D01*
X384667Y574361D01*
X387218Y574026D01*
X389768Y574361D01*
X392145Y575346D01*
X394186Y576912D01*
X395752Y578953D01*
X396736Y581329D01*
X397072Y583880D01*
X396736Y586430D01*
X395752Y588807D01*
X394186Y590848D01*
X392145Y592414D01*
X389768Y593399D01*
X387218Y593734D01*
D02*
G37*
G36*
X270378Y593734D02*
X267827Y593398D01*
X265451Y592414D01*
X263410Y590848D01*
X261844Y588807D01*
X260859Y586430D01*
X260523Y583880D01*
X260859Y581329D01*
X261844Y578953D01*
X263410Y576912D01*
X265451Y575346D01*
X267827Y574361D01*
X270378Y574026D01*
X272928Y574361D01*
X275305Y575346D01*
X277346Y576912D01*
X278912Y578953D01*
X279896Y581329D01*
X280232Y583880D01*
X279896Y586430D01*
X278912Y588807D01*
X277346Y590848D01*
X275305Y592414D01*
X272928Y593398D01*
X270378Y593734D01*
D02*
G37*
G36*
X244978D02*
X242427Y593398D01*
X240051Y592414D01*
X238010Y590848D01*
X236444Y588807D01*
X235459Y586430D01*
X235124Y583880D01*
X235459Y581329D01*
X236444Y578953D01*
X238010Y576912D01*
X240051Y575346D01*
X242427Y574361D01*
X244978Y574026D01*
X247528Y574361D01*
X249905Y575346D01*
X251946Y576912D01*
X253512Y578953D01*
X254496Y581329D01*
X254832Y583880D01*
X254496Y586430D01*
X253512Y588807D01*
X251946Y590848D01*
X249905Y592414D01*
X247528Y593398D01*
X244978Y593734D01*
D02*
G37*
G36*
X168778D02*
X166227Y593398D01*
X163851Y592414D01*
X161810Y590848D01*
X160244Y588807D01*
X159259Y586430D01*
X158924Y583880D01*
X159259Y581329D01*
X160244Y578953D01*
X161810Y576912D01*
X163851Y575346D01*
X166227Y574361D01*
X168778Y574026D01*
X171328Y574361D01*
X173705Y575346D01*
X175746Y576912D01*
X177312Y578953D01*
X178296Y581329D01*
X178632Y583880D01*
X178296Y586430D01*
X177312Y588807D01*
X175746Y590848D01*
X173705Y592414D01*
X171328Y593398D01*
X168778Y593734D01*
D02*
G37*
G36*
X143378D02*
X140827Y593398D01*
X138451Y592414D01*
X136410Y590848D01*
X134844Y588807D01*
X133859Y586430D01*
X133524Y583880D01*
X133859Y581329D01*
X134844Y578953D01*
X136410Y576912D01*
X138451Y575346D01*
X140827Y574361D01*
X143378Y574026D01*
X145928Y574361D01*
X148305Y575346D01*
X150346Y576912D01*
X151912Y578953D01*
X152896Y581329D01*
X153232Y583880D01*
X152896Y586430D01*
X151912Y588807D01*
X150346Y590848D01*
X148305Y592414D01*
X145928Y593398D01*
X143378Y593734D01*
D02*
G37*
G36*
X117978D02*
X115427Y593398D01*
X113051Y592414D01*
X111010Y590848D01*
X109444Y588807D01*
X108459Y586430D01*
X108124Y583880D01*
X108459Y581329D01*
X109444Y578953D01*
X111010Y576912D01*
X113051Y575346D01*
X115427Y574361D01*
X117978Y574026D01*
X120528Y574361D01*
X122905Y575346D01*
X124946Y576912D01*
X126512Y578953D01*
X127496Y581329D01*
X127832Y583880D01*
X127496Y586430D01*
X126512Y588807D01*
X124946Y590848D01*
X122905Y592414D01*
X120528Y593398D01*
X117978Y593734D01*
D02*
G37*
G36*
X92578D02*
X90027Y593398D01*
X87651Y592414D01*
X85610Y590848D01*
X84044Y588807D01*
X83059Y586430D01*
X82724Y583880D01*
X83059Y581329D01*
X84044Y578953D01*
X85610Y576912D01*
X87651Y575346D01*
X90027Y574361D01*
X92578Y574026D01*
X95128Y574361D01*
X97505Y575346D01*
X99546Y576912D01*
X101112Y578953D01*
X102096Y581329D01*
X102432Y583880D01*
X102096Y586430D01*
X101112Y588807D01*
X99546Y590848D01*
X97505Y592414D01*
X95128Y593398D01*
X92578Y593734D01*
D02*
G37*
G36*
X67178D02*
X64627Y593398D01*
X62251Y592414D01*
X60210Y590848D01*
X58644Y588807D01*
X57659Y586430D01*
X57323Y583880D01*
X57659Y581329D01*
X58644Y578953D01*
X60210Y576912D01*
X62251Y575346D01*
X64627Y574361D01*
X67178Y574026D01*
X69728Y574361D01*
X72105Y575346D01*
X74146Y576912D01*
X75712Y578953D01*
X76696Y581329D01*
X77032Y583880D01*
X76696Y586430D01*
X75712Y588807D01*
X74146Y590848D01*
X72105Y592414D01*
X69728Y593398D01*
X67178Y593734D01*
D02*
G37*
G36*
X315143Y593760D02*
X306893D01*
X304690Y593322D01*
X302823Y592075D01*
X301575Y590207D01*
X301137Y588005D01*
Y579755D01*
X301575Y577552D01*
X302823Y575685D01*
X304690Y574437D01*
X306893Y573999D01*
X315143D01*
X317346Y574437D01*
X319213Y575685D01*
X320460Y577552D01*
X320899Y579755D01*
Y588005D01*
X320460Y590207D01*
X319213Y592075D01*
X317346Y593322D01*
X315143Y593760D01*
D02*
G37*
G36*
X45903Y593760D02*
X37653D01*
X35450Y593322D01*
X33583Y592075D01*
X32335Y590207D01*
X31897Y588005D01*
Y579755D01*
X32335Y577552D01*
X33583Y575685D01*
X35450Y574437D01*
X37653Y573999D01*
X45903D01*
X48105Y574437D01*
X49973Y575685D01*
X51220Y577552D01*
X51658Y579755D01*
Y588005D01*
X51220Y590207D01*
X49973Y592075D01*
X48105Y593322D01*
X45903Y593760D01*
D02*
G37*
G36*
X565800Y562551D02*
X563250Y562215D01*
X560873Y561231D01*
X558832Y559665D01*
X557266Y557624D01*
X556282Y555247D01*
X555946Y552697D01*
X556282Y550146D01*
X557266Y547770D01*
X558832Y545729D01*
X560873Y544163D01*
X563250Y543178D01*
X565800Y542843D01*
X568350Y543178D01*
X570727Y544163D01*
X572768Y545729D01*
X574334Y547770D01*
X575318Y550146D01*
X575654Y552697D01*
X575318Y555247D01*
X574334Y557624D01*
X572768Y559665D01*
X570727Y561231D01*
X568350Y562215D01*
X565800Y562551D01*
D02*
G37*
G36*
X540400D02*
X537850Y562215D01*
X535473Y561231D01*
X533432Y559665D01*
X531866Y557624D01*
X530882Y555247D01*
X530546Y552697D01*
X530882Y550146D01*
X531866Y547770D01*
X533432Y545729D01*
X535473Y544163D01*
X537850Y543178D01*
X540400Y542843D01*
X542951Y543178D01*
X545327Y544163D01*
X547368Y545729D01*
X548934Y547770D01*
X549919Y550146D01*
X550254Y552697D01*
X549919Y555247D01*
X548934Y557624D01*
X547368Y559665D01*
X545327Y561231D01*
X542951Y562215D01*
X540400Y562551D01*
D02*
G37*
G36*
X489600D02*
X487049Y562215D01*
X484673Y561231D01*
X482632Y559665D01*
X481066Y557624D01*
X480081Y555247D01*
X479746Y552697D01*
X480081Y550146D01*
X481066Y547770D01*
X482632Y545729D01*
X484673Y544163D01*
X487049Y543178D01*
X489600Y542843D01*
X492150Y543178D01*
X494527Y544163D01*
X496568Y545729D01*
X498134Y547770D01*
X499118Y550146D01*
X499454Y552697D01*
X499118Y555247D01*
X498134Y557624D01*
X496568Y559665D01*
X494527Y561231D01*
X492150Y562215D01*
X489600Y562551D01*
D02*
G37*
G36*
X464200D02*
X461650Y562215D01*
X459273Y561231D01*
X457232Y559665D01*
X455666Y557624D01*
X454682Y555247D01*
X454346Y552697D01*
X454682Y550146D01*
X455666Y547770D01*
X457232Y545729D01*
X459273Y544163D01*
X461650Y543178D01*
X464200Y542843D01*
X466750Y543178D01*
X469127Y544163D01*
X471168Y545729D01*
X472734Y547770D01*
X473718Y550146D01*
X474054Y552697D01*
X473718Y555247D01*
X472734Y557624D01*
X471168Y559665D01*
X469127Y561231D01*
X466750Y562215D01*
X464200Y562551D01*
D02*
G37*
G36*
X413400D02*
X410849Y562215D01*
X408473Y561231D01*
X406432Y559665D01*
X404866Y557624D01*
X403881Y555247D01*
X403546Y552697D01*
X403881Y550146D01*
X404866Y547770D01*
X406432Y545729D01*
X408473Y544163D01*
X410849Y543178D01*
X413400Y542843D01*
X415951Y543178D01*
X418327Y544163D01*
X420368Y545729D01*
X421934Y547770D01*
X422919Y550146D01*
X423254Y552697D01*
X422919Y555247D01*
X421934Y557624D01*
X420368Y559665D01*
X418327Y561231D01*
X415951Y562215D01*
X413400Y562551D01*
D02*
G37*
G36*
X346700D02*
X344150Y562215D01*
X341773Y561231D01*
X339732Y559665D01*
X338166Y557624D01*
X337182Y555247D01*
X336846Y552697D01*
X337182Y550146D01*
X338166Y547770D01*
X339732Y545729D01*
X341773Y544163D01*
X344150Y543178D01*
X346700Y542843D01*
X349250Y543178D01*
X351627Y544163D01*
X353668Y545729D01*
X355234Y547770D01*
X356218Y550146D01*
X356554Y552697D01*
X356218Y555247D01*
X355234Y557624D01*
X353668Y559665D01*
X351627Y561231D01*
X349250Y562215D01*
X346700Y562551D01*
D02*
G37*
G36*
X321300D02*
X318750Y562215D01*
X316373Y561231D01*
X314332Y559665D01*
X312766Y557624D01*
X311782Y555247D01*
X311446Y552697D01*
X311782Y550146D01*
X312766Y547770D01*
X314332Y545729D01*
X316373Y544163D01*
X318750Y543178D01*
X321300Y542843D01*
X323851Y543178D01*
X326227Y544163D01*
X328268Y545729D01*
X329834Y547770D01*
X330818Y550146D01*
X331154Y552697D01*
X330818Y555247D01*
X329834Y557624D01*
X328268Y559665D01*
X326227Y561231D01*
X323851Y562215D01*
X321300Y562551D01*
D02*
G37*
G36*
X295900D02*
X293349Y562215D01*
X290973Y561231D01*
X288932Y559665D01*
X287366Y557624D01*
X286381Y555247D01*
X286046Y552697D01*
X286381Y550146D01*
X287366Y547770D01*
X288932Y545729D01*
X290973Y544163D01*
X293349Y543178D01*
X295900Y542843D01*
X298451Y543178D01*
X300827Y544163D01*
X302868Y545729D01*
X304434Y547770D01*
X305418Y550146D01*
X305754Y552697D01*
X305418Y555247D01*
X304434Y557624D01*
X302868Y559665D01*
X300827Y561231D01*
X298451Y562215D01*
X295900Y562551D01*
D02*
G37*
G36*
X270500D02*
X267950Y562215D01*
X265573Y561231D01*
X263532Y559665D01*
X261966Y557624D01*
X260982Y555247D01*
X260646Y552697D01*
X260982Y550146D01*
X261966Y547770D01*
X263532Y545729D01*
X265573Y544163D01*
X267950Y543178D01*
X270500Y542843D01*
X273050Y543178D01*
X275427Y544163D01*
X277468Y545729D01*
X279034Y547770D01*
X280019Y550146D01*
X280354Y552697D01*
X280019Y555247D01*
X279034Y557624D01*
X277468Y559665D01*
X275427Y561231D01*
X273050Y562215D01*
X270500Y562551D01*
D02*
G37*
G36*
X245100D02*
X242549Y562215D01*
X240173Y561231D01*
X238132Y559665D01*
X236566Y557624D01*
X235581Y555247D01*
X235246Y552697D01*
X235581Y550146D01*
X236566Y547770D01*
X238132Y545729D01*
X240173Y544163D01*
X242549Y543178D01*
X245100Y542843D01*
X247651Y543178D01*
X250027Y544163D01*
X252068Y545729D01*
X253634Y547770D01*
X254618Y550146D01*
X254954Y552697D01*
X254618Y555247D01*
X253634Y557624D01*
X252068Y559665D01*
X250027Y561231D01*
X247651Y562215D01*
X245100Y562551D01*
D02*
G37*
G36*
X595325Y562578D02*
X587075D01*
X584872Y562140D01*
X583005Y560892D01*
X581758Y559025D01*
X581319Y556822D01*
Y548572D01*
X581758Y546369D01*
X583005Y544502D01*
X584872Y543255D01*
X587075Y542816D01*
X595325D01*
X597528Y543255D01*
X599395Y544502D01*
X600643Y546369D01*
X601081Y548572D01*
Y556822D01*
X600643Y559025D01*
X599395Y560892D01*
X597528Y562140D01*
X595325Y562578D01*
D02*
G37*
G36*
X547618Y535372D02*
X538578D01*
Y525332D01*
X547618D01*
Y527273D01*
X561642D01*
Y524878D01*
X570682D01*
Y534918D01*
X561642D01*
Y533431D01*
X547618D01*
Y535372D01*
D02*
G37*
G36*
X938384Y535836D02*
X936029Y535526D01*
X933835Y534617D01*
X931951Y533171D01*
X930505Y531287D01*
X929596Y529093D01*
X929286Y526738D01*
X929596Y524383D01*
X930505Y522189D01*
X931951Y520305D01*
X933835Y518859D01*
X936029Y517950D01*
X938384Y517640D01*
X940739Y517950D01*
X942933Y518859D01*
X944817Y520305D01*
X946263Y522189D01*
X947172Y524383D01*
X947482Y526738D01*
X947172Y529093D01*
X946263Y531287D01*
X944817Y533171D01*
X942933Y534617D01*
X940739Y535526D01*
X938384Y535836D01*
D02*
G37*
G36*
X356556Y511712D02*
X346516D01*
Y502672D01*
X348457D01*
Y494994D01*
X346516D01*
Y485954D01*
X356556D01*
Y494994D01*
X354615D01*
Y502672D01*
X356556D01*
Y511712D01*
D02*
G37*
G36*
X515000Y562551D02*
X512449Y562215D01*
X510073Y561231D01*
X508032Y559665D01*
X506466Y557624D01*
X505481Y555247D01*
X505146Y552697D01*
X505481Y550146D01*
X506466Y547770D01*
X508032Y545729D01*
X510073Y544163D01*
X512449Y543178D01*
X515000Y542843D01*
X517551Y543178D01*
X519398Y543944D01*
X525970Y537372D01*
X525578Y535372D01*
X525578D01*
Y525332D01*
X528038D01*
Y524507D01*
X528272Y523329D01*
X528940Y522330D01*
X557409Y493861D01*
Y485866D01*
Y471628D01*
X557407D01*
X557650Y469785D01*
X557670Y469736D01*
X558361Y468067D01*
X559493Y466592D01*
X560967Y465461D01*
X562636Y464770D01*
X562685Y464749D01*
X563920Y464587D01*
X563789Y462587D01*
X547612D01*
Y462589D01*
X545769Y462346D01*
X545720Y462326D01*
X544051Y461635D01*
X542576Y460503D01*
X541445Y459028D01*
X540733Y457311D01*
X540491Y455468D01*
X540733Y453625D01*
X541445Y451907D01*
X542576Y450432D01*
X544051Y449301D01*
X545720Y448610D01*
X545769Y448589D01*
X547235Y448396D01*
Y446379D01*
X545769Y446186D01*
X545720Y446166D01*
X544051Y445475D01*
X542576Y444343D01*
X541445Y442868D01*
X540733Y441151D01*
X540491Y439308D01*
X540733Y437465D01*
X541445Y435747D01*
X542576Y434272D01*
X544051Y433141D01*
X545720Y432450D01*
X545769Y432429D01*
X547235Y432236D01*
Y430219D01*
X545769Y430026D01*
X545720Y430006D01*
X544051Y429315D01*
X542576Y428183D01*
X541445Y426708D01*
X540733Y424991D01*
X540491Y423148D01*
X540733Y421305D01*
X541445Y419587D01*
X542576Y418112D01*
X544051Y416981D01*
X545720Y416290D01*
X545769Y416269D01*
X547235Y416076D01*
Y414059D01*
X545769Y413866D01*
X545720Y413846D01*
X544051Y413155D01*
X542576Y412023D01*
X541445Y410548D01*
X540733Y408831D01*
X540491Y406988D01*
X540733Y405145D01*
X541445Y403427D01*
X542576Y401953D01*
X544051Y400821D01*
X545720Y400130D01*
X545769Y400109D01*
X547235Y399916D01*
Y397899D01*
X545769Y397706D01*
X545720Y397686D01*
X544051Y396995D01*
X542576Y395863D01*
X541445Y394388D01*
X540733Y392671D01*
X540491Y390828D01*
X540733Y388985D01*
X541445Y387267D01*
X542576Y385793D01*
X544051Y384661D01*
X545720Y383970D01*
X545769Y383949D01*
X547235Y383756D01*
Y381739D01*
X545769Y381546D01*
X545720Y381526D01*
X544051Y380835D01*
X542576Y379703D01*
X541445Y378228D01*
X540733Y376511D01*
X540491Y374668D01*
X540733Y372825D01*
X541445Y371107D01*
X542576Y369632D01*
X544051Y368501D01*
X545720Y367810D01*
X545769Y367789D01*
X547612Y367547D01*
Y367549D01*
X555824D01*
X556811Y366950D01*
X557409Y365964D01*
Y322924D01*
X557643Y321746D01*
X558311Y320747D01*
X675355Y203703D01*
Y160028D01*
X674289Y159438D01*
X673355Y159226D01*
X671545Y160614D01*
X669697Y161380D01*
Y176662D01*
X669463Y177840D01*
X668795Y178839D01*
X586586Y261049D01*
X586800Y262128D01*
X586371Y264290D01*
X585146Y266122D01*
X583314Y267347D01*
X581152Y267777D01*
X578990Y267347D01*
X577158Y266122D01*
X575933Y264290D01*
X575504Y262128D01*
X575933Y259966D01*
X577158Y258134D01*
X578990Y256909D01*
X581152Y256479D01*
X582231Y256694D01*
X663539Y175387D01*
Y161380D01*
X661691Y160614D01*
X659650Y159048D01*
X658084Y157007D01*
X657100Y154630D01*
X656764Y152080D01*
X657100Y149529D01*
X658084Y147153D01*
X659650Y145112D01*
X661691Y143546D01*
X664068Y142562D01*
X666618Y142226D01*
X669168Y142562D01*
X671545Y143546D01*
X673355Y144935D01*
X674289Y144722D01*
X675355Y144132D01*
Y143917D01*
X675589Y142739D01*
X676257Y141740D01*
X684745Y133251D01*
X683484Y131607D01*
X682499Y129230D01*
X682164Y126680D01*
X682499Y124129D01*
X683484Y121753D01*
X685050Y119712D01*
X687091Y118146D01*
X689467Y117162D01*
X692018Y116826D01*
X694568Y117162D01*
X696945Y118146D01*
X698986Y119712D01*
X700552Y121753D01*
X701536Y124129D01*
X701872Y126680D01*
X701536Y129230D01*
X700552Y131607D01*
X698986Y133648D01*
X696945Y135214D01*
X694568Y136199D01*
X692018Y136534D01*
X690386Y136320D01*
X681965Y144740D01*
X682107Y145662D01*
X684213Y146202D01*
X685050Y145112D01*
X687091Y143546D01*
X689467Y142562D01*
X692018Y142226D01*
X694568Y142562D01*
X696945Y143546D01*
X698986Y145112D01*
X700552Y147153D01*
X701536Y149529D01*
X701872Y152080D01*
X701536Y154630D01*
X700552Y157007D01*
X698986Y159048D01*
X696945Y160614D01*
X694568Y161599D01*
X692018Y161934D01*
X689467Y161599D01*
X687091Y160614D01*
X685050Y159048D01*
X683513Y157045D01*
X683390Y157030D01*
X681513Y157476D01*
Y204978D01*
X681279Y206156D01*
X680611Y207155D01*
X563567Y324199D01*
Y365088D01*
Y366588D01*
X563569D01*
X563326Y368431D01*
X563306Y368480D01*
X562615Y370148D01*
X561483Y371623D01*
X560008Y372755D01*
X558340Y373446D01*
X558291Y373466D01*
X557056Y373629D01*
X557187Y375629D01*
X573865D01*
Y375627D01*
X575708Y375869D01*
X575756Y375890D01*
X577425Y376581D01*
X578900Y377713D01*
X580032Y379187D01*
X580743Y380905D01*
X580985Y382748D01*
X580743Y384591D01*
X580032Y386308D01*
X578900Y387783D01*
X577425Y388915D01*
X575756Y389606D01*
X575708Y389626D01*
X574241Y389819D01*
Y391836D01*
X575708Y392029D01*
X575756Y392050D01*
X577425Y392741D01*
X578900Y393872D01*
X580032Y395347D01*
X580743Y397065D01*
X580985Y398908D01*
X580743Y400751D01*
X580032Y402468D01*
X578900Y403943D01*
X577425Y405075D01*
X575756Y405766D01*
X575708Y405786D01*
X574241Y405979D01*
Y407996D01*
X575708Y408189D01*
X575756Y408210D01*
X577425Y408901D01*
X578900Y410033D01*
X580032Y411507D01*
X580743Y413225D01*
X580985Y415068D01*
X580743Y416911D01*
X580032Y418628D01*
X578900Y420103D01*
X577425Y421235D01*
X575756Y421926D01*
X575708Y421946D01*
X574241Y422139D01*
Y424156D01*
X575708Y424349D01*
X575756Y424370D01*
X577425Y425061D01*
X578900Y426193D01*
X580032Y427667D01*
X580743Y429385D01*
X580985Y431228D01*
X580743Y433071D01*
X580032Y434788D01*
X578900Y436263D01*
X577425Y437395D01*
X575756Y438086D01*
X575708Y438106D01*
X574241Y438299D01*
Y440316D01*
X575708Y440509D01*
X575756Y440530D01*
X577425Y441221D01*
X578900Y442352D01*
X580032Y443827D01*
X580743Y445545D01*
X580985Y447388D01*
X580743Y449231D01*
X580032Y450948D01*
X578900Y452423D01*
X577425Y453555D01*
X575756Y454246D01*
X575708Y454266D01*
X573865Y454509D01*
Y454507D01*
X570950D01*
X570819Y456507D01*
X572053Y456669D01*
X572102Y456690D01*
X573771Y457381D01*
X575246Y458512D01*
X576377Y459987D01*
X577089Y461705D01*
X577331Y463548D01*
X577089Y465391D01*
X576377Y467108D01*
X575246Y468583D01*
X573771Y469715D01*
X572102Y470406D01*
X572053Y470426D01*
X570210Y470669D01*
Y470667D01*
X565152D01*
X564165Y471265D01*
X563567Y472252D01*
Y485866D01*
Y495136D01*
X563333Y496314D01*
X562665Y497313D01*
X534618Y525361D01*
Y535372D01*
X533177D01*
Y537599D01*
X532943Y538777D01*
X532275Y539776D01*
X523753Y548298D01*
X524519Y550146D01*
X524854Y552697D01*
X524519Y555247D01*
X523534Y557624D01*
X521968Y559665D01*
X519927Y561231D01*
X517551Y562215D01*
X515000Y562551D01*
D02*
G37*
G36*
X947404Y470758D02*
X929364D01*
Y452718D01*
X947404D01*
Y470758D01*
D02*
G37*
G36*
X938382Y408882D02*
X936027Y408572D01*
X933833Y407663D01*
X931949Y406217D01*
X930503Y404333D01*
X929594Y402139D01*
X929284Y399784D01*
X929594Y397429D01*
X930503Y395235D01*
X931949Y393351D01*
X933833Y391905D01*
X936027Y390996D01*
X938382Y390686D01*
X940737Y390996D01*
X942931Y391905D01*
X944815Y393351D01*
X946261Y395235D01*
X947170Y397429D01*
X947480Y399784D01*
X947170Y402139D01*
X946261Y404333D01*
X944815Y406217D01*
X942931Y407663D01*
X940737Y408572D01*
X938382Y408882D01*
D02*
G37*
G36*
X947402Y343804D02*
X929362D01*
Y325764D01*
X947402D01*
Y343804D01*
D02*
G37*
G36*
X398078Y286749D02*
X396235Y286506D01*
X394517Y285795D01*
X393042Y284663D01*
X391911Y283188D01*
X391220Y281520D01*
X391199Y281471D01*
X391006Y280004D01*
X388989D01*
X388796Y281471D01*
X388776Y281520D01*
X388085Y283188D01*
X386953Y284663D01*
X385478Y285795D01*
X383761Y286506D01*
X381918Y286749D01*
X380075Y286506D01*
X378357Y285795D01*
X376883Y284663D01*
X375751Y283188D01*
X375060Y281520D01*
X375039Y281471D01*
X374846Y280004D01*
X372829D01*
X372636Y281471D01*
X372616Y281520D01*
X371925Y283188D01*
X370793Y284663D01*
X369318Y285795D01*
X367601Y286506D01*
X365758Y286749D01*
X363915Y286506D01*
X362197Y285795D01*
X360723Y284663D01*
X359591Y283188D01*
X358900Y281520D01*
X358879Y281471D01*
X358686Y280004D01*
X356669D01*
X356476Y281471D01*
X356456Y281520D01*
X355765Y283188D01*
X354633Y284663D01*
X353158Y285795D01*
X351441Y286506D01*
X349598Y286749D01*
X347755Y286506D01*
X346037Y285795D01*
X344562Y284663D01*
X343431Y283188D01*
X342740Y281520D01*
X342719Y281471D01*
X342526Y280004D01*
X340509D01*
X340316Y281471D01*
X340296Y281520D01*
X339605Y283188D01*
X338473Y284663D01*
X336998Y285795D01*
X335281Y286506D01*
X333438Y286749D01*
X331595Y286506D01*
X329877Y285795D01*
X328402Y284663D01*
X327271Y283188D01*
X326580Y281520D01*
X326559Y281471D01*
X326366Y280004D01*
X324349D01*
X324156Y281471D01*
X324136Y281520D01*
X323445Y283188D01*
X322313Y284663D01*
X320838Y285795D01*
X319121Y286506D01*
X317278Y286749D01*
X315435Y286506D01*
X313717Y285795D01*
X312243Y284663D01*
X311111Y283188D01*
X310420Y281520D01*
X310399Y281471D01*
X310157Y279628D01*
X310159D01*
Y204081D01*
X310161Y204066D01*
X309950Y203004D01*
X309040Y201381D01*
X307540Y199881D01*
X307540Y199881D01*
X283441Y175781D01*
X282773Y174783D01*
X282539Y173604D01*
Y161380D01*
X280691Y160614D01*
X278650Y159048D01*
X277084Y157007D01*
X276100Y154630D01*
X275764Y152080D01*
X276100Y149529D01*
X277084Y147153D01*
X278650Y145112D01*
X280691Y143546D01*
X283068Y142562D01*
X285618Y142226D01*
X288169Y142562D01*
X290545Y143546D01*
X292586Y145112D01*
X294152Y147153D01*
X295137Y149529D01*
X295472Y152080D01*
X295137Y154630D01*
X294152Y157007D01*
X292586Y159048D01*
X290545Y160614D01*
X288697Y161380D01*
Y172329D01*
X311895Y195526D01*
X311895Y195526D01*
X311988Y195620D01*
X313414Y197008D01*
X313414Y197008D01*
X315003Y199079D01*
X316003Y201492D01*
X318186Y202756D01*
X318237Y202741D01*
X318479Y200898D01*
X318500Y200849D01*
X319191Y199181D01*
X320322Y197706D01*
X321797Y196574D01*
X323515Y195863D01*
X325358Y195620D01*
X327201Y195863D01*
X328918Y196574D01*
X330393Y197706D01*
X331525Y199181D01*
X332216Y200849D01*
X332236Y200898D01*
X332429Y202365D01*
X334446D01*
X334640Y200898D01*
X334660Y200849D01*
X335351Y199181D01*
X336483Y197706D01*
X337957Y196574D01*
X339675Y195863D01*
X341518Y195620D01*
X343361Y195863D01*
X345078Y196574D01*
X346553Y197706D01*
X347685Y199181D01*
X348376Y200849D01*
X348396Y200898D01*
X348589Y202365D01*
X350606D01*
X350799Y200898D01*
X350820Y200849D01*
X351511Y199181D01*
X352643Y197706D01*
X354117Y196574D01*
X355835Y195863D01*
X357678Y195620D01*
X359521Y195863D01*
X361238Y196574D01*
X362713Y197706D01*
X363845Y199181D01*
X364536Y200849D01*
X364556Y200898D01*
X364749Y202365D01*
X366766D01*
X366959Y200898D01*
X366980Y200849D01*
X367671Y199181D01*
X368802Y197706D01*
X370277Y196574D01*
X371995Y195863D01*
X373838Y195620D01*
X375681Y195863D01*
X377398Y196574D01*
X378873Y197706D01*
X380005Y199181D01*
X380696Y200849D01*
X380716Y200898D01*
X380909Y202365D01*
X382926D01*
X383119Y200898D01*
X383140Y200849D01*
X383831Y199181D01*
X384963Y197706D01*
X386437Y196574D01*
X388155Y195863D01*
X389998Y195620D01*
X391841Y195863D01*
X393558Y196574D01*
X395033Y197706D01*
X396165Y199181D01*
X396856Y200849D01*
X396876Y200898D01*
X397069Y202365D01*
X399086D01*
X399279Y200898D01*
X399300Y200849D01*
X399991Y199181D01*
X401123Y197706D01*
X402597Y196574D01*
X404315Y195863D01*
X406158Y195620D01*
X408001Y195863D01*
X409718Y196574D01*
X411193Y197706D01*
X412325Y199181D01*
X413016Y200849D01*
X413036Y200898D01*
X413279Y202741D01*
X415277Y202806D01*
X415439Y201571D01*
X415460Y201522D01*
X416151Y199853D01*
X417282Y198379D01*
X418757Y197247D01*
X420425Y196556D01*
X420475Y196536D01*
X422317Y196293D01*
X424317Y196295D01*
X427192Y196294D01*
X428087Y195399D01*
X428087Y195399D01*
X448279Y175207D01*
Y157894D01*
X447722Y157608D01*
X446279Y157363D01*
X444986Y159048D01*
X442945Y160614D01*
X440569Y161599D01*
X438018Y161934D01*
X435467Y161599D01*
X433091Y160614D01*
X431050Y159048D01*
X429484Y157007D01*
X428499Y154630D01*
X428164Y152080D01*
X428499Y149529D01*
X429265Y147682D01*
X423347Y141763D01*
X418376D01*
X417935Y142709D01*
X417828Y143763D01*
X419586Y145112D01*
X421152Y147153D01*
X422136Y149529D01*
X422472Y152080D01*
X422136Y154630D01*
X421152Y157007D01*
X419586Y159048D01*
X417545Y160614D01*
X415168Y161599D01*
X412618Y161934D01*
X410067Y161599D01*
X407691Y160614D01*
X405650Y159048D01*
X404084Y157007D01*
X403100Y154630D01*
X402764Y152080D01*
X403100Y149529D01*
X404084Y147153D01*
X405650Y145112D01*
X407408Y143763D01*
X407301Y142709D01*
X406861Y141763D01*
X392976D01*
X392535Y142709D01*
X392428Y143763D01*
X394186Y145112D01*
X395752Y147153D01*
X396736Y149529D01*
X397072Y152080D01*
X396736Y154630D01*
X395752Y157007D01*
X394186Y159048D01*
X392145Y160614D01*
X389768Y161599D01*
X387218Y161934D01*
X384668Y161599D01*
X382291Y160614D01*
X380250Y159048D01*
X378684Y157007D01*
X377700Y154630D01*
X377364Y152080D01*
X377700Y149529D01*
X378684Y147153D01*
X380250Y145112D01*
X382008Y143763D01*
X381901Y142709D01*
X381460Y141763D01*
X367575D01*
X367135Y142709D01*
X367028Y143763D01*
X368786Y145112D01*
X370352Y147153D01*
X371337Y149529D01*
X371672Y152080D01*
X371337Y154630D01*
X370352Y157007D01*
X368786Y159048D01*
X366745Y160614D01*
X364369Y161599D01*
X361818Y161934D01*
X359268Y161599D01*
X356891Y160614D01*
X354850Y159048D01*
X353284Y157007D01*
X352299Y154630D01*
X351964Y152080D01*
X352299Y149529D01*
X353284Y147153D01*
X354850Y145112D01*
X356608Y143763D01*
X356501Y142709D01*
X356060Y141763D01*
X350520D01*
X349342Y141529D01*
X348343Y140861D01*
X338437Y130955D01*
X337769Y129956D01*
X337535Y128778D01*
Y60203D01*
X320939Y43608D01*
X209312D01*
X208133Y43373D01*
X207134Y42706D01*
X205377Y40948D01*
X204709Y39949D01*
X204475Y38771D01*
Y36286D01*
X204709Y35107D01*
X205377Y34108D01*
X209659Y29827D01*
X210658Y29159D01*
X211836Y28925D01*
X218214D01*
X218228Y28891D01*
X218261Y28878D01*
Y17818D01*
X218212D01*
X218640Y15664D01*
X219860Y13838D01*
X221686Y12618D01*
X223840Y12190D01*
X225994Y12618D01*
X227722Y11658D01*
X228212Y10382D01*
X228212D01*
X228640Y8228D01*
X229860Y6402D01*
X231686Y5182D01*
X233840Y4754D01*
X235994Y5182D01*
X237820Y6402D01*
X237840Y6432D01*
X239840D01*
X239860Y6402D01*
X241686Y5182D01*
X243840Y4754D01*
X245994Y5182D01*
X247820Y6402D01*
X247840Y6432D01*
X249840D01*
X249860Y6402D01*
X251686Y5182D01*
X253840Y4754D01*
X255994Y5182D01*
X257820Y6402D01*
X257840Y6432D01*
X259840D01*
X259860Y6402D01*
X261686Y5182D01*
X263840Y4754D01*
X265994Y5182D01*
X267820Y6402D01*
X267840Y6432D01*
X269840D01*
X269860Y6402D01*
X271686Y5182D01*
X273840Y4754D01*
X275994Y5182D01*
X277820Y6402D01*
X277840Y6432D01*
X279840D01*
X279860Y6402D01*
X281686Y5182D01*
X283840Y4754D01*
X285994Y5182D01*
X287820Y6402D01*
X287840Y6432D01*
X289840D01*
X289860Y6402D01*
X291686Y5182D01*
X293840Y4754D01*
X295994Y5182D01*
X297820Y6402D01*
X297840Y6432D01*
X299840D01*
X299860Y6402D01*
X301686Y5182D01*
X303840Y4754D01*
X305994Y5182D01*
X307820Y6402D01*
X307840Y6432D01*
X309840D01*
X309860Y6402D01*
X311686Y5182D01*
X313840Y4754D01*
X315994Y5182D01*
X317820Y6402D01*
X317840Y6432D01*
X319840D01*
X319860Y6402D01*
X321686Y5182D01*
X323840Y4754D01*
X325994Y5182D01*
X327820Y6402D01*
X327840Y6432D01*
X329840D01*
X329860Y6402D01*
X331686Y5182D01*
X333840Y4754D01*
X335994Y5182D01*
X337820Y6402D01*
X337840Y6432D01*
X339840D01*
X339860Y6402D01*
X341686Y5182D01*
X343840Y4754D01*
X345994Y5182D01*
X347820Y6402D01*
X347840Y6432D01*
X349840D01*
X349860Y6402D01*
X351686Y5182D01*
X353840Y4754D01*
X355994Y5182D01*
X357820Y6402D01*
X357840Y6432D01*
X359840D01*
X359860Y6402D01*
X361686Y5182D01*
X363840Y4754D01*
X365994Y5182D01*
X367820Y6402D01*
X369040Y8228D01*
X369468Y10382D01*
X369419D01*
Y28878D01*
X369452Y28891D01*
X369466Y28925D01*
X373210D01*
X374388Y29159D01*
X375387Y29827D01*
X377144Y31584D01*
X377812Y32583D01*
X378046Y33761D01*
Y35112D01*
X379424D01*
Y45152D01*
X377781D01*
Y60281D01*
X379427Y60963D01*
X381468Y62529D01*
X383034Y64570D01*
X384019Y66947D01*
X384354Y69497D01*
X384019Y72048D01*
X383034Y74424D01*
X381468Y76465D01*
X379427Y78031D01*
X377051Y79015D01*
X374500Y79351D01*
X371950Y79015D01*
X369573Y78031D01*
X367532Y76465D01*
X365966Y74424D01*
X364981Y72048D01*
X364646Y69497D01*
X364981Y66947D01*
X365966Y64570D01*
X367532Y62529D01*
X369573Y60963D01*
X371623Y60114D01*
Y45152D01*
X370384D01*
Y36709D01*
X369340Y35142D01*
X368445Y34964D01*
X366991Y34675D01*
X366151Y34113D01*
X364091Y34467D01*
X363832Y34786D01*
X362820Y36302D01*
X360994Y37522D01*
X358840Y37950D01*
X356686Y37522D01*
X354860Y36302D01*
X354840Y36271D01*
X352840D01*
X352820Y36302D01*
X350994Y37522D01*
X348840Y37950D01*
X346686Y37522D01*
X344860Y36302D01*
X344840Y36271D01*
X342840D01*
X342820Y36302D01*
X340994Y37522D01*
X338840Y37950D01*
X336686Y37522D01*
X335112Y36470D01*
X334293Y36271D01*
X333387D01*
X332567Y36470D01*
X330994Y37522D01*
X328840Y37950D01*
X326686Y37522D01*
X325555Y36766D01*
X324392Y38351D01*
X342791Y56751D01*
X343459Y57750D01*
X343693Y58928D01*
Y127503D01*
X350384Y134194D01*
X350717Y134124D01*
X352375Y133008D01*
X351937Y130805D01*
Y122555D01*
X352375Y120352D01*
X353623Y118485D01*
X355490Y117238D01*
X357693Y116799D01*
X365943D01*
X368146Y117238D01*
X370013Y118485D01*
X371260Y120352D01*
X371699Y122555D01*
Y130805D01*
X371260Y133008D01*
X370862Y133605D01*
X371931Y135605D01*
X379515D01*
X380188Y133812D01*
X380217Y133605D01*
X378684Y131607D01*
X377700Y129230D01*
X377364Y126680D01*
X377700Y124129D01*
X378684Y121753D01*
X380250Y119712D01*
X382291Y118146D01*
X384668Y117162D01*
X387218Y116826D01*
X389768Y117162D01*
X392145Y118146D01*
X394186Y119712D01*
X395752Y121753D01*
X396736Y124129D01*
X397072Y126680D01*
X396736Y129230D01*
X395752Y131607D01*
X394219Y133605D01*
X394248Y133812D01*
X394921Y135605D01*
X404915D01*
X405588Y133812D01*
X405617Y133605D01*
X404084Y131607D01*
X403100Y129230D01*
X402764Y126680D01*
X403100Y124129D01*
X404084Y121753D01*
X405650Y119712D01*
X407691Y118146D01*
X410067Y117162D01*
X412618Y116826D01*
X415168Y117162D01*
X417545Y118146D01*
X419586Y119712D01*
X421152Y121753D01*
X422136Y124129D01*
X422472Y126680D01*
X422136Y129230D01*
X421152Y131607D01*
X419619Y133605D01*
X419647Y133812D01*
X420321Y135605D01*
X424622D01*
X425800Y135839D01*
X426799Y136507D01*
X433619Y143327D01*
X435467Y142562D01*
X438018Y142226D01*
X440569Y142562D01*
X442945Y143546D01*
X444986Y145112D01*
X446279Y146797D01*
X447722Y146552D01*
X448279Y146266D01*
Y132494D01*
X447722Y132208D01*
X446279Y131963D01*
X444986Y133648D01*
X442945Y135214D01*
X440569Y136199D01*
X438018Y136534D01*
X435467Y136199D01*
X433091Y135214D01*
X431050Y133648D01*
X429484Y131607D01*
X428499Y129230D01*
X428164Y126680D01*
X428499Y124129D01*
X429484Y121753D01*
X431050Y119712D01*
X433091Y118146D01*
X435467Y117162D01*
X438018Y116826D01*
X440569Y117162D01*
X442945Y118146D01*
X444986Y119712D01*
X446279Y121397D01*
X447722Y121152D01*
X448279Y120866D01*
Y101540D01*
X446838D01*
Y91500D01*
X447950D01*
Y78933D01*
X445773Y78031D01*
X443732Y76465D01*
X442166Y74424D01*
X441181Y72048D01*
X440846Y69497D01*
X441181Y66947D01*
X442166Y64570D01*
X443732Y62529D01*
X445773Y60963D01*
X448149Y59978D01*
X450700Y59643D01*
X453251Y59978D01*
X455627Y60963D01*
X457668Y62529D01*
X459234Y64570D01*
X460219Y66947D01*
X460554Y69497D01*
X460219Y72048D01*
X459234Y74424D01*
X457668Y76465D01*
X455627Y78031D01*
X454108Y78660D01*
Y91500D01*
X455878D01*
Y101540D01*
X454437D01*
Y119050D01*
X456437Y119729D01*
X456450Y119712D01*
X458491Y118146D01*
X460868Y117162D01*
X463418Y116826D01*
X465969Y117162D01*
X468345Y118146D01*
X470386Y119712D01*
X471952Y121753D01*
X472937Y124129D01*
X473272Y126680D01*
X472937Y129230D01*
X471952Y131607D01*
X470386Y133648D01*
X468345Y135214D01*
X465969Y136199D01*
X463418Y136534D01*
X460868Y136199D01*
X458491Y135214D01*
X456450Y133648D01*
X456437Y133631D01*
X454437Y134310D01*
Y144450D01*
X456437Y145129D01*
X456450Y145112D01*
X458491Y143546D01*
X460868Y142562D01*
X463418Y142226D01*
X465969Y142562D01*
X468345Y143546D01*
X470386Y145112D01*
X471952Y147153D01*
X472937Y149529D01*
X473272Y152080D01*
X472937Y154630D01*
X471952Y157007D01*
X470386Y159048D01*
X468345Y160614D01*
X465969Y161599D01*
X463418Y161934D01*
X460868Y161599D01*
X458491Y160614D01*
X456450Y159048D01*
X456437Y159031D01*
X454437Y159710D01*
Y176482D01*
X454203Y177661D01*
X453535Y178660D01*
X432442Y199753D01*
X432442Y199753D01*
X430644Y201550D01*
X430168Y201869D01*
X429646Y202218D01*
X429646Y202218D01*
X429646Y202218D01*
X429113Y202324D01*
X428468Y202452D01*
X422942Y202453D01*
X421955Y203051D01*
X421357Y204038D01*
Y277294D01*
X421359D01*
X421116Y279137D01*
X421096Y279186D01*
X420405Y280855D01*
X419273Y282330D01*
X417798Y283461D01*
X416081Y284172D01*
X414238Y284415D01*
X412395Y284172D01*
X410677Y283461D01*
X409202Y282330D01*
X408071Y280855D01*
X407510Y279502D01*
X406430Y279215D01*
X405364Y279305D01*
X405199Y279628D01*
X404956Y281471D01*
X404936Y281520D01*
X404245Y283188D01*
X403113Y284663D01*
X401638Y285795D01*
X399921Y286506D01*
X398078Y286749D01*
D02*
G37*
G36*
X938382Y281882D02*
X936027Y281572D01*
X933833Y280663D01*
X931949Y279217D01*
X930503Y277333D01*
X929594Y275139D01*
X929284Y272784D01*
X929594Y270429D01*
X930503Y268235D01*
X931949Y266351D01*
X933833Y264905D01*
X936027Y263996D01*
X938382Y263686D01*
X940737Y263996D01*
X942931Y264905D01*
X944815Y266351D01*
X946261Y268235D01*
X947170Y270429D01*
X947480Y272784D01*
X947170Y275139D01*
X946261Y277333D01*
X944815Y279217D01*
X942931Y280663D01*
X940737Y281572D01*
X938382Y281882D01*
D02*
G37*
G36*
X947402Y216804D02*
X929362D01*
Y198764D01*
X947402D01*
Y216804D01*
D02*
G37*
G36*
X438800Y562551D02*
X436250Y562215D01*
X433873Y561231D01*
X431832Y559665D01*
X430266Y557624D01*
X429282Y555247D01*
X428946Y552697D01*
X429282Y550146D01*
X430266Y547770D01*
X431832Y545729D01*
X433873Y544163D01*
X436250Y543178D01*
X438800Y542843D01*
X441351Y543178D01*
X443199Y543944D01*
X452694Y534449D01*
X453693Y533781D01*
X454871Y533547D01*
X488274D01*
X489040Y531699D01*
X484774Y527434D01*
X488795Y523413D01*
Y513347D01*
X486535D01*
Y504307D01*
X496575D01*
Y513347D01*
X494953D01*
Y523414D01*
X498266Y526727D01*
X493293Y531699D01*
X494059Y533547D01*
X497046D01*
X501066Y529527D01*
X502085Y530546D01*
X523463Y509168D01*
Y159366D01*
X521463Y158687D01*
X521186Y159048D01*
X519145Y160614D01*
X516768Y161599D01*
X514218Y161934D01*
X511668Y161599D01*
X509291Y160614D01*
X507250Y159048D01*
X505684Y157007D01*
X505167Y155760D01*
X503167Y156158D01*
Y349796D01*
X502933Y350974D01*
X502265Y351973D01*
X495908Y358331D01*
X496123Y359410D01*
X495693Y361572D01*
X494468Y363404D01*
X492636Y364629D01*
X490474Y365059D01*
X488312Y364629D01*
X486480Y363404D01*
X485255Y361572D01*
X484826Y359410D01*
X485255Y357248D01*
X486480Y355416D01*
X488312Y354191D01*
X490474Y353761D01*
X491553Y353976D01*
X497009Y348521D01*
Y139226D01*
X493217Y135433D01*
X491368Y136199D01*
X488818Y136534D01*
X486268Y136199D01*
X483891Y135214D01*
X481850Y133648D01*
X480284Y131607D01*
X479300Y129230D01*
X478964Y126680D01*
X479300Y124129D01*
X480284Y121753D01*
X481850Y119712D01*
X483891Y118146D01*
X486268Y117162D01*
X488818Y116826D01*
X491368Y117162D01*
X493745Y118146D01*
X495786Y119712D01*
X497352Y121753D01*
X498336Y124129D01*
X498672Y126680D01*
X498336Y129230D01*
X497571Y131079D01*
X502265Y135773D01*
X502933Y136772D01*
X503167Y137950D01*
Y148003D01*
X505167Y148400D01*
X505684Y147153D01*
X507250Y145112D01*
X509291Y143546D01*
X511668Y142562D01*
X514218Y142226D01*
X516768Y142562D01*
X519145Y143546D01*
X521186Y145112D01*
X521463Y145473D01*
X523463Y144794D01*
Y139756D01*
X523697Y138578D01*
X524365Y137579D01*
X530865Y131079D01*
X530099Y129230D01*
X529764Y126680D01*
X530099Y124129D01*
X531084Y121753D01*
X532650Y119712D01*
X534691Y118146D01*
X537067Y117162D01*
X539618Y116826D01*
X542169Y117162D01*
X544545Y118146D01*
X546586Y119712D01*
X548152Y121753D01*
X549137Y124129D01*
X549472Y126680D01*
X549137Y129230D01*
X548152Y131607D01*
X546586Y133648D01*
X544545Y135214D01*
X542169Y136199D01*
X539618Y136534D01*
X537067Y136199D01*
X535219Y135433D01*
X529621Y141032D01*
Y145774D01*
X531621Y146453D01*
X532650Y145112D01*
X534691Y143546D01*
X537067Y142562D01*
X539618Y142226D01*
X542169Y142562D01*
X544545Y143546D01*
X546586Y145112D01*
X548152Y147153D01*
X549137Y149529D01*
X549472Y152080D01*
X549137Y154630D01*
X548152Y157007D01*
X546586Y159048D01*
X544545Y160614D01*
X542169Y161599D01*
X539618Y161934D01*
X537067Y161599D01*
X534691Y160614D01*
X532650Y159048D01*
X531621Y157707D01*
X529621Y158386D01*
Y510443D01*
X529387Y511621D01*
X528719Y512620D01*
X506440Y534900D01*
X507458Y535919D01*
X500359Y543018D01*
X497046Y539705D01*
X456146D01*
X447553Y548298D01*
X448318Y550146D01*
X448654Y552697D01*
X448318Y555247D01*
X447334Y557624D01*
X445768Y559665D01*
X443727Y561231D01*
X441351Y562215D01*
X438800Y562551D01*
D02*
G37*
G36*
X717418Y161934D02*
X714867Y161599D01*
X712491Y160614D01*
X710450Y159048D01*
X708884Y157007D01*
X707899Y154630D01*
X707564Y152080D01*
X707899Y149529D01*
X708884Y147153D01*
X710450Y145112D01*
X712491Y143546D01*
X714867Y142562D01*
X717418Y142226D01*
X719968Y142562D01*
X722345Y143546D01*
X724386Y145112D01*
X725952Y147153D01*
X726936Y149529D01*
X727272Y152080D01*
X726936Y154630D01*
X725952Y157007D01*
X724386Y159048D01*
X722345Y160614D01*
X719968Y161599D01*
X717418Y161934D01*
D02*
G37*
G36*
X641218D02*
X638667Y161599D01*
X636291Y160614D01*
X634250Y159048D01*
X632684Y157007D01*
X631699Y154630D01*
X631364Y152080D01*
X631699Y149529D01*
X632684Y147153D01*
X634250Y145112D01*
X636291Y143546D01*
X638667Y142562D01*
X641218Y142226D01*
X643768Y142562D01*
X646145Y143546D01*
X648186Y145112D01*
X649752Y147153D01*
X650736Y149529D01*
X651072Y152080D01*
X650736Y154630D01*
X649752Y157007D01*
X648186Y159048D01*
X646145Y160614D01*
X643768Y161599D01*
X641218Y161934D01*
D02*
G37*
G36*
X615818D02*
X613268Y161599D01*
X610891Y160614D01*
X608850Y159048D01*
X607284Y157007D01*
X606300Y154630D01*
X605964Y152080D01*
X606300Y149529D01*
X607284Y147153D01*
X608850Y145112D01*
X610891Y143546D01*
X613268Y142562D01*
X615818Y142226D01*
X618368Y142562D01*
X620745Y143546D01*
X622786Y145112D01*
X624352Y147153D01*
X625336Y149529D01*
X625672Y152080D01*
X625336Y154630D01*
X624352Y157007D01*
X622786Y159048D01*
X620745Y160614D01*
X618368Y161599D01*
X615818Y161934D01*
D02*
G37*
G36*
X590418D02*
X587868Y161599D01*
X585491Y160614D01*
X583450Y159048D01*
X581884Y157007D01*
X580900Y154630D01*
X580564Y152080D01*
X580900Y149529D01*
X581884Y147153D01*
X583450Y145112D01*
X585491Y143546D01*
X587868Y142562D01*
X590418Y142226D01*
X592968Y142562D01*
X595345Y143546D01*
X597386Y145112D01*
X598952Y147153D01*
X599936Y149529D01*
X600272Y152080D01*
X599936Y154630D01*
X598952Y157007D01*
X597386Y159048D01*
X595345Y160614D01*
X592968Y161599D01*
X590418Y161934D01*
D02*
G37*
G36*
X565018D02*
X562467Y161599D01*
X560091Y160614D01*
X558050Y159048D01*
X556484Y157007D01*
X555499Y154630D01*
X555164Y152080D01*
X555499Y149529D01*
X556484Y147153D01*
X558050Y145112D01*
X560091Y143546D01*
X562467Y142562D01*
X565018Y142226D01*
X567569Y142562D01*
X569945Y143546D01*
X571986Y145112D01*
X573552Y147153D01*
X574537Y149529D01*
X574872Y152080D01*
X574537Y154630D01*
X573552Y157007D01*
X571986Y159048D01*
X569945Y160614D01*
X567569Y161599D01*
X565018Y161934D01*
D02*
G37*
G36*
X311018Y161934D02*
X308468Y161598D01*
X306091Y160614D01*
X304050Y159048D01*
X302484Y157007D01*
X301500Y154630D01*
X301164Y152080D01*
X301500Y149529D01*
X302484Y147153D01*
X304050Y145112D01*
X306091Y143546D01*
X308468Y142562D01*
X311018Y142226D01*
X313569Y142562D01*
X315945Y143546D01*
X317986Y145112D01*
X319552Y147153D01*
X320537Y149529D01*
X320872Y152080D01*
X320537Y154630D01*
X319552Y157007D01*
X317986Y159048D01*
X315945Y160614D01*
X313569Y161598D01*
X311018Y161934D01*
D02*
G37*
G36*
X260218D02*
X257668Y161598D01*
X255291Y160614D01*
X253250Y159048D01*
X251684Y157007D01*
X250700Y154630D01*
X250364Y152080D01*
X250700Y149529D01*
X251684Y147153D01*
X253250Y145112D01*
X255291Y143546D01*
X257668Y142562D01*
X260218Y142226D01*
X262769Y142562D01*
X265145Y143546D01*
X267186Y145112D01*
X268752Y147153D01*
X269737Y149529D01*
X270072Y152080D01*
X269737Y154630D01*
X268752Y157007D01*
X267186Y159048D01*
X265145Y160614D01*
X262769Y161598D01*
X260218Y161934D01*
D02*
G37*
G36*
X234818D02*
X232268Y161598D01*
X229891Y160614D01*
X227850Y159048D01*
X226284Y157007D01*
X225300Y154630D01*
X224964Y152080D01*
X225300Y149529D01*
X226284Y147153D01*
X227850Y145112D01*
X229891Y143546D01*
X232268Y142562D01*
X234818Y142226D01*
X237369Y142562D01*
X239745Y143546D01*
X241786Y145112D01*
X243352Y147153D01*
X244337Y149529D01*
X244672Y152080D01*
X244337Y154630D01*
X243352Y157007D01*
X241786Y159048D01*
X239745Y160614D01*
X237369Y161598D01*
X234818Y161934D01*
D02*
G37*
G36*
X209418D02*
X206868Y161598D01*
X204491Y160614D01*
X202450Y159048D01*
X200884Y157007D01*
X199900Y154630D01*
X199564Y152080D01*
X199900Y149529D01*
X200884Y147153D01*
X202450Y145112D01*
X204491Y143546D01*
X206868Y142562D01*
X209418Y142226D01*
X211969Y142562D01*
X214345Y143546D01*
X216386Y145112D01*
X217952Y147153D01*
X218937Y149529D01*
X219272Y152080D01*
X218937Y154630D01*
X217952Y157007D01*
X216386Y159048D01*
X214345Y160614D01*
X211969Y161598D01*
X209418Y161934D01*
D02*
G37*
G36*
X184018D02*
X181468Y161598D01*
X179091Y160614D01*
X177050Y159048D01*
X175484Y157007D01*
X174500Y154630D01*
X174164Y152080D01*
X174500Y149529D01*
X175484Y147153D01*
X177050Y145112D01*
X179091Y143546D01*
X181468Y142562D01*
X184018Y142226D01*
X186569Y142562D01*
X188945Y143546D01*
X190986Y145112D01*
X192552Y147153D01*
X193537Y149529D01*
X193872Y152080D01*
X193537Y154630D01*
X192552Y157007D01*
X190986Y159048D01*
X188945Y160614D01*
X186569Y161598D01*
X184018Y161934D01*
D02*
G37*
G36*
X158618D02*
X156068Y161598D01*
X153691Y160614D01*
X151650Y159048D01*
X150084Y157007D01*
X149100Y154630D01*
X148764Y152080D01*
X149100Y149529D01*
X150084Y147153D01*
X151650Y145112D01*
X153691Y143546D01*
X156068Y142562D01*
X158618Y142226D01*
X161169Y142562D01*
X163545Y143546D01*
X165586Y145112D01*
X167152Y147153D01*
X168137Y149529D01*
X168472Y152080D01*
X168137Y154630D01*
X167152Y157007D01*
X165586Y159048D01*
X163545Y160614D01*
X161169Y161598D01*
X158618Y161934D01*
D02*
G37*
G36*
X133218D02*
X130668Y161598D01*
X128291Y160614D01*
X126250Y159048D01*
X124684Y157007D01*
X123700Y154630D01*
X123364Y152080D01*
X123700Y149529D01*
X124684Y147153D01*
X126250Y145112D01*
X128291Y143546D01*
X130668Y142562D01*
X133218Y142226D01*
X135769Y142562D01*
X138145Y143546D01*
X140186Y145112D01*
X141752Y147153D01*
X142737Y149529D01*
X143072Y152080D01*
X142737Y154630D01*
X141752Y157007D01*
X140186Y159048D01*
X138145Y160614D01*
X135769Y161598D01*
X133218Y161934D01*
D02*
G37*
G36*
X717418Y136534D02*
X714867Y136199D01*
X712491Y135214D01*
X710450Y133648D01*
X708884Y131607D01*
X707899Y129230D01*
X707564Y126680D01*
X707899Y124129D01*
X708884Y121753D01*
X710450Y119712D01*
X712491Y118146D01*
X714867Y117162D01*
X717418Y116826D01*
X719968Y117162D01*
X722345Y118146D01*
X724386Y119712D01*
X725952Y121753D01*
X726936Y124129D01*
X727272Y126680D01*
X726936Y129230D01*
X725952Y131607D01*
X724386Y133648D01*
X722345Y135214D01*
X719968Y136199D01*
X717418Y136534D01*
D02*
G37*
G36*
X666618D02*
X664068Y136199D01*
X661691Y135214D01*
X659650Y133648D01*
X658084Y131607D01*
X657100Y129230D01*
X656764Y126680D01*
X657100Y124129D01*
X658084Y121753D01*
X659650Y119712D01*
X661691Y118146D01*
X664068Y117162D01*
X666618Y116826D01*
X669168Y117162D01*
X671545Y118146D01*
X673586Y119712D01*
X675152Y121753D01*
X676136Y124129D01*
X676472Y126680D01*
X676136Y129230D01*
X675152Y131607D01*
X673586Y133648D01*
X671545Y135214D01*
X669168Y136199D01*
X666618Y136534D01*
D02*
G37*
G36*
X565018D02*
X562467Y136199D01*
X560091Y135214D01*
X558050Y133648D01*
X556484Y131607D01*
X555499Y129230D01*
X555164Y126680D01*
X555499Y124129D01*
X556484Y121753D01*
X558050Y119712D01*
X560091Y118146D01*
X562467Y117162D01*
X565018Y116826D01*
X567569Y117162D01*
X569945Y118146D01*
X571986Y119712D01*
X573552Y121753D01*
X574537Y124129D01*
X574872Y126680D01*
X574537Y129230D01*
X573552Y131607D01*
X571986Y133648D01*
X569945Y135214D01*
X567569Y136199D01*
X565018Y136534D01*
D02*
G37*
G36*
X311018Y136534D02*
X308468Y136199D01*
X306091Y135214D01*
X304050Y133648D01*
X302484Y131607D01*
X301500Y129230D01*
X301164Y126680D01*
X301500Y124129D01*
X302484Y121753D01*
X304050Y119712D01*
X306091Y118146D01*
X308468Y117162D01*
X311018Y116826D01*
X313569Y117162D01*
X315945Y118146D01*
X317986Y119712D01*
X319552Y121753D01*
X320537Y124129D01*
X320872Y126680D01*
X320537Y129230D01*
X319552Y131607D01*
X317986Y133648D01*
X315945Y135214D01*
X313569Y136199D01*
X311018Y136534D01*
D02*
G37*
G36*
X234818D02*
X232268Y136199D01*
X229891Y135214D01*
X227850Y133648D01*
X226284Y131607D01*
X225300Y129230D01*
X224964Y126680D01*
X225300Y124129D01*
X226284Y121753D01*
X227850Y119712D01*
X229891Y118146D01*
X232268Y117162D01*
X234818Y116826D01*
X237369Y117162D01*
X239745Y118146D01*
X241786Y119712D01*
X243352Y121753D01*
X244337Y124129D01*
X244672Y126680D01*
X244337Y129230D01*
X243352Y131607D01*
X241786Y133648D01*
X239745Y135214D01*
X237369Y136199D01*
X234818Y136534D01*
D02*
G37*
G36*
X209418D02*
X206868Y136199D01*
X204491Y135214D01*
X202450Y133648D01*
X200884Y131607D01*
X199900Y129230D01*
X199564Y126680D01*
X199900Y124129D01*
X200884Y121753D01*
X202450Y119712D01*
X204491Y118146D01*
X206868Y117162D01*
X209418Y116826D01*
X211969Y117162D01*
X214345Y118146D01*
X216386Y119712D01*
X217952Y121753D01*
X218937Y124129D01*
X219272Y126680D01*
X218937Y129230D01*
X217952Y131607D01*
X216386Y133648D01*
X214345Y135214D01*
X211969Y136199D01*
X209418Y136534D01*
D02*
G37*
G36*
X184018D02*
X181468Y136199D01*
X179091Y135214D01*
X177050Y133648D01*
X175484Y131607D01*
X174500Y129230D01*
X174164Y126680D01*
X174500Y124129D01*
X175484Y121753D01*
X177050Y119712D01*
X179091Y118146D01*
X181468Y117162D01*
X184018Y116826D01*
X186569Y117162D01*
X188945Y118146D01*
X190986Y119712D01*
X192552Y121753D01*
X193537Y124129D01*
X193872Y126680D01*
X193537Y129230D01*
X192552Y131607D01*
X190986Y133648D01*
X188945Y135214D01*
X186569Y136199D01*
X184018Y136534D01*
D02*
G37*
G36*
X158618D02*
X156068Y136199D01*
X153691Y135214D01*
X151650Y133648D01*
X150084Y131607D01*
X149100Y129230D01*
X148764Y126680D01*
X149100Y124129D01*
X150084Y121753D01*
X151650Y119712D01*
X153691Y118146D01*
X156068Y117162D01*
X158618Y116826D01*
X161169Y117162D01*
X163545Y118146D01*
X165586Y119712D01*
X167152Y121753D01*
X168137Y124129D01*
X168472Y126680D01*
X168137Y129230D01*
X167152Y131607D01*
X165586Y133648D01*
X163545Y135214D01*
X161169Y136199D01*
X158618Y136534D01*
D02*
G37*
G36*
X137343Y136561D02*
X129093D01*
X126891Y136123D01*
X125023Y134875D01*
X123776Y133008D01*
X123337Y130805D01*
Y122555D01*
X123776Y120352D01*
X125023Y118485D01*
X126891Y117238D01*
X129093Y116799D01*
X137343D01*
X139546Y117238D01*
X141413Y118485D01*
X142661Y120352D01*
X143099Y122555D01*
Y130805D01*
X142661Y133008D01*
X141413Y134875D01*
X139546Y136123D01*
X137343Y136561D01*
D02*
G37*
G36*
X866394Y279869D02*
X864300Y279594D01*
X862349Y278785D01*
X860674Y277500D01*
X859389Y275825D01*
X858580Y273874D01*
X858305Y271780D01*
X858580Y269686D01*
X859389Y267735D01*
X860674Y266060D01*
X862254Y264847D01*
Y241745D01*
X731837Y111328D01*
X637025D01*
X625010Y123342D01*
X625336Y124129D01*
X625672Y126680D01*
X625336Y129230D01*
X624352Y131607D01*
X622786Y133648D01*
X620745Y135214D01*
X618368Y136199D01*
X615818Y136534D01*
X613268Y136199D01*
X610891Y135214D01*
X608850Y133648D01*
X607284Y131607D01*
X606300Y129230D01*
X605964Y126680D01*
X606300Y124129D01*
X607284Y121753D01*
X608850Y119712D01*
X610891Y118146D01*
X613268Y117162D01*
X615818Y116826D01*
X618368Y117162D01*
X619156Y117488D01*
X632383Y104261D01*
X633726Y103364D01*
X635310Y103048D01*
X635310Y103048D01*
X733552D01*
X735136Y103364D01*
X736479Y104261D01*
X869321Y237103D01*
X870219Y238446D01*
X870534Y240030D01*
Y264847D01*
X872114Y266060D01*
X873400Y267735D01*
X874208Y269686D01*
X874483Y271780D01*
X874208Y273874D01*
X873400Y275825D01*
X872114Y277500D01*
X870439Y278785D01*
X868488Y279594D01*
X866394Y279869D01*
D02*
G37*
G36*
X485296Y102048D02*
X476256D01*
Y99853D01*
X468878D01*
Y101540D01*
X459838D01*
Y91500D01*
X468878D01*
Y93695D01*
X476256D01*
Y92008D01*
X485296D01*
Y102048D01*
D02*
G37*
G36*
X514218Y136534D02*
X511668Y136199D01*
X509291Y135214D01*
X507250Y133648D01*
X505684Y131607D01*
X504700Y129230D01*
X504364Y126680D01*
X504700Y124129D01*
X505684Y121753D01*
X507250Y119712D01*
X509291Y118146D01*
X511139Y117381D01*
Y107975D01*
X481122Y77958D01*
X481027Y78031D01*
X478651Y79015D01*
X476100Y79351D01*
X473549Y79015D01*
X471173Y78031D01*
X469132Y76465D01*
X467566Y74424D01*
X466581Y72048D01*
X466246Y69497D01*
X466581Y66947D01*
X467566Y64570D01*
X469132Y62529D01*
X471173Y60963D01*
X473549Y59978D01*
X476100Y59643D01*
X478651Y59978D01*
X481027Y60963D01*
X483068Y62529D01*
X484634Y64570D01*
X485619Y66947D01*
X485954Y69497D01*
X485619Y72048D01*
X485121Y73248D01*
X516395Y104522D01*
X517063Y105521D01*
X517297Y106699D01*
Y117381D01*
X519145Y118146D01*
X521186Y119712D01*
X522752Y121753D01*
X523736Y124129D01*
X524072Y126680D01*
X523736Y129230D01*
X522752Y131607D01*
X521186Y133648D01*
X519145Y135214D01*
X516768Y136199D01*
X514218Y136534D01*
D02*
G37*
G36*
X399900Y79351D02*
X397350Y79015D01*
X394973Y78031D01*
X392932Y76465D01*
X391366Y74424D01*
X390382Y72048D01*
X390046Y69497D01*
X390382Y66947D01*
X391366Y64570D01*
X392932Y62529D01*
X394973Y60963D01*
X397350Y59978D01*
X399900Y59643D01*
X402450Y59978D01*
X404827Y60963D01*
X406868Y62529D01*
X408434Y64570D01*
X409418Y66947D01*
X409754Y69497D01*
X409418Y72048D01*
X408434Y74424D01*
X406868Y76465D01*
X404827Y78031D01*
X402450Y79015D01*
X399900Y79351D01*
D02*
G37*
G36*
X272400D02*
X269849Y79015D01*
X267473Y78031D01*
X265432Y76465D01*
X263866Y74424D01*
X262882Y72048D01*
X262546Y69497D01*
X262882Y66947D01*
X263866Y64570D01*
X265432Y62529D01*
X267473Y60963D01*
X269849Y59978D01*
X272400Y59643D01*
X274951Y59978D01*
X277327Y60963D01*
X279368Y62529D01*
X280934Y64570D01*
X281919Y66947D01*
X282254Y69497D01*
X281919Y72048D01*
X280934Y74424D01*
X279368Y76465D01*
X277327Y78031D01*
X274951Y79015D01*
X272400Y79351D01*
D02*
G37*
G36*
X247000D02*
X244450Y79015D01*
X242073Y78031D01*
X240032Y76465D01*
X238466Y74424D01*
X237481Y72048D01*
X237146Y69497D01*
X237481Y66947D01*
X238466Y64570D01*
X240032Y62529D01*
X242073Y60963D01*
X244450Y59978D01*
X247000Y59643D01*
X249550Y59978D01*
X251927Y60963D01*
X253968Y62529D01*
X255534Y64570D01*
X256518Y66947D01*
X256854Y69497D01*
X256518Y72048D01*
X255534Y74424D01*
X253968Y76465D01*
X251927Y78031D01*
X249550Y79015D01*
X247000Y79351D01*
D02*
G37*
G36*
X221600D02*
X219049Y79015D01*
X216673Y78031D01*
X214632Y76465D01*
X213066Y74424D01*
X212082Y72048D01*
X211746Y69497D01*
X212082Y66947D01*
X213066Y64570D01*
X214632Y62529D01*
X216673Y60963D01*
X219049Y59978D01*
X221600Y59643D01*
X224151Y59978D01*
X226527Y60963D01*
X228568Y62529D01*
X230134Y64570D01*
X231119Y66947D01*
X231454Y69497D01*
X231119Y72048D01*
X230134Y74424D01*
X228568Y76465D01*
X226527Y78031D01*
X224151Y79015D01*
X221600Y79351D01*
D02*
G37*
G36*
X196200D02*
X193650Y79015D01*
X191273Y78031D01*
X189232Y76465D01*
X187666Y74424D01*
X186681Y72048D01*
X186346Y69497D01*
X186681Y66947D01*
X187666Y64570D01*
X189232Y62529D01*
X191273Y60963D01*
X193650Y59978D01*
X196200Y59643D01*
X198750Y59978D01*
X201127Y60963D01*
X203168Y62529D01*
X204734Y64570D01*
X205718Y66947D01*
X206054Y69497D01*
X205718Y72048D01*
X204734Y74424D01*
X203168Y76465D01*
X201127Y78031D01*
X198750Y79015D01*
X196200Y79351D01*
D02*
G37*
G36*
X505625Y79378D02*
X497375D01*
X495172Y78939D01*
X493305Y77692D01*
X492057Y75825D01*
X491619Y73622D01*
Y65372D01*
X492057Y63169D01*
X493305Y61302D01*
X495172Y60054D01*
X497375Y59616D01*
X505625D01*
X507828Y60054D01*
X509695Y61302D01*
X510942Y63169D01*
X511381Y65372D01*
Y73622D01*
X510942Y75825D01*
X509695Y77692D01*
X507828Y78939D01*
X505625Y79378D01*
D02*
G37*
G36*
X327325D02*
X319075D01*
X316872Y78939D01*
X315005Y77692D01*
X313757Y75825D01*
X313319Y73622D01*
Y65372D01*
X313757Y63169D01*
X315005Y61302D01*
X316872Y60054D01*
X319075Y59616D01*
X327325D01*
X329528Y60054D01*
X331395Y61302D01*
X332643Y63169D01*
X333081Y65372D01*
Y73622D01*
X332643Y75825D01*
X331395Y77692D01*
X329528Y78939D01*
X327325Y79378D01*
D02*
G37*
G36*
X408080Y45152D02*
X399040D01*
Y43211D01*
X392424D01*
Y45152D01*
X383384D01*
Y35112D01*
X392424D01*
Y37053D01*
X399040D01*
Y35112D01*
X408080D01*
Y45152D01*
D02*
G37*
G36*
X590418Y136534D02*
X587868Y136199D01*
X585491Y135214D01*
X583450Y133648D01*
X581884Y131607D01*
X580900Y129230D01*
X580564Y126680D01*
X580900Y124129D01*
X581884Y121753D01*
X583450Y119712D01*
X585491Y118146D01*
X587339Y117381D01*
Y58801D01*
X565399Y36861D01*
X552877D01*
Y36863D01*
X551034Y36620D01*
X550985Y36600D01*
X549317Y35909D01*
X547842Y34777D01*
X546710Y33302D01*
X546019Y31634D01*
X545999Y31585D01*
X545836Y30350D01*
X543836Y30481D01*
Y40595D01*
X543838D01*
X543595Y42438D01*
X543575Y42487D01*
X542884Y44155D01*
X541752Y45630D01*
X540277Y46761D01*
X538560Y47473D01*
X536717Y47716D01*
X534874Y47473D01*
X533157Y46761D01*
X531682Y45630D01*
X530550Y44155D01*
X529859Y42487D01*
X529839Y42438D01*
X529646Y40971D01*
X527628D01*
X527435Y42438D01*
X527415Y42486D01*
X526724Y44155D01*
X525592Y45630D01*
X524118Y46761D01*
X522400Y47473D01*
X520557Y47716D01*
X518714Y47473D01*
X516997Y46761D01*
X515522Y45630D01*
X514390Y44155D01*
X513699Y42487D01*
X513679Y42438D01*
X513436Y40595D01*
X513438D01*
Y37379D01*
X511438Y37248D01*
X511275Y38482D01*
X511255Y38531D01*
X510564Y40200D01*
X509432Y41675D01*
X507957Y42806D01*
X506240Y43518D01*
X504397Y43760D01*
X502554Y43518D01*
X500837Y42806D01*
X499362Y41675D01*
X498230Y40200D01*
X497539Y38531D01*
X497519Y38482D01*
X497276Y36639D01*
X497278D01*
Y30481D01*
X495278Y30350D01*
X495115Y31585D01*
X495095Y31634D01*
X494404Y33302D01*
X493272Y34777D01*
X491797Y35909D01*
X490129Y36600D01*
X490080Y36620D01*
X488237Y36863D01*
Y36861D01*
X473650D01*
Y38810D01*
X463610D01*
Y38370D01*
X461610Y37542D01*
X434053Y65099D01*
X434818Y66947D01*
X435154Y69497D01*
X434818Y72048D01*
X433834Y74424D01*
X432268Y76465D01*
X430227Y78031D01*
X427850Y79015D01*
X425300Y79351D01*
X422749Y79015D01*
X420373Y78031D01*
X418332Y76465D01*
X416766Y74424D01*
X415782Y72048D01*
X415446Y69497D01*
X415782Y66947D01*
X416766Y64570D01*
X418332Y62529D01*
X420373Y60963D01*
X422749Y59978D01*
X425300Y59643D01*
X427850Y59978D01*
X429698Y60744D01*
X458838Y31605D01*
X459837Y30937D01*
X461015Y30703D01*
X463610D01*
Y29770D01*
X473650D01*
Y30703D01*
X487594D01*
X488673Y30055D01*
X489272Y29167D01*
X489439Y27899D01*
X489459Y27850D01*
X490150Y26181D01*
X491282Y24706D01*
X492757Y23575D01*
X494474Y22864D01*
X496317Y22621D01*
X498160Y22864D01*
X499878Y23575D01*
X501352Y24706D01*
X502484Y26181D01*
X503175Y27850D01*
X503195Y27899D01*
X503358Y29133D01*
X505358Y29002D01*
Y26462D01*
X505356D01*
X505599Y24618D01*
X505619Y24569D01*
X506310Y22901D01*
X507442Y21426D01*
X508917Y20294D01*
X510634Y19583D01*
X512477Y19340D01*
X514320Y19583D01*
X516037Y20294D01*
X517512Y21426D01*
X518644Y22901D01*
X519335Y24569D01*
X519355Y24618D01*
X519548Y26085D01*
X521566D01*
X521759Y24618D01*
X521779Y24570D01*
X522470Y22901D01*
X523602Y21426D01*
X525077Y20294D01*
X526794Y19583D01*
X528637Y19340D01*
X530480Y19583D01*
X532197Y20294D01*
X533672Y21426D01*
X534804Y22901D01*
X535495Y24569D01*
X535515Y24618D01*
X535758Y26461D01*
X535856Y26517D01*
X536565Y26398D01*
X538181Y25538D01*
X538630Y24455D01*
X539762Y22980D01*
X541237Y21848D01*
X542954Y21137D01*
X544797Y20894D01*
X546640Y21137D01*
X548358Y21848D01*
X549832Y22980D01*
X550964Y24455D01*
X551655Y26123D01*
X551675Y26172D01*
X551918Y28015D01*
X551973Y29212D01*
X552514Y30105D01*
X553501Y30703D01*
X566674D01*
X567852Y30937D01*
X568851Y31605D01*
X592595Y55349D01*
X593263Y56348D01*
X593497Y57526D01*
Y117381D01*
X595345Y118146D01*
X597386Y119712D01*
X598952Y121753D01*
X599936Y124129D01*
X600272Y126680D01*
X599936Y129230D01*
X598952Y131607D01*
X597386Y133648D01*
X595345Y135214D01*
X592968Y136199D01*
X590418Y136534D01*
D02*
G37*
G36*
X473650Y25810D02*
X463610D01*
Y24011D01*
X459942D01*
Y25594D01*
X450902D01*
Y15554D01*
X459942D01*
Y17853D01*
X463610D01*
Y16770D01*
X473650D01*
Y25810D01*
D02*
G37*
%LPD*%
D22*
X492277Y29742D02*
G03*
X488237Y33782I-4040J0D01*
G01*
X492277Y29742D02*
G03*
X500357Y29742I4040J0D01*
G01*
X508437Y36639D02*
G03*
X500357Y36639I-4040J0D01*
G01*
X508437Y26461D02*
G03*
X516517Y26461I4040J0D01*
G01*
X524597Y40595D02*
G03*
X516517Y40595I-4040J0D01*
G01*
X524597Y26461D02*
G03*
X532677Y26461I4040J0D01*
G01*
X540757Y40595D02*
G03*
X532677Y40595I-4040J0D01*
G01*
X540757Y28015D02*
G03*
X548837Y28015I4040J0D01*
G01*
X552877Y33782D02*
G03*
X548837Y29742I0J-4040D01*
G01*
X221340Y29004D02*
G03*
X218340Y32004I-3000J0D01*
G01*
X221340Y17818D02*
G03*
X226340Y17818I2500J0D01*
G01*
X231340Y32322D02*
G03*
X226340Y32322I-2500J0D01*
G01*
X231340Y10382D02*
G03*
X236340Y10382I2500J0D01*
G01*
X241340Y32322D02*
G03*
X236340Y32322I-2500J0D01*
G01*
X241340Y10382D02*
G03*
X246340Y10382I2500J0D01*
G01*
X251340Y32322D02*
G03*
X246340Y32322I-2500J0D01*
G01*
X251340Y10382D02*
G03*
X256340Y10382I2500J0D01*
G01*
X261340Y32322D02*
G03*
X256340Y32322I-2500J0D01*
G01*
X261340Y10382D02*
G03*
X266340Y10382I2500J0D01*
G01*
X271340Y32322D02*
G03*
X266340Y32322I-2500J0D01*
G01*
X271340Y10382D02*
G03*
X276340Y10382I2500J0D01*
G01*
X281340Y32322D02*
G03*
X276340Y32322I-2500J0D01*
G01*
X281340Y10382D02*
G03*
X286340Y10382I2500J0D01*
G01*
X291340Y32322D02*
G03*
X286340Y32322I-2500J0D01*
G01*
X291340Y10382D02*
G03*
X296340Y10382I2500J0D01*
G01*
X301340Y32322D02*
G03*
X296340Y32322I-2500J0D01*
G01*
X301340Y10382D02*
G03*
X306340Y10382I2500J0D01*
G01*
X311340Y32322D02*
G03*
X306340Y32322I-2500J0D01*
G01*
X311340Y10382D02*
G03*
X316340Y10382I2500J0D01*
G01*
X321340Y32322D02*
G03*
X316340Y32322I-2500J0D01*
G01*
X321340Y10382D02*
G03*
X326340Y10382I2500J0D01*
G01*
X331340Y32322D02*
G03*
X326340Y32322I-2500J0D01*
G01*
X331340Y10382D02*
G03*
X336340Y10382I2500J0D01*
G01*
X341340Y32322D02*
G03*
X336340Y32322I-2500J0D01*
G01*
X341340Y10382D02*
G03*
X346340Y10382I2500J0D01*
G01*
X351340Y32322D02*
G03*
X346340Y32322I-2500J0D01*
G01*
X351340Y10382D02*
G03*
X356340Y10382I2500J0D01*
G01*
X361340Y32322D02*
G03*
X356340Y32322I-2500J0D01*
G01*
X361340Y10382D02*
G03*
X366340Y10382I2500J0D01*
G01*
X369340Y32004D02*
G03*
X366340Y29004I0J-3000D01*
G01*
X418278Y203414D02*
G03*
X422317Y199374I4040J0D01*
G01*
X418278Y277294D02*
G03*
X410198Y277294I-4040J0D01*
G01*
X402118Y202741D02*
G03*
X410198Y202741I4040J0D01*
G01*
X402118Y279628D02*
G03*
X394038Y279628I-4040J0D01*
G01*
X385958Y202741D02*
G03*
X394038Y202741I4040J0D01*
G01*
X385958Y279628D02*
G03*
X377878Y279628I-4040J0D01*
G01*
X369798Y202741D02*
G03*
X377878Y202741I4040J0D01*
G01*
X369798Y279628D02*
G03*
X361718Y279628I-4040J0D01*
G01*
X353638Y202741D02*
G03*
X361718Y202741I4040J0D01*
G01*
X353638Y279628D02*
G03*
X345558Y279628I-4040J0D01*
G01*
X337478Y202741D02*
G03*
X345558Y202741I4040J0D01*
G01*
X337478Y279628D02*
G03*
X329398Y279628I-4040J0D01*
G01*
X321318Y202741D02*
G03*
X329398Y202741I4040J0D01*
G01*
X321318Y279628D02*
G03*
X313238Y279628I-4040J0D01*
G01*
X311218Y199204D02*
G03*
X313238Y204081I-4877J4877D01*
G01*
X560488Y471628D02*
G03*
X564528Y467588I4040J0D01*
G01*
X570210Y459508D02*
G03*
X570210Y467588I0J4040D01*
G01*
X547612Y459508D02*
G03*
X547612Y451428I0J-4040D01*
G01*
X573865Y443348D02*
G03*
X573865Y451428I0J4040D01*
G01*
X547612Y443348D02*
G03*
X547612Y435268I0J-4040D01*
G01*
X573865Y427188D02*
G03*
X573865Y435268I0J4040D01*
G01*
X547612Y427188D02*
G03*
X547612Y419108I0J-4040D01*
G01*
X573865Y411028D02*
G03*
X573865Y419108I0J4040D01*
G01*
X547612Y411028D02*
G03*
X547612Y402948I0J-4040D01*
G01*
X573865Y394868D02*
G03*
X573865Y402948I0J4040D01*
G01*
X547612Y394868D02*
G03*
X547612Y386788I0J-4040D01*
G01*
X573865Y378708D02*
G03*
X573865Y386788I0J4040D01*
G01*
X547612Y378708D02*
G03*
X547612Y370628I0J-4040D01*
G01*
X560488Y366588D02*
G03*
X556448Y370628I-4040J0D01*
G01*
X229539Y516152D02*
G03*
X225499Y520192I-4040J0D01*
G01*
X229539Y459428D02*
G03*
X237619Y459428I4040J0D01*
G01*
X245699Y529868D02*
G03*
X237619Y529868I-4040J0D01*
G01*
X245699Y457088D02*
G03*
X253779Y457088I4040J0D01*
G01*
X261859Y529868D02*
G03*
X253779Y529868I-4040J0D01*
G01*
X261859Y457088D02*
G03*
X269939Y457088I4040J0D01*
G01*
X278019Y529868D02*
G03*
X269939Y529868I-4040J0D01*
G01*
X278019Y457088D02*
G03*
X286099Y457088I4040J0D01*
G01*
X294179Y529868D02*
G03*
X286099Y529868I-4040J0D01*
G01*
X294179Y457088D02*
G03*
X302259Y457088I4040J0D01*
G01*
X310339Y529868D02*
G03*
X302259Y529868I-4040J0D01*
G01*
X310339Y457088D02*
G03*
X318419Y457088I4040J0D01*
G01*
X326499Y529868D02*
G03*
X318419Y529868I-4040J0D01*
G01*
X326499Y457088D02*
G03*
X334579Y457088I4040J0D01*
G01*
X338619Y520192D02*
G03*
X334579Y516152I0J-4040D01*
G01*
X481526Y33782D02*
X488237D01*
X492277Y29742D02*
Y29742D01*
X500357Y29742D02*
Y36639D01*
X508437Y26461D02*
Y36639D01*
X516517Y26461D02*
Y40595D01*
X524597Y26461D02*
Y40595D01*
X532677Y26461D02*
Y40595D01*
X540757Y28015D02*
Y40595D01*
X548837Y28015D02*
Y29742D01*
X552877Y33782D02*
X554377D01*
X566674D01*
X374702Y40334D02*
X374904Y40132D01*
X374702Y40334D02*
Y69295D01*
X374500Y69497D02*
X374702Y69295D01*
X560488Y322924D02*
X678434Y204978D01*
Y143917D02*
Y204978D01*
X560488Y322924D02*
Y365088D01*
X500088Y137950D02*
Y349796D01*
X490474Y359410D02*
X500088Y349796D01*
X488818Y126680D02*
X500088Y137950D01*
X469138Y33782D02*
X481526D01*
X468630Y34290D02*
X469138Y33782D01*
X468630Y20574D02*
X469138Y21082D01*
X455422Y20574D02*
X455780Y20932D01*
X468272D01*
X468630Y20574D01*
X461015Y33782D02*
X468122D01*
X468630Y34290D01*
X425300Y69497D02*
X461015Y33782D01*
X590418Y57526D02*
Y126680D01*
X566674Y33782D02*
X590418Y57526D01*
X514218Y106699D02*
Y126680D01*
X476100Y69497D02*
X477016D01*
X514218Y106699D01*
X209811Y34029D02*
X211836Y32004D01*
X218340D01*
X221340Y17818D02*
Y29004D01*
X226340Y17818D02*
Y32322D01*
X231340Y10382D02*
Y32322D01*
X236340Y10382D02*
Y32322D01*
X241340Y10382D02*
Y32322D01*
X246340Y10382D02*
Y32322D01*
X251340Y10382D02*
Y32322D01*
X256340Y10382D02*
Y32322D01*
X261340Y10382D02*
Y32322D01*
X266340Y10382D02*
Y32322D01*
X271340Y10382D02*
Y32322D01*
X276340Y10382D02*
Y32322D01*
X281340Y10382D02*
Y32322D01*
X286340Y10382D02*
Y32322D01*
X291340Y10382D02*
Y32322D01*
X296340Y10382D02*
Y32322D01*
X301340Y10382D02*
Y32322D01*
X306340Y10382D02*
Y32322D01*
X311340Y10382D02*
Y32322D01*
X316340Y10382D02*
Y32322D01*
X321340Y10382D02*
Y32322D01*
X326340Y10382D02*
Y32322D01*
X331340Y10382D02*
Y32322D01*
X336340Y10382D02*
Y32322D01*
X341340Y10382D02*
Y32322D01*
X346340Y10382D02*
Y32322D01*
X351340Y10382D02*
Y32322D01*
X356340Y10382D02*
Y32322D01*
X361340Y10382D02*
Y32322D01*
X366340Y10382D02*
Y29004D01*
X369340Y32004D02*
X370840D01*
X207554Y36286D02*
X209811Y34029D01*
X209312Y40528D02*
X322214D01*
X207554Y36286D02*
Y38771D01*
X209312Y40528D01*
X322214D02*
X340614Y58928D01*
X370840Y32004D02*
X373210D01*
X387904Y40132D02*
X403560D01*
X373210Y32004D02*
X374967Y33761D01*
Y40069D01*
X374904Y40132D02*
X374967Y40069D01*
X340614Y58928D02*
Y128778D01*
X350520Y138684D01*
X428467Y199373D02*
X430264Y197576D01*
X422317Y199374D02*
X428467Y199373D01*
X418278Y203414D02*
Y277294D01*
X410198Y202741D02*
Y277294D01*
X402118Y202741D02*
Y279628D01*
X394038Y202741D02*
Y279628D01*
X385958Y202741D02*
Y279628D01*
X377878Y202741D02*
Y279628D01*
X369798Y202741D02*
Y279628D01*
X361718Y202741D02*
Y279628D01*
X353638Y202741D02*
Y279628D01*
X345558Y202741D02*
Y279628D01*
X337478Y202741D02*
Y279628D01*
X329398Y202741D02*
Y279628D01*
X321318Y202741D02*
Y279628D01*
X313238Y204081D02*
Y279628D01*
X309718Y197704D02*
X311218Y199204D01*
X285618Y173604D02*
X309718Y197704D01*
X285618Y152080D02*
Y173604D01*
X430264Y197576D02*
X451358Y176482D01*
Y96520D02*
Y176482D01*
X451029Y69826D02*
Y96191D01*
X451358Y96520D01*
X450700Y69497D02*
X451029Y69826D01*
X480522Y96774D02*
X480776Y97028D01*
X464612Y96774D02*
X480522D01*
X464358Y96520D02*
X464612Y96774D01*
X530098Y530352D02*
X531117Y529333D01*
Y524507D02*
X560488Y495136D01*
Y485866D02*
Y495136D01*
X531117Y524507D02*
Y529333D01*
X560488Y471628D02*
Y485866D01*
X564528Y467588D02*
X570210D01*
X547612Y459508D02*
X570210D01*
X547612Y451428D02*
X573865D01*
X547612Y443348D02*
X573865D01*
X547612Y435268D02*
X573865D01*
X547612Y427188D02*
X573865D01*
X547612Y419108D02*
X573865D01*
X547612Y411028D02*
X573865D01*
X547612Y402948D02*
X573865D01*
X547612Y394868D02*
X573865D01*
X547612Y386788D02*
X573865D01*
X547612Y378708D02*
X573865D01*
X547612Y370628D02*
X556448D01*
X560488Y365088D02*
Y366588D01*
X530098Y535977D02*
Y537599D01*
X515000Y552697D02*
X530098Y537599D01*
X565708Y530352D02*
X566162Y529898D01*
X543098Y530352D02*
X565708D01*
X500713Y536273D02*
X526542Y510443D01*
X500359Y536626D02*
X500713Y536273D01*
X438800Y552697D02*
X454871Y536626D01*
X500359D01*
X581152Y262128D02*
X666618Y176662D01*
Y152080D02*
Y176662D01*
X209191Y525631D02*
X214630Y520192D01*
X225499D01*
X229539Y459428D02*
Y516152D01*
X237619Y459428D02*
Y529868D01*
X245699Y457088D02*
Y529868D01*
X253779Y457088D02*
Y529868D01*
X261859Y457088D02*
Y529868D01*
X269939Y457088D02*
Y529868D01*
X278019Y457088D02*
Y529868D01*
X286099Y457088D02*
Y529868D01*
X294179Y457088D02*
Y529868D01*
X302259Y457088D02*
Y529868D01*
X310339Y457088D02*
Y529868D01*
X318419Y457088D02*
Y529868D01*
X326499Y457088D02*
Y529868D01*
X334579Y457088D02*
Y516152D01*
X338619Y520192D02*
X340119D01*
X207010Y527812D02*
X209191Y525631D01*
X207010Y527812D02*
Y596712D01*
X219578Y609280D01*
X351536Y520192D02*
X358140D01*
X340119D02*
X351536D01*
X370600Y532652D02*
Y552697D01*
X358140Y520192D02*
X370600Y532652D01*
X424622Y138684D02*
X438018Y152080D01*
X350520Y138684D02*
X424622D01*
X530098Y530352D02*
Y535977D01*
X678434Y143917D02*
X692018Y130333D01*
X491874Y509146D02*
Y526726D01*
X491236Y508508D02*
X491874Y509146D01*
X491520Y527080D02*
X491874Y526726D01*
X351536Y490474D02*
Y507192D01*
X526542Y139756D02*
X539618Y126680D01*
X526542Y139756D02*
Y510443D01*
X692018Y126680D02*
Y130333D01*
D23*
X491555Y495827D02*
D03*
Y508827D02*
D03*
X351536Y520192D02*
D03*
Y507192D02*
D03*
Y477474D02*
D03*
Y490474D02*
D03*
X468630Y34290D02*
D03*
Y21290D02*
D03*
D27*
X500713Y536273D02*
D03*
X491520Y527080D02*
D03*
D28*
X374904Y40132D02*
D03*
X387904D02*
D03*
X416560D02*
D03*
X403560D02*
D03*
X464358Y96520D02*
D03*
X451358D02*
D03*
X480776Y97028D02*
D03*
X493776D02*
D03*
X442422Y20574D02*
D03*
X455422D02*
D03*
X530098Y530352D02*
D03*
X543098D02*
D03*
X579162Y529898D02*
D03*
X566162D02*
D03*
D33*
X615818Y126680D02*
X635310Y107188D01*
X733552D02*
X866394Y240030D01*
X635310Y107188D02*
X733552D01*
X866394Y240030D02*
Y271780D01*
D34*
X501500Y69497D02*
D03*
X323200D02*
D03*
X372100Y552697D02*
D03*
X591200D02*
D03*
X41778Y583880D02*
D03*
X361818Y126680D02*
D03*
X133218Y126680D02*
D03*
X311018Y583880D02*
D03*
D35*
X425300Y69497D02*
D03*
X450700D02*
D03*
X476100D02*
D03*
X399900D02*
D03*
X374500D02*
D03*
X196200D02*
D03*
X272400D02*
D03*
X247000D02*
D03*
X221600D02*
D03*
X297800D02*
D03*
X194300Y552697D02*
D03*
X219700D02*
D03*
X245100D02*
D03*
X270500D02*
D03*
X346700D02*
D03*
X321300D02*
D03*
X295900D02*
D03*
X413400D02*
D03*
X438800D02*
D03*
X464200D02*
D03*
X489600D02*
D03*
X565800D02*
D03*
X540400D02*
D03*
X515000D02*
D03*
X117978Y583880D02*
D03*
X92578D02*
D03*
X67178D02*
D03*
X143378D02*
D03*
X168778D02*
D03*
X41778Y609280D02*
D03*
X117978D02*
D03*
X92578D02*
D03*
X67178D02*
D03*
X143378D02*
D03*
X168778D02*
D03*
X194178Y583880D02*
D03*
X244978D02*
D03*
X219578D02*
D03*
X270378D02*
D03*
X194178Y609280D02*
D03*
X244978D02*
D03*
X219578D02*
D03*
X270378D02*
D03*
X692018Y126680D02*
D03*
X641218D02*
D03*
X615818D02*
D03*
X666618D02*
D03*
X717418D02*
D03*
Y152080D02*
D03*
X438018Y126680D02*
D03*
X412618D02*
D03*
X387218D02*
D03*
X463418D02*
D03*
X488818D02*
D03*
X361818Y152080D02*
D03*
X438018D02*
D03*
X412618D02*
D03*
X387218D02*
D03*
X463418D02*
D03*
X488818D02*
D03*
X514218Y126680D02*
D03*
X565018D02*
D03*
X539618D02*
D03*
X590418D02*
D03*
X514218Y152080D02*
D03*
X641218D02*
D03*
X692018D02*
D03*
X615818D02*
D03*
X565018D02*
D03*
X539618D02*
D03*
X590418D02*
D03*
X666618D02*
D03*
X311018Y152080D02*
D03*
X285618D02*
D03*
X311018Y126680D02*
D03*
X285618D02*
D03*
X260218Y152080D02*
D03*
X234818D02*
D03*
X158618D02*
D03*
X184018D02*
D03*
X209418D02*
D03*
X133218D02*
D03*
X260218Y126680D02*
D03*
X234818D02*
D03*
X158618D02*
D03*
X184018D02*
D03*
X209418D02*
D03*
X692018Y583880D02*
D03*
X641218D02*
D03*
X590418D02*
D03*
X565018D02*
D03*
X615818D02*
D03*
X666618D02*
D03*
X717418D02*
D03*
X692018Y609280D02*
D03*
X666618D02*
D03*
X717418D02*
D03*
X387218Y583880D02*
D03*
X361818D02*
D03*
X336418D02*
D03*
X412618D02*
D03*
X438018D02*
D03*
X311018Y609280D02*
D03*
X387218D02*
D03*
X361818D02*
D03*
X336418D02*
D03*
X412618D02*
D03*
X438018D02*
D03*
X463418Y583880D02*
D03*
X514218D02*
D03*
X488818D02*
D03*
X539618D02*
D03*
X463418Y609280D02*
D03*
X590418D02*
D03*
X641218D02*
D03*
X565018D02*
D03*
X514218D02*
D03*
X488818D02*
D03*
X539618D02*
D03*
X615818D02*
D03*
D36*
X938384Y461738D02*
D03*
X938382Y207784D02*
D03*
Y334784D02*
D03*
D37*
X983384Y461738D02*
D03*
Y526738D02*
D03*
X938384D02*
D03*
X983382Y207784D02*
D03*
Y272784D02*
D03*
X938382D02*
D03*
X983382Y334784D02*
D03*
Y399784D02*
D03*
X938382D02*
D03*
D38*
X904240Y141347D02*
D03*
X988060Y703580D02*
D03*
X980440Y688340D02*
D03*
X988060Y673100D02*
D03*
X980440Y657860D02*
D03*
X988060Y642620D02*
D03*
X980440Y627380D02*
D03*
X988060Y612140D02*
D03*
X980440Y596900D02*
D03*
X988060Y581660D02*
D03*
X980440Y566420D02*
D03*
X988060Y551180D02*
D03*
X980440Y505460D02*
D03*
X988060Y490220D02*
D03*
X980440Y474980D02*
D03*
Y444500D02*
D03*
X988060Y429260D02*
D03*
X980440Y414020D02*
D03*
Y383540D02*
D03*
X988060Y368300D02*
D03*
X980440Y353060D02*
D03*
X988060Y307340D02*
D03*
X980440Y292100D02*
D03*
X988060Y246380D02*
D03*
X980440Y231140D02*
D03*
X988060Y185420D02*
D03*
X980440Y170180D02*
D03*
X988060Y154940D02*
D03*
X980440Y109220D02*
D03*
X988060Y63500D02*
D03*
X980440Y48260D02*
D03*
X988060Y33020D02*
D03*
X980440Y17780D02*
D03*
X972820Y703580D02*
D03*
X965200Y688340D02*
D03*
X972820Y673100D02*
D03*
X965200Y657860D02*
D03*
X972820Y642620D02*
D03*
X965200Y627380D02*
D03*
X972820Y612140D02*
D03*
X965200Y596900D02*
D03*
X972820Y581660D02*
D03*
X965200Y566420D02*
D03*
X972820Y551180D02*
D03*
X965200Y535940D02*
D03*
Y505460D02*
D03*
X972820Y490220D02*
D03*
X965200Y474980D02*
D03*
Y444500D02*
D03*
X972820Y429260D02*
D03*
X965200Y414020D02*
D03*
Y383540D02*
D03*
X972820Y368300D02*
D03*
X965200Y353060D02*
D03*
Y322580D02*
D03*
X972820Y307340D02*
D03*
X965200Y292100D02*
D03*
Y261620D02*
D03*
X972820Y246380D02*
D03*
X965200Y231140D02*
D03*
X972820Y215900D02*
D03*
X965200Y200660D02*
D03*
X972820Y185420D02*
D03*
X965200Y170180D02*
D03*
X972820Y154940D02*
D03*
X965200Y139700D02*
D03*
Y109220D02*
D03*
Y78740D02*
D03*
X972820Y63500D02*
D03*
X965200Y48260D02*
D03*
X972820Y33020D02*
D03*
X965200Y17780D02*
D03*
X957580Y703580D02*
D03*
X949960Y688340D02*
D03*
X957580Y673100D02*
D03*
X949960Y657860D02*
D03*
X957580Y642620D02*
D03*
X949960Y627380D02*
D03*
X957580Y612140D02*
D03*
X949960Y596900D02*
D03*
X957580Y581660D02*
D03*
X949960Y566420D02*
D03*
X957580Y551180D02*
D03*
X949960Y535940D02*
D03*
X957580Y520700D02*
D03*
X949960Y505460D02*
D03*
X957580Y490220D02*
D03*
Y459740D02*
D03*
X949960Y444500D02*
D03*
X957580Y429260D02*
D03*
X949960Y414020D02*
D03*
X957580Y398780D02*
D03*
X949960Y383540D02*
D03*
X957580Y368300D02*
D03*
X949960Y353060D02*
D03*
X957580Y337820D02*
D03*
Y307340D02*
D03*
X949960Y292100D02*
D03*
X957580Y276860D02*
D03*
X949960Y261620D02*
D03*
X957580Y246380D02*
D03*
X949960Y231140D02*
D03*
X957580Y215900D02*
D03*
Y185420D02*
D03*
X949960Y170180D02*
D03*
X957580Y154940D02*
D03*
X949960Y109220D02*
D03*
X957580Y63500D02*
D03*
X949960Y48260D02*
D03*
X957580Y33020D02*
D03*
X949960Y17780D02*
D03*
X942340Y703580D02*
D03*
X934720Y688340D02*
D03*
X942340Y673100D02*
D03*
X934720Y657860D02*
D03*
X942340Y642620D02*
D03*
X934720Y627380D02*
D03*
X942340Y612140D02*
D03*
X934720Y596900D02*
D03*
X942340Y581660D02*
D03*
X934720Y566420D02*
D03*
X942340Y551180D02*
D03*
X934720Y444500D02*
D03*
X942340Y429260D02*
D03*
X934720Y414020D02*
D03*
X942340Y307340D02*
D03*
X934720Y292100D02*
D03*
X942340Y185420D02*
D03*
X934720Y170180D02*
D03*
X942340Y154940D02*
D03*
X934720Y109220D02*
D03*
X942340Y63500D02*
D03*
X934720Y48260D02*
D03*
X942340Y33020D02*
D03*
X934720Y17780D02*
D03*
X927100Y703580D02*
D03*
X919480Y688340D02*
D03*
X927100Y673100D02*
D03*
X919480Y657860D02*
D03*
X927100Y642620D02*
D03*
X919480Y627380D02*
D03*
X927100Y612140D02*
D03*
X919480Y596900D02*
D03*
X927100Y581660D02*
D03*
X919480Y566420D02*
D03*
X927100Y551180D02*
D03*
Y490220D02*
D03*
X919480Y474980D02*
D03*
Y444500D02*
D03*
X927100Y429260D02*
D03*
X919480Y414020D02*
D03*
X927100Y368300D02*
D03*
X919480Y353060D02*
D03*
Y322580D02*
D03*
X927100Y307340D02*
D03*
X919480Y292100D02*
D03*
X927100Y246380D02*
D03*
X919480Y231140D02*
D03*
Y200660D02*
D03*
X927100Y185420D02*
D03*
X919480Y170180D02*
D03*
X927100Y154940D02*
D03*
Y124460D02*
D03*
X919480Y109220D02*
D03*
X927100Y93980D02*
D03*
Y63500D02*
D03*
X919480Y48260D02*
D03*
X927100Y33020D02*
D03*
X919480Y17780D02*
D03*
X911860Y703580D02*
D03*
X904240Y688340D02*
D03*
X911860Y673100D02*
D03*
X904240Y657860D02*
D03*
X911860Y642620D02*
D03*
X904240Y627380D02*
D03*
X911860Y612140D02*
D03*
X904240Y596900D02*
D03*
X911860Y581660D02*
D03*
X904240Y566420D02*
D03*
X911860Y551180D02*
D03*
Y429260D02*
D03*
Y215900D02*
D03*
X904240Y200660D02*
D03*
X911860Y185420D02*
D03*
X904240Y170180D02*
D03*
X911860Y154940D02*
D03*
Y124460D02*
D03*
X904240Y109220D02*
D03*
X911860Y93980D02*
D03*
Y63500D02*
D03*
X904240Y48260D02*
D03*
X911860Y33020D02*
D03*
X904240Y17780D02*
D03*
X896620Y703580D02*
D03*
X889000Y688340D02*
D03*
X896620Y673100D02*
D03*
X889000Y657860D02*
D03*
X896620Y642620D02*
D03*
X889000Y627380D02*
D03*
X896620Y612140D02*
D03*
X889000Y596900D02*
D03*
X896620Y581660D02*
D03*
X889000Y566420D02*
D03*
X896620Y551180D02*
D03*
X889000Y505460D02*
D03*
X896620Y490220D02*
D03*
X889000Y474980D02*
D03*
X896620Y459740D02*
D03*
X889000Y444500D02*
D03*
Y414020D02*
D03*
X896620Y368300D02*
D03*
X889000Y353060D02*
D03*
X896620Y337820D02*
D03*
X889000Y322580D02*
D03*
Y292100D02*
D03*
X896620Y246380D02*
D03*
Y215900D02*
D03*
Y185420D02*
D03*
Y154940D02*
D03*
X889000Y109220D02*
D03*
X896620Y93980D02*
D03*
Y63500D02*
D03*
X889000Y48260D02*
D03*
X896620Y33020D02*
D03*
X889000Y17780D02*
D03*
X881380Y703580D02*
D03*
X873760Y688340D02*
D03*
X881380Y673100D02*
D03*
X873760Y657860D02*
D03*
X881380Y642620D02*
D03*
X873760Y627380D02*
D03*
X881380Y612140D02*
D03*
X873760Y596900D02*
D03*
X881380Y581660D02*
D03*
X873760Y566420D02*
D03*
X881380Y551180D02*
D03*
X873760Y505460D02*
D03*
X881380Y490220D02*
D03*
X873760Y474980D02*
D03*
X881380Y459740D02*
D03*
X873760Y444500D02*
D03*
X881380Y429260D02*
D03*
X873760Y414020D02*
D03*
Y383540D02*
D03*
X881380Y368300D02*
D03*
X873760Y353060D02*
D03*
X881380Y337820D02*
D03*
X873760Y322580D02*
D03*
X881380Y307340D02*
D03*
X873760Y292100D02*
D03*
X881380Y246380D02*
D03*
X873760Y231140D02*
D03*
Y200660D02*
D03*
Y170180D02*
D03*
X881380Y63500D02*
D03*
X873760Y48260D02*
D03*
X881380Y33020D02*
D03*
X873760Y17780D02*
D03*
X866140Y703580D02*
D03*
X858520Y688340D02*
D03*
X866140Y673100D02*
D03*
X858520Y657860D02*
D03*
X866140Y642620D02*
D03*
X858520Y627380D02*
D03*
X866140Y612140D02*
D03*
X858520Y596900D02*
D03*
X866140Y581660D02*
D03*
X858520Y566420D02*
D03*
X866140Y551180D02*
D03*
X858520Y505460D02*
D03*
X866140Y490220D02*
D03*
X858520Y474980D02*
D03*
X866140Y459740D02*
D03*
X858520Y444500D02*
D03*
X866140Y429260D02*
D03*
X858520Y414020D02*
D03*
Y383540D02*
D03*
X866140Y368300D02*
D03*
X858520Y353060D02*
D03*
X866140Y337820D02*
D03*
X858520Y322580D02*
D03*
X866140Y307340D02*
D03*
X858520Y292100D02*
D03*
X866140Y215900D02*
D03*
X858520Y200660D02*
D03*
X866140Y185420D02*
D03*
X858520Y170180D02*
D03*
X866140Y154940D02*
D03*
X858520Y109220D02*
D03*
X866140Y93980D02*
D03*
Y63500D02*
D03*
X858520Y48260D02*
D03*
X866140Y33020D02*
D03*
X858520Y17780D02*
D03*
X850900Y703580D02*
D03*
X843280Y688340D02*
D03*
X850900Y673100D02*
D03*
X843280Y657860D02*
D03*
X850900Y642620D02*
D03*
X843280Y627380D02*
D03*
X850900Y612140D02*
D03*
X843280Y596900D02*
D03*
X850900Y581660D02*
D03*
X843280Y566420D02*
D03*
X850900Y551180D02*
D03*
X843280Y505460D02*
D03*
X850900Y490220D02*
D03*
X843280Y474980D02*
D03*
X850900Y459740D02*
D03*
X843280Y444500D02*
D03*
X850900Y429260D02*
D03*
X843280Y414020D02*
D03*
Y383540D02*
D03*
X850900Y368300D02*
D03*
X843280Y353060D02*
D03*
X850900Y337820D02*
D03*
X843280Y322580D02*
D03*
X850900Y307340D02*
D03*
X843280Y292100D02*
D03*
X850900Y276860D02*
D03*
X843280Y261620D02*
D03*
X850900Y246380D02*
D03*
X843280Y231140D02*
D03*
Y200660D02*
D03*
X850900Y185420D02*
D03*
X843280Y170180D02*
D03*
X850900Y154940D02*
D03*
X843280Y109220D02*
D03*
X850900Y93980D02*
D03*
Y63500D02*
D03*
X843280Y48260D02*
D03*
X850900Y33020D02*
D03*
X843280Y17780D02*
D03*
X835660Y703580D02*
D03*
X828040Y688340D02*
D03*
X835660Y673100D02*
D03*
X828040Y657860D02*
D03*
X835660Y642620D02*
D03*
X828040Y627380D02*
D03*
X835660Y612140D02*
D03*
X828040Y596900D02*
D03*
X835660Y581660D02*
D03*
X828040Y566420D02*
D03*
X835660Y551180D02*
D03*
X828040Y505460D02*
D03*
X835660Y490220D02*
D03*
X828040Y474980D02*
D03*
X835660Y459740D02*
D03*
X828040Y444500D02*
D03*
X835660Y429260D02*
D03*
X828040Y414020D02*
D03*
Y383540D02*
D03*
X835660Y368300D02*
D03*
X828040Y353060D02*
D03*
X835660Y337820D02*
D03*
X828040Y322580D02*
D03*
X835660Y307340D02*
D03*
X828040Y292100D02*
D03*
X835660Y276860D02*
D03*
X828040Y261620D02*
D03*
X835660Y246380D02*
D03*
X828040Y231140D02*
D03*
X835660Y185420D02*
D03*
X828040Y170180D02*
D03*
X835660Y154940D02*
D03*
X828040Y109220D02*
D03*
X835660Y93980D02*
D03*
Y63500D02*
D03*
X828040Y48260D02*
D03*
X835660Y33020D02*
D03*
X828040Y17780D02*
D03*
X820420Y703580D02*
D03*
X812800Y688340D02*
D03*
X820420Y673100D02*
D03*
X812800Y657860D02*
D03*
X820420Y642620D02*
D03*
X812800Y627380D02*
D03*
X820420Y612140D02*
D03*
X812800Y596900D02*
D03*
X820420Y581660D02*
D03*
X812800Y566420D02*
D03*
X820420Y551180D02*
D03*
X812800Y505460D02*
D03*
X820420Y490220D02*
D03*
X812800Y474980D02*
D03*
X820420Y459740D02*
D03*
X812800Y444500D02*
D03*
X820420Y429260D02*
D03*
X812800Y414020D02*
D03*
Y383540D02*
D03*
X820420Y368300D02*
D03*
X812800Y353060D02*
D03*
X820420Y337820D02*
D03*
X812800Y322580D02*
D03*
X820420Y307340D02*
D03*
X812800Y292100D02*
D03*
X820420Y276860D02*
D03*
X812800Y261620D02*
D03*
X820420Y246380D02*
D03*
X812800Y231140D02*
D03*
X820420Y215900D02*
D03*
X812800Y200660D02*
D03*
Y170180D02*
D03*
X820420Y154940D02*
D03*
X812800Y109220D02*
D03*
X820420Y93980D02*
D03*
Y63500D02*
D03*
X812800Y48260D02*
D03*
X820420Y33020D02*
D03*
X812800Y17780D02*
D03*
X805180Y703580D02*
D03*
X797560Y688340D02*
D03*
X805180Y673100D02*
D03*
X797560Y657860D02*
D03*
X805180Y642620D02*
D03*
X797560Y627380D02*
D03*
X805180Y612140D02*
D03*
X797560Y596900D02*
D03*
X805180Y581660D02*
D03*
X797560Y566420D02*
D03*
X805180Y551180D02*
D03*
X797560Y505460D02*
D03*
X805180Y490220D02*
D03*
X797560Y474980D02*
D03*
X805180Y459740D02*
D03*
X797560Y444500D02*
D03*
X805180Y429260D02*
D03*
X797560Y414020D02*
D03*
Y383540D02*
D03*
X805180Y368300D02*
D03*
X797560Y353060D02*
D03*
X805180Y337820D02*
D03*
X797560Y322580D02*
D03*
X805180Y307340D02*
D03*
X797560Y292100D02*
D03*
X805180Y276860D02*
D03*
X797560Y261620D02*
D03*
X805180Y246380D02*
D03*
X797560Y231140D02*
D03*
X805180Y215900D02*
D03*
X797560Y200660D02*
D03*
X805180Y154940D02*
D03*
X797560Y109220D02*
D03*
X805180Y93980D02*
D03*
Y63500D02*
D03*
X797560Y48260D02*
D03*
X805180Y33020D02*
D03*
X797560Y17780D02*
D03*
X789940Y703580D02*
D03*
X782320Y688340D02*
D03*
X789940Y673100D02*
D03*
X782320Y657860D02*
D03*
X789940Y642620D02*
D03*
X782320Y627380D02*
D03*
X789940Y612140D02*
D03*
X782320Y596900D02*
D03*
X789940Y581660D02*
D03*
X782320Y566420D02*
D03*
X789940Y551180D02*
D03*
X782320Y505460D02*
D03*
X789940Y490220D02*
D03*
X782320Y474980D02*
D03*
X789940Y459740D02*
D03*
X782320Y444500D02*
D03*
X789940Y429260D02*
D03*
X782320Y414020D02*
D03*
Y383540D02*
D03*
X789940Y368300D02*
D03*
X782320Y353060D02*
D03*
X789940Y337820D02*
D03*
X782320Y322580D02*
D03*
X789940Y307340D02*
D03*
X782320Y292100D02*
D03*
X789940Y276860D02*
D03*
X782320Y261620D02*
D03*
X789940Y246380D02*
D03*
X782320Y231140D02*
D03*
X789940Y215900D02*
D03*
X782320Y200660D02*
D03*
X789940Y185420D02*
D03*
X782320Y170180D02*
D03*
X789940Y124460D02*
D03*
X782320Y109220D02*
D03*
X789940Y93980D02*
D03*
Y63500D02*
D03*
X782320Y48260D02*
D03*
X789940Y33020D02*
D03*
X782320Y17780D02*
D03*
X774700Y703580D02*
D03*
X767080Y688340D02*
D03*
X774700Y673100D02*
D03*
X767080Y657860D02*
D03*
X774700Y642620D02*
D03*
X767080Y627380D02*
D03*
X774700Y612140D02*
D03*
X767080Y596900D02*
D03*
X774700Y581660D02*
D03*
X767080Y566420D02*
D03*
X774700Y551180D02*
D03*
X767080Y505460D02*
D03*
X774700Y490220D02*
D03*
X767080Y474980D02*
D03*
X774700Y459740D02*
D03*
X767080Y444500D02*
D03*
X774700Y429260D02*
D03*
X767080Y414020D02*
D03*
Y383540D02*
D03*
X774700Y368300D02*
D03*
X767080Y353060D02*
D03*
X774700Y337820D02*
D03*
X767080Y322580D02*
D03*
X774700Y307340D02*
D03*
X767080Y292100D02*
D03*
X774700Y276860D02*
D03*
X767080Y261620D02*
D03*
X774700Y246380D02*
D03*
X767080Y231140D02*
D03*
X774700Y215900D02*
D03*
X767080Y200660D02*
D03*
X774700Y185420D02*
D03*
X767080Y170180D02*
D03*
X774700Y124460D02*
D03*
X767080Y109220D02*
D03*
X774700Y93980D02*
D03*
Y63500D02*
D03*
X767080Y48260D02*
D03*
X774700Y33020D02*
D03*
X767080Y17780D02*
D03*
X759460Y703580D02*
D03*
X751840Y688340D02*
D03*
X759460Y673100D02*
D03*
X751840Y657860D02*
D03*
X759460Y642620D02*
D03*
X751840Y627380D02*
D03*
X759460Y612140D02*
D03*
X751840Y596900D02*
D03*
X759460Y581660D02*
D03*
X751840Y566420D02*
D03*
Y535940D02*
D03*
X759460Y520700D02*
D03*
X751840Y505460D02*
D03*
X759460Y490220D02*
D03*
X751840Y474980D02*
D03*
X759460Y459740D02*
D03*
X751840Y444500D02*
D03*
X759460Y429260D02*
D03*
X751840Y383540D02*
D03*
X759460Y368300D02*
D03*
X751840Y353060D02*
D03*
X759460Y337820D02*
D03*
X751840Y322580D02*
D03*
X759460Y307340D02*
D03*
X751840Y292100D02*
D03*
X759460Y276860D02*
D03*
X751840Y261620D02*
D03*
X759460Y246380D02*
D03*
X751840Y231140D02*
D03*
X759460Y215900D02*
D03*
X751840Y200660D02*
D03*
X759460Y185420D02*
D03*
X751840Y170180D02*
D03*
X759460Y154940D02*
D03*
X751840Y109220D02*
D03*
X759460Y93980D02*
D03*
Y63500D02*
D03*
X751840Y48260D02*
D03*
X759460Y33020D02*
D03*
X751840Y17780D02*
D03*
X744220Y703580D02*
D03*
X736600Y688340D02*
D03*
X744220Y673100D02*
D03*
X736600Y657860D02*
D03*
X744220Y642620D02*
D03*
X736600Y627380D02*
D03*
X744220Y612140D02*
D03*
X736600Y596900D02*
D03*
X744220Y581660D02*
D03*
X736600Y535940D02*
D03*
X744220Y520700D02*
D03*
X736600Y505460D02*
D03*
X744220Y490220D02*
D03*
X736600Y474980D02*
D03*
X744220Y459740D02*
D03*
X736600Y444500D02*
D03*
Y414020D02*
D03*
X744220Y398780D02*
D03*
X736600Y383540D02*
D03*
X744220Y368300D02*
D03*
X736600Y353060D02*
D03*
X744220Y337820D02*
D03*
X736600Y322580D02*
D03*
X744220Y307340D02*
D03*
X736600Y292100D02*
D03*
X744220Y276860D02*
D03*
X736600Y261620D02*
D03*
X744220Y246380D02*
D03*
X736600Y231140D02*
D03*
X744220Y215900D02*
D03*
X736600Y200660D02*
D03*
X744220Y185420D02*
D03*
X736600Y170180D02*
D03*
X744220Y154940D02*
D03*
Y93980D02*
D03*
Y63500D02*
D03*
X736600Y48260D02*
D03*
X744220Y33020D02*
D03*
X736600Y17780D02*
D03*
X728980Y703580D02*
D03*
X721360Y688340D02*
D03*
X728980Y673100D02*
D03*
X721360Y657860D02*
D03*
X728980Y642620D02*
D03*
X721360Y566420D02*
D03*
X728980Y551180D02*
D03*
X721360Y535940D02*
D03*
X728980Y520700D02*
D03*
X721360Y505460D02*
D03*
X728980Y490220D02*
D03*
X721360Y474980D02*
D03*
X728980Y459740D02*
D03*
X721360Y414020D02*
D03*
X728980Y398780D02*
D03*
X721360Y383540D02*
D03*
X728980Y368300D02*
D03*
X721360Y353060D02*
D03*
X728980Y337820D02*
D03*
X721360Y322580D02*
D03*
X728980Y307340D02*
D03*
X721360Y292100D02*
D03*
X728980Y276860D02*
D03*
X721360Y261620D02*
D03*
X728980Y246380D02*
D03*
X721360Y231140D02*
D03*
X728980Y215900D02*
D03*
X721360Y200660D02*
D03*
X728980Y185420D02*
D03*
X721360Y170180D02*
D03*
X728980Y93980D02*
D03*
Y63500D02*
D03*
X721360Y48260D02*
D03*
X728980Y33020D02*
D03*
X721360Y17780D02*
D03*
X713740Y703580D02*
D03*
Y673100D02*
D03*
X706120Y444500D02*
D03*
X713740Y429260D02*
D03*
X706120Y414020D02*
D03*
X713740Y398780D02*
D03*
X706120Y383540D02*
D03*
X713740Y368300D02*
D03*
X706120Y353060D02*
D03*
X713740Y337820D02*
D03*
X706120Y322580D02*
D03*
X713740Y307340D02*
D03*
X706120Y292100D02*
D03*
X713740Y276860D02*
D03*
X706120Y261620D02*
D03*
X713740Y246380D02*
D03*
X706120Y231140D02*
D03*
X713740Y215900D02*
D03*
X706120Y200660D02*
D03*
X713740Y185420D02*
D03*
X706120Y170180D02*
D03*
X713740Y93980D02*
D03*
Y63500D02*
D03*
X706120Y48260D02*
D03*
X713740Y33020D02*
D03*
X706120Y17780D02*
D03*
X690880Y566420D02*
D03*
Y535940D02*
D03*
Y505460D02*
D03*
Y474980D02*
D03*
Y444500D02*
D03*
X698500Y429260D02*
D03*
X690880Y414020D02*
D03*
X698500Y398780D02*
D03*
X690880Y383540D02*
D03*
X698500Y368300D02*
D03*
X690880Y353060D02*
D03*
X698500Y337820D02*
D03*
X690880Y322580D02*
D03*
X698500Y307340D02*
D03*
X690880Y292100D02*
D03*
X698500Y276860D02*
D03*
X690880Y261620D02*
D03*
X698500Y246380D02*
D03*
X690880Y231140D02*
D03*
X698500Y215900D02*
D03*
X690880Y200660D02*
D03*
X698500Y185420D02*
D03*
X690880Y170180D02*
D03*
X698500Y93980D02*
D03*
Y63500D02*
D03*
X690880Y48260D02*
D03*
X698500Y33020D02*
D03*
X690880Y17780D02*
D03*
X675640Y627380D02*
D03*
X683260Y551180D02*
D03*
X675640Y535940D02*
D03*
X683260Y520700D02*
D03*
X675640Y505460D02*
D03*
X683260Y490220D02*
D03*
X675640Y474980D02*
D03*
X683260Y459740D02*
D03*
X675640Y444500D02*
D03*
X683260Y429260D02*
D03*
X675640Y414020D02*
D03*
X683260Y398780D02*
D03*
X675640Y383540D02*
D03*
X683260Y368300D02*
D03*
X675640Y353060D02*
D03*
X683260Y337820D02*
D03*
X675640Y322580D02*
D03*
X683260Y307340D02*
D03*
X675640Y292100D02*
D03*
X683260Y276860D02*
D03*
X675640Y261620D02*
D03*
X683260Y246380D02*
D03*
X675640Y231140D02*
D03*
X683260Y215900D02*
D03*
Y93980D02*
D03*
Y63500D02*
D03*
X675640Y48260D02*
D03*
X683260Y33020D02*
D03*
X675640Y17780D02*
D03*
X660400Y627380D02*
D03*
X668020Y490220D02*
D03*
X660400Y474980D02*
D03*
X668020Y459740D02*
D03*
X660400Y444500D02*
D03*
X668020Y429260D02*
D03*
X660400Y414020D02*
D03*
X668020Y398780D02*
D03*
X660400Y383540D02*
D03*
X668020Y368300D02*
D03*
X660400Y353060D02*
D03*
X668020Y337820D02*
D03*
X660400Y322580D02*
D03*
X668020Y307340D02*
D03*
X660400Y292100D02*
D03*
X668020Y276860D02*
D03*
X660400Y261620D02*
D03*
X668020Y246380D02*
D03*
X660400Y200660D02*
D03*
X668020Y93980D02*
D03*
Y63500D02*
D03*
X660400Y48260D02*
D03*
X668020Y33020D02*
D03*
X660400Y17780D02*
D03*
X645160Y627380D02*
D03*
Y535940D02*
D03*
Y505460D02*
D03*
Y414020D02*
D03*
X652780Y398780D02*
D03*
X645160Y383540D02*
D03*
X652780Y368300D02*
D03*
X645160Y353060D02*
D03*
X652780Y337820D02*
D03*
X645160Y322580D02*
D03*
X652780Y307340D02*
D03*
X645160Y292100D02*
D03*
X652780Y276860D02*
D03*
X645160Y261620D02*
D03*
X652780Y246380D02*
D03*
Y215900D02*
D03*
Y93980D02*
D03*
Y63500D02*
D03*
X645160Y48260D02*
D03*
X652780Y33020D02*
D03*
X645160Y17780D02*
D03*
X629920Y627380D02*
D03*
Y596900D02*
D03*
X637540Y551180D02*
D03*
X629920Y535940D02*
D03*
X637540Y520700D02*
D03*
Y398780D02*
D03*
Y368300D02*
D03*
Y337820D02*
D03*
Y307340D02*
D03*
Y276860D02*
D03*
X629920Y139700D02*
D03*
X637540Y93980D02*
D03*
Y63500D02*
D03*
X629920Y48260D02*
D03*
X637540Y33020D02*
D03*
X629920Y17780D02*
D03*
X622300Y703580D02*
D03*
X614680Y688340D02*
D03*
Y627380D02*
D03*
X622300Y551180D02*
D03*
X614680Y535940D02*
D03*
Y505460D02*
D03*
Y414020D02*
D03*
Y383540D02*
D03*
Y353060D02*
D03*
Y322580D02*
D03*
Y292100D02*
D03*
Y200660D02*
D03*
Y109220D02*
D03*
X622300Y93980D02*
D03*
Y63500D02*
D03*
X614680Y48260D02*
D03*
X622300Y33020D02*
D03*
X614680Y17780D02*
D03*
X607060Y703580D02*
D03*
X599440Y688340D02*
D03*
X607060Y673100D02*
D03*
X599440Y657860D02*
D03*
X607060Y551180D02*
D03*
X599440Y505460D02*
D03*
X607060Y490220D02*
D03*
X599440Y474980D02*
D03*
X607060Y459740D02*
D03*
X599440Y444500D02*
D03*
X607060Y429260D02*
D03*
X599440Y414020D02*
D03*
X607060Y398780D02*
D03*
X599440Y383540D02*
D03*
X607060Y368300D02*
D03*
X599440Y353060D02*
D03*
X607060Y337820D02*
D03*
X599440Y322580D02*
D03*
X607060Y307340D02*
D03*
Y215900D02*
D03*
X599440Y170180D02*
D03*
Y139700D02*
D03*
Y109220D02*
D03*
X607060Y93980D02*
D03*
Y63500D02*
D03*
X599440Y48260D02*
D03*
X607060Y33020D02*
D03*
X599440Y17780D02*
D03*
X591820Y703580D02*
D03*
X584200Y688340D02*
D03*
X591820Y673100D02*
D03*
X584200Y657860D02*
D03*
X591820Y642620D02*
D03*
X584200Y474980D02*
D03*
X591820Y459740D02*
D03*
Y429260D02*
D03*
Y398780D02*
D03*
Y368300D02*
D03*
X584200Y353060D02*
D03*
X591820Y337820D02*
D03*
X584200Y322580D02*
D03*
X591820Y307340D02*
D03*
Y276860D02*
D03*
X584200Y231140D02*
D03*
Y200660D02*
D03*
X591820Y185420D02*
D03*
X584200Y170180D02*
D03*
X591820Y33020D02*
D03*
X584200Y17780D02*
D03*
X576580Y703580D02*
D03*
X568960Y688340D02*
D03*
X576580Y673100D02*
D03*
X568960Y657860D02*
D03*
X576580Y642620D02*
D03*
Y520700D02*
D03*
X568960Y505460D02*
D03*
X576580Y490220D02*
D03*
Y368300D02*
D03*
X568960Y353060D02*
D03*
X576580Y337820D02*
D03*
X568960Y261620D02*
D03*
X576580Y246380D02*
D03*
X568960Y231140D02*
D03*
X576580Y215900D02*
D03*
X568960Y200660D02*
D03*
X576580Y185420D02*
D03*
X568960Y170180D02*
D03*
Y109220D02*
D03*
X576580Y93980D02*
D03*
X568960Y78740D02*
D03*
Y17780D02*
D03*
X561340Y703580D02*
D03*
X553720Y688340D02*
D03*
X561340Y673100D02*
D03*
X553720Y657860D02*
D03*
X561340Y642620D02*
D03*
Y307340D02*
D03*
X553720Y261620D02*
D03*
X561340Y246380D02*
D03*
X553720Y231140D02*
D03*
X561340Y215900D02*
D03*
X553720Y200660D02*
D03*
X561340Y185420D02*
D03*
X553720Y170180D02*
D03*
Y139700D02*
D03*
Y109220D02*
D03*
X561340Y93980D02*
D03*
X553720Y78740D02*
D03*
Y17780D02*
D03*
X546100Y703580D02*
D03*
X538480Y688340D02*
D03*
X546100Y673100D02*
D03*
X538480Y657860D02*
D03*
X546100Y490220D02*
D03*
X538480Y474980D02*
D03*
Y353060D02*
D03*
X546100Y337820D02*
D03*
X538480Y292100D02*
D03*
X546100Y276860D02*
D03*
X538480Y261620D02*
D03*
X546100Y246380D02*
D03*
X538480Y231140D02*
D03*
X546100Y215900D02*
D03*
X538480Y200660D02*
D03*
X546100Y185420D02*
D03*
X538480Y170180D02*
D03*
Y109220D02*
D03*
X546100Y93980D02*
D03*
X538480Y78740D02*
D03*
X546100Y63500D02*
D03*
X538480Y17780D02*
D03*
X523240Y596900D02*
D03*
Y109220D02*
D03*
X530860Y93980D02*
D03*
X523240Y78740D02*
D03*
X530860Y63500D02*
D03*
X508000Y505460D02*
D03*
X515620Y490220D02*
D03*
X508000Y474980D02*
D03*
X515620Y459740D02*
D03*
X508000Y444500D02*
D03*
X515620Y429260D02*
D03*
X508000Y414020D02*
D03*
X515620Y398780D02*
D03*
X508000Y383540D02*
D03*
X515620Y368300D02*
D03*
Y307340D02*
D03*
Y276860D02*
D03*
Y246380D02*
D03*
Y215900D02*
D03*
Y185420D02*
D03*
Y93980D02*
D03*
X500380Y520700D02*
D03*
Y490220D02*
D03*
X492760Y474980D02*
D03*
X500380Y459740D02*
D03*
X492760Y444500D02*
D03*
X500380Y429260D02*
D03*
X492760Y414020D02*
D03*
X500380Y398780D02*
D03*
X492760Y383540D02*
D03*
X500380Y368300D02*
D03*
X492760Y109220D02*
D03*
Y17780D02*
D03*
X485140Y459740D02*
D03*
Y429260D02*
D03*
Y398780D02*
D03*
X477520Y383540D02*
D03*
Y109220D02*
D03*
X462280Y383540D02*
D03*
X469900Y368300D02*
D03*
X462280Y170180D02*
D03*
X447040Y596900D02*
D03*
Y566420D02*
D03*
X454660Y398780D02*
D03*
X431800Y414020D02*
D03*
X439420Y398780D02*
D03*
X431800Y353060D02*
D03*
Y109220D02*
D03*
X439420Y33020D02*
D03*
X431800Y17780D02*
D03*
X424180Y703580D02*
D03*
X416560Y688340D02*
D03*
X424180Y673100D02*
D03*
X416560Y627380D02*
D03*
Y353060D02*
D03*
Y322580D02*
D03*
Y292100D02*
D03*
Y170180D02*
D03*
Y109220D02*
D03*
X424180Y33020D02*
D03*
X416560Y17780D02*
D03*
X408940Y703580D02*
D03*
X401320Y688340D02*
D03*
Y657860D02*
D03*
Y627380D02*
D03*
Y596900D02*
D03*
Y535940D02*
D03*
Y444500D02*
D03*
X408940Y429260D02*
D03*
X401320Y383540D02*
D03*
X408940Y368300D02*
D03*
X401320Y353060D02*
D03*
X408940Y337820D02*
D03*
X401320Y322580D02*
D03*
X408940Y307340D02*
D03*
X401320Y292100D02*
D03*
X408940Y185420D02*
D03*
X401320Y170180D02*
D03*
Y109220D02*
D03*
Y17780D02*
D03*
X393700Y703580D02*
D03*
X386080Y688340D02*
D03*
X393700Y673100D02*
D03*
X386080Y657860D02*
D03*
X393700Y642620D02*
D03*
X386080Y627380D02*
D03*
X393700Y551180D02*
D03*
X386080Y535940D02*
D03*
Y383540D02*
D03*
X393700Y368300D02*
D03*
X386080Y353060D02*
D03*
X393700Y337820D02*
D03*
X386080Y322580D02*
D03*
X393700Y307340D02*
D03*
X386080Y292100D02*
D03*
X393700Y185420D02*
D03*
X386080Y170180D02*
D03*
Y109220D02*
D03*
Y17780D02*
D03*
X378460Y703580D02*
D03*
X370840Y688340D02*
D03*
X378460Y673100D02*
D03*
Y642620D02*
D03*
X370840Y627380D02*
D03*
Y596900D02*
D03*
X378460Y520700D02*
D03*
X370840Y505460D02*
D03*
X378460Y490220D02*
D03*
X370840Y474980D02*
D03*
X378460Y459740D02*
D03*
X370840Y414020D02*
D03*
X378460Y398780D02*
D03*
X370840Y383540D02*
D03*
X378460Y368300D02*
D03*
X370840Y353060D02*
D03*
X378460Y337820D02*
D03*
X370840Y322580D02*
D03*
X378460Y307340D02*
D03*
X370840Y292100D02*
D03*
X378460Y185420D02*
D03*
X370840Y170180D02*
D03*
Y109220D02*
D03*
X363220Y703580D02*
D03*
X355600Y688340D02*
D03*
X363220Y490220D02*
D03*
X355600Y414020D02*
D03*
X363220Y398780D02*
D03*
X355600Y383540D02*
D03*
X363220Y368300D02*
D03*
X355600Y353060D02*
D03*
X363220Y337820D02*
D03*
X355600Y322580D02*
D03*
X363220Y307340D02*
D03*
X355600Y292100D02*
D03*
X363220Y185420D02*
D03*
X355600Y170180D02*
D03*
Y109220D02*
D03*
X363220Y93980D02*
D03*
X355600Y78740D02*
D03*
X347980Y703580D02*
D03*
X340360Y688340D02*
D03*
X347980Y673100D02*
D03*
X340360Y657860D02*
D03*
Y566420D02*
D03*
Y444500D02*
D03*
X347980Y429260D02*
D03*
X340360Y414020D02*
D03*
X347980Y398780D02*
D03*
X340360Y383540D02*
D03*
X347980Y368300D02*
D03*
X340360Y353060D02*
D03*
X347980Y337820D02*
D03*
X340360Y322580D02*
D03*
X347980Y307340D02*
D03*
X340360Y292100D02*
D03*
X347980Y185420D02*
D03*
X340360Y170180D02*
D03*
X332740Y703580D02*
D03*
X325120Y596900D02*
D03*
Y444500D02*
D03*
X332740Y429260D02*
D03*
X325120Y414020D02*
D03*
X332740Y398780D02*
D03*
X325120Y383540D02*
D03*
X332740Y368300D02*
D03*
X325120Y353060D02*
D03*
X332740Y337820D02*
D03*
X325120Y322580D02*
D03*
X332740Y307340D02*
D03*
X325120Y292100D02*
D03*
X332740Y185420D02*
D03*
X325120Y170180D02*
D03*
X332740Y154940D02*
D03*
X325120Y139700D02*
D03*
Y109220D02*
D03*
X317500Y703580D02*
D03*
X309880Y566420D02*
D03*
Y444500D02*
D03*
X317500Y429260D02*
D03*
X309880Y414020D02*
D03*
X317500Y398780D02*
D03*
X309880Y383540D02*
D03*
X317500Y368300D02*
D03*
X309880Y353060D02*
D03*
X317500Y337820D02*
D03*
X309880Y322580D02*
D03*
X317500Y307340D02*
D03*
X309880Y292100D02*
D03*
X317500Y185420D02*
D03*
X309880Y170180D02*
D03*
Y109220D02*
D03*
X317500Y93980D02*
D03*
X294640Y596900D02*
D03*
Y444500D02*
D03*
X302260Y429260D02*
D03*
X294640Y414020D02*
D03*
X302260Y398780D02*
D03*
X294640Y383540D02*
D03*
X302260Y368300D02*
D03*
X294640Y353060D02*
D03*
X302260Y337820D02*
D03*
X294640Y322580D02*
D03*
X302260Y307340D02*
D03*
X294640Y292100D02*
D03*
X302260Y276860D02*
D03*
X294640Y261620D02*
D03*
X302260Y246380D02*
D03*
X294640Y231140D02*
D03*
X302260Y215900D02*
D03*
X294640Y200660D02*
D03*
Y170180D02*
D03*
Y139700D02*
D03*
Y109220D02*
D03*
X302260Y93980D02*
D03*
X287020Y612140D02*
D03*
X279400Y596900D02*
D03*
X287020Y581660D02*
D03*
X279400Y566420D02*
D03*
Y444500D02*
D03*
X287020Y429260D02*
D03*
X279400Y414020D02*
D03*
X287020Y398780D02*
D03*
X279400Y383540D02*
D03*
X287020Y368300D02*
D03*
X279400Y353060D02*
D03*
X287020Y337820D02*
D03*
X279400Y322580D02*
D03*
X287020Y307340D02*
D03*
X279400Y292100D02*
D03*
X287020Y276860D02*
D03*
X279400Y261620D02*
D03*
X287020Y246380D02*
D03*
X279400Y231140D02*
D03*
X287020Y215900D02*
D03*
X279400Y200660D02*
D03*
Y109220D02*
D03*
X287020Y93980D02*
D03*
X264160Y566420D02*
D03*
Y444500D02*
D03*
X271780Y429260D02*
D03*
X264160Y414020D02*
D03*
X271780Y398780D02*
D03*
X264160Y383540D02*
D03*
X271780Y368300D02*
D03*
X264160Y353060D02*
D03*
X271780Y337820D02*
D03*
X264160Y322580D02*
D03*
X271780Y307340D02*
D03*
X264160Y292100D02*
D03*
X271780Y276860D02*
D03*
X264160Y261620D02*
D03*
X271780Y246380D02*
D03*
X264160Y231140D02*
D03*
X271780Y215900D02*
D03*
X264160Y200660D02*
D03*
X271780Y185420D02*
D03*
X264160Y170180D02*
D03*
Y109220D02*
D03*
X271780Y93980D02*
D03*
X248920Y444500D02*
D03*
X256540Y429260D02*
D03*
X248920Y414020D02*
D03*
X256540Y398780D02*
D03*
X248920Y383540D02*
D03*
X256540Y368300D02*
D03*
X248920Y353060D02*
D03*
X256540Y337820D02*
D03*
X248920Y322580D02*
D03*
X256540Y307340D02*
D03*
X248920Y292100D02*
D03*
X256540Y276860D02*
D03*
X248920Y261620D02*
D03*
X256540Y246380D02*
D03*
X248920Y231140D02*
D03*
X256540Y215900D02*
D03*
X248920Y200660D02*
D03*
X256540Y185420D02*
D03*
X248920Y170180D02*
D03*
Y139700D02*
D03*
X233680Y596900D02*
D03*
Y566420D02*
D03*
Y444500D02*
D03*
X241300Y429260D02*
D03*
X233680Y414020D02*
D03*
X241300Y398780D02*
D03*
X233680Y383540D02*
D03*
X241300Y368300D02*
D03*
X233680Y353060D02*
D03*
X241300Y337820D02*
D03*
X233680Y322580D02*
D03*
X241300Y307340D02*
D03*
X233680Y292100D02*
D03*
X241300Y276860D02*
D03*
X233680Y261620D02*
D03*
X241300Y246380D02*
D03*
X233680Y231140D02*
D03*
X241300Y215900D02*
D03*
X233680Y200660D02*
D03*
X241300Y185420D02*
D03*
X233680Y170180D02*
D03*
X218440Y535940D02*
D03*
Y505460D02*
D03*
Y474980D02*
D03*
Y444500D02*
D03*
X226060Y429260D02*
D03*
X218440Y414020D02*
D03*
X226060Y398780D02*
D03*
X218440Y383540D02*
D03*
X226060Y368300D02*
D03*
X218440Y353060D02*
D03*
X226060Y337820D02*
D03*
X218440Y322580D02*
D03*
X226060Y307340D02*
D03*
X218440Y292100D02*
D03*
X226060Y276860D02*
D03*
X218440Y261620D02*
D03*
X226060Y246380D02*
D03*
X218440Y231140D02*
D03*
X226060Y215900D02*
D03*
X218440Y200660D02*
D03*
X226060Y185420D02*
D03*
X218440Y170180D02*
D03*
Y139700D02*
D03*
Y109220D02*
D03*
X226060Y93980D02*
D03*
X210820Y703580D02*
D03*
X203200Y688340D02*
D03*
X210820Y673100D02*
D03*
X203200Y657860D02*
D03*
X210820Y642620D02*
D03*
X203200Y627380D02*
D03*
Y505460D02*
D03*
X210820Y490220D02*
D03*
X203200Y474980D02*
D03*
X210820Y459740D02*
D03*
X203200Y444500D02*
D03*
X210820Y429260D02*
D03*
X203200Y414020D02*
D03*
X210820Y398780D02*
D03*
X203200Y383540D02*
D03*
X210820Y368300D02*
D03*
X203200Y353060D02*
D03*
X210820Y337820D02*
D03*
X203200Y322580D02*
D03*
X210820Y307340D02*
D03*
X203200Y292100D02*
D03*
X210820Y276860D02*
D03*
X203200Y261620D02*
D03*
X210820Y246380D02*
D03*
X203200Y231140D02*
D03*
X210820Y215900D02*
D03*
X203200Y200660D02*
D03*
X210820Y185420D02*
D03*
X203200Y170180D02*
D03*
Y109220D02*
D03*
X210820Y93980D02*
D03*
X203200Y48260D02*
D03*
Y17780D02*
D03*
X195580Y703580D02*
D03*
X187960Y688340D02*
D03*
X195580Y673100D02*
D03*
X187960Y657860D02*
D03*
X195580Y642620D02*
D03*
X187960Y627380D02*
D03*
Y566420D02*
D03*
Y535940D02*
D03*
X195580Y520700D02*
D03*
X187960Y505460D02*
D03*
X195580Y490220D02*
D03*
X187960Y474980D02*
D03*
X195580Y459740D02*
D03*
X187960Y444500D02*
D03*
X195580Y429260D02*
D03*
X187960Y414020D02*
D03*
X195580Y398780D02*
D03*
X187960Y383540D02*
D03*
X195580Y368300D02*
D03*
X187960Y353060D02*
D03*
X195580Y337820D02*
D03*
X187960Y322580D02*
D03*
X195580Y307340D02*
D03*
X187960Y292100D02*
D03*
X195580Y276860D02*
D03*
X187960Y261620D02*
D03*
X195580Y246380D02*
D03*
X187960Y231140D02*
D03*
X195580Y215900D02*
D03*
X187960Y200660D02*
D03*
X195580Y185420D02*
D03*
X187960Y170180D02*
D03*
Y109220D02*
D03*
X195580Y93980D02*
D03*
X187960Y48260D02*
D03*
X195580Y33020D02*
D03*
X187960Y17780D02*
D03*
X180340Y703580D02*
D03*
X172720Y688340D02*
D03*
X180340Y673100D02*
D03*
X172720Y657860D02*
D03*
X180340Y642620D02*
D03*
X172720Y627380D02*
D03*
Y566420D02*
D03*
Y535940D02*
D03*
X180340Y520700D02*
D03*
X172720Y505460D02*
D03*
X180340Y490220D02*
D03*
X172720Y474980D02*
D03*
X180340Y459740D02*
D03*
X172720Y444500D02*
D03*
X180340Y429260D02*
D03*
X172720Y414020D02*
D03*
X180340Y398780D02*
D03*
X172720Y383540D02*
D03*
X180340Y368300D02*
D03*
X172720Y353060D02*
D03*
X180340Y337820D02*
D03*
X172720Y322580D02*
D03*
X180340Y307340D02*
D03*
X172720Y292100D02*
D03*
X180340Y276860D02*
D03*
X172720Y261620D02*
D03*
X180340Y246380D02*
D03*
X172720Y231140D02*
D03*
X180340Y215900D02*
D03*
X172720Y200660D02*
D03*
X180340Y185420D02*
D03*
X172720Y170180D02*
D03*
Y139700D02*
D03*
Y109220D02*
D03*
X180340Y93980D02*
D03*
X172720Y78740D02*
D03*
X180340Y63500D02*
D03*
X172720Y48260D02*
D03*
X180340Y33020D02*
D03*
X172720Y17780D02*
D03*
X165100Y703580D02*
D03*
X157480Y688340D02*
D03*
X165100Y673100D02*
D03*
X157480Y657860D02*
D03*
X165100Y642620D02*
D03*
X157480Y627380D02*
D03*
Y596900D02*
D03*
Y566420D02*
D03*
X165100Y551180D02*
D03*
X157480Y535940D02*
D03*
X165100Y520700D02*
D03*
X157480Y505460D02*
D03*
X165100Y490220D02*
D03*
X157480Y474980D02*
D03*
X165100Y459740D02*
D03*
X157480Y444500D02*
D03*
X165100Y429260D02*
D03*
X157480Y414020D02*
D03*
X165100Y398780D02*
D03*
X157480Y383540D02*
D03*
X165100Y368300D02*
D03*
X157480Y353060D02*
D03*
X165100Y337820D02*
D03*
X157480Y322580D02*
D03*
X165100Y307340D02*
D03*
X157480Y292100D02*
D03*
X165100Y276860D02*
D03*
X157480Y261620D02*
D03*
X165100Y246380D02*
D03*
X157480Y231140D02*
D03*
X165100Y215900D02*
D03*
X157480Y200660D02*
D03*
X165100Y185420D02*
D03*
X157480Y170180D02*
D03*
Y109220D02*
D03*
X165100Y93980D02*
D03*
X157480Y78740D02*
D03*
X165100Y63500D02*
D03*
X157480Y48260D02*
D03*
X165100Y33020D02*
D03*
X157480Y17780D02*
D03*
X149860Y703580D02*
D03*
X142240Y688340D02*
D03*
X149860Y673100D02*
D03*
X142240Y657860D02*
D03*
X149860Y642620D02*
D03*
X142240Y627380D02*
D03*
Y566420D02*
D03*
X149860Y551180D02*
D03*
X142240Y535940D02*
D03*
X149860Y520700D02*
D03*
X142240Y505460D02*
D03*
X149860Y490220D02*
D03*
X142240Y474980D02*
D03*
X149860Y459740D02*
D03*
X142240Y444500D02*
D03*
X149860Y429260D02*
D03*
X142240Y414020D02*
D03*
X149860Y398780D02*
D03*
X142240Y383540D02*
D03*
X149860Y368300D02*
D03*
X142240Y353060D02*
D03*
X149860Y337820D02*
D03*
X142240Y322580D02*
D03*
X149860Y307340D02*
D03*
X142240Y292100D02*
D03*
X149860Y276860D02*
D03*
X142240Y261620D02*
D03*
X149860Y246380D02*
D03*
X142240Y231140D02*
D03*
X149860Y215900D02*
D03*
X142240Y200660D02*
D03*
X149860Y185420D02*
D03*
X142240Y170180D02*
D03*
Y109220D02*
D03*
X149860Y93980D02*
D03*
X142240Y78740D02*
D03*
X149860Y63500D02*
D03*
X142240Y48260D02*
D03*
X149860Y33020D02*
D03*
X142240Y17780D02*
D03*
X134620Y703580D02*
D03*
X127000Y688340D02*
D03*
X134620Y673100D02*
D03*
X127000Y657860D02*
D03*
X134620Y642620D02*
D03*
X127000Y627380D02*
D03*
Y596900D02*
D03*
Y566420D02*
D03*
X134620Y551180D02*
D03*
X127000Y535940D02*
D03*
X134620Y520700D02*
D03*
X127000Y505460D02*
D03*
X134620Y490220D02*
D03*
X127000Y474980D02*
D03*
X134620Y459740D02*
D03*
X127000Y444500D02*
D03*
X134620Y429260D02*
D03*
X127000Y414020D02*
D03*
X134620Y398780D02*
D03*
X127000Y383540D02*
D03*
X134620Y368300D02*
D03*
X127000Y353060D02*
D03*
X134620Y337820D02*
D03*
X127000Y322580D02*
D03*
X134620Y307340D02*
D03*
X127000Y292100D02*
D03*
X134620Y276860D02*
D03*
X127000Y261620D02*
D03*
X134620Y246380D02*
D03*
X127000Y231140D02*
D03*
X134620Y215900D02*
D03*
X127000Y200660D02*
D03*
X134620Y185420D02*
D03*
X127000Y170180D02*
D03*
Y109220D02*
D03*
X134620Y93980D02*
D03*
X127000Y78740D02*
D03*
X134620Y63500D02*
D03*
X127000Y48260D02*
D03*
X134620Y33020D02*
D03*
X127000Y17780D02*
D03*
X119380Y703580D02*
D03*
X111760Y688340D02*
D03*
X119380Y673100D02*
D03*
X111760Y657860D02*
D03*
X119380Y642620D02*
D03*
X111760Y627380D02*
D03*
Y566420D02*
D03*
X119380Y551180D02*
D03*
X111760Y535940D02*
D03*
X119380Y520700D02*
D03*
X111760Y505460D02*
D03*
X119380Y490220D02*
D03*
X111760Y474980D02*
D03*
X119380Y459740D02*
D03*
X111760Y444500D02*
D03*
X119380Y429260D02*
D03*
X111760Y414020D02*
D03*
X119380Y398780D02*
D03*
X111760Y383540D02*
D03*
X119380Y368300D02*
D03*
X111760Y353060D02*
D03*
X119380Y337820D02*
D03*
X111760Y322580D02*
D03*
X119380Y307340D02*
D03*
X111760Y292100D02*
D03*
X119380Y276860D02*
D03*
X111760Y261620D02*
D03*
X119380Y246380D02*
D03*
X111760Y231140D02*
D03*
X119380Y215900D02*
D03*
X111760Y200660D02*
D03*
X119380Y185420D02*
D03*
X111760Y170180D02*
D03*
Y139700D02*
D03*
Y109220D02*
D03*
X119380Y93980D02*
D03*
X111760Y78740D02*
D03*
X119380Y63500D02*
D03*
X111760Y48260D02*
D03*
X119380Y33020D02*
D03*
X111760Y17780D02*
D03*
X104140Y703580D02*
D03*
X96520Y688340D02*
D03*
X104140Y673100D02*
D03*
X96520Y657860D02*
D03*
X104140Y642620D02*
D03*
X96520Y627380D02*
D03*
Y566420D02*
D03*
X104140Y551180D02*
D03*
X96520Y535940D02*
D03*
X104140Y520700D02*
D03*
X96520Y505460D02*
D03*
X104140Y490220D02*
D03*
X96520Y474980D02*
D03*
X104140Y459740D02*
D03*
X96520Y444500D02*
D03*
X104140Y429260D02*
D03*
X96520Y414020D02*
D03*
X104140Y398780D02*
D03*
X96520Y383540D02*
D03*
X104140Y368300D02*
D03*
X96520Y353060D02*
D03*
X104140Y337820D02*
D03*
X96520Y322580D02*
D03*
X104140Y307340D02*
D03*
X96520Y292100D02*
D03*
X104140Y276860D02*
D03*
X96520Y261620D02*
D03*
X104140Y246380D02*
D03*
X96520Y231140D02*
D03*
X104140Y215900D02*
D03*
X96520Y200660D02*
D03*
X104140Y185420D02*
D03*
X96520Y170180D02*
D03*
X104140Y154940D02*
D03*
X96520Y139700D02*
D03*
X104140Y124460D02*
D03*
X96520Y109220D02*
D03*
X104140Y93980D02*
D03*
X96520Y78740D02*
D03*
X104140Y63500D02*
D03*
X96520Y48260D02*
D03*
X104140Y33020D02*
D03*
X96520Y17780D02*
D03*
X88900Y703580D02*
D03*
X81280Y688340D02*
D03*
X88900Y673100D02*
D03*
X81280Y657860D02*
D03*
X88900Y642620D02*
D03*
X81280Y627380D02*
D03*
Y596900D02*
D03*
Y566420D02*
D03*
X88900Y551180D02*
D03*
X81280Y535940D02*
D03*
X88900Y520700D02*
D03*
X81280Y505460D02*
D03*
X88900Y490220D02*
D03*
X81280Y474980D02*
D03*
X88900Y459740D02*
D03*
X81280Y444500D02*
D03*
X88900Y429260D02*
D03*
X81280Y414020D02*
D03*
X88900Y398780D02*
D03*
X81280Y383540D02*
D03*
X88900Y368300D02*
D03*
X81280Y353060D02*
D03*
X88900Y337820D02*
D03*
X81280Y322580D02*
D03*
X88900Y307340D02*
D03*
X81280Y292100D02*
D03*
X88900Y276860D02*
D03*
X81280Y261620D02*
D03*
X88900Y246380D02*
D03*
X81280Y231140D02*
D03*
X88900Y215900D02*
D03*
X81280Y200660D02*
D03*
X88900Y185420D02*
D03*
X81280Y170180D02*
D03*
X88900Y154940D02*
D03*
X81280Y139700D02*
D03*
X88900Y124460D02*
D03*
X81280Y109220D02*
D03*
X88900Y93980D02*
D03*
X81280Y78740D02*
D03*
X88900Y63500D02*
D03*
X81280Y48260D02*
D03*
X88900Y33020D02*
D03*
X81280Y17780D02*
D03*
X73660Y703580D02*
D03*
X66040Y688340D02*
D03*
X73660Y673100D02*
D03*
X66040Y657860D02*
D03*
X73660Y642620D02*
D03*
X66040Y627380D02*
D03*
Y566420D02*
D03*
X73660Y551180D02*
D03*
X66040Y535940D02*
D03*
X73660Y520700D02*
D03*
X66040Y505460D02*
D03*
X73660Y490220D02*
D03*
X66040Y474980D02*
D03*
X73660Y459740D02*
D03*
X66040Y444500D02*
D03*
X73660Y429260D02*
D03*
X66040Y414020D02*
D03*
X73660Y398780D02*
D03*
X66040Y383540D02*
D03*
X73660Y368300D02*
D03*
X66040Y353060D02*
D03*
X73660Y337820D02*
D03*
X66040Y322580D02*
D03*
X73660Y307340D02*
D03*
X66040Y292100D02*
D03*
X73660Y276860D02*
D03*
X66040Y261620D02*
D03*
X73660Y246380D02*
D03*
X66040Y231140D02*
D03*
X73660Y215900D02*
D03*
X66040Y200660D02*
D03*
X73660Y185420D02*
D03*
X66040Y170180D02*
D03*
X73660Y154940D02*
D03*
X66040Y139700D02*
D03*
X73660Y124460D02*
D03*
X66040Y109220D02*
D03*
X73660Y93980D02*
D03*
X66040Y78740D02*
D03*
X73660Y63500D02*
D03*
X66040Y48260D02*
D03*
X73660Y33020D02*
D03*
X66040Y17780D02*
D03*
X58420Y703580D02*
D03*
X50800Y688340D02*
D03*
X58420Y673100D02*
D03*
X50800Y657860D02*
D03*
X58420Y642620D02*
D03*
X50800Y627380D02*
D03*
Y566420D02*
D03*
X58420Y551180D02*
D03*
X50800Y535940D02*
D03*
X58420Y520700D02*
D03*
X50800Y505460D02*
D03*
X58420Y490220D02*
D03*
X50800Y474980D02*
D03*
X58420Y459740D02*
D03*
X50800Y444500D02*
D03*
X58420Y429260D02*
D03*
X50800Y414020D02*
D03*
X58420Y398780D02*
D03*
X50800Y383540D02*
D03*
X58420Y368300D02*
D03*
X50800Y353060D02*
D03*
X58420Y337820D02*
D03*
X50800Y322580D02*
D03*
X58420Y307340D02*
D03*
X50800Y292100D02*
D03*
X58420Y276860D02*
D03*
X50800Y261620D02*
D03*
X58420Y246380D02*
D03*
X50800Y231140D02*
D03*
X58420Y215900D02*
D03*
X50800Y200660D02*
D03*
X58420Y185420D02*
D03*
X50800Y170180D02*
D03*
X58420Y154940D02*
D03*
X50800Y139700D02*
D03*
X58420Y124460D02*
D03*
X50800Y109220D02*
D03*
X58420Y93980D02*
D03*
X50800Y78740D02*
D03*
X58420Y63500D02*
D03*
X50800Y48260D02*
D03*
X58420Y33020D02*
D03*
X50800Y17780D02*
D03*
X43180Y703580D02*
D03*
X35560Y688340D02*
D03*
X43180Y673100D02*
D03*
X35560Y657860D02*
D03*
X43180Y642620D02*
D03*
X35560Y627380D02*
D03*
Y566420D02*
D03*
X43180Y551180D02*
D03*
X35560Y535940D02*
D03*
X43180Y520700D02*
D03*
X35560Y505460D02*
D03*
X43180Y490220D02*
D03*
X35560Y474980D02*
D03*
X43180Y459740D02*
D03*
X35560Y444500D02*
D03*
X43180Y429260D02*
D03*
X35560Y414020D02*
D03*
X43180Y398780D02*
D03*
X35560Y383540D02*
D03*
X43180Y368300D02*
D03*
X35560Y353060D02*
D03*
X43180Y337820D02*
D03*
X35560Y322580D02*
D03*
X43180Y307340D02*
D03*
X35560Y292100D02*
D03*
X43180Y276860D02*
D03*
X35560Y261620D02*
D03*
X43180Y246380D02*
D03*
X35560Y231140D02*
D03*
X43180Y215900D02*
D03*
X35560Y200660D02*
D03*
X43180Y185420D02*
D03*
X35560Y170180D02*
D03*
X43180Y154940D02*
D03*
X35560Y139700D02*
D03*
X43180Y124460D02*
D03*
X35560Y109220D02*
D03*
X43180Y93980D02*
D03*
X35560Y78740D02*
D03*
X43180Y63500D02*
D03*
X35560Y48260D02*
D03*
X43180Y33020D02*
D03*
X35560Y17780D02*
D03*
X27940Y703580D02*
D03*
X20320Y688340D02*
D03*
X27940Y673100D02*
D03*
X20320Y657860D02*
D03*
X27940Y642620D02*
D03*
X20320Y627380D02*
D03*
Y596900D02*
D03*
Y566420D02*
D03*
X27940Y551180D02*
D03*
X20320Y535940D02*
D03*
X27940Y520700D02*
D03*
X20320Y505460D02*
D03*
X27940Y490220D02*
D03*
X20320Y474980D02*
D03*
X27940Y459740D02*
D03*
X20320Y444500D02*
D03*
X27940Y429260D02*
D03*
X20320Y414020D02*
D03*
X27940Y398780D02*
D03*
X20320Y383540D02*
D03*
X27940Y368300D02*
D03*
X20320Y353060D02*
D03*
X27940Y337820D02*
D03*
X20320Y322580D02*
D03*
X27940Y307340D02*
D03*
X20320Y292100D02*
D03*
X27940Y276860D02*
D03*
X20320Y261620D02*
D03*
X27940Y246380D02*
D03*
X20320Y231140D02*
D03*
X27940Y215900D02*
D03*
X20320Y200660D02*
D03*
X27940Y185420D02*
D03*
X20320Y170180D02*
D03*
X27940Y154940D02*
D03*
X20320Y139700D02*
D03*
X27940Y124460D02*
D03*
X20320Y109220D02*
D03*
X27940Y93980D02*
D03*
X20320Y78740D02*
D03*
X27940Y63500D02*
D03*
X20320Y48260D02*
D03*
X27940Y33020D02*
D03*
X20320Y17780D02*
D03*
D39*
X490474Y359410D02*
D03*
X581152Y262128D02*
D03*
D40*
X866394Y271780D02*
D03*
M02*
