G04*
G04 #@! TF.GenerationSoftware,Altium Limited,Altium Designer,23.10.1 (27)*
G04*
G04 Layer_Color=65535*
%FSLAX44Y44*%
%MOMM*%
G71*
G04*
G04 #@! TF.SameCoordinates,671930CB-C111-41D6-978D-B382350784AC*
G04*
G04*
G04 #@! TF.FilePolarity,Positive*
G04*
G01*
G75*
%ADD10C,0.2500*%
%ADD11C,0.2000*%
%ADD12C,0.1524*%
D10*
X939634Y448738D02*
G03*
X939634Y448738I-1250J0D01*
G01*
X939632Y194784D02*
G03*
X939632Y194784I-1250J0D01*
G01*
Y321784D02*
G03*
X939632Y321784I-1250J0D01*
G01*
D11*
X990834Y473198D02*
Y515238D01*
X930934Y473198D02*
Y515238D01*
X949594Y524188D02*
X971884D01*
X949594Y464288D02*
X972174D01*
X964644Y75308D02*
Y90808D01*
X955394Y91558D02*
X967394D01*
X955394Y74558D02*
X967394D01*
X27578Y570280D02*
X283978D01*
X283178Y623280D02*
X283978D01*
X283178D02*
Y623280D01*
X27578Y570280D02*
Y623280D01*
X731018Y113230D02*
Y166080D01*
X347618Y113230D02*
X731018D01*
X730218Y166080D02*
X731018D01*
X730218D02*
Y166080D01*
X347618D02*
X730218D01*
X347618Y113230D02*
Y166080D01*
X326418Y113230D02*
Y165530D01*
X119018D02*
X326418D01*
X119018Y113230D02*
Y165530D01*
Y113230D02*
X326218Y113230D01*
X296818Y570430D02*
X730218Y570430D01*
X296818Y570430D02*
Y623280D01*
X730218Y570430D02*
Y623280D01*
X296818Y623280D02*
X730218Y623280D01*
X27578Y623280D02*
X283978D01*
Y570280D02*
Y623280D01*
X964640Y126362D02*
Y141862D01*
X955390Y142612D02*
X967390D01*
X955390Y125612D02*
X967390D01*
X990832Y219244D02*
Y261284D01*
X930932Y219244D02*
Y261284D01*
X949592Y270234D02*
X971882D01*
X949592Y210334D02*
X972172D01*
X990832Y346244D02*
Y388284D01*
X930932Y346244D02*
Y388284D01*
X949592Y397234D02*
X971882D01*
X949592Y337334D02*
X972172D01*
D12*
X48681Y697943D02*
X46988Y699635D01*
X43603D01*
X41910Y697943D01*
Y696250D01*
X43603Y694557D01*
X46988D01*
X48681Y692864D01*
Y691171D01*
X46988Y689479D01*
X43603D01*
X41910Y691171D01*
X52067Y689479D02*
X55452D01*
X53759D01*
Y696250D01*
X52067D01*
X60531Y689479D02*
Y696250D01*
X62223D01*
X63916Y694557D01*
Y689479D01*
Y694557D01*
X65609Y696250D01*
X67302Y694557D01*
Y689479D01*
X72380D02*
X75766D01*
X77459Y691171D01*
Y694557D01*
X75766Y696250D01*
X72380D01*
X70687Y694557D01*
Y691171D01*
X72380Y689479D01*
X80844D02*
Y696250D01*
X85922D01*
X87615Y694557D01*
Y689479D01*
X92694Y696250D02*
X96079D01*
X97772Y694557D01*
Y689479D01*
X92694D01*
X91001Y691171D01*
X92694Y692864D01*
X97772D01*
X101158Y689479D02*
X106236D01*
X107929Y691171D01*
X106236Y692864D01*
X102850D01*
X101158Y694557D01*
X102850Y696250D01*
X107929D01*
X121471Y689479D02*
Y699635D01*
X126549D01*
X128242Y697943D01*
Y694557D01*
X126549Y692864D01*
X121471D01*
X124857D02*
X128242Y689479D01*
X131628D02*
X135013D01*
X133321D01*
Y696250D01*
X131628D01*
X141784D02*
X145170D01*
X146863Y694557D01*
Y689479D01*
X141784D01*
X140092Y691171D01*
X141784Y692864D01*
X146863D01*
X150248Y696250D02*
Y691171D01*
X151941Y689479D01*
X157020D01*
Y696250D01*
X160405Y689479D02*
Y699635D01*
Y692864D02*
X165483Y696250D01*
X160405Y692864D02*
X165483Y689479D01*
X172255Y696250D02*
X175640D01*
X177333Y694557D01*
Y689479D01*
X172255D01*
X170562Y691171D01*
X172255Y692864D01*
X177333D01*
X182411Y687786D02*
X184104Y689479D01*
Y691171D01*
X182411D01*
Y689479D01*
X184104D01*
X182411Y687786D01*
X180719Y686093D01*
X41910Y673633D02*
Y680404D01*
X45296Y683790D01*
X48681Y680404D01*
Y673633D01*
Y678711D01*
X41910D01*
X52067Y680404D02*
Y673633D01*
Y677019D01*
X53759Y678711D01*
X55452Y680404D01*
X57145D01*
X62223Y673633D02*
Y680404D01*
X67302D01*
X68995Y678711D01*
Y673633D01*
X74073Y680404D02*
X77459D01*
X79151Y678711D01*
Y673633D01*
X74073D01*
X72380Y675326D01*
X74073Y677019D01*
X79151D01*
X82537Y673633D02*
X87615D01*
X89308Y675326D01*
X87615Y677019D01*
X84230D01*
X82537Y678711D01*
X84230Y680404D01*
X89308D01*
X102850Y673633D02*
Y683790D01*
X107929D01*
X109621Y682097D01*
Y678711D01*
X107929Y677019D01*
X102850D01*
X113007Y673633D02*
X116393D01*
X114700D01*
Y680404D01*
X113007D01*
X123164D02*
X126549D01*
X128242Y678711D01*
Y673633D01*
X123164D01*
X121471Y675326D01*
X123164Y677019D01*
X128242D01*
X131628Y680404D02*
Y675326D01*
X133321Y673633D01*
X138399D01*
Y680404D01*
X141784Y673633D02*
X145170D01*
X143477D01*
Y683790D01*
X141784D01*
X151941Y673633D02*
X155327D01*
X157020Y675326D01*
Y678711D01*
X155327Y680404D01*
X151941D01*
X150248Y678711D01*
Y675326D01*
X151941Y673633D01*
X160405D02*
Y683790D01*
Y677019D02*
X165483Y680404D01*
X160405Y677019D02*
X165483Y673633D01*
X172255Y680404D02*
X175640D01*
X177333Y678711D01*
Y673633D01*
X172255D01*
X170562Y675326D01*
X172255Y677019D01*
X177333D01*
X180719Y673633D02*
X185797D01*
X187490Y675326D01*
X185797Y677019D01*
X182411D01*
X180719Y678711D01*
X182411Y680404D01*
X187490D01*
X192568Y671940D02*
X194261Y673633D01*
Y675326D01*
X192568D01*
Y673633D01*
X194261D01*
X192568Y671940D01*
X190875Y670247D01*
X41910Y657787D02*
Y664558D01*
X45296Y667944D01*
X48681Y664558D01*
Y657787D01*
Y662866D01*
X41910D01*
X52067Y664558D02*
Y659480D01*
X53759Y657787D01*
X58838D01*
Y664558D01*
X62223D02*
Y657787D01*
Y661173D01*
X63916Y662866D01*
X65609Y664558D01*
X67302D01*
X72380Y657787D02*
X75766D01*
X74073D01*
Y664558D01*
X72380D01*
X80844Y657787D02*
Y664558D01*
X82537D01*
X84230Y662866D01*
Y657787D01*
Y662866D01*
X85922Y664558D01*
X87615Y662866D01*
Y657787D01*
X92694Y664558D02*
X96079D01*
X97772Y662866D01*
Y657787D01*
X92694D01*
X91001Y659480D01*
X92694Y661173D01*
X97772D01*
X101158Y657787D02*
X106236D01*
X107929Y659480D01*
X106236Y661173D01*
X102850D01*
X101158Y662866D01*
X102850Y664558D01*
X107929D01*
X128242Y667944D02*
X124857D01*
X126549D01*
Y659480D01*
X124857Y657787D01*
X123164D01*
X121471Y659480D01*
X131628Y664558D02*
Y659480D01*
X133321Y657787D01*
X138399D01*
Y664558D01*
X141784Y657787D02*
Y664558D01*
X146863D01*
X148556Y662866D01*
Y657787D01*
X157020D02*
X153634D01*
X151941Y659480D01*
Y662866D01*
X153634Y664558D01*
X157020D01*
X158712Y662866D01*
Y661173D01*
X151941D01*
X162098Y664558D02*
X165483Y657787D01*
X168869Y664558D01*
X172255Y657787D02*
X175640D01*
X173947D01*
Y664558D01*
X172255D01*
X187490D02*
X182411D01*
X180719Y662866D01*
Y659480D01*
X182411Y657787D01*
X187490D01*
X190875D02*
X194261D01*
X192568D01*
Y664558D01*
X190875D01*
X199339D02*
Y659480D01*
X201032Y657787D01*
X206110D01*
Y664558D01*
X209496Y657787D02*
X214574D01*
X216267Y659480D01*
X214574Y661173D01*
X211189D01*
X209496Y662866D01*
X211189Y664558D01*
X216267D01*
X48681Y652098D02*
X41910D01*
Y641942D01*
X48681D01*
X41910Y647020D02*
X45296D01*
X58838Y652098D02*
X52067D01*
Y641942D01*
X58838D01*
X52067Y647020D02*
X55452D01*
X62223Y652098D02*
X65609D01*
X63916D01*
Y641942D01*
X62223D01*
X65609D01*
X70687Y647020D02*
X77459D01*
X80844Y650406D02*
X82537Y652098D01*
X85922D01*
X87615Y650406D01*
Y643634D01*
X85922Y641942D01*
X82537D01*
X80844Y643634D01*
Y650406D01*
X91001Y641942D02*
X97772Y648713D01*
X101158Y650406D02*
X102850Y652098D01*
X106236D01*
X107929Y650406D01*
Y648713D01*
X106236Y647020D01*
X104543D01*
X106236D01*
X107929Y645327D01*
Y643634D01*
X106236Y641942D01*
X102850D01*
X101158Y643634D01*
X113007Y640249D02*
X114700Y641942D01*
Y643634D01*
X113007D01*
Y641942D01*
X114700D01*
X113007Y640249D01*
X111314Y638556D01*
X138399Y641942D02*
X131628D01*
X138399Y648713D01*
Y650406D01*
X136706Y652098D01*
X133321D01*
X131628Y650406D01*
X141784D02*
X143477Y652098D01*
X146863D01*
X148556Y650406D01*
Y643634D01*
X146863Y641942D01*
X143477D01*
X141784Y643634D01*
Y650406D01*
X158712Y641942D02*
X151941D01*
X158712Y648713D01*
Y650406D01*
X157020Y652098D01*
X153634D01*
X151941Y650406D01*
X162098D02*
X163791Y652098D01*
X167176D01*
X168869Y650406D01*
Y648713D01*
X167176Y647020D01*
X165483D01*
X167176D01*
X168869Y645327D01*
Y643634D01*
X167176Y641942D01*
X163791D01*
X162098Y643634D01*
X21503Y605536D02*
X14732D01*
X21503Y612307D01*
Y614000D01*
X19810Y615693D01*
X16425D01*
X14732Y614000D01*
X18288Y578612D02*
X21674D01*
X19981D01*
Y588769D01*
X18288Y587076D01*
X285496Y658027D02*
Y651256D01*
X278725Y658027D01*
X277032D01*
X275339Y656334D01*
Y652949D01*
X277032Y651256D01*
Y661413D02*
X275339Y663105D01*
Y666491D01*
X277032Y668184D01*
X283803D01*
X285496Y666491D01*
Y663105D01*
X283803Y661413D01*
X277032D01*
X285496Y628142D02*
Y631528D01*
Y629835D01*
X275339D01*
X277032Y628142D01*
X283803Y636606D02*
X285496Y638299D01*
Y641684D01*
X283803Y643377D01*
X277032D01*
X275339Y641684D01*
Y638299D01*
X277032Y636606D01*
X278725D01*
X280418Y638299D01*
Y643377D01*
X365218Y178851D02*
Y172080D01*
X358447Y178851D01*
X356754D01*
X355061Y177158D01*
Y173773D01*
X356754Y172080D01*
X366218Y101080D02*
Y104466D01*
Y102773D01*
X356061D01*
X357754Y101080D01*
X714674Y171704D02*
X712981Y173397D01*
Y176782D01*
X714674Y178475D01*
X716367D01*
X718060Y176782D01*
Y175090D01*
Y176782D01*
X719752Y178475D01*
X721445D01*
X723138Y176782D01*
Y173397D01*
X721445Y171704D01*
X714674Y181861D02*
X712981Y183554D01*
Y186939D01*
X714674Y188632D01*
X721445D01*
X723138Y186939D01*
Y183554D01*
X721445Y181861D01*
X714674D01*
X723218Y97851D02*
Y91080D01*
X716447Y97851D01*
X714754D01*
X713061Y96158D01*
Y92773D01*
X714754Y91080D01*
X721525Y101237D02*
X723218Y102929D01*
Y106315D01*
X721525Y108008D01*
X714754D01*
X713061Y106315D01*
Y102929D01*
X714754Y101237D01*
X716447D01*
X718140Y102929D01*
Y108008D01*
X324866Y90932D02*
Y94318D01*
Y92625D01*
X314709D01*
X316402Y90932D01*
X314709Y106167D02*
Y99396D01*
X319788D01*
X318095Y102781D01*
Y104474D01*
X319788Y106167D01*
X323173D01*
X324866Y104474D01*
Y101089D01*
X323173Y99396D01*
X341376Y146558D02*
Y149944D01*
Y148251D01*
X331219D01*
X332912Y146558D01*
X331219Y161793D02*
X332912Y158407D01*
X336298Y155022D01*
X339683D01*
X341376Y156715D01*
Y160100D01*
X339683Y161793D01*
X337990D01*
X336298Y160100D01*
Y155022D01*
X137218Y103080D02*
Y106466D01*
Y104773D01*
X127061D01*
X128754Y103080D01*
X137160Y176951D02*
Y170180D01*
X130389Y176951D01*
X128696D01*
X127003Y175258D01*
Y171873D01*
X128696Y170180D01*
X314706Y659297D02*
Y652526D01*
X307935Y659297D01*
X306242D01*
X304549Y657604D01*
Y654219D01*
X306242Y652526D01*
X314706Y628904D02*
Y632290D01*
Y630597D01*
X304549D01*
X306242Y628904D01*
X739902Y615693D02*
X746673D01*
Y614000D01*
X739902Y607229D01*
Y605536D01*
X756830D02*
X750059D01*
X756830Y612307D01*
Y614000D01*
X755137Y615693D01*
X751751D01*
X750059Y614000D01*
X739394Y588769D02*
X746165D01*
Y587076D01*
X739394Y580305D01*
Y578612D01*
X749551D02*
X752936D01*
X751244D01*
Y588769D01*
X749551Y587076D01*
X952498Y111503D02*
X949113D01*
X947420Y109810D01*
Y103039D01*
X949113Y101346D01*
X952498D01*
X954191Y103039D01*
Y109810D01*
X952498Y111503D01*
X957577Y101346D02*
Y111503D01*
X964348Y101346D01*
Y111503D01*
X940054Y49784D02*
Y59941D01*
X945132D01*
X946825Y58248D01*
Y54862D01*
X945132Y53170D01*
X940054D01*
X950211Y59941D02*
Y49784D01*
X953596Y53170D01*
X956982Y49784D01*
Y59941D01*
X960367Y49784D02*
Y59941D01*
X965446D01*
X967139Y58248D01*
Y54862D01*
X965446Y53170D01*
X960367D01*
X963753D02*
X967139Y49784D01*
X951738Y443989D02*
Y435525D01*
X953431Y433832D01*
X956816D01*
X958509Y435525D01*
Y443989D01*
X961895Y433832D02*
Y443989D01*
X966973D01*
X968666Y442296D01*
Y438910D01*
X966973Y437218D01*
X961895D01*
X959102Y316227D02*
X955717D01*
X954024Y314534D01*
Y307763D01*
X955717Y306070D01*
X959102D01*
X960795Y307763D01*
Y314534D01*
X959102Y316227D01*
X964181D02*
Y306070D01*
Y309456D01*
X970952Y316227D01*
X965873Y311148D01*
X970952Y306070D01*
X941578Y187703D02*
Y177546D01*
X946656D01*
X948349Y179239D01*
Y186010D01*
X946656Y187703D01*
X941578D01*
X956813D02*
X953428D01*
X951735Y186010D01*
Y179239D01*
X953428Y177546D01*
X956813D01*
X958506Y179239D01*
Y186010D01*
X956813Y187703D01*
X961891D02*
Y177546D01*
X965277Y180932D01*
X968663Y177546D01*
Y187703D01*
X972048Y177546D02*
Y187703D01*
X978819Y177546D01*
Y187703D01*
X184832Y98128D02*
X183140Y99820D01*
X179754D01*
X178061Y98128D01*
Y96435D01*
X179754Y94742D01*
X183140D01*
X184832Y93049D01*
Y91356D01*
X183140Y89664D01*
X179754D01*
X178061Y91356D01*
X188218Y99820D02*
Y89664D01*
X193297D01*
X194989Y91356D01*
Y93049D01*
X193297Y94742D01*
X188218D01*
X193297D01*
X194989Y96435D01*
Y98128D01*
X193297Y99820D01*
X188218D01*
X198375Y89664D02*
X201760D01*
X200068D01*
Y99820D01*
X198375Y98128D01*
X206839D02*
X208532Y99820D01*
X211917D01*
X213610Y98128D01*
Y91356D01*
X211917Y89664D01*
X208532D01*
X206839Y91356D01*
Y98128D01*
X216996D02*
X218688Y99820D01*
X222074D01*
X223767Y98128D01*
Y91356D01*
X222074Y89664D01*
X218688D01*
X216996Y91356D01*
Y98128D01*
X902206Y224372D02*
X892050D01*
Y229450D01*
X893742Y231143D01*
X897128D01*
X898821Y229450D01*
Y224372D01*
Y227758D02*
X902206Y231143D01*
Y234529D02*
Y237914D01*
Y236222D01*
X892050D01*
X893742Y234529D01*
X902206Y242993D02*
Y246378D01*
Y244686D01*
X892050D01*
X893742Y242993D01*
X892050Y258228D02*
Y251457D01*
X897128D01*
X895435Y254842D01*
Y256535D01*
X897128Y258228D01*
X900514D01*
X902206Y256535D01*
Y253150D01*
X900514Y251457D01*
X901444Y349340D02*
X891288D01*
Y354418D01*
X892980Y356111D01*
X896366D01*
X898059Y354418D01*
Y349340D01*
Y352726D02*
X901444Y356111D01*
Y359497D02*
Y362882D01*
Y361190D01*
X891288D01*
X892980Y359497D01*
X901444Y367961D02*
Y371346D01*
Y369654D01*
X891288D01*
X892980Y367961D01*
X901444Y381503D02*
X891288D01*
X896366Y376425D01*
Y383196D01*
X901190Y470752D02*
X891034D01*
Y475830D01*
X892726Y477523D01*
X896112D01*
X897805Y475830D01*
Y470752D01*
Y474138D02*
X901190Y477523D01*
Y480909D02*
Y484294D01*
Y482602D01*
X891034D01*
X892726Y480909D01*
X901190Y489373D02*
Y492758D01*
Y491066D01*
X891034D01*
X892726Y489373D01*
Y497837D02*
X891034Y499529D01*
Y502915D01*
X892726Y504608D01*
X894419D01*
X896112Y502915D01*
Y501222D01*
Y502915D01*
X897805Y504608D01*
X899498D01*
X901190Y502915D01*
Y499529D01*
X899498Y497837D01*
X334612Y634770D02*
X327430Y641952D01*
X331021Y645543D01*
X333415D01*
X335809Y643149D01*
Y640755D01*
X332218Y637164D01*
X334612Y639558D02*
X339399D01*
X341794Y641952D02*
X344187Y644346D01*
X342990Y643149D01*
X335809Y650331D01*
Y647937D01*
X341794Y653922D02*
Y656315D01*
X344187Y658709D01*
X346581D01*
X351369Y653922D01*
Y651527D01*
X348975Y649134D01*
X346581D01*
X341794Y653922D01*
X354960Y655118D02*
X357354Y657512D01*
X356157Y656315D01*
X348975Y663497D01*
Y661103D01*
X418174Y95252D02*
Y105408D01*
X423252D01*
X424945Y103716D01*
Y100330D01*
X423252Y98637D01*
X418174D01*
X421560D02*
X424945Y95252D01*
X428331D02*
X431716D01*
X430024D01*
Y105408D01*
X428331Y103716D01*
X436795Y95252D02*
X440180D01*
X438488D01*
Y105408D01*
X436795Y103716D01*
X452030Y95252D02*
X445259D01*
X452030Y102023D01*
Y103716D01*
X450337Y105408D01*
X446951D01*
X445259Y103716D01*
X620355Y528985D02*
X627537Y521803D01*
X623946Y518212D01*
X621552D01*
X619158Y520606D01*
Y523000D01*
X622749Y526591D01*
X620355Y524197D02*
X615568D01*
X613173Y521803D02*
X610779Y519409D01*
X611977Y520606D01*
X619158Y513424D01*
Y515818D01*
X613173Y509833D02*
Y507440D01*
X610779Y505046D01*
X608386D01*
X603598Y509833D01*
Y512228D01*
X605992Y514621D01*
X608386D01*
X613173Y509833D01*
X595219Y503849D02*
X600007Y508637D01*
Y499061D01*
X601204Y497864D01*
X603598D01*
X605992Y500258D01*
Y502652D01*
X675392Y547118D02*
Y557274D01*
X680470D01*
X682163Y555582D01*
Y552196D01*
X680470Y550503D01*
X675392D01*
X678777D02*
X682163Y547118D01*
X685548D02*
X688934D01*
X687241D01*
Y557274D01*
X685548Y555582D01*
X694012D02*
X695705Y557274D01*
X699091D01*
X700783Y555582D01*
Y548810D01*
X699091Y547118D01*
X695705D01*
X694012Y548810D01*
Y555582D01*
X709248Y547118D02*
Y557274D01*
X704169Y552196D01*
X710940D01*
X445776Y491492D02*
Y501648D01*
X450854D01*
X452547Y499956D01*
Y496570D01*
X450854Y494877D01*
X445776D01*
X449161D02*
X452547Y491492D01*
X455933D02*
X459318D01*
X457625D01*
Y501648D01*
X455933Y499956D01*
X464396D02*
X466089Y501648D01*
X469475D01*
X471167Y499956D01*
Y493184D01*
X469475Y491492D01*
X466089D01*
X464396Y493184D01*
Y499956D01*
X481324Y501648D02*
X474553D01*
Y496570D01*
X477939Y498263D01*
X479632D01*
X481324Y496570D01*
Y493184D01*
X479632Y491492D01*
X476246D01*
X474553Y493184D01*
X441337Y632561D02*
Y642718D01*
X446416D01*
X448108Y641025D01*
Y637639D01*
X446416Y635947D01*
X441337D01*
X444723D02*
X448108Y632561D01*
X451494D02*
X454880D01*
X453187D01*
Y642718D01*
X451494Y641025D01*
X459958D02*
X461651Y642718D01*
X465036D01*
X466729Y641025D01*
Y634254D01*
X465036Y632561D01*
X461651D01*
X459958Y634254D01*
Y641025D01*
X470115Y642718D02*
X476886D01*
Y641025D01*
X470115Y634254D01*
Y632561D01*
X381592Y668440D02*
X383284Y670133D01*
Y673519D01*
X381592Y675211D01*
X374820D01*
X373128Y673519D01*
Y670133D01*
X374820Y668440D01*
X373128Y665055D02*
Y661669D01*
Y663362D01*
X383284D01*
X381592Y665055D01*
Y656591D02*
X383284Y654898D01*
Y651512D01*
X381592Y649820D01*
X374820D01*
X373128Y651512D01*
Y654898D01*
X374820Y656591D01*
X381592D01*
X373128Y646434D02*
Y643048D01*
Y644741D01*
X383284D01*
X381592Y646434D01*
X569384Y492679D02*
X567692Y490986D01*
Y487601D01*
X569384Y485908D01*
X576156D01*
X577848Y487601D01*
Y490986D01*
X576156Y492679D01*
X577848Y496064D02*
Y499450D01*
Y497757D01*
X567692D01*
X569384Y496064D01*
Y504528D02*
X567692Y506221D01*
Y509607D01*
X569384Y511300D01*
X576156D01*
X577848Y509607D01*
Y506221D01*
X576156Y504528D01*
X569384D01*
X577848Y521456D02*
Y514685D01*
X571077Y521456D01*
X569384D01*
X567692Y519763D01*
Y516378D01*
X569384Y514685D01*
X435783Y669628D02*
X434090Y671320D01*
X430704D01*
X429012Y669628D01*
Y662856D01*
X430704Y661164D01*
X434090D01*
X435783Y662856D01*
X439169Y661164D02*
X442554D01*
X440861D01*
Y671320D01*
X439169Y669628D01*
X447632D02*
X449325Y671320D01*
X452711D01*
X454403Y669628D01*
Y662856D01*
X452711Y661164D01*
X449325D01*
X447632Y662856D01*
Y669628D01*
X457789Y671320D02*
X464560D01*
Y669628D01*
X457789Y662856D01*
Y661164D01*
X340617Y91016D02*
X338924Y92708D01*
X335539D01*
X333846Y91016D01*
Y84244D01*
X335539Y82552D01*
X338924D01*
X340617Y84244D01*
X344003Y82552D02*
X347388D01*
X345696D01*
Y92708D01*
X344003Y91016D01*
X352467Y82552D02*
X355852D01*
X354160D01*
Y92708D01*
X352467Y91016D01*
X360931D02*
X362623Y92708D01*
X366009D01*
X367702Y91016D01*
Y84244D01*
X366009Y82552D01*
X362623D01*
X360931Y84244D01*
Y91016D01*
X402763Y500210D02*
X401070Y501902D01*
X397685D01*
X395992Y500210D01*
Y493438D01*
X397685Y491746D01*
X401070D01*
X402763Y493438D01*
X406148Y491746D02*
X409534D01*
X407841D01*
Y501902D01*
X406148Y500210D01*
X414612D02*
X416305Y501902D01*
X419691D01*
X421384Y500210D01*
Y493438D01*
X419691Y491746D01*
X416305D01*
X414612Y493438D01*
Y500210D01*
X431540Y501902D02*
X424769D01*
Y496824D01*
X428155Y498517D01*
X429847D01*
X431540Y496824D01*
Y493438D01*
X429847Y491746D01*
X426462D01*
X424769Y493438D01*
X680385Y521546D02*
X678692Y523238D01*
X675306D01*
X673614Y521546D01*
Y514774D01*
X675306Y513082D01*
X678692D01*
X680385Y514774D01*
X683771Y513082D02*
X687156D01*
X685463D01*
Y523238D01*
X683771Y521546D01*
X692234D02*
X693927Y523238D01*
X697313D01*
X699006Y521546D01*
Y514774D01*
X697313Y513082D01*
X693927D01*
X692234Y514774D01*
Y521546D01*
X707469Y513082D02*
Y523238D01*
X702391Y518160D01*
X709162D01*
X915840Y454580D02*
X914148Y452888D01*
Y449502D01*
X915840Y447809D01*
X917533D01*
X919226Y449502D01*
Y452888D01*
X920919Y454580D01*
X922612D01*
X924304Y452888D01*
Y449502D01*
X922612Y447809D01*
X914148Y457966D02*
X924304D01*
X920919Y461352D01*
X924304Y464737D01*
X914148D01*
X924304Y468123D02*
Y471508D01*
Y469816D01*
X914148D01*
X915840Y468123D01*
Y476587D02*
X914148Y478280D01*
Y481665D01*
X915840Y483358D01*
X922612D01*
X924304Y481665D01*
Y478280D01*
X922612Y476587D01*
X915840D01*
Y486744D02*
X914148Y488436D01*
Y491822D01*
X915840Y493515D01*
X922612D01*
X924304Y491822D01*
Y488436D01*
X922612Y486744D01*
X915840D01*
X841084Y56390D02*
Y66546D01*
X846162D01*
X847855Y64854D01*
Y61468D01*
X846162Y59775D01*
X841084D01*
X844470D02*
X847855Y56390D01*
X851241D02*
X854626D01*
X852934D01*
Y66546D01*
X851241Y64854D01*
X859705Y56390D02*
X863090D01*
X861398D01*
Y66546D01*
X859705Y64854D01*
X868169D02*
X869862Y66546D01*
X873247D01*
X874940Y64854D01*
Y58082D01*
X873247Y56390D01*
X869862D01*
X868169Y58082D01*
Y64854D01*
X909068Y15500D02*
X919224D01*
Y20578D01*
X917532Y22271D01*
X910760D01*
X909068Y20578D01*
Y15500D01*
X919224Y25656D02*
Y29042D01*
Y27349D01*
X909068D01*
X910760Y25656D01*
Y34120D02*
X909068Y35813D01*
Y39199D01*
X910760Y40892D01*
X917532D01*
X919224Y39199D01*
Y35813D01*
X917532Y34120D01*
X910760D01*
Y44277D02*
X909068Y45970D01*
Y49356D01*
X910760Y51048D01*
X917532D01*
X919224Y49356D01*
Y45970D01*
X917532Y44277D01*
X910760D01*
X885026Y285498D02*
Y295654D01*
X890105D01*
X891797Y293962D01*
Y290576D01*
X890105Y288883D01*
X885026D01*
X888412D02*
X891797Y285498D01*
X895183D02*
X898568D01*
X896876D01*
Y295654D01*
X895183Y293962D01*
X903647Y285498D02*
X907032D01*
X905340D01*
Y295654D01*
X903647Y293962D01*
X912111Y287190D02*
X913803Y285498D01*
X917189D01*
X918882Y287190D01*
Y293962D01*
X917189Y295654D01*
X913803D01*
X912111Y293962D01*
Y292269D01*
X913803Y290576D01*
X918882D01*
X886042Y536704D02*
Y546860D01*
X891121D01*
X892813Y545168D01*
Y541782D01*
X891121Y540089D01*
X886042D01*
X889428D02*
X892813Y536704D01*
X896199D02*
X899584D01*
X897892D01*
Y546860D01*
X896199Y545168D01*
X904663Y536704D02*
X908048D01*
X906356D01*
Y546860D01*
X904663Y545168D01*
X913127Y546860D02*
X919898D01*
Y545168D01*
X913127Y538396D01*
Y536704D01*
X885280Y408942D02*
Y419098D01*
X890359D01*
X892051Y417406D01*
Y414020D01*
X890359Y412327D01*
X885280D01*
X888666D02*
X892051Y408942D01*
X895437D02*
X898822D01*
X897130D01*
Y419098D01*
X895437Y417406D01*
X903901Y408942D02*
X907286D01*
X905594D01*
Y419098D01*
X903901Y417406D01*
X912365D02*
X914057Y419098D01*
X917443D01*
X919136Y417406D01*
Y415713D01*
X917443Y414020D01*
X919136Y412327D01*
Y410634D01*
X917443Y408942D01*
X914057D01*
X912365Y410634D01*
Y412327D01*
X914057Y414020D01*
X912365Y415713D01*
Y417406D01*
X914057Y414020D02*
X917443D01*
X861738Y374653D02*
X860046Y372961D01*
Y369575D01*
X861738Y367882D01*
X868510D01*
X870202Y369575D01*
Y372961D01*
X868510Y374653D01*
X870202Y378039D02*
Y381424D01*
Y379732D01*
X860046D01*
X861738Y378039D01*
X870202Y386503D02*
Y389888D01*
Y388196D01*
X860046D01*
X861738Y386503D01*
X870202Y400045D02*
X860046D01*
X865124Y394967D01*
Y401738D01*
X863008Y248923D02*
X861316Y247230D01*
Y243845D01*
X863008Y242152D01*
X869780D01*
X871472Y243845D01*
Y247230D01*
X869780Y248923D01*
X871472Y252309D02*
Y255694D01*
Y254002D01*
X861316D01*
X863008Y252309D01*
X871472Y260773D02*
Y264158D01*
Y262466D01*
X861316D01*
X863008Y260773D01*
X871472Y276008D02*
Y269237D01*
X864701Y276008D01*
X863008D01*
X861316Y274315D01*
Y270930D01*
X863008Y269237D01*
X863262Y499113D02*
X861570Y497421D01*
Y494035D01*
X863262Y492342D01*
X870034D01*
X871726Y494035D01*
Y497421D01*
X870034Y499113D01*
X871726Y502499D02*
Y505884D01*
Y504192D01*
X861570D01*
X863262Y502499D01*
X871726Y510963D02*
Y514348D01*
Y512656D01*
X861570D01*
X863262Y510963D01*
Y519427D02*
X861570Y521119D01*
Y524505D01*
X863262Y526198D01*
X864955D01*
X866648Y524505D01*
Y522812D01*
Y524505D01*
X868341Y526198D01*
X870034D01*
X871726Y524505D01*
Y521119D01*
X870034Y519427D01*
X873257Y145544D02*
Y155700D01*
X878335D01*
X880028Y154008D01*
Y150622D01*
X878335Y148929D01*
X873257D01*
X876643D02*
X880028Y145544D01*
X883414D02*
X886799D01*
X885106D01*
Y155700D01*
X883414Y154008D01*
X891878Y145544D02*
X895263D01*
X893570D01*
Y155700D01*
X891878Y154008D01*
X900341Y145544D02*
X903727D01*
X902034D01*
Y155700D01*
X900341Y154008D01*
X907544Y98218D02*
X917700D01*
Y103297D01*
X916008Y104990D01*
X909236D01*
X907544Y103297D01*
Y98218D01*
X917700Y108375D02*
Y111761D01*
Y110068D01*
X907544D01*
X909236Y108375D01*
Y116839D02*
X907544Y118532D01*
Y121917D01*
X909236Y123610D01*
X916008D01*
X917700Y121917D01*
Y118532D01*
X916008Y116839D01*
X909236D01*
X917700Y126996D02*
Y130381D01*
Y128689D01*
X907544D01*
X909236Y126996D01*
X914824Y197024D02*
X913132Y195332D01*
Y191946D01*
X914824Y190253D01*
X916517D01*
X918210Y191946D01*
Y195332D01*
X919903Y197024D01*
X921596D01*
X923288Y195332D01*
Y191946D01*
X921596Y190253D01*
X913132Y200410D02*
X923288D01*
X919903Y203796D01*
X923288Y207181D01*
X913132D01*
X923288Y210567D02*
Y213952D01*
Y212260D01*
X913132D01*
X914824Y210567D01*
Y219031D02*
X913132Y220724D01*
Y224109D01*
X914824Y225802D01*
X921596D01*
X923288Y224109D01*
Y220724D01*
X921596Y219031D01*
X914824D01*
X923288Y235959D02*
Y229188D01*
X916517Y235959D01*
X914824D01*
X913132Y234266D01*
Y230880D01*
X914824Y229188D01*
X915332Y330797D02*
X913640Y329104D01*
Y325719D01*
X915332Y324026D01*
X917025D01*
X918718Y325719D01*
Y329104D01*
X920411Y330797D01*
X922104D01*
X923796Y329104D01*
Y325719D01*
X922104Y324026D01*
X913640Y334183D02*
X923796D01*
X920411Y337569D01*
X923796Y340954D01*
X913640D01*
X923796Y344340D02*
Y347725D01*
Y346032D01*
X913640D01*
X915332Y344340D01*
Y352804D02*
X913640Y354496D01*
Y357882D01*
X915332Y359575D01*
X922104D01*
X923796Y357882D01*
Y354496D01*
X922104Y352804D01*
X915332D01*
X923796Y362960D02*
Y366346D01*
Y364653D01*
X913640D01*
X915332Y362960D01*
X-508001Y251D02*
X-499537D01*
X-497844Y1944D01*
Y5329D01*
X-499537Y7022D01*
X-508001D01*
X-497844Y10408D02*
Y13793D01*
Y12101D01*
X-508001D01*
X-506308Y10408D01*
Y18872D02*
X-508001Y20565D01*
Y23950D01*
X-506308Y25643D01*
X-499537D01*
X-497844Y23950D01*
Y20565D01*
X-499537Y18872D01*
X-506308D01*
Y29028D02*
X-508001Y30721D01*
Y34107D01*
X-506308Y35800D01*
X-499537D01*
X-497844Y34107D01*
Y30721D01*
X-499537Y29028D01*
X-506308D01*
M02*
