G04*
G04 #@! TF.GenerationSoftware,Altium Limited,Altium Designer,23.10.1 (27)*
G04*
G04 Layer_Physical_Order=1*
G04 Layer_Color=255*
%FSLAX44Y44*%
%MOMM*%
G71*
G04*
G04 #@! TF.SameCoordinates,B3357872-ED19-4D1E-BA32-374E5828575D*
G04*
G04*
G04 #@! TF.FilePolarity,Positive*
G04*
G01*
G75*
%ADD17R,1.5000X1.5000*%
%ADD22C,0.3000*%
%ADD23R,0.7000X0.6000*%
G04:AMPARAMS|DCode=24|XSize=0.7mm|YSize=0.6mm|CornerRadius=0mm|HoleSize=0mm|Usage=FLASHONLY|Rotation=45.000|XOffset=0mm|YOffset=0mm|HoleType=Round|Shape=Rectangle|*
%AMROTATEDRECTD24*
4,1,4,-0.0354,-0.4596,-0.4596,-0.0354,0.0354,0.4596,0.4596,0.0354,-0.0354,-0.4596,0.0*
%
%ADD24ROTATEDRECTD24*%

%AMCUSTOMSHAPE25*
4,1,5,1.0000,-0.0508,-1.0012,-0.0508,-1.0160,1.6256,0.0000,0.6858,1.0000,1.6256,1.0000,-0.0508,0.0*%
%ADD25CUSTOMSHAPE25*%

%AMCUSTOMSHAPE26*
4,1,5,-1.0254,0.0000,0.9746,0.0000,0.9746,-0.7374,-0.0254,-1.6374,-1.0254,-0.7374,-1.0254,0.0000,0.0*%
%ADD26CUSTOMSHAPE26*%

G04:AMPARAMS|DCode=27|XSize=0.7mm|YSize=0.6mm|CornerRadius=0mm|HoleSize=0mm|Usage=FLASHONLY|Rotation=135.000|XOffset=0mm|YOffset=0mm|HoleType=Round|Shape=Rectangle|*
%AMROTATEDRECTD27*
4,1,4,0.4596,-0.0354,0.0354,-0.4596,-0.4596,0.0354,-0.0354,0.4596,0.4596,-0.0354,0.0*
%
%ADD27ROTATEDRECTD27*%

%ADD28R,0.6000X0.7000*%
%ADD29C,1.0000*%
%ADD30C,0.2540*%
%ADD31C,0.7500*%
%ADD32C,1.5000*%
%ADD33C,0.5080*%
G04:AMPARAMS|DCode=34|XSize=1.65mm|YSize=1.65mm|CornerRadius=0.4125mm|HoleSize=0mm|Usage=FLASHONLY|Rotation=180.000|XOffset=0mm|YOffset=0mm|HoleType=Round|Shape=RoundedRectangle|*
%AMROUNDEDRECTD34*
21,1,1.6500,0.8250,0,0,180.0*
21,1,0.8250,1.6500,0,0,180.0*
1,1,0.8250,-0.4125,0.4125*
1,1,0.8250,0.4125,0.4125*
1,1,0.8250,0.4125,-0.4125*
1,1,0.8250,-0.4125,-0.4125*
%
%ADD34ROUNDEDRECTD34*%
%ADD35C,1.6500*%
%ADD36R,1.5000X1.5000*%
%ADD37C,1.5000*%
%ADD38C,0.6350*%
%ADD39C,0.8040*%
%ADD40C,1.3000*%
G36*
X997153Y2197D02*
X2197D01*
Y714083D01*
X997153D01*
Y2197D01*
D02*
G37*
%LPC*%
G36*
X523690Y708737D02*
X521847Y708494D01*
X520130Y707783D01*
X518655Y706652D01*
X517523Y705177D01*
X516832Y703508D01*
X516812Y703459D01*
X516619Y701993D01*
X514601D01*
X514408Y703459D01*
X514388Y703508D01*
X513697Y705177D01*
X512565Y706652D01*
X511090Y707783D01*
X509373Y708494D01*
X507530Y708737D01*
X505687Y708494D01*
X503969Y707783D01*
X502495Y706652D01*
X501363Y705177D01*
X500672Y703508D01*
X500652Y703459D01*
X500459Y701993D01*
X498441D01*
X498248Y703459D01*
X498228Y703508D01*
X497537Y705177D01*
X496405Y706652D01*
X494930Y707783D01*
X493213Y708494D01*
X491370Y708737D01*
X489527Y708494D01*
X487809Y707783D01*
X486335Y706652D01*
X485203Y705177D01*
X484512Y703508D01*
X484492Y703459D01*
X484299Y701993D01*
X482281D01*
X482088Y703459D01*
X482068Y703508D01*
X481377Y705177D01*
X480245Y706652D01*
X478770Y707783D01*
X477053Y708494D01*
X475210Y708737D01*
X473367Y708494D01*
X471650Y707783D01*
X470175Y706652D01*
X469043Y705177D01*
X468352Y703508D01*
X468332Y703459D01*
X468139Y701993D01*
X466121D01*
X465928Y703459D01*
X465908Y703508D01*
X465217Y705177D01*
X464085Y706652D01*
X462611Y707783D01*
X460893Y708494D01*
X459050Y708737D01*
X457207Y708494D01*
X455490Y707783D01*
X454015Y706652D01*
X452883Y705177D01*
X452192Y703508D01*
X452172Y703459D01*
X451979Y701993D01*
X449961D01*
X449768Y703459D01*
X449748Y703508D01*
X449057Y705177D01*
X447925Y706652D01*
X446451Y707783D01*
X444733Y708494D01*
X442890Y708737D01*
X441047Y708494D01*
X439330Y707783D01*
X437855Y706652D01*
X436723Y705177D01*
X436032Y703508D01*
X436012Y703459D01*
X435769Y701616D01*
X435771D01*
Y637886D01*
X435173Y636899D01*
X434186Y636301D01*
X431546D01*
X430368Y636067D01*
X430262Y635996D01*
X427842Y638416D01*
X420743Y631317D01*
X422962Y629097D01*
X422859Y628943D01*
X422625Y627764D01*
Y615573D01*
X420625Y614894D01*
X419586Y616248D01*
X417545Y617814D01*
X415168Y618798D01*
X412618Y619134D01*
X410067Y618798D01*
X407691Y617814D01*
X405650Y616248D01*
X404084Y614207D01*
X403099Y611830D01*
X402764Y609280D01*
X403099Y606729D01*
X404084Y604353D01*
X405650Y602312D01*
X407691Y600746D01*
X410067Y599761D01*
X412618Y599426D01*
X415168Y599761D01*
X417545Y600746D01*
X419586Y602312D01*
X420625Y603666D01*
X422625Y602987D01*
Y590173D01*
X420625Y589494D01*
X419586Y590848D01*
X417545Y592414D01*
X415168Y593399D01*
X412618Y593734D01*
X410067Y593399D01*
X407691Y592414D01*
X405650Y590848D01*
X404084Y588807D01*
X403099Y586430D01*
X402764Y583880D01*
X403099Y581329D01*
X403865Y579481D01*
X393883Y569499D01*
X362966D01*
X361788Y569265D01*
X360789Y568597D01*
X357336Y565145D01*
X356669Y564146D01*
X356434Y562967D01*
Y559345D01*
X354434Y558666D01*
X353668Y559665D01*
X352329Y560692D01*
Y602312D01*
X354329Y602990D01*
X354850Y602312D01*
X356891Y600746D01*
X359267Y599761D01*
X361818Y599426D01*
X364368Y599761D01*
X366745Y600746D01*
X368786Y602312D01*
X370352Y604353D01*
X371336Y606729D01*
X371672Y609280D01*
X371336Y611830D01*
X370352Y614207D01*
X368786Y616248D01*
X366745Y617814D01*
X364368Y618798D01*
X361818Y619134D01*
X359267Y618798D01*
X356891Y617814D01*
X354850Y616248D01*
X354329Y615569D01*
X352329Y616248D01*
Y620430D01*
X352446Y621016D01*
Y627829D01*
X355759Y631142D01*
X348660Y638241D01*
X344687Y634269D01*
X333862D01*
Y634305D01*
X333561Y634429D01*
X333436Y634730D01*
X333401D01*
Y692755D01*
X333393Y692793D01*
X333173Y694468D01*
X332512Y696063D01*
X331460Y697434D01*
X330090Y698485D01*
X328494Y699146D01*
X326782Y699372D01*
X325069Y699146D01*
X323473Y698485D01*
X322103Y697434D01*
X321051Y696063D01*
X320784Y695418D01*
X318619D01*
X318352Y696063D01*
X317300Y697434D01*
X315930Y698485D01*
X314334Y699146D01*
X312622Y699372D01*
X310909Y699146D01*
X309313Y698485D01*
X307943Y697434D01*
X306891Y696063D01*
X306624Y695418D01*
X304459D01*
X304192Y696063D01*
X303140Y697434D01*
X301770Y698485D01*
X300174Y699146D01*
X298462Y699372D01*
X296749Y699146D01*
X295153Y698485D01*
X293783Y697434D01*
X292731Y696063D01*
X292464Y695418D01*
X290299D01*
X290032Y696063D01*
X288980Y697434D01*
X287610Y698485D01*
X286014Y699146D01*
X284302Y699372D01*
X282589Y699146D01*
X280993Y698485D01*
X279623Y697434D01*
X278571Y696063D01*
X278304Y695418D01*
X276139D01*
X275872Y696063D01*
X274820Y697434D01*
X273450Y698485D01*
X271854Y699146D01*
X270142Y699372D01*
X268429Y699146D01*
X266833Y698485D01*
X265463Y697434D01*
X264411Y696063D01*
X264144Y695418D01*
X261979D01*
X261712Y696063D01*
X260660Y697434D01*
X259290Y698485D01*
X257694Y699146D01*
X255982Y699372D01*
X254269Y699146D01*
X252673Y698485D01*
X251303Y697434D01*
X250251Y696063D01*
X249984Y695418D01*
X247819D01*
X247552Y696063D01*
X246500Y697434D01*
X245130Y698485D01*
X243534Y699146D01*
X241822Y699372D01*
X240109Y699146D01*
X238513Y698485D01*
X237143Y697434D01*
X236091Y696063D01*
X235824Y695418D01*
X233659D01*
X233392Y696063D01*
X232340Y697434D01*
X230970Y698485D01*
X229374Y699146D01*
X227662Y699372D01*
X225949Y699146D01*
X224353Y698485D01*
X222983Y697434D01*
X221931Y696063D01*
X221270Y694468D01*
X221050Y692793D01*
X221042Y692755D01*
Y634730D01*
X221007D01*
X220882Y634429D01*
X220582Y634305D01*
Y634269D01*
X218090D01*
X216912Y634035D01*
X215913Y633367D01*
X214155Y631610D01*
X213488Y630611D01*
X213253Y629433D01*
Y626947D01*
X213488Y625769D01*
X214155Y624770D01*
X216517Y622409D01*
X217516Y621741D01*
X218694Y621507D01*
X228396D01*
X236225Y613678D01*
X235459Y611830D01*
X235124Y609280D01*
X235459Y606729D01*
X236444Y604353D01*
X238010Y602312D01*
X240051Y600746D01*
X242427Y599761D01*
X244978Y599426D01*
X247528Y599761D01*
X249905Y600746D01*
X251946Y602312D01*
X253512Y604353D01*
X254496Y606729D01*
X254832Y609280D01*
X254496Y611830D01*
X253512Y614207D01*
X251946Y616248D01*
X249905Y617814D01*
X247528Y618798D01*
X244978Y619134D01*
X242427Y618798D01*
X240579Y618033D01*
X233103Y625509D01*
X234037Y627404D01*
X234742Y627311D01*
X236454Y627537D01*
X238050Y628198D01*
X239420Y629249D01*
X240316Y630416D01*
X241107Y630418D01*
X242386Y630014D01*
X242510Y629067D01*
X243171Y627471D01*
X244223Y626101D01*
X245593Y625049D01*
X247189Y624388D01*
X248902Y624163D01*
X250614Y624388D01*
X252210Y625049D01*
X253580Y626101D01*
X254632Y627471D01*
X254899Y628117D01*
X257064D01*
X257331Y627471D01*
X258383Y626101D01*
X259753Y625049D01*
X261349Y624388D01*
X263062Y624163D01*
X264774Y624388D01*
X266370Y625049D01*
X267740Y626101D01*
X268792Y627471D01*
X269059Y628117D01*
X271224D01*
X271491Y627471D01*
X272543Y626101D01*
X273913Y625049D01*
X275509Y624388D01*
X277222Y624163D01*
X278934Y624388D01*
X280530Y625049D01*
X281900Y626101D01*
X282952Y627471D01*
X283219Y628117D01*
X285384D01*
X285651Y627471D01*
X286703Y626101D01*
X288073Y625049D01*
X289669Y624388D01*
X291382Y624163D01*
X293094Y624388D01*
X294690Y625049D01*
X296060Y626101D01*
X297112Y627471D01*
X297379Y628117D01*
X299544D01*
X299811Y627471D01*
X300863Y626101D01*
X302233Y625049D01*
X303829Y624388D01*
X305542Y624163D01*
X307254Y624388D01*
X308850Y625049D01*
X310220Y626101D01*
X311272Y627471D01*
X311539Y628117D01*
X313704D01*
X313971Y627471D01*
X315023Y626101D01*
X316393Y625049D01*
X317989Y624388D01*
X319702Y624163D01*
X321414Y624388D01*
X323010Y625049D01*
X324380Y626101D01*
X325432Y627471D01*
X326093Y629067D01*
X326313Y630742D01*
X326498Y630843D01*
X327228Y631101D01*
X328321Y631175D01*
X329183Y630051D01*
X330553Y629000D01*
X332149Y628339D01*
X333824Y628118D01*
X333862Y628111D01*
X346006D01*
X346287Y627829D01*
Y621486D01*
X346171Y620899D01*
Y615904D01*
X344171Y615225D01*
X343386Y616248D01*
X341345Y617814D01*
X338968Y618798D01*
X336418Y619134D01*
X333867Y618798D01*
X331491Y617814D01*
X329450Y616248D01*
X327884Y614207D01*
X326899Y611830D01*
X326564Y609280D01*
X326899Y606729D01*
X327884Y604353D01*
X329450Y602312D01*
X331491Y600746D01*
X333867Y599761D01*
X336418Y599426D01*
X338968Y599761D01*
X341345Y600746D01*
X343386Y602312D01*
X344171Y603335D01*
X346171Y602656D01*
Y562482D01*
X344150Y562215D01*
X341773Y561231D01*
X339732Y559665D01*
X338166Y557624D01*
X337182Y555247D01*
X336846Y552697D01*
X337182Y550146D01*
X338166Y547770D01*
X339732Y545729D01*
X341773Y544163D01*
X343231Y543559D01*
X342833Y541559D01*
X336792D01*
X330053Y548298D01*
X330818Y550146D01*
X331154Y552697D01*
X330818Y555247D01*
X329834Y557624D01*
X328268Y559665D01*
X326227Y561231D01*
X323851Y562215D01*
X321300Y562551D01*
X318750Y562215D01*
X316373Y561231D01*
X314332Y559665D01*
X312766Y557624D01*
X311782Y555247D01*
X311446Y552697D01*
X311782Y550146D01*
X312766Y547770D01*
X314332Y545729D01*
X316373Y544163D01*
X318750Y543178D01*
X321300Y542843D01*
X323851Y543178D01*
X325699Y543944D01*
X333340Y536303D01*
X334339Y535635D01*
X335517Y535401D01*
X352573D01*
X353751Y535635D01*
X354750Y536303D01*
X361691Y543243D01*
X362016Y543730D01*
X363207Y544217D01*
X364385Y544181D01*
X365772Y543255D01*
X367975Y542816D01*
X376225D01*
X378428Y543255D01*
X380295Y544502D01*
X381543Y546369D01*
X381981Y548572D01*
Y556822D01*
X381543Y559025D01*
X380295Y560892D01*
X379623Y561341D01*
X380229Y563341D01*
X395158D01*
X396336Y563575D01*
X397335Y564243D01*
X408219Y575127D01*
X410067Y574361D01*
X412618Y574026D01*
X415168Y574361D01*
X417545Y575346D01*
X419586Y576912D01*
X420625Y578266D01*
X422625Y577587D01*
Y566277D01*
X417799Y561450D01*
X415951Y562215D01*
X413400Y562551D01*
X410849Y562215D01*
X408473Y561231D01*
X406432Y559665D01*
X404866Y557624D01*
X403881Y555247D01*
X403546Y552697D01*
X403881Y550146D01*
X404866Y547770D01*
X406432Y545729D01*
X408473Y544163D01*
X410849Y543178D01*
X413400Y542843D01*
X415951Y543178D01*
X418327Y544163D01*
X420368Y545729D01*
X421934Y547770D01*
X422919Y550146D01*
X423254Y552697D01*
X422919Y555247D01*
X422153Y557095D01*
X427881Y562824D01*
X428549Y563823D01*
X428783Y565001D01*
Y576581D01*
X430783Y577259D01*
X431050Y576912D01*
X433091Y575346D01*
X435467Y574361D01*
X438018Y574026D01*
X440568Y574361D01*
X442945Y575346D01*
X444986Y576912D01*
X446552Y578953D01*
X447536Y581329D01*
X447872Y583880D01*
X447536Y586430D01*
X446552Y588807D01*
X444986Y590848D01*
X442945Y592414D01*
X440568Y593399D01*
X438018Y593734D01*
X435467Y593399D01*
X433091Y592414D01*
X431050Y590848D01*
X430783Y590500D01*
X428783Y591179D01*
Y601981D01*
X430783Y602659D01*
X431050Y602312D01*
X433091Y600746D01*
X435467Y599761D01*
X438018Y599426D01*
X440568Y599761D01*
X442945Y600746D01*
X444986Y602312D01*
X446552Y604353D01*
X447536Y606729D01*
X447872Y609280D01*
X447536Y611830D01*
X446552Y614207D01*
X444986Y616248D01*
X442945Y617814D01*
X440568Y618798D01*
X438018Y619134D01*
X435467Y618798D01*
X433091Y617814D01*
X431050Y616248D01*
X430783Y615900D01*
X428783Y616579D01*
Y626489D01*
X429666Y627372D01*
X429782Y627545D01*
X429920Y627573D01*
X430919Y628240D01*
X432813Y630134D01*
X434810Y630141D01*
X436653Y630384D01*
X436702Y630404D01*
X438371Y631095D01*
X439845Y632227D01*
X440977Y633702D01*
X441668Y635370D01*
X441688Y635419D01*
X441875Y636835D01*
X443822Y636896D01*
X443849Y636897D01*
X444092Y635054D01*
X444112Y635005D01*
X444803Y633337D01*
X445935Y631862D01*
X447410Y630730D01*
X449127Y630019D01*
X450970Y629776D01*
X452813Y630019D01*
X454530Y630730D01*
X456005Y631862D01*
X457137Y633337D01*
X457828Y635005D01*
X457848Y635054D01*
X458041Y636521D01*
X460059D01*
X460252Y635054D01*
X460272Y635005D01*
X460963Y633337D01*
X462095Y631862D01*
X463570Y630730D01*
X465287Y630019D01*
X467130Y629776D01*
X468973Y630019D01*
X470690Y630730D01*
X472165Y631862D01*
X473297Y633337D01*
X473988Y635005D01*
X474008Y635054D01*
X474201Y636521D01*
X476219D01*
X476412Y635054D01*
X476432Y635005D01*
X477123Y633337D01*
X478255Y631862D01*
X479729Y630730D01*
X481447Y630019D01*
X483290Y629776D01*
X485133Y630019D01*
X486850Y630730D01*
X488325Y631862D01*
X489457Y633337D01*
X490148Y635005D01*
X490168Y635054D01*
X490361Y636521D01*
X492379D01*
X492572Y635054D01*
X492592Y635005D01*
X493283Y633337D01*
X494415Y631862D01*
X495890Y630730D01*
X497607Y630019D01*
X499450Y629776D01*
X501293Y630019D01*
X503010Y630730D01*
X504485Y631862D01*
X505617Y633337D01*
X506308Y635005D01*
X506328Y635054D01*
X506521Y636521D01*
X508539D01*
X508732Y635054D01*
X508752Y635005D01*
X509443Y633337D01*
X510575Y631862D01*
X512049Y630730D01*
X513767Y630019D01*
X515610Y629776D01*
X517453Y630019D01*
X519170Y630730D01*
X520645Y631862D01*
X521777Y633337D01*
X522468Y635005D01*
X522488Y635054D01*
X522681Y636521D01*
X524699D01*
X524892Y635054D01*
X524912Y635005D01*
X525603Y633337D01*
X526735Y631862D01*
X528209Y630730D01*
X529927Y630019D01*
X531770Y629776D01*
X533613Y630019D01*
X535330Y630730D01*
X536805Y631862D01*
X537937Y633337D01*
X538628Y635005D01*
X538648Y635054D01*
X538891Y636897D01*
X538918Y636896D01*
X540865Y636835D01*
X541052Y635419D01*
X541072Y635370D01*
X541763Y633702D01*
X542895Y632227D01*
X544370Y631095D01*
X546038Y630404D01*
X546087Y630384D01*
X547930Y630141D01*
Y630143D01*
X574797D01*
X585116Y619824D01*
X585210Y619316D01*
X584869Y617337D01*
X583450Y616248D01*
X581884Y614207D01*
X580899Y611830D01*
X580564Y609280D01*
X580899Y606729D01*
X581884Y604353D01*
X583450Y602312D01*
X584206Y601732D01*
X583527Y599732D01*
X553520D01*
X548371Y604881D01*
X549136Y606729D01*
X549472Y609280D01*
X549136Y611830D01*
X548152Y614207D01*
X546586Y616248D01*
X544545Y617814D01*
X542168Y618798D01*
X539618Y619134D01*
X537067Y618798D01*
X534691Y617814D01*
X532650Y616248D01*
X531084Y614207D01*
X530099Y611830D01*
X529764Y609280D01*
X530099Y606729D01*
X531084Y604353D01*
X532650Y602312D01*
X534691Y600746D01*
X537067Y599761D01*
X539618Y599426D01*
X542168Y599761D01*
X544016Y600527D01*
X550068Y594476D01*
X551067Y593808D01*
X552245Y593574D01*
X558317D01*
X558996Y591574D01*
X558050Y590848D01*
X556484Y588807D01*
X555499Y586430D01*
X555164Y583880D01*
X555499Y581329D01*
X556484Y578953D01*
X558050Y576912D01*
X560091Y575346D01*
X562467Y574361D01*
X565018Y574026D01*
X567568Y574361D01*
X569945Y575346D01*
X571986Y576912D01*
X573552Y578953D01*
X574536Y581329D01*
X574872Y583880D01*
X574536Y586430D01*
X573552Y588807D01*
X571986Y590848D01*
X571040Y591574D01*
X571719Y593574D01*
X583717D01*
X584396Y591574D01*
X583450Y590848D01*
X581884Y588807D01*
X580899Y586430D01*
X580564Y583880D01*
X580899Y581329D01*
X581884Y578953D01*
X583450Y576912D01*
X585491Y575346D01*
X587867Y574361D01*
X590418Y574026D01*
X592968Y574361D01*
X595345Y575346D01*
X597386Y576912D01*
X598952Y578953D01*
X599936Y581329D01*
X600272Y583880D01*
X599936Y586430D01*
X598952Y588807D01*
X597386Y590848D01*
X596339Y591651D01*
X596919Y593728D01*
X597323Y593808D01*
X598322Y594476D01*
X604860Y601014D01*
X605528Y602013D01*
X605740Y603079D01*
X606055Y603270D01*
X607762Y603729D01*
X608850Y602312D01*
X610891Y600746D01*
X613267Y599761D01*
X615818Y599426D01*
X618368Y599761D01*
X620745Y600746D01*
X622786Y602312D01*
X624352Y604353D01*
X625336Y606729D01*
X625672Y609280D01*
X625336Y611830D01*
X624352Y614207D01*
X622786Y616248D01*
X620745Y617814D01*
X618368Y618798D01*
X615818Y619134D01*
X613267Y618798D01*
X610891Y617814D01*
X608850Y616248D01*
X607762Y614831D01*
X605762Y615510D01*
Y632904D01*
X608717Y635858D01*
X610349Y636745D01*
X612192Y636988D01*
X612241Y637008D01*
X613910Y637699D01*
X615384Y638831D01*
X616516Y640306D01*
X617207Y641974D01*
X617228Y642023D01*
X617390Y643258D01*
X619390Y643127D01*
Y639719D01*
X619388D01*
X619631Y637876D01*
X619651Y637827D01*
X620342Y636159D01*
X621474Y634684D01*
X622949Y633552D01*
X624666Y632841D01*
X626509Y632598D01*
X628352Y632841D01*
X630070Y633552D01*
X631544Y634684D01*
X632676Y636159D01*
X633367Y637827D01*
X633387Y637876D01*
X633581Y639343D01*
X635598D01*
X635791Y637876D01*
X635811Y637827D01*
X636502Y636159D01*
X637634Y634684D01*
X639109Y633552D01*
X640826Y632841D01*
X642669Y632598D01*
X644512Y632841D01*
X646230Y633552D01*
X647704Y634684D01*
X648836Y636159D01*
X649527Y637827D01*
X649548Y637876D01*
X649741Y639343D01*
X651758D01*
X651951Y637876D01*
X651971Y637827D01*
X652662Y636159D01*
X653794Y634684D01*
X655269Y633552D01*
X656986Y632841D01*
X658829Y632598D01*
X660672Y632841D01*
X662390Y633552D01*
X663864Y634684D01*
X664996Y636159D01*
X665687Y637827D01*
X665707Y637876D01*
X665901Y639343D01*
X667918D01*
X668111Y637876D01*
X668131Y637827D01*
X668822Y636159D01*
X669954Y634684D01*
X671429Y633552D01*
X673146Y632841D01*
X674989Y632598D01*
X676832Y632841D01*
X678550Y633552D01*
X680024Y634684D01*
X681156Y636159D01*
X681847Y637827D01*
X681868Y637876D01*
X682061Y639343D01*
X684078D01*
X684271Y637876D01*
X684291Y637827D01*
X684982Y636159D01*
X686114Y634684D01*
X687589Y633552D01*
X688803Y633049D01*
X688718Y630993D01*
X688686Y630987D01*
X687687Y630319D01*
X677019Y619651D01*
X676351Y618652D01*
X676117Y617474D01*
Y616235D01*
X674117Y615556D01*
X673586Y616248D01*
X671545Y617814D01*
X669168Y618798D01*
X666618Y619134D01*
X664067Y618798D01*
X661691Y617814D01*
X659650Y616248D01*
X658084Y614207D01*
X657099Y611830D01*
X656764Y609280D01*
X657099Y606729D01*
X658084Y604353D01*
X659650Y602312D01*
X661691Y600746D01*
X664067Y599761D01*
X666618Y599426D01*
X669168Y599761D01*
X671545Y600746D01*
X673586Y602312D01*
X674117Y603004D01*
X676117Y602325D01*
Y590835D01*
X674117Y590156D01*
X673586Y590848D01*
X671545Y592414D01*
X669168Y593399D01*
X666618Y593734D01*
X664067Y593399D01*
X661691Y592414D01*
X659650Y590848D01*
X658084Y588807D01*
X657099Y586430D01*
X656764Y583880D01*
X657099Y581329D01*
X658084Y578953D01*
X659650Y576912D01*
X661691Y575346D01*
X664067Y574361D01*
X666618Y574026D01*
X669168Y574361D01*
X671545Y575346D01*
X672542Y576111D01*
X674782Y575309D01*
X674793Y575262D01*
X668873Y569342D01*
X667452Y568146D01*
Y568146D01*
X667452Y568146D01*
X661229D01*
X660932Y568205D01*
X660298D01*
X659853Y568503D01*
X658675Y568737D01*
X502412D01*
X501234Y568503D01*
X500235Y567835D01*
X493893Y561494D01*
X492150Y562215D01*
X489600Y562551D01*
X487049Y562215D01*
X484673Y561231D01*
X482632Y559665D01*
X481066Y557624D01*
X480821Y557033D01*
X478821Y557431D01*
Y577574D01*
X480821Y578252D01*
X481850Y576912D01*
X483891Y575346D01*
X486267Y574361D01*
X488818Y574026D01*
X491368Y574361D01*
X493745Y575346D01*
X495786Y576912D01*
X497352Y578953D01*
X498336Y581329D01*
X498672Y583880D01*
X498336Y586430D01*
X497352Y588807D01*
X495786Y590848D01*
X493745Y592414D01*
X493433Y592543D01*
X493831Y594543D01*
X502560D01*
X503739Y594778D01*
X504738Y595445D01*
X509819Y600527D01*
X511667Y599761D01*
X514218Y599426D01*
X516768Y599761D01*
X519145Y600746D01*
X521186Y602312D01*
X522752Y604353D01*
X523736Y606729D01*
X524072Y609280D01*
X523736Y611830D01*
X522752Y614207D01*
X521186Y616248D01*
X519145Y617814D01*
X516768Y618798D01*
X514218Y619134D01*
X511667Y618798D01*
X509291Y617814D01*
X507250Y616248D01*
X505684Y614207D01*
X504699Y611830D01*
X504364Y609280D01*
X504699Y606729D01*
X505465Y604881D01*
X501285Y600702D01*
X496973D01*
X496496Y601349D01*
X496085Y602702D01*
X497352Y604353D01*
X498336Y606729D01*
X498672Y609280D01*
X498336Y611830D01*
X497352Y614207D01*
X495786Y616248D01*
X493745Y617814D01*
X491368Y618798D01*
X488818Y619134D01*
X486267Y618798D01*
X483891Y617814D01*
X481850Y616248D01*
X480284Y614207D01*
X479299Y611830D01*
X478964Y609280D01*
X479299Y606729D01*
X480284Y604353D01*
X481850Y602312D01*
X483193Y601281D01*
X483521Y599198D01*
X483421Y598776D01*
X473922Y589277D01*
X473352Y589141D01*
X472564Y589157D01*
X471488Y589412D01*
X470386Y590848D01*
X468345Y592414D01*
X465968Y593399D01*
X463418Y593734D01*
X460867Y593399D01*
X458491Y592414D01*
X456450Y590848D01*
X454884Y588807D01*
X453899Y586430D01*
X453564Y583880D01*
X453899Y581329D01*
X454884Y578953D01*
X456450Y576912D01*
X458491Y575346D01*
X460867Y574361D01*
X463418Y574026D01*
X465968Y574361D01*
X468345Y575346D01*
X470386Y576912D01*
X470663Y577273D01*
X472663Y576594D01*
Y560771D01*
X470663Y560053D01*
X469127Y561231D01*
X466750Y562215D01*
X464200Y562551D01*
X461650Y562215D01*
X459273Y561231D01*
X457232Y559665D01*
X455666Y557624D01*
X454682Y555247D01*
X454346Y552697D01*
X454682Y550146D01*
X455666Y547770D01*
X457232Y545729D01*
X459273Y544163D01*
X461121Y543397D01*
Y533086D01*
X459584D01*
Y523046D01*
X461121D01*
Y519989D01*
X460523Y519003D01*
X459536Y518405D01*
X394221D01*
Y518406D01*
X392378Y518164D01*
X392329Y518144D01*
X390661Y517452D01*
X389186Y516321D01*
X388054Y514846D01*
X387343Y513129D01*
X387100Y511285D01*
X387343Y509442D01*
X388054Y507725D01*
X389186Y506250D01*
X390661Y505118D01*
X392329Y504427D01*
X392378Y504407D01*
X393613Y504245D01*
X393482Y502245D01*
X391097D01*
Y502246D01*
X389254Y502004D01*
X389205Y501983D01*
X387536Y501292D01*
X386061Y500161D01*
X384930Y498686D01*
X384218Y496968D01*
X383976Y495126D01*
X384218Y493282D01*
X384930Y491565D01*
X386061Y490090D01*
X387536Y488959D01*
X389205Y488267D01*
X389254Y488247D01*
X390720Y488054D01*
Y486037D01*
X389254Y485844D01*
X389205Y485824D01*
X387536Y485132D01*
X386061Y484001D01*
X384930Y482526D01*
X384218Y480808D01*
X383976Y478965D01*
X384218Y477122D01*
X384930Y475405D01*
X386061Y473930D01*
X387536Y472799D01*
X389205Y472107D01*
X389254Y472087D01*
X391097Y471844D01*
Y471846D01*
X399524D01*
X399655Y469846D01*
X398421Y469684D01*
X398372Y469664D01*
X396703Y468972D01*
X395229Y467841D01*
X394097Y466366D01*
X393386Y464649D01*
X393143Y462805D01*
X393386Y460962D01*
X394097Y459245D01*
X395229Y457770D01*
X396703Y456639D01*
X398372Y455947D01*
X398421Y455927D01*
X400264Y455685D01*
Y455686D01*
X415684D01*
X415816Y453686D01*
X414581Y453524D01*
X414532Y453503D01*
X412863Y452812D01*
X411389Y451681D01*
X410257Y450206D01*
X409546Y448489D01*
X409303Y446646D01*
X409546Y444803D01*
X410257Y443085D01*
X411389Y441610D01*
X412863Y440479D01*
X414532Y439787D01*
X414581Y439767D01*
X416424Y439524D01*
Y439526D01*
X431844D01*
X431976Y437526D01*
X430741Y437364D01*
X430692Y437344D01*
X429023Y436652D01*
X427548Y435521D01*
X426417Y434046D01*
X425705Y432328D01*
X425463Y430485D01*
X425705Y428643D01*
X426417Y426925D01*
X427548Y425450D01*
X429023Y424319D01*
X430692Y423628D01*
X430741Y423607D01*
X432584Y423364D01*
Y423366D01*
X448004D01*
X448135Y421366D01*
X446901Y421204D01*
X446852Y421184D01*
X445183Y420492D01*
X443708Y419361D01*
X442577Y417886D01*
X441866Y416169D01*
X441623Y414325D01*
X441866Y412482D01*
X442577Y410765D01*
X443708Y409290D01*
X445183Y408159D01*
X446852Y407467D01*
X446901Y407447D01*
X448744Y407205D01*
Y407206D01*
X461888D01*
X461902Y407209D01*
X462964Y406998D01*
X464587Y406088D01*
X466087Y404588D01*
X466087Y404588D01*
X468004Y402671D01*
X469003Y402004D01*
X470181Y401769D01*
X472667D01*
X473845Y402004D01*
X474844Y402671D01*
X477919Y405747D01*
X478587Y406746D01*
X478821Y407924D01*
Y547963D01*
X480821Y548361D01*
X481066Y547770D01*
X482632Y545729D01*
X484673Y544163D01*
X487049Y543178D01*
X489600Y542843D01*
X492150Y543178D01*
X494527Y544163D01*
X496568Y545729D01*
X498134Y547770D01*
X499118Y550146D01*
X499454Y552697D01*
X499118Y555247D01*
X498309Y557201D01*
X503687Y562579D01*
X508544D01*
X509223Y560579D01*
X508032Y559665D01*
X506466Y557624D01*
X505481Y555247D01*
X505146Y552697D01*
X505481Y550146D01*
X506466Y547770D01*
X508032Y545729D01*
X510073Y544163D01*
X512449Y543178D01*
X515000Y542843D01*
X517551Y543178D01*
X519927Y544163D01*
X521968Y545729D01*
X523534Y547770D01*
X524519Y550146D01*
X524854Y552697D01*
X524519Y555247D01*
X523534Y557624D01*
X521968Y559665D01*
X520777Y560579D01*
X521456Y562579D01*
X533944D01*
X534623Y560579D01*
X533432Y559665D01*
X531866Y557624D01*
X530882Y555247D01*
X530546Y552697D01*
X530882Y550146D01*
X531866Y547770D01*
X533432Y545729D01*
X535473Y544163D01*
X537850Y543178D01*
X540400Y542843D01*
X542951Y543178D01*
X544799Y543944D01*
X551678Y537065D01*
X552677Y536397D01*
X553855Y536163D01*
X594863D01*
X600063Y530962D01*
X599044Y529944D01*
X606143Y522844D01*
X607543Y524244D01*
X625825Y505963D01*
Y495613D01*
X625823D01*
X626066Y493770D01*
X626086Y493721D01*
X626777Y492053D01*
X627909Y490578D01*
X629384Y489446D01*
X631052Y488755D01*
X631101Y488735D01*
X632336Y488572D01*
X632205Y486572D01*
X620313D01*
Y486574D01*
X618470Y486331D01*
X618422Y486311D01*
X616753Y485620D01*
X615278Y484488D01*
X614146Y483014D01*
X613435Y481296D01*
X613192Y479453D01*
X613435Y477610D01*
X614146Y475893D01*
X615278Y474418D01*
X616753Y473286D01*
X618422Y472595D01*
X618470Y472575D01*
X619937Y472382D01*
Y470364D01*
X618470Y470171D01*
X618422Y470151D01*
X616753Y469460D01*
X615278Y468328D01*
X614146Y466854D01*
X613435Y465136D01*
X613192Y463293D01*
X613435Y461450D01*
X614146Y459733D01*
X615278Y458258D01*
X616753Y457126D01*
X618422Y456435D01*
X618470Y456415D01*
X619937Y456222D01*
Y454204D01*
X618470Y454011D01*
X618422Y453991D01*
X616753Y453300D01*
X615278Y452168D01*
X614146Y450694D01*
X613435Y448976D01*
X613192Y447133D01*
X613435Y445290D01*
X614146Y443573D01*
X615278Y442098D01*
X616753Y440966D01*
X618422Y440275D01*
X618470Y440255D01*
X620313Y440012D01*
X620289Y438022D01*
X618990Y437851D01*
X618941Y437831D01*
X617272Y437140D01*
X615798Y436008D01*
X614666Y434534D01*
X613954Y432816D01*
X613712Y430973D01*
X613954Y429130D01*
X614666Y427413D01*
X615798Y425938D01*
X617272Y424806D01*
X618941Y424115D01*
X618990Y424095D01*
X620833Y423852D01*
Y423854D01*
X632205D01*
X632336Y421854D01*
X631101Y421691D01*
X631052Y421671D01*
X629384Y420980D01*
X627909Y419848D01*
X626777Y418374D01*
X626086Y416705D01*
X626066Y416656D01*
X625823Y414813D01*
X625825D01*
Y372845D01*
Y187960D01*
X626059Y186782D01*
X626727Y185783D01*
X651225Y161285D01*
Y158373D01*
X649225Y157694D01*
X648186Y159048D01*
X646145Y160614D01*
X643768Y161599D01*
X641218Y161934D01*
X638667Y161599D01*
X636820Y160833D01*
X599471Y198181D01*
Y258315D01*
X599237Y259493D01*
X598569Y260492D01*
X505094Y353967D01*
X504095Y354635D01*
X502917Y354869D01*
X496508D01*
X495439Y356869D01*
X495693Y357248D01*
X496123Y359410D01*
X495693Y361572D01*
X494468Y363404D01*
X492636Y364629D01*
X490474Y365059D01*
X488312Y364629D01*
X486480Y363404D01*
X485868Y362489D01*
X461524D01*
X298979Y525033D01*
Y543397D01*
X300827Y544163D01*
X302868Y545729D01*
X304434Y547770D01*
X305418Y550146D01*
X305754Y552697D01*
X305418Y555247D01*
X304434Y557624D01*
X302868Y559665D01*
X300827Y561231D01*
X298451Y562215D01*
X295900Y562551D01*
X293349Y562215D01*
X290973Y561231D01*
X288932Y559665D01*
X287366Y557624D01*
X286381Y555247D01*
X286046Y552697D01*
X286381Y550146D01*
X287366Y547770D01*
X288932Y545729D01*
X290973Y544163D01*
X292821Y543397D01*
Y523758D01*
X292985Y522934D01*
X292019Y522083D01*
X291335Y521755D01*
X273579Y539511D01*
Y543397D01*
X275427Y544163D01*
X277468Y545729D01*
X279034Y547770D01*
X280019Y550146D01*
X280354Y552697D01*
X280019Y555247D01*
X279034Y557624D01*
X277468Y559665D01*
X275427Y561231D01*
X273050Y562215D01*
X270500Y562551D01*
X267950Y562215D01*
X265573Y561231D01*
X263532Y559665D01*
X261966Y557624D01*
X260982Y555247D01*
X260646Y552697D01*
X260982Y550146D01*
X261966Y547770D01*
X263532Y545729D01*
X265573Y544163D01*
X267421Y543397D01*
Y538236D01*
X267589Y537391D01*
X266731Y536603D01*
X265939Y536212D01*
X253853Y548298D01*
X254618Y550146D01*
X254954Y552697D01*
X254618Y555247D01*
X253634Y557624D01*
X252068Y559665D01*
X250027Y561231D01*
X247651Y562215D01*
X245100Y562551D01*
X242549Y562215D01*
X240173Y561231D01*
X238132Y559665D01*
X236566Y557624D01*
X235581Y555247D01*
X235246Y552697D01*
X235581Y550146D01*
X236566Y547770D01*
X238132Y545729D01*
X240173Y544163D01*
X242549Y543178D01*
X245100Y542843D01*
X247651Y543178D01*
X249499Y543944D01*
X451704Y341739D01*
X452703Y341071D01*
X453881Y340837D01*
X498089D01*
X575718Y263207D01*
X575504Y262128D01*
X575933Y259966D01*
X577158Y258134D01*
X578990Y256909D01*
X581152Y256479D01*
X583314Y256909D01*
X585146Y258134D01*
X586371Y259966D01*
X586567Y260956D01*
X588738Y261615D01*
X593313Y257039D01*
Y196906D01*
X593547Y195728D01*
X594215Y194729D01*
X632465Y156479D01*
X631699Y154630D01*
X631364Y152080D01*
X631699Y149529D01*
X632684Y147153D01*
X634250Y145112D01*
X636291Y143546D01*
X638667Y142562D01*
X641218Y142226D01*
X643768Y142562D01*
X646145Y143546D01*
X648186Y145112D01*
X649225Y146466D01*
X651225Y145787D01*
Y138994D01*
X651459Y137816D01*
X652127Y136817D01*
X657865Y131079D01*
X657100Y129230D01*
X656764Y126680D01*
X657100Y124129D01*
X658084Y121753D01*
X659650Y119712D01*
X661691Y118146D01*
X664068Y117162D01*
X666618Y116826D01*
X669168Y117162D01*
X671545Y118146D01*
X673586Y119712D01*
X675152Y121753D01*
X676136Y124129D01*
X676472Y126680D01*
X676136Y129230D01*
X675152Y131607D01*
X673586Y133648D01*
X671545Y135214D01*
X669168Y136199D01*
X666618Y136534D01*
X664068Y136199D01*
X662219Y135433D01*
X657383Y140269D01*
Y144781D01*
X659383Y145460D01*
X659650Y145112D01*
X661691Y143546D01*
X664068Y142562D01*
X666618Y142226D01*
X669168Y142562D01*
X671545Y143546D01*
X673586Y145112D01*
X675152Y147153D01*
X676136Y149529D01*
X676472Y152080D01*
X676136Y154630D01*
X675152Y157007D01*
X673586Y159048D01*
X671545Y160614D01*
X669168Y161599D01*
X666618Y161934D01*
X664068Y161599D01*
X661691Y160614D01*
X659650Y159048D01*
X659383Y158700D01*
X657383Y159379D01*
Y162560D01*
X657149Y163738D01*
X656481Y164737D01*
X631983Y189235D01*
Y372845D01*
Y414170D01*
X632631Y415249D01*
X633518Y415848D01*
X634787Y416015D01*
X634836Y416035D01*
X636505Y416726D01*
X637980Y417858D01*
X639111Y419333D01*
X639823Y421050D01*
X640065Y422893D01*
X639823Y424736D01*
X639111Y426454D01*
X637980Y427928D01*
X636505Y429060D01*
X634836Y429751D01*
X634787Y429771D01*
X633553Y429934D01*
X633684Y431934D01*
X645517D01*
Y431932D01*
X647360Y432175D01*
X647409Y432195D01*
X649077Y432886D01*
X650552Y434018D01*
X651684Y435493D01*
X652395Y437210D01*
X652638Y439053D01*
X652395Y440896D01*
X651684Y442614D01*
X650552Y444088D01*
X649077Y445220D01*
X647409Y445911D01*
X647360Y445931D01*
X645893Y446124D01*
Y448142D01*
X647360Y448335D01*
X647409Y448355D01*
X649077Y449046D01*
X650552Y450178D01*
X651684Y451653D01*
X652395Y453370D01*
X652638Y455213D01*
X652395Y457056D01*
X651684Y458774D01*
X650552Y460248D01*
X649077Y461380D01*
X647409Y462071D01*
X647360Y462091D01*
X645893Y462285D01*
Y464302D01*
X647360Y464495D01*
X647409Y464515D01*
X649077Y465206D01*
X650552Y466338D01*
X651684Y467813D01*
X652395Y469530D01*
X652638Y471373D01*
X652395Y473216D01*
X651684Y474934D01*
X650552Y476408D01*
X649077Y477540D01*
X647409Y478231D01*
X647360Y478251D01*
X645893Y478445D01*
Y480462D01*
X647360Y480655D01*
X647409Y480675D01*
X649077Y481366D01*
X650552Y482498D01*
X651684Y483973D01*
X652395Y485690D01*
X652638Y487533D01*
X652395Y489376D01*
X651684Y491094D01*
X650552Y492568D01*
X649077Y493700D01*
X647409Y494391D01*
X647360Y494411D01*
X645517Y494654D01*
Y494652D01*
X633568D01*
X632581Y495250D01*
X631983Y496237D01*
Y507238D01*
X631749Y508416D01*
X631081Y509415D01*
X611898Y528599D01*
X612536Y529236D01*
X605437Y536336D01*
X604418Y535317D01*
X598315Y541419D01*
X598211Y541489D01*
X598192Y541537D01*
X598305Y543774D01*
X599395Y544502D01*
X600643Y546369D01*
X601081Y548572D01*
Y556822D01*
X600643Y559025D01*
X599604Y560579D01*
X599958Y561776D01*
X600470Y562579D01*
X657412D01*
Y559106D01*
X667452D01*
Y561439D01*
X668404D01*
X669582Y561673D01*
X670581Y562341D01*
X681373Y573133D01*
X682041Y574132D01*
X682275Y575310D01*
Y577243D01*
X684275Y577921D01*
X685050Y576912D01*
X687091Y575346D01*
X689467Y574361D01*
X692018Y574026D01*
X694568Y574361D01*
X696945Y575346D01*
X698964Y576895D01*
X699070Y576882D01*
X700964Y576205D01*
Y459740D01*
X701280Y458156D01*
X702177Y456813D01*
X761867Y397123D01*
X763210Y396226D01*
X764794Y395910D01*
X877884D01*
Y395022D01*
X887924D01*
Y395910D01*
X892100D01*
Y394522D01*
X899975D01*
Y379654D01*
X900209Y378476D01*
X900877Y377477D01*
X904554Y373799D01*
Y369114D01*
X906495D01*
Y317890D01*
X900877Y312272D01*
X900209Y311273D01*
X899975Y310095D01*
Y277562D01*
X892054D01*
Y276682D01*
X887924D01*
Y277062D01*
X877884D01*
Y276682D01*
X872742D01*
X872114Y277500D01*
X870439Y278785D01*
X868488Y279594D01*
X866394Y279869D01*
X864300Y279594D01*
X862349Y278785D01*
X860674Y277500D01*
X859389Y275825D01*
X858580Y273874D01*
X858305Y271780D01*
X858580Y269686D01*
X859389Y267735D01*
X860674Y266060D01*
X862349Y264774D01*
X864300Y263966D01*
X866394Y263691D01*
X868488Y263966D01*
X870439Y264774D01*
X872114Y266060D01*
X873400Y267735D01*
X873676Y268402D01*
X877884D01*
Y268022D01*
X887924D01*
Y268402D01*
X892054D01*
Y267522D01*
X899975D01*
Y251846D01*
X900209Y250668D01*
X900877Y249669D01*
X904554Y245991D01*
Y245661D01*
X881311Y222417D01*
X880643Y221418D01*
X880409Y220240D01*
Y138624D01*
X871988D01*
Y137744D01*
X796989D01*
X792035Y142697D01*
X790692Y143595D01*
X789108Y143910D01*
X725984D01*
X724998Y145910D01*
X725952Y147153D01*
X726936Y149529D01*
X727272Y152080D01*
X726936Y154630D01*
X725952Y157007D01*
X724386Y159048D01*
X722345Y160614D01*
X719968Y161599D01*
X717418Y161934D01*
X714867Y161599D01*
X712491Y160614D01*
X710450Y159048D01*
X708884Y157007D01*
X707899Y154630D01*
X707564Y152080D01*
X707899Y149529D01*
X708884Y147153D01*
X709838Y145910D01*
X708852Y143910D01*
X706043D01*
X701210Y148742D01*
X701536Y149529D01*
X701872Y152080D01*
X701536Y154630D01*
X700552Y157007D01*
X698986Y159048D01*
X696945Y160614D01*
X694568Y161599D01*
X692018Y161934D01*
X689467Y161599D01*
X687091Y160614D01*
X685050Y159048D01*
X683484Y157007D01*
X682499Y154630D01*
X682164Y152080D01*
X682499Y149529D01*
X683484Y147153D01*
X685050Y145112D01*
X687091Y143546D01*
X689467Y142562D01*
X692018Y142226D01*
X694568Y142562D01*
X695356Y142888D01*
X701401Y136843D01*
X702744Y135946D01*
X704328Y135631D01*
X709748D01*
X710426Y133716D01*
X710436Y133631D01*
X708884Y131607D01*
X707899Y129230D01*
X707564Y126680D01*
X707899Y124129D01*
X708884Y121753D01*
X710450Y119712D01*
X712491Y118146D01*
X714867Y117162D01*
X717418Y116826D01*
X719968Y117162D01*
X722345Y118146D01*
X724386Y119712D01*
X725952Y121753D01*
X726936Y124129D01*
X727272Y126680D01*
X726936Y129230D01*
X725952Y131607D01*
X724400Y133631D01*
X724410Y133716D01*
X725088Y135631D01*
X787393D01*
X792347Y130677D01*
X793690Y129780D01*
X795274Y129464D01*
X871988D01*
Y128584D01*
X875291D01*
X876057Y126736D01*
X874327Y125006D01*
X873659Y124007D01*
X873425Y122829D01*
Y88685D01*
X591566D01*
X589510Y88276D01*
X587766Y87112D01*
X587766Y87111D01*
X556828Y56173D01*
X267923D01*
X256592Y67504D01*
X256854Y69497D01*
X256518Y72048D01*
X255534Y74424D01*
X253968Y76465D01*
X252332Y77720D01*
Y79635D01*
X254602D01*
X255765Y80117D01*
X256247Y81280D01*
Y98044D01*
X256015Y98604D01*
X255801Y99171D01*
X255776Y99182D01*
X255765Y99207D01*
X255519Y99309D01*
X255519Y101728D01*
X255703Y101893D01*
X255723Y101935D01*
X255765Y101953D01*
X255991Y102497D01*
X256245Y103029D01*
X256230Y103073D01*
X256247Y103116D01*
Y110490D01*
X255765Y111653D01*
X254602Y112135D01*
X251432D01*
Y114883D01*
X251208Y116585D01*
X250551Y118171D01*
X249506Y119533D01*
X249506Y119533D01*
X244403Y124636D01*
X244672Y126680D01*
X244337Y129230D01*
X243352Y131607D01*
X241786Y133648D01*
X239745Y135214D01*
X237369Y136199D01*
X234818Y136534D01*
X232268Y136199D01*
X229891Y135214D01*
X227850Y133648D01*
X226284Y131607D01*
X225300Y129230D01*
X224964Y126680D01*
X225300Y124129D01*
X226284Y121753D01*
X227850Y119712D01*
X229891Y118146D01*
X232268Y117162D01*
X233431Y117008D01*
X236304Y114135D01*
X235475Y112135D01*
X234602D01*
X233439Y111653D01*
X232957Y110490D01*
Y103116D01*
X232974Y103073D01*
X232959Y103029D01*
X233213Y102497D01*
X233439Y101953D01*
X233481Y101935D01*
X233501Y101893D01*
X233680Y101732D01*
Y99372D01*
X233268Y99197D01*
X233258Y99172D01*
X233234Y99161D01*
X233024Y98592D01*
X232797Y98029D01*
X232945Y81265D01*
X233188Y80692D01*
X233426Y80117D01*
X233433Y80114D01*
X233437Y80106D01*
X234014Y79873D01*
X234590Y79635D01*
X238437D01*
X238907Y78500D01*
X239180Y78144D01*
Y75355D01*
X238466Y74424D01*
X237481Y72048D01*
X237146Y69497D01*
X237481Y66947D01*
X238466Y64570D01*
X240032Y62529D01*
X242073Y60963D01*
X244450Y59978D01*
X247000Y59643D01*
X248993Y59905D01*
X261898Y47000D01*
X263641Y45836D01*
X265697Y45427D01*
X265697Y45427D01*
X559054D01*
X559054Y45427D01*
X561110Y45836D01*
X562854Y47000D01*
X593792Y77939D01*
X875792D01*
X876291Y78038D01*
X881024D01*
Y82602D01*
X881165Y83312D01*
X881024Y84022D01*
Y88078D01*
X879583D01*
Y121554D01*
X885665Y127636D01*
X886299Y128584D01*
X894028D01*
Y129972D01*
X934870D01*
Y125092D01*
X952910D01*
Y143132D01*
X934870D01*
Y138252D01*
X894028D01*
Y138624D01*
X886567D01*
Y218965D01*
X908909Y241306D01*
X914594D01*
Y250346D01*
X908908D01*
X906949Y252306D01*
X907777Y254306D01*
X914594D01*
Y263346D01*
X913714D01*
Y267522D01*
X914094D01*
Y268523D01*
X930384D01*
X930503Y268235D01*
X931949Y266351D01*
X933833Y264905D01*
X934242Y264736D01*
Y216804D01*
X929362D01*
Y198764D01*
X947402D01*
Y216804D01*
X942522D01*
Y264736D01*
X942931Y264905D01*
X944815Y266351D01*
X946261Y268235D01*
X947170Y270429D01*
X947480Y272784D01*
X947170Y275139D01*
X946261Y277333D01*
X944815Y279217D01*
X942931Y280663D01*
X940737Y281572D01*
X938382Y281882D01*
X936027Y281572D01*
X933833Y280663D01*
X931949Y279217D01*
X930503Y277333D01*
X930283Y276803D01*
X914094D01*
Y277562D01*
X906133D01*
Y308819D01*
X911751Y314437D01*
X912419Y315436D01*
X912653Y316615D01*
Y369114D01*
X914594D01*
Y378154D01*
X908908D01*
X906949Y380114D01*
X907777Y382114D01*
X914594D01*
Y391154D01*
X913737D01*
Y394522D01*
X914140D01*
Y395523D01*
X930384D01*
X930503Y395235D01*
X931949Y393351D01*
X933833Y391905D01*
X934242Y391735D01*
Y343804D01*
X929362D01*
Y325764D01*
X947402D01*
Y343804D01*
X942522D01*
Y391735D01*
X942931Y391905D01*
X944815Y393351D01*
X946261Y395235D01*
X947170Y397429D01*
X947480Y399784D01*
X947170Y402139D01*
X946261Y404333D01*
X944815Y406217D01*
X942931Y407663D01*
X940737Y408572D01*
X938382Y408882D01*
X936027Y408572D01*
X933833Y407663D01*
X931949Y406217D01*
X930503Y404333D01*
X930283Y403802D01*
X914140D01*
Y404562D01*
X906133D01*
Y436327D01*
X911751Y441945D01*
X912419Y442944D01*
X912653Y444123D01*
Y496322D01*
X914594D01*
Y505362D01*
X904554D01*
Y496322D01*
X906495D01*
Y445398D01*
X900877Y439780D01*
X900209Y438781D01*
X899975Y437603D01*
Y404562D01*
X892100D01*
Y404190D01*
X766509D01*
X709243Y461455D01*
Y575317D01*
X711244Y576303D01*
X712491Y575346D01*
X714867Y574361D01*
X717418Y574026D01*
X719968Y574361D01*
X720756Y574688D01*
X771321Y524123D01*
X772664Y523226D01*
X774248Y522910D01*
X877884D01*
Y522276D01*
X887924D01*
Y522910D01*
X892100D01*
Y521776D01*
X901140D01*
Y531816D01*
X892100D01*
Y531190D01*
X887924D01*
Y531316D01*
X877884D01*
Y531190D01*
X775963D01*
X726610Y580542D01*
X726936Y581329D01*
X727272Y583880D01*
X726936Y586430D01*
X725952Y588807D01*
X724386Y590848D01*
X722345Y592414D01*
X719968Y593399D01*
X717418Y593734D01*
X714867Y593399D01*
X712491Y592414D01*
X711244Y591457D01*
X709243Y592443D01*
Y596194D01*
X709243Y596194D01*
X708928Y597778D01*
X708031Y599121D01*
X708031Y599121D01*
X701210Y605942D01*
X701536Y606729D01*
X701872Y609280D01*
X701536Y611830D01*
X700552Y614207D01*
X698986Y616248D01*
X696945Y617814D01*
X694568Y618798D01*
X692018Y619134D01*
X689467Y618798D01*
X687091Y617814D01*
X685493Y616588D01*
X684172Y618095D01*
X691139Y625063D01*
X714756D01*
X715934Y625297D01*
X716933Y625965D01*
X723057Y632088D01*
X723724Y633087D01*
X723959Y634265D01*
Y636751D01*
X723724Y637929D01*
X723057Y638928D01*
X719981Y642003D01*
X718982Y642671D01*
X717804Y642905D01*
X707933D01*
X706946Y643503D01*
X706348Y644490D01*
Y701425D01*
X706350D01*
X706107Y703269D01*
X706087Y703317D01*
X705396Y704986D01*
X704264Y706461D01*
X702790Y707592D01*
X701072Y708304D01*
X699229Y708546D01*
X697386Y708304D01*
X695669Y707592D01*
X694194Y706461D01*
X693062Y704986D01*
X692371Y703317D01*
X692351Y703269D01*
X692158Y701802D01*
X690141D01*
X689948Y703269D01*
X689927Y703317D01*
X689236Y704986D01*
X688104Y706461D01*
X686630Y707592D01*
X684912Y708304D01*
X683069Y708546D01*
X681226Y708304D01*
X679509Y707592D01*
X678034Y706461D01*
X676902Y704986D01*
X676211Y703317D01*
X676191Y703269D01*
X675998Y701802D01*
X673981D01*
X673788Y703269D01*
X673767Y703317D01*
X673076Y704986D01*
X671944Y706461D01*
X670470Y707592D01*
X668752Y708304D01*
X666909Y708546D01*
X665066Y708304D01*
X663349Y707592D01*
X661874Y706461D01*
X660742Y704986D01*
X660051Y703317D01*
X660031Y703269D01*
X659838Y701802D01*
X657821D01*
X657627Y703269D01*
X657607Y703317D01*
X656916Y704986D01*
X655784Y706461D01*
X654310Y707592D01*
X652592Y708304D01*
X650749Y708546D01*
X648906Y708304D01*
X647189Y707592D01*
X645714Y706461D01*
X644582Y704986D01*
X643891Y703317D01*
X643871Y703269D01*
X643678Y701802D01*
X641661D01*
X641468Y703269D01*
X641447Y703317D01*
X640756Y704986D01*
X639624Y706461D01*
X638150Y707592D01*
X636432Y708304D01*
X634589Y708546D01*
X632746Y708304D01*
X631029Y707592D01*
X629554Y706461D01*
X628422Y704986D01*
X627731Y703317D01*
X627711Y703269D01*
X627468Y701425D01*
X627470D01*
Y653508D01*
X625470Y653377D01*
X625308Y654612D01*
X625287Y654660D01*
X624596Y656329D01*
X623465Y657804D01*
X621990Y658936D01*
X620272Y659647D01*
X618429Y659890D01*
X616586Y659647D01*
X614869Y658936D01*
X613394Y657804D01*
X612262Y656329D01*
X611571Y654661D01*
X611551Y654612D01*
X611308Y652769D01*
X611310D01*
Y644490D01*
X610712Y643503D01*
X609725Y642905D01*
X608330D01*
X607152Y642671D01*
X606153Y642003D01*
X600506Y636357D01*
X599838Y635358D01*
X599604Y634179D01*
Y616643D01*
X597604Y615964D01*
X597386Y616248D01*
X595345Y617814D01*
X592968Y618798D01*
X592280Y618889D01*
Y620094D01*
X592045Y621272D01*
X591378Y622271D01*
X578249Y635399D01*
X577250Y636067D01*
X576072Y636301D01*
X548554D01*
X547567Y636899D01*
X546969Y637886D01*
Y640437D01*
X546971D01*
X546728Y642280D01*
X546708Y642329D01*
X546017Y643998D01*
X544885Y645473D01*
X543410Y646604D01*
X541693Y647316D01*
X539850Y647558D01*
X538007Y647316D01*
X536289Y646604D01*
X534815Y645473D01*
X533683Y643998D01*
X532992Y642329D01*
X532972Y642280D01*
X532809Y641046D01*
X530809Y641177D01*
Y701616D01*
X530811D01*
X530568Y703459D01*
X530548Y703508D01*
X529857Y705177D01*
X528725Y706652D01*
X527250Y707783D01*
X525533Y708494D01*
X523690Y708737D01*
D02*
G37*
G36*
X419802Y662588D02*
X409762D01*
Y653548D01*
X411449D01*
Y646938D01*
X411683Y645760D01*
X412351Y644761D01*
X414076Y643035D01*
X411550Y640509D01*
X417943Y634117D01*
X425042Y641216D01*
X418650Y647609D01*
X417607Y649177D01*
Y653548D01*
X419802D01*
Y662588D01*
D02*
G37*
G36*
X369510Y657554D02*
X359470D01*
Y650510D01*
X359470Y648644D01*
X358582Y647865D01*
X357852Y647434D01*
X351460Y641041D01*
X358559Y633942D01*
X364951Y640334D01*
X363811Y641474D01*
X365993Y643656D01*
X366610Y644579D01*
X366827Y645668D01*
Y648514D01*
X369510D01*
Y657554D01*
D02*
G37*
G36*
X717418Y619134D02*
X714867Y618798D01*
X712491Y617814D01*
X710450Y616248D01*
X708884Y614207D01*
X707899Y611830D01*
X707564Y609280D01*
X707899Y606729D01*
X708884Y604353D01*
X710450Y602312D01*
X712491Y600746D01*
X714867Y599761D01*
X717418Y599426D01*
X719968Y599761D01*
X722345Y600746D01*
X724386Y602312D01*
X725952Y604353D01*
X726936Y606729D01*
X727272Y609280D01*
X726936Y611830D01*
X725952Y614207D01*
X724386Y616248D01*
X722345Y617814D01*
X719968Y618798D01*
X717418Y619134D01*
D02*
G37*
G36*
X641218D02*
X638667Y618798D01*
X636291Y617814D01*
X634250Y616248D01*
X632684Y614207D01*
X631699Y611830D01*
X631364Y609280D01*
X631699Y606729D01*
X632684Y604353D01*
X634250Y602312D01*
X636291Y600746D01*
X638667Y599761D01*
X641218Y599426D01*
X643768Y599761D01*
X646145Y600746D01*
X648186Y602312D01*
X649752Y604353D01*
X650736Y606729D01*
X651072Y609280D01*
X650736Y611830D01*
X649752Y614207D01*
X648186Y616248D01*
X646145Y617814D01*
X643768Y618798D01*
X641218Y619134D01*
D02*
G37*
G36*
X463418D02*
X460867Y618798D01*
X458491Y617814D01*
X456450Y616248D01*
X454884Y614207D01*
X453899Y611830D01*
X453564Y609280D01*
X453899Y606729D01*
X454884Y604353D01*
X456450Y602312D01*
X458491Y600746D01*
X460867Y599761D01*
X463418Y599426D01*
X465968Y599761D01*
X468345Y600746D01*
X470386Y602312D01*
X471952Y604353D01*
X472936Y606729D01*
X473272Y609280D01*
X472936Y611830D01*
X471952Y614207D01*
X470386Y616248D01*
X468345Y617814D01*
X465968Y618798D01*
X463418Y619134D01*
D02*
G37*
G36*
X387218D02*
X384667Y618798D01*
X382291Y617814D01*
X380250Y616248D01*
X378684Y614207D01*
X377699Y611830D01*
X377364Y609280D01*
X377699Y606729D01*
X378684Y604353D01*
X380250Y602312D01*
X382291Y600746D01*
X384667Y599761D01*
X387218Y599426D01*
X389768Y599761D01*
X392145Y600746D01*
X394186Y602312D01*
X395752Y604353D01*
X396736Y606729D01*
X397072Y609280D01*
X396736Y611830D01*
X395752Y614207D01*
X394186Y616248D01*
X392145Y617814D01*
X389768Y618798D01*
X387218Y619134D01*
D02*
G37*
G36*
X311018D02*
X308467Y618798D01*
X306091Y617814D01*
X304050Y616248D01*
X302484Y614207D01*
X301499Y611830D01*
X301164Y609280D01*
X301499Y606729D01*
X302484Y604353D01*
X304050Y602312D01*
X306091Y600746D01*
X308467Y599761D01*
X311018Y599426D01*
X313568Y599761D01*
X315945Y600746D01*
X317986Y602312D01*
X319552Y604353D01*
X320536Y606729D01*
X320872Y609280D01*
X320536Y611830D01*
X319552Y614207D01*
X317986Y616248D01*
X315945Y617814D01*
X313568Y618798D01*
X311018Y619134D01*
D02*
G37*
G36*
X270378Y619134D02*
X267827Y618798D01*
X265451Y617814D01*
X263410Y616248D01*
X261844Y614207D01*
X260859Y611830D01*
X260523Y609280D01*
X260859Y606729D01*
X261844Y604353D01*
X263410Y602312D01*
X265451Y600746D01*
X267827Y599761D01*
X270378Y599426D01*
X272928Y599761D01*
X275305Y600746D01*
X277346Y602312D01*
X278912Y604353D01*
X279896Y606729D01*
X280232Y609280D01*
X279896Y611830D01*
X278912Y614207D01*
X277346Y616248D01*
X275305Y617814D01*
X272928Y618798D01*
X270378Y619134D01*
D02*
G37*
G36*
X219578D02*
X217027Y618798D01*
X214651Y617814D01*
X212610Y616248D01*
X211044Y614207D01*
X210059Y611830D01*
X209723Y609280D01*
X210059Y606729D01*
X211044Y604353D01*
X212610Y602312D01*
X214651Y600746D01*
X217027Y599761D01*
X219578Y599426D01*
X222128Y599761D01*
X224505Y600746D01*
X226546Y602312D01*
X228112Y604353D01*
X229096Y606729D01*
X229432Y609280D01*
X229096Y611830D01*
X228112Y614207D01*
X226546Y616248D01*
X224505Y617814D01*
X222128Y618798D01*
X219578Y619134D01*
D02*
G37*
G36*
X194178D02*
X191627Y618798D01*
X189251Y617814D01*
X187210Y616248D01*
X185644Y614207D01*
X184659Y611830D01*
X184324Y609280D01*
X184659Y606729D01*
X185644Y604353D01*
X187210Y602312D01*
X189251Y600746D01*
X191627Y599761D01*
X194178Y599426D01*
X196728Y599761D01*
X199105Y600746D01*
X201146Y602312D01*
X202712Y604353D01*
X203696Y606729D01*
X204032Y609280D01*
X203696Y611830D01*
X202712Y614207D01*
X201146Y616248D01*
X199105Y617814D01*
X196728Y618798D01*
X194178Y619134D01*
D02*
G37*
G36*
X168778D02*
X166227Y618798D01*
X163851Y617814D01*
X161810Y616248D01*
X160244Y614207D01*
X159259Y611830D01*
X158924Y609280D01*
X159259Y606729D01*
X160244Y604353D01*
X161810Y602312D01*
X163851Y600746D01*
X166227Y599761D01*
X168778Y599426D01*
X171328Y599761D01*
X173705Y600746D01*
X175746Y602312D01*
X177312Y604353D01*
X178296Y606729D01*
X178632Y609280D01*
X178296Y611830D01*
X177312Y614207D01*
X175746Y616248D01*
X173705Y617814D01*
X171328Y618798D01*
X168778Y619134D01*
D02*
G37*
G36*
X143378D02*
X140827Y618798D01*
X138451Y617814D01*
X136410Y616248D01*
X134844Y614207D01*
X133859Y611830D01*
X133524Y609280D01*
X133859Y606729D01*
X134844Y604353D01*
X136410Y602312D01*
X138451Y600746D01*
X140827Y599761D01*
X143378Y599426D01*
X145928Y599761D01*
X148305Y600746D01*
X150346Y602312D01*
X151912Y604353D01*
X152896Y606729D01*
X153232Y609280D01*
X152896Y611830D01*
X151912Y614207D01*
X150346Y616248D01*
X148305Y617814D01*
X145928Y618798D01*
X143378Y619134D01*
D02*
G37*
G36*
X92578D02*
X90027Y618798D01*
X87651Y617814D01*
X85610Y616248D01*
X84044Y614207D01*
X83059Y611830D01*
X82724Y609280D01*
X83059Y606729D01*
X84044Y604353D01*
X85610Y602312D01*
X87651Y600746D01*
X90027Y599761D01*
X92578Y599426D01*
X95128Y599761D01*
X97505Y600746D01*
X99546Y602312D01*
X101112Y604353D01*
X102096Y606729D01*
X102432Y609280D01*
X102096Y611830D01*
X101112Y614207D01*
X99546Y616248D01*
X97505Y617814D01*
X95128Y618798D01*
X92578Y619134D01*
D02*
G37*
G36*
X67178D02*
X64627Y618798D01*
X62251Y617814D01*
X60210Y616248D01*
X58644Y614207D01*
X57659Y611830D01*
X57323Y609280D01*
X57659Y606729D01*
X58644Y604353D01*
X60210Y602312D01*
X62251Y600746D01*
X64627Y599761D01*
X67178Y599426D01*
X69728Y599761D01*
X72105Y600746D01*
X74146Y602312D01*
X75712Y604353D01*
X76696Y606729D01*
X77032Y609280D01*
X76696Y611830D01*
X75712Y614207D01*
X74146Y616248D01*
X72105Y617814D01*
X69728Y618798D01*
X67178Y619134D01*
D02*
G37*
G36*
X41778D02*
X39227Y618798D01*
X36851Y617814D01*
X34810Y616248D01*
X33244Y614207D01*
X32259Y611830D01*
X31923Y609280D01*
X32259Y606729D01*
X33244Y604353D01*
X34810Y602312D01*
X36851Y600746D01*
X39227Y599761D01*
X41778Y599426D01*
X44328Y599761D01*
X46705Y600746D01*
X48746Y602312D01*
X50312Y604353D01*
X51296Y606729D01*
X51632Y609280D01*
X51296Y611830D01*
X50312Y614207D01*
X48746Y616248D01*
X46705Y617814D01*
X44328Y618798D01*
X41778Y619134D01*
D02*
G37*
G36*
X615818Y593734D02*
X613267Y593399D01*
X610891Y592414D01*
X608850Y590848D01*
X607284Y588807D01*
X606299Y586430D01*
X605964Y583880D01*
X606299Y581329D01*
X607284Y578953D01*
X608850Y576912D01*
X610891Y575346D01*
X613267Y574361D01*
X615818Y574026D01*
X618368Y574361D01*
X620745Y575346D01*
X622786Y576912D01*
X624352Y578953D01*
X625336Y581329D01*
X625672Y583880D01*
X625336Y586430D01*
X624352Y588807D01*
X622786Y590848D01*
X620745Y592414D01*
X618368Y593399D01*
X615818Y593734D01*
D02*
G37*
G36*
X539618D02*
X537067Y593399D01*
X534691Y592414D01*
X532650Y590848D01*
X531084Y588807D01*
X530099Y586430D01*
X529764Y583880D01*
X530099Y581329D01*
X531084Y578953D01*
X532650Y576912D01*
X534691Y575346D01*
X537067Y574361D01*
X539618Y574026D01*
X542168Y574361D01*
X544545Y575346D01*
X546586Y576912D01*
X548152Y578953D01*
X549136Y581329D01*
X549472Y583880D01*
X549136Y586430D01*
X548152Y588807D01*
X546586Y590848D01*
X544545Y592414D01*
X542168Y593399D01*
X539618Y593734D01*
D02*
G37*
G36*
X514218D02*
X511667Y593399D01*
X509291Y592414D01*
X507250Y590848D01*
X505684Y588807D01*
X504699Y586430D01*
X504364Y583880D01*
X504699Y581329D01*
X505684Y578953D01*
X507250Y576912D01*
X509291Y575346D01*
X511667Y574361D01*
X514218Y574026D01*
X516768Y574361D01*
X519145Y575346D01*
X521186Y576912D01*
X522752Y578953D01*
X523736Y581329D01*
X524072Y583880D01*
X523736Y586430D01*
X522752Y588807D01*
X521186Y590848D01*
X519145Y592414D01*
X516768Y593399D01*
X514218Y593734D01*
D02*
G37*
G36*
X387218D02*
X384667Y593399D01*
X382291Y592414D01*
X380250Y590848D01*
X378684Y588807D01*
X377699Y586430D01*
X377364Y583880D01*
X377699Y581329D01*
X378684Y578953D01*
X380250Y576912D01*
X382291Y575346D01*
X384667Y574361D01*
X387218Y574026D01*
X389768Y574361D01*
X392145Y575346D01*
X394186Y576912D01*
X395752Y578953D01*
X396736Y581329D01*
X397072Y583880D01*
X396736Y586430D01*
X395752Y588807D01*
X394186Y590848D01*
X392145Y592414D01*
X389768Y593399D01*
X387218Y593734D01*
D02*
G37*
G36*
X270378Y593734D02*
X267827Y593398D01*
X265451Y592414D01*
X263410Y590848D01*
X261844Y588807D01*
X260859Y586430D01*
X260523Y583880D01*
X260859Y581329D01*
X261844Y578953D01*
X263410Y576912D01*
X265451Y575346D01*
X267827Y574361D01*
X270378Y574026D01*
X272928Y574361D01*
X275305Y575346D01*
X277346Y576912D01*
X278912Y578953D01*
X279896Y581329D01*
X280232Y583880D01*
X279896Y586430D01*
X278912Y588807D01*
X277346Y590848D01*
X275305Y592414D01*
X272928Y593398D01*
X270378Y593734D01*
D02*
G37*
G36*
X244978D02*
X242427Y593398D01*
X240051Y592414D01*
X238010Y590848D01*
X236444Y588807D01*
X235459Y586430D01*
X235124Y583880D01*
X235459Y581329D01*
X236444Y578953D01*
X238010Y576912D01*
X240051Y575346D01*
X242427Y574361D01*
X244978Y574026D01*
X247528Y574361D01*
X249905Y575346D01*
X251946Y576912D01*
X253512Y578953D01*
X254496Y581329D01*
X254832Y583880D01*
X254496Y586430D01*
X253512Y588807D01*
X251946Y590848D01*
X249905Y592414D01*
X247528Y593398D01*
X244978Y593734D01*
D02*
G37*
G36*
X219578D02*
X217027Y593398D01*
X214651Y592414D01*
X212610Y590848D01*
X211044Y588807D01*
X210059Y586430D01*
X209723Y583880D01*
X210059Y581329D01*
X211044Y578953D01*
X212610Y576912D01*
X214651Y575346D01*
X217027Y574361D01*
X219578Y574026D01*
X222128Y574361D01*
X224505Y575346D01*
X226546Y576912D01*
X228112Y578953D01*
X229096Y581329D01*
X229432Y583880D01*
X229096Y586430D01*
X228112Y588807D01*
X226546Y590848D01*
X224505Y592414D01*
X222128Y593398D01*
X219578Y593734D01*
D02*
G37*
G36*
X194178D02*
X191627Y593398D01*
X189251Y592414D01*
X187210Y590848D01*
X185644Y588807D01*
X184659Y586430D01*
X184324Y583880D01*
X184659Y581329D01*
X185644Y578953D01*
X187210Y576912D01*
X189251Y575346D01*
X191627Y574361D01*
X194178Y574026D01*
X196728Y574361D01*
X199105Y575346D01*
X201146Y576912D01*
X202712Y578953D01*
X203696Y581329D01*
X204032Y583880D01*
X203696Y586430D01*
X202712Y588807D01*
X201146Y590848D01*
X199105Y592414D01*
X196728Y593398D01*
X194178Y593734D01*
D02*
G37*
G36*
X168778D02*
X166227Y593398D01*
X163851Y592414D01*
X161810Y590848D01*
X160244Y588807D01*
X159259Y586430D01*
X158924Y583880D01*
X159259Y581329D01*
X160244Y578953D01*
X161810Y576912D01*
X163851Y575346D01*
X166227Y574361D01*
X168778Y574026D01*
X171328Y574361D01*
X173705Y575346D01*
X175746Y576912D01*
X177312Y578953D01*
X178296Y581329D01*
X178632Y583880D01*
X178296Y586430D01*
X177312Y588807D01*
X175746Y590848D01*
X173705Y592414D01*
X171328Y593398D01*
X168778Y593734D01*
D02*
G37*
G36*
X143378D02*
X140827Y593398D01*
X138451Y592414D01*
X136410Y590848D01*
X134844Y588807D01*
X133859Y586430D01*
X133524Y583880D01*
X133859Y581329D01*
X134844Y578953D01*
X136410Y576912D01*
X138451Y575346D01*
X140827Y574361D01*
X143378Y574026D01*
X145928Y574361D01*
X148305Y575346D01*
X150346Y576912D01*
X151912Y578953D01*
X152896Y581329D01*
X153232Y583880D01*
X152896Y586430D01*
X151912Y588807D01*
X150346Y590848D01*
X148305Y592414D01*
X145928Y593398D01*
X143378Y593734D01*
D02*
G37*
G36*
X117978D02*
X115427Y593398D01*
X113051Y592414D01*
X111010Y590848D01*
X109444Y588807D01*
X108459Y586430D01*
X108124Y583880D01*
X108459Y581329D01*
X109444Y578953D01*
X111010Y576912D01*
X113051Y575346D01*
X115427Y574361D01*
X117978Y574026D01*
X120528Y574361D01*
X122905Y575346D01*
X124946Y576912D01*
X126512Y578953D01*
X127496Y581329D01*
X127832Y583880D01*
X127496Y586430D01*
X126512Y588807D01*
X124946Y590848D01*
X122905Y592414D01*
X120528Y593398D01*
X117978Y593734D01*
D02*
G37*
G36*
X92578D02*
X90027Y593398D01*
X87651Y592414D01*
X85610Y590848D01*
X84044Y588807D01*
X83059Y586430D01*
X82724Y583880D01*
X83059Y581329D01*
X84044Y578953D01*
X85610Y576912D01*
X87651Y575346D01*
X90027Y574361D01*
X92578Y574026D01*
X95128Y574361D01*
X97505Y575346D01*
X99546Y576912D01*
X101112Y578953D01*
X102096Y581329D01*
X102432Y583880D01*
X102096Y586430D01*
X101112Y588807D01*
X99546Y590848D01*
X97505Y592414D01*
X95128Y593398D01*
X92578Y593734D01*
D02*
G37*
G36*
X67178D02*
X64627Y593398D01*
X62251Y592414D01*
X60210Y590848D01*
X58644Y588807D01*
X57659Y586430D01*
X57323Y583880D01*
X57659Y581329D01*
X58644Y578953D01*
X60210Y576912D01*
X62251Y575346D01*
X64627Y574361D01*
X67178Y574026D01*
X69728Y574361D01*
X72105Y575346D01*
X74146Y576912D01*
X75712Y578953D01*
X76696Y581329D01*
X77032Y583880D01*
X76696Y586430D01*
X75712Y588807D01*
X74146Y590848D01*
X72105Y592414D01*
X69728Y593398D01*
X67178Y593734D01*
D02*
G37*
G36*
X315143Y593760D02*
X306893D01*
X304690Y593322D01*
X302823Y592075D01*
X301575Y590207D01*
X301137Y588005D01*
Y579755D01*
X301575Y577552D01*
X302823Y575685D01*
X304690Y574437D01*
X306893Y573999D01*
X315143D01*
X317346Y574437D01*
X319213Y575685D01*
X320460Y577552D01*
X320899Y579755D01*
Y588005D01*
X320460Y590207D01*
X319213Y592075D01*
X317346Y593322D01*
X315143Y593760D01*
D02*
G37*
G36*
X45903Y593760D02*
X37653D01*
X35450Y593322D01*
X33583Y592075D01*
X32335Y590207D01*
X31897Y588005D01*
Y579755D01*
X32335Y577552D01*
X33583Y575685D01*
X35450Y574437D01*
X37653Y573999D01*
X45903D01*
X48105Y574437D01*
X49973Y575685D01*
X51220Y577552D01*
X51658Y579755D01*
Y588005D01*
X51220Y590207D01*
X49973Y592075D01*
X48105Y593322D01*
X45903Y593760D01*
D02*
G37*
G36*
X438800Y562551D02*
X436250Y562215D01*
X433873Y561231D01*
X431832Y559665D01*
X430266Y557624D01*
X429282Y555247D01*
X428946Y552697D01*
X429282Y550146D01*
X430266Y547770D01*
X431832Y545729D01*
X433873Y544163D01*
X436250Y543178D01*
X438800Y542843D01*
X441351Y543178D01*
X443727Y544163D01*
X445768Y545729D01*
X447334Y547770D01*
X448318Y550146D01*
X448654Y552697D01*
X448318Y555247D01*
X447334Y557624D01*
X445768Y559665D01*
X443727Y561231D01*
X441351Y562215D01*
X438800Y562551D01*
D02*
G37*
G36*
X219700D02*
X217150Y562215D01*
X214773Y561231D01*
X212732Y559665D01*
X211166Y557624D01*
X210182Y555247D01*
X209846Y552697D01*
X210182Y550146D01*
X211166Y547770D01*
X212732Y545729D01*
X214773Y544163D01*
X217150Y543178D01*
X219700Y542843D01*
X222250Y543178D01*
X224627Y544163D01*
X226668Y545729D01*
X228234Y547770D01*
X229219Y550146D01*
X229554Y552697D01*
X229219Y555247D01*
X228234Y557624D01*
X226668Y559665D01*
X224627Y561231D01*
X222250Y562215D01*
X219700Y562551D01*
D02*
G37*
G36*
X194300D02*
X191749Y562215D01*
X189373Y561231D01*
X187332Y559665D01*
X185766Y557624D01*
X184781Y555247D01*
X184446Y552697D01*
X184781Y550146D01*
X185766Y547770D01*
X187332Y545729D01*
X189373Y544163D01*
X191749Y543178D01*
X194300Y542843D01*
X196850Y543178D01*
X199227Y544163D01*
X201268Y545729D01*
X202834Y547770D01*
X203818Y550146D01*
X204154Y552697D01*
X203818Y555247D01*
X202834Y557624D01*
X201268Y559665D01*
X199227Y561231D01*
X196850Y562215D01*
X194300Y562551D01*
D02*
G37*
G36*
X455624Y533086D02*
X446584D01*
Y531145D01*
X436320D01*
Y533086D01*
X427280D01*
Y523046D01*
X436320D01*
Y524987D01*
X446584D01*
Y523046D01*
X455624D01*
Y533086D01*
D02*
G37*
G36*
X938384Y535836D02*
X936029Y535526D01*
X933835Y534617D01*
X931951Y533171D01*
X930505Y531287D01*
X930348Y530906D01*
X914140D01*
Y531816D01*
X905100D01*
Y521776D01*
X905457D01*
Y518362D01*
X904554D01*
Y509322D01*
X914594D01*
Y518362D01*
X913737D01*
Y521776D01*
X914140D01*
Y522627D01*
X930323D01*
X930505Y522189D01*
X931951Y520305D01*
X933835Y518859D01*
X934244Y518689D01*
Y470758D01*
X929364D01*
Y452718D01*
X947404D01*
Y470758D01*
X942523D01*
Y518689D01*
X942933Y518859D01*
X944817Y520305D01*
X946263Y522189D01*
X947172Y524383D01*
X947482Y526738D01*
X947172Y529093D01*
X946263Y531287D01*
X944817Y533171D01*
X942933Y534617D01*
X940739Y535526D01*
X938384Y535836D01*
D02*
G37*
G36*
X667452Y555146D02*
X657412D01*
Y546106D01*
X659734D01*
Y529792D01*
X657920D01*
Y520752D01*
X667960D01*
Y529792D01*
X665892D01*
Y546106D01*
X667452D01*
Y555146D01*
D02*
G37*
G36*
X596244Y527143D02*
X589852Y520751D01*
X591224Y519379D01*
X587071Y515225D01*
X586451Y514298D01*
X582228D01*
Y505258D01*
X592268D01*
Y510980D01*
X592327Y511278D01*
Y511773D01*
X595579Y515024D01*
X596951Y513652D01*
X603343Y520044D01*
X596244Y527143D01*
D02*
G37*
G36*
X482875Y336835D02*
X428985D01*
X427807Y336601D01*
X426808Y335933D01*
X425051Y334176D01*
X424383Y333177D01*
X424149Y331999D01*
Y167965D01*
X417016Y160833D01*
X415168Y161599D01*
X412618Y161934D01*
X410067Y161599D01*
X407691Y160614D01*
X405650Y159048D01*
X404084Y157007D01*
X403100Y154630D01*
X402764Y152080D01*
X403100Y149529D01*
X404084Y147153D01*
X405650Y145112D01*
X407691Y143546D01*
X410067Y142562D01*
X412618Y142226D01*
X415168Y142562D01*
X417545Y143546D01*
X419586Y145112D01*
X421152Y147153D01*
X422136Y149529D01*
X422472Y152080D01*
X422136Y154630D01*
X421371Y156479D01*
X429405Y164513D01*
X430073Y165512D01*
X430307Y166690D01*
Y199020D01*
X431961Y199686D01*
X432307Y199739D01*
X433708Y198664D01*
X435376Y197973D01*
X435425Y197953D01*
X437268Y197710D01*
Y197712D01*
X458010D01*
X458141Y195712D01*
X456906Y195549D01*
X456857Y195529D01*
X455189Y194838D01*
X453714Y193706D01*
X452582Y192232D01*
X451871Y190514D01*
X451628Y188671D01*
X451871Y186828D01*
X452582Y185111D01*
X453714Y183636D01*
X455189Y182504D01*
X456857Y181813D01*
X456906Y181793D01*
X458749Y181550D01*
Y181552D01*
X479968D01*
X480955Y180954D01*
X481553Y179967D01*
Y175265D01*
X474073Y167785D01*
X473405Y166786D01*
X473171Y165608D01*
Y158704D01*
X471171Y158025D01*
X470386Y159048D01*
X468345Y160614D01*
X465969Y161599D01*
X463418Y161934D01*
X460868Y161599D01*
X458491Y160614D01*
X456450Y159048D01*
X454884Y157007D01*
X453899Y154630D01*
X453564Y152080D01*
X453899Y149529D01*
X454884Y147153D01*
X456450Y145112D01*
X458491Y143546D01*
X460868Y142562D01*
X463418Y142226D01*
X465969Y142562D01*
X468345Y143546D01*
X470386Y145112D01*
X471171Y146135D01*
X473171Y145456D01*
Y133304D01*
X471171Y132625D01*
X470386Y133648D01*
X468345Y135214D01*
X465969Y136199D01*
X463418Y136534D01*
X460868Y136199D01*
X458491Y135214D01*
X456450Y133648D01*
X454884Y131607D01*
X453899Y129230D01*
X453564Y126680D01*
X453899Y124129D01*
X454884Y121753D01*
X456450Y119712D01*
X458491Y118146D01*
X460868Y117162D01*
X462447Y116954D01*
X463167Y114846D01*
X437352Y89031D01*
X415909D01*
X412595Y92344D01*
X405496Y85245D01*
X407576Y83165D01*
X403140Y78730D01*
X402450Y79015D01*
X399900Y79351D01*
X397350Y79015D01*
X394973Y78031D01*
X392932Y76465D01*
X391366Y74424D01*
X390382Y72048D01*
X390046Y69497D01*
X390382Y66947D01*
X391366Y64570D01*
X392932Y62529D01*
X394973Y60963D01*
X397350Y59978D01*
X399900Y59643D01*
X402450Y59978D01*
X404827Y60963D01*
X406868Y62529D01*
X408434Y64570D01*
X409418Y66947D01*
X409754Y69497D01*
X409418Y72048D01*
X408434Y74424D01*
X408048Y74928D01*
X414419Y81299D01*
X414588Y81552D01*
X415909Y82872D01*
X438628D01*
X439806Y83107D01*
X440805Y83774D01*
X478427Y121397D01*
X478615Y121433D01*
X480311Y121370D01*
X480704Y121205D01*
X481850Y119712D01*
X483891Y118146D01*
X486268Y117162D01*
X488818Y116826D01*
X491368Y117162D01*
X493745Y118146D01*
X495786Y119712D01*
X497352Y121753D01*
X498336Y124129D01*
X498672Y126680D01*
X498336Y129230D01*
X497352Y131607D01*
X495786Y133648D01*
X493745Y135214D01*
X491368Y136199D01*
X488818Y136534D01*
X486268Y136199D01*
X483891Y135214D01*
X481850Y133648D01*
X481329Y132969D01*
X479329Y133648D01*
Y159963D01*
Y164333D01*
X486809Y171813D01*
X487477Y172812D01*
X487711Y173990D01*
Y180591D01*
X487713D01*
X487470Y182434D01*
X487450Y182483D01*
X486759Y184152D01*
X485627Y185626D01*
X484152Y186758D01*
X482484Y187449D01*
X482435Y187469D01*
X481039Y187653D01*
Y189670D01*
X482577Y189873D01*
X482626Y189893D01*
X484295Y190584D01*
X485769Y191716D01*
X486901Y193191D01*
X487612Y194908D01*
X487855Y196751D01*
X487612Y198594D01*
X486901Y200312D01*
X485769Y201786D01*
X484295Y202918D01*
X482626Y203609D01*
X482577Y203629D01*
X481110Y203822D01*
Y205840D01*
X482577Y206033D01*
X482626Y206053D01*
X484295Y206744D01*
X485769Y207876D01*
X486901Y209351D01*
X487612Y211068D01*
X487855Y212911D01*
X487612Y214754D01*
X486901Y216472D01*
X485769Y217946D01*
X484295Y219078D01*
X482626Y219769D01*
X482577Y219789D01*
X481110Y219982D01*
Y222000D01*
X482577Y222193D01*
X482626Y222213D01*
X484295Y222904D01*
X485769Y224036D01*
X486901Y225511D01*
X487612Y227228D01*
X487855Y229071D01*
X487612Y230914D01*
X486901Y232631D01*
X485769Y234106D01*
X484295Y235238D01*
X482626Y235929D01*
X482577Y235949D01*
X481110Y236143D01*
Y238160D01*
X482577Y238353D01*
X482626Y238373D01*
X484295Y239064D01*
X485769Y240196D01*
X486901Y241671D01*
X487612Y243388D01*
X487855Y245231D01*
X487612Y247074D01*
X486901Y248792D01*
X485769Y250266D01*
X484295Y251398D01*
X482626Y252089D01*
X482577Y252109D01*
X481110Y252302D01*
Y254320D01*
X482577Y254513D01*
X482626Y254533D01*
X484295Y255224D01*
X485769Y256356D01*
X486901Y257831D01*
X487612Y259548D01*
X487855Y261391D01*
X487612Y263234D01*
X486901Y264951D01*
X485769Y266426D01*
X484295Y267558D01*
X482626Y268249D01*
X482577Y268269D01*
X481110Y268463D01*
Y270480D01*
X482577Y270673D01*
X482626Y270693D01*
X484295Y271384D01*
X485769Y272516D01*
X486901Y273991D01*
X487612Y275708D01*
X487855Y277551D01*
X487612Y279394D01*
X486901Y281112D01*
X485769Y282586D01*
X484295Y283718D01*
X482626Y284409D01*
X482577Y284429D01*
X481110Y284622D01*
Y286640D01*
X482577Y286833D01*
X482626Y286853D01*
X484295Y287544D01*
X485769Y288676D01*
X486901Y290151D01*
X487612Y291868D01*
X487855Y293711D01*
X487612Y295554D01*
X486901Y297271D01*
X485769Y298746D01*
X484295Y299878D01*
X482626Y300569D01*
X482577Y300589D01*
X481110Y300782D01*
Y302800D01*
X482577Y302993D01*
X482626Y303013D01*
X484295Y303704D01*
X485769Y304836D01*
X486901Y306311D01*
X487612Y308028D01*
X487855Y309871D01*
X487612Y311714D01*
X486901Y313431D01*
X485769Y314906D01*
X484295Y316038D01*
X482626Y316729D01*
X482577Y316749D01*
X481039Y316952D01*
Y318969D01*
X482435Y319153D01*
X482484Y319173D01*
X484152Y319864D01*
X485627Y320996D01*
X486759Y322471D01*
X487450Y324139D01*
X487470Y324188D01*
X487713Y326031D01*
X487711D01*
Y331999D01*
X487477Y333177D01*
X486809Y334176D01*
X485217Y335768D01*
X485217Y335768D01*
X485052Y335933D01*
X484053Y336601D01*
X482875Y336835D01*
D02*
G37*
G36*
X615818Y161934D02*
X613268Y161599D01*
X610891Y160614D01*
X608850Y159048D01*
X607284Y157007D01*
X606300Y154630D01*
X605964Y152080D01*
X606300Y149529D01*
X607284Y147153D01*
X608850Y145112D01*
X610891Y143546D01*
X613268Y142562D01*
X615818Y142226D01*
X618368Y142562D01*
X620745Y143546D01*
X622786Y145112D01*
X624352Y147153D01*
X625336Y149529D01*
X625672Y152080D01*
X625336Y154630D01*
X624352Y157007D01*
X622786Y159048D01*
X620745Y160614D01*
X618368Y161599D01*
X615818Y161934D01*
D02*
G37*
G36*
X590418D02*
X587868Y161599D01*
X585491Y160614D01*
X583450Y159048D01*
X581884Y157007D01*
X580900Y154630D01*
X580564Y152080D01*
X580900Y149529D01*
X581884Y147153D01*
X583450Y145112D01*
X585491Y143546D01*
X587868Y142562D01*
X590418Y142226D01*
X592968Y142562D01*
X595345Y143546D01*
X597386Y145112D01*
X598952Y147153D01*
X599936Y149529D01*
X600272Y152080D01*
X599936Y154630D01*
X598952Y157007D01*
X597386Y159048D01*
X595345Y160614D01*
X592968Y161599D01*
X590418Y161934D01*
D02*
G37*
G36*
X565018D02*
X562467Y161599D01*
X560091Y160614D01*
X558050Y159048D01*
X556484Y157007D01*
X555499Y154630D01*
X555164Y152080D01*
X555499Y149529D01*
X556484Y147153D01*
X558050Y145112D01*
X560091Y143546D01*
X562467Y142562D01*
X565018Y142226D01*
X567569Y142562D01*
X569945Y143546D01*
X571986Y145112D01*
X573552Y147153D01*
X574537Y149529D01*
X574872Y152080D01*
X574537Y154630D01*
X573552Y157007D01*
X571986Y159048D01*
X569945Y160614D01*
X567569Y161599D01*
X565018Y161934D01*
D02*
G37*
G36*
X539618D02*
X537067Y161599D01*
X534691Y160614D01*
X532650Y159048D01*
X531084Y157007D01*
X530099Y154630D01*
X529764Y152080D01*
X530099Y149529D01*
X531084Y147153D01*
X532650Y145112D01*
X534691Y143546D01*
X537067Y142562D01*
X539618Y142226D01*
X542169Y142562D01*
X544545Y143546D01*
X546586Y145112D01*
X548152Y147153D01*
X549137Y149529D01*
X549472Y152080D01*
X549137Y154630D01*
X548152Y157007D01*
X546586Y159048D01*
X544545Y160614D01*
X542169Y161599D01*
X539618Y161934D01*
D02*
G37*
G36*
X514218D02*
X511668Y161599D01*
X509291Y160614D01*
X507250Y159048D01*
X505684Y157007D01*
X504700Y154630D01*
X504364Y152080D01*
X504700Y149529D01*
X505684Y147153D01*
X507250Y145112D01*
X509291Y143546D01*
X511668Y142562D01*
X514218Y142226D01*
X516768Y142562D01*
X519145Y143546D01*
X521186Y145112D01*
X522752Y147153D01*
X523736Y149529D01*
X524072Y152080D01*
X523736Y154630D01*
X522752Y157007D01*
X521186Y159048D01*
X519145Y160614D01*
X516768Y161599D01*
X514218Y161934D01*
D02*
G37*
G36*
X438018D02*
X435467Y161599D01*
X433091Y160614D01*
X431050Y159048D01*
X429484Y157007D01*
X428499Y154630D01*
X428164Y152080D01*
X428499Y149529D01*
X429484Y147153D01*
X431050Y145112D01*
X433091Y143546D01*
X435467Y142562D01*
X438018Y142226D01*
X440569Y142562D01*
X442945Y143546D01*
X444986Y145112D01*
X446552Y147153D01*
X447537Y149529D01*
X447872Y152080D01*
X447537Y154630D01*
X446552Y157007D01*
X444986Y159048D01*
X442945Y160614D01*
X440569Y161599D01*
X438018Y161934D01*
D02*
G37*
G36*
X387218D02*
X384668Y161599D01*
X382291Y160614D01*
X380250Y159048D01*
X378684Y157007D01*
X377700Y154630D01*
X377364Y152080D01*
X377700Y149529D01*
X378684Y147153D01*
X380250Y145112D01*
X382291Y143546D01*
X384668Y142562D01*
X387218Y142226D01*
X389768Y142562D01*
X392145Y143546D01*
X394186Y145112D01*
X395752Y147153D01*
X396736Y149529D01*
X397072Y152080D01*
X396736Y154630D01*
X395752Y157007D01*
X394186Y159048D01*
X392145Y160614D01*
X389768Y161599D01*
X387218Y161934D01*
D02*
G37*
G36*
X361818D02*
X359268Y161599D01*
X356891Y160614D01*
X354850Y159048D01*
X353284Y157007D01*
X352299Y154630D01*
X351964Y152080D01*
X352299Y149529D01*
X353284Y147153D01*
X354850Y145112D01*
X356891Y143546D01*
X359268Y142562D01*
X361818Y142226D01*
X364369Y142562D01*
X366745Y143546D01*
X368786Y145112D01*
X370352Y147153D01*
X371337Y149529D01*
X371672Y152080D01*
X371337Y154630D01*
X370352Y157007D01*
X368786Y159048D01*
X366745Y160614D01*
X364369Y161599D01*
X361818Y161934D01*
D02*
G37*
G36*
X311018Y161934D02*
X308468Y161598D01*
X306091Y160614D01*
X304050Y159048D01*
X302484Y157007D01*
X301500Y154630D01*
X301164Y152080D01*
X301500Y149529D01*
X302484Y147153D01*
X304050Y145112D01*
X306091Y143546D01*
X308468Y142562D01*
X311018Y142226D01*
X313569Y142562D01*
X315945Y143546D01*
X317986Y145112D01*
X319552Y147153D01*
X320537Y149529D01*
X320872Y152080D01*
X320537Y154630D01*
X319552Y157007D01*
X317986Y159048D01*
X315945Y160614D01*
X313569Y161598D01*
X311018Y161934D01*
D02*
G37*
G36*
X285618D02*
X283068Y161598D01*
X280691Y160614D01*
X278650Y159048D01*
X277084Y157007D01*
X276100Y154630D01*
X275764Y152080D01*
X276100Y149529D01*
X277084Y147153D01*
X278650Y145112D01*
X280691Y143546D01*
X283068Y142562D01*
X285618Y142226D01*
X288169Y142562D01*
X290545Y143546D01*
X292586Y145112D01*
X294152Y147153D01*
X295137Y149529D01*
X295472Y152080D01*
X295137Y154630D01*
X294152Y157007D01*
X292586Y159048D01*
X290545Y160614D01*
X288169Y161598D01*
X285618Y161934D01*
D02*
G37*
G36*
X260218D02*
X257668Y161598D01*
X255291Y160614D01*
X253250Y159048D01*
X251684Y157007D01*
X250700Y154630D01*
X250364Y152080D01*
X250700Y149529D01*
X251684Y147153D01*
X253250Y145112D01*
X255291Y143546D01*
X257668Y142562D01*
X260218Y142226D01*
X262769Y142562D01*
X265145Y143546D01*
X267186Y145112D01*
X268752Y147153D01*
X269737Y149529D01*
X270072Y152080D01*
X269737Y154630D01*
X268752Y157007D01*
X267186Y159048D01*
X265145Y160614D01*
X262769Y161598D01*
X260218Y161934D01*
D02*
G37*
G36*
X234818D02*
X232268Y161598D01*
X229891Y160614D01*
X227850Y159048D01*
X226284Y157007D01*
X225300Y154630D01*
X224964Y152080D01*
X225300Y149529D01*
X226284Y147153D01*
X227850Y145112D01*
X229891Y143546D01*
X232268Y142562D01*
X234818Y142226D01*
X237369Y142562D01*
X239745Y143546D01*
X241786Y145112D01*
X243352Y147153D01*
X244337Y149529D01*
X244672Y152080D01*
X244337Y154630D01*
X243352Y157007D01*
X241786Y159048D01*
X239745Y160614D01*
X237369Y161598D01*
X234818Y161934D01*
D02*
G37*
G36*
X209418D02*
X206868Y161598D01*
X204491Y160614D01*
X202450Y159048D01*
X200884Y157007D01*
X199900Y154630D01*
X199564Y152080D01*
X199900Y149529D01*
X200884Y147153D01*
X202450Y145112D01*
X204491Y143546D01*
X206868Y142562D01*
X209418Y142226D01*
X211969Y142562D01*
X214345Y143546D01*
X216386Y145112D01*
X217952Y147153D01*
X218937Y149529D01*
X219272Y152080D01*
X218937Y154630D01*
X217952Y157007D01*
X216386Y159048D01*
X214345Y160614D01*
X211969Y161598D01*
X209418Y161934D01*
D02*
G37*
G36*
X184018D02*
X181468Y161598D01*
X179091Y160614D01*
X177050Y159048D01*
X175484Y157007D01*
X174500Y154630D01*
X174164Y152080D01*
X174500Y149529D01*
X175484Y147153D01*
X177050Y145112D01*
X179091Y143546D01*
X181468Y142562D01*
X184018Y142226D01*
X186569Y142562D01*
X188945Y143546D01*
X190986Y145112D01*
X192552Y147153D01*
X193537Y149529D01*
X193872Y152080D01*
X193537Y154630D01*
X192552Y157007D01*
X190986Y159048D01*
X188945Y160614D01*
X186569Y161598D01*
X184018Y161934D01*
D02*
G37*
G36*
X158618D02*
X156068Y161598D01*
X153691Y160614D01*
X151650Y159048D01*
X150084Y157007D01*
X149100Y154630D01*
X148764Y152080D01*
X149100Y149529D01*
X150084Y147153D01*
X151650Y145112D01*
X153691Y143546D01*
X156068Y142562D01*
X158618Y142226D01*
X161169Y142562D01*
X163545Y143546D01*
X165586Y145112D01*
X167152Y147153D01*
X168137Y149529D01*
X168472Y152080D01*
X168137Y154630D01*
X167152Y157007D01*
X165586Y159048D01*
X163545Y160614D01*
X161169Y161598D01*
X158618Y161934D01*
D02*
G37*
G36*
X133218D02*
X130668Y161598D01*
X128291Y160614D01*
X126250Y159048D01*
X124684Y157007D01*
X123700Y154630D01*
X123364Y152080D01*
X123700Y149529D01*
X124684Y147153D01*
X126250Y145112D01*
X128291Y143546D01*
X130668Y142562D01*
X133218Y142226D01*
X135769Y142562D01*
X138145Y143546D01*
X140186Y145112D01*
X141752Y147153D01*
X142737Y149529D01*
X143072Y152080D01*
X142737Y154630D01*
X141752Y157007D01*
X140186Y159048D01*
X138145Y160614D01*
X135769Y161598D01*
X133218Y161934D01*
D02*
G37*
G36*
X692018Y136534D02*
X689467Y136199D01*
X687091Y135214D01*
X685050Y133648D01*
X683484Y131607D01*
X682499Y129230D01*
X682164Y126680D01*
X682499Y124129D01*
X683484Y121753D01*
X685050Y119712D01*
X687091Y118146D01*
X689467Y117162D01*
X692018Y116826D01*
X694568Y117162D01*
X696945Y118146D01*
X698986Y119712D01*
X700552Y121753D01*
X701536Y124129D01*
X701872Y126680D01*
X701536Y129230D01*
X700552Y131607D01*
X698986Y133648D01*
X696945Y135214D01*
X694568Y136199D01*
X692018Y136534D01*
D02*
G37*
G36*
X615818D02*
X613268Y136199D01*
X610891Y135214D01*
X608850Y133648D01*
X607284Y131607D01*
X606300Y129230D01*
X605964Y126680D01*
X606300Y124129D01*
X607284Y121753D01*
X608850Y119712D01*
X610891Y118146D01*
X613268Y117162D01*
X615818Y116826D01*
X618368Y117162D01*
X620745Y118146D01*
X622786Y119712D01*
X624352Y121753D01*
X625336Y124129D01*
X625672Y126680D01*
X625336Y129230D01*
X624352Y131607D01*
X622786Y133648D01*
X620745Y135214D01*
X618368Y136199D01*
X615818Y136534D01*
D02*
G37*
G36*
X590418D02*
X587868Y136199D01*
X585491Y135214D01*
X583450Y133648D01*
X581884Y131607D01*
X580900Y129230D01*
X580564Y126680D01*
X580900Y124129D01*
X581884Y121753D01*
X583450Y119712D01*
X585491Y118146D01*
X587868Y117162D01*
X590418Y116826D01*
X592968Y117162D01*
X595345Y118146D01*
X597386Y119712D01*
X598952Y121753D01*
X599936Y124129D01*
X600272Y126680D01*
X599936Y129230D01*
X598952Y131607D01*
X597386Y133648D01*
X595345Y135214D01*
X592968Y136199D01*
X590418Y136534D01*
D02*
G37*
G36*
X565018D02*
X562467Y136199D01*
X560091Y135214D01*
X558050Y133648D01*
X556484Y131607D01*
X555499Y129230D01*
X555164Y126680D01*
X555499Y124129D01*
X556484Y121753D01*
X558050Y119712D01*
X560091Y118146D01*
X562467Y117162D01*
X565018Y116826D01*
X567569Y117162D01*
X569945Y118146D01*
X571986Y119712D01*
X573552Y121753D01*
X574537Y124129D01*
X574872Y126680D01*
X574537Y129230D01*
X573552Y131607D01*
X571986Y133648D01*
X569945Y135214D01*
X567569Y136199D01*
X565018Y136534D01*
D02*
G37*
G36*
X539618D02*
X537067Y136199D01*
X534691Y135214D01*
X532650Y133648D01*
X531084Y131607D01*
X530099Y129230D01*
X529764Y126680D01*
X530099Y124129D01*
X531084Y121753D01*
X532650Y119712D01*
X534691Y118146D01*
X537067Y117162D01*
X539618Y116826D01*
X542169Y117162D01*
X544545Y118146D01*
X546586Y119712D01*
X548152Y121753D01*
X549137Y124129D01*
X549472Y126680D01*
X549137Y129230D01*
X548152Y131607D01*
X546586Y133648D01*
X544545Y135214D01*
X542169Y136199D01*
X539618Y136534D01*
D02*
G37*
G36*
X514218D02*
X511668Y136199D01*
X509291Y135214D01*
X507250Y133648D01*
X505684Y131607D01*
X504700Y129230D01*
X504364Y126680D01*
X504700Y124129D01*
X505684Y121753D01*
X507250Y119712D01*
X509291Y118146D01*
X511668Y117162D01*
X514218Y116826D01*
X516768Y117162D01*
X519145Y118146D01*
X521186Y119712D01*
X522752Y121753D01*
X523736Y124129D01*
X524072Y126680D01*
X523736Y129230D01*
X522752Y131607D01*
X521186Y133648D01*
X519145Y135214D01*
X516768Y136199D01*
X514218Y136534D01*
D02*
G37*
G36*
X438018D02*
X435467Y136199D01*
X433091Y135214D01*
X431050Y133648D01*
X429484Y131607D01*
X428499Y129230D01*
X428164Y126680D01*
X428499Y124129D01*
X429484Y121753D01*
X431050Y119712D01*
X433091Y118146D01*
X435467Y117162D01*
X438018Y116826D01*
X440569Y117162D01*
X442945Y118146D01*
X444986Y119712D01*
X446552Y121753D01*
X447537Y124129D01*
X447872Y126680D01*
X447537Y129230D01*
X446552Y131607D01*
X444986Y133648D01*
X442945Y135214D01*
X440569Y136199D01*
X438018Y136534D01*
D02*
G37*
G36*
X412618D02*
X410067Y136199D01*
X407691Y135214D01*
X405650Y133648D01*
X404084Y131607D01*
X403100Y129230D01*
X402764Y126680D01*
X403100Y124129D01*
X404084Y121753D01*
X405650Y119712D01*
X407691Y118146D01*
X410067Y117162D01*
X412618Y116826D01*
X415168Y117162D01*
X417545Y118146D01*
X419586Y119712D01*
X421152Y121753D01*
X422136Y124129D01*
X422472Y126680D01*
X422136Y129230D01*
X421152Y131607D01*
X419586Y133648D01*
X417545Y135214D01*
X415168Y136199D01*
X412618Y136534D01*
D02*
G37*
G36*
X387218D02*
X384668Y136199D01*
X382291Y135214D01*
X380250Y133648D01*
X378684Y131607D01*
X377700Y129230D01*
X377364Y126680D01*
X377700Y124129D01*
X378684Y121753D01*
X380250Y119712D01*
X382291Y118146D01*
X384668Y117162D01*
X387218Y116826D01*
X389768Y117162D01*
X392145Y118146D01*
X394186Y119712D01*
X395752Y121753D01*
X396736Y124129D01*
X397072Y126680D01*
X396736Y129230D01*
X395752Y131607D01*
X394186Y133648D01*
X392145Y135214D01*
X389768Y136199D01*
X387218Y136534D01*
D02*
G37*
G36*
X311018Y136534D02*
X308468Y136199D01*
X306091Y135214D01*
X304050Y133648D01*
X302484Y131607D01*
X301500Y129230D01*
X301164Y126680D01*
X301500Y124129D01*
X302484Y121753D01*
X304050Y119712D01*
X306091Y118146D01*
X308468Y117162D01*
X311018Y116826D01*
X313569Y117162D01*
X315945Y118146D01*
X317986Y119712D01*
X319552Y121753D01*
X320537Y124129D01*
X320872Y126680D01*
X320537Y129230D01*
X319552Y131607D01*
X317986Y133648D01*
X315945Y135214D01*
X313569Y136199D01*
X311018Y136534D01*
D02*
G37*
G36*
X209418D02*
X206868Y136199D01*
X204491Y135214D01*
X202450Y133648D01*
X200884Y131607D01*
X199900Y129230D01*
X199564Y126680D01*
X199900Y124129D01*
X200884Y121753D01*
X202450Y119712D01*
X204491Y118146D01*
X206868Y117162D01*
X209418Y116826D01*
X211969Y117162D01*
X214345Y118146D01*
X216386Y119712D01*
X217952Y121753D01*
X218937Y124129D01*
X219272Y126680D01*
X218937Y129230D01*
X217952Y131607D01*
X216386Y133648D01*
X214345Y135214D01*
X211969Y136199D01*
X209418Y136534D01*
D02*
G37*
G36*
X184018D02*
X181468Y136199D01*
X179091Y135214D01*
X177050Y133648D01*
X175484Y131607D01*
X174500Y129230D01*
X174164Y126680D01*
X174500Y124129D01*
X175484Y121753D01*
X177050Y119712D01*
X179091Y118146D01*
X181468Y117162D01*
X184018Y116826D01*
X186569Y117162D01*
X188945Y118146D01*
X190986Y119712D01*
X192552Y121753D01*
X193537Y124129D01*
X193872Y126680D01*
X193537Y129230D01*
X192552Y131607D01*
X190986Y133648D01*
X188945Y135214D01*
X186569Y136199D01*
X184018Y136534D01*
D02*
G37*
G36*
X158618D02*
X156068Y136199D01*
X153691Y135214D01*
X151650Y133648D01*
X150084Y131607D01*
X149100Y129230D01*
X148764Y126680D01*
X149100Y124129D01*
X150084Y121753D01*
X151650Y119712D01*
X153691Y118146D01*
X156068Y117162D01*
X158618Y116826D01*
X161169Y117162D01*
X163545Y118146D01*
X165586Y119712D01*
X167152Y121753D01*
X168137Y124129D01*
X168472Y126680D01*
X168137Y129230D01*
X167152Y131607D01*
X165586Y133648D01*
X163545Y135214D01*
X161169Y136199D01*
X158618Y136534D01*
D02*
G37*
G36*
X365943Y136561D02*
X357693D01*
X355490Y136123D01*
X353623Y134875D01*
X352375Y133008D01*
X351937Y130805D01*
Y122555D01*
X352375Y120352D01*
X353623Y118485D01*
X355490Y117238D01*
X357693Y116799D01*
X365943D01*
X368146Y117238D01*
X370013Y118485D01*
X371260Y120352D01*
X371699Y122555D01*
Y130805D01*
X371260Y133008D01*
X370013Y134875D01*
X368146Y136123D01*
X365943Y136561D01*
D02*
G37*
G36*
X137343Y136561D02*
X129093D01*
X126891Y136123D01*
X125023Y134875D01*
X123776Y133008D01*
X123337Y130805D01*
Y122555D01*
X123776Y120352D01*
X125023Y118485D01*
X126891Y117238D01*
X129093Y116799D01*
X137343D01*
X139546Y117238D01*
X141413Y118485D01*
X142661Y120352D01*
X143099Y122555D01*
Y130805D01*
X142661Y133008D01*
X141413Y134875D01*
X139546Y136123D01*
X137343Y136561D01*
D02*
G37*
G36*
X403403Y101536D02*
X399737Y97870D01*
X393648D01*
Y100016D01*
X384608D01*
Y89976D01*
X393648D01*
Y91711D01*
X399029D01*
X402696Y88045D01*
X409795Y95144D01*
X403403Y101536D01*
D02*
G37*
G36*
X952914Y92078D02*
X934874D01*
Y87198D01*
X894024D01*
Y88078D01*
X884984D01*
Y78038D01*
X894024D01*
Y78918D01*
X934874D01*
Y74038D01*
X952914D01*
Y92078D01*
D02*
G37*
G36*
X476100Y79351D02*
X473549Y79015D01*
X471173Y78031D01*
X469132Y76465D01*
X467566Y74424D01*
X466581Y72048D01*
X466246Y69497D01*
X466581Y66947D01*
X467566Y64570D01*
X469132Y62529D01*
X471173Y60963D01*
X473549Y59978D01*
X476100Y59643D01*
X478651Y59978D01*
X481027Y60963D01*
X483068Y62529D01*
X484634Y64570D01*
X485619Y66947D01*
X485954Y69497D01*
X485619Y72048D01*
X484634Y74424D01*
X483068Y76465D01*
X481027Y78031D01*
X478651Y79015D01*
X476100Y79351D01*
D02*
G37*
G36*
X450700D02*
X448149Y79015D01*
X445773Y78031D01*
X443732Y76465D01*
X442166Y74424D01*
X441181Y72048D01*
X440846Y69497D01*
X441181Y66947D01*
X442166Y64570D01*
X443732Y62529D01*
X445773Y60963D01*
X448149Y59978D01*
X450700Y59643D01*
X453251Y59978D01*
X455627Y60963D01*
X457668Y62529D01*
X459234Y64570D01*
X460219Y66947D01*
X460554Y69497D01*
X460219Y72048D01*
X459234Y74424D01*
X457668Y76465D01*
X455627Y78031D01*
X453251Y79015D01*
X450700Y79351D01*
D02*
G37*
G36*
X425300D02*
X422749Y79015D01*
X420373Y78031D01*
X418332Y76465D01*
X416766Y74424D01*
X415782Y72048D01*
X415446Y69497D01*
X415782Y66947D01*
X416766Y64570D01*
X418332Y62529D01*
X420373Y60963D01*
X422749Y59978D01*
X425300Y59643D01*
X427850Y59978D01*
X430227Y60963D01*
X432268Y62529D01*
X433834Y64570D01*
X434818Y66947D01*
X435154Y69497D01*
X434818Y72048D01*
X433834Y74424D01*
X432268Y76465D01*
X430227Y78031D01*
X427850Y79015D01*
X425300Y79351D01*
D02*
G37*
G36*
X374500D02*
X371950Y79015D01*
X369573Y78031D01*
X367532Y76465D01*
X365966Y74424D01*
X364981Y72048D01*
X364646Y69497D01*
X364981Y66947D01*
X365966Y64570D01*
X367532Y62529D01*
X369573Y60963D01*
X371950Y59978D01*
X374500Y59643D01*
X377051Y59978D01*
X379427Y60963D01*
X381468Y62529D01*
X383034Y64570D01*
X384019Y66947D01*
X384354Y69497D01*
X384019Y72048D01*
X383034Y74424D01*
X381468Y76465D01*
X379427Y78031D01*
X377051Y79015D01*
X374500Y79351D01*
D02*
G37*
G36*
X272400D02*
X269849Y79015D01*
X267473Y78031D01*
X265432Y76465D01*
X263866Y74424D01*
X262882Y72048D01*
X262546Y69497D01*
X262882Y66947D01*
X263866Y64570D01*
X265432Y62529D01*
X267473Y60963D01*
X269849Y59978D01*
X272400Y59643D01*
X274951Y59978D01*
X277327Y60963D01*
X279368Y62529D01*
X280934Y64570D01*
X281919Y66947D01*
X282254Y69497D01*
X281919Y72048D01*
X280934Y74424D01*
X279368Y76465D01*
X277327Y78031D01*
X274951Y79015D01*
X272400Y79351D01*
D02*
G37*
G36*
X221600D02*
X219049Y79015D01*
X216673Y78031D01*
X214632Y76465D01*
X213066Y74424D01*
X212082Y72048D01*
X211746Y69497D01*
X212082Y66947D01*
X213066Y64570D01*
X214632Y62529D01*
X216673Y60963D01*
X219049Y59978D01*
X221600Y59643D01*
X224151Y59978D01*
X226527Y60963D01*
X228568Y62529D01*
X230134Y64570D01*
X231119Y66947D01*
X231454Y69497D01*
X231119Y72048D01*
X230134Y74424D01*
X228568Y76465D01*
X226527Y78031D01*
X224151Y79015D01*
X221600Y79351D01*
D02*
G37*
G36*
X196200D02*
X193650Y79015D01*
X191273Y78031D01*
X189232Y76465D01*
X187666Y74424D01*
X186681Y72048D01*
X186346Y69497D01*
X186681Y66947D01*
X187666Y64570D01*
X189232Y62529D01*
X191273Y60963D01*
X193650Y59978D01*
X196200Y59643D01*
X198750Y59978D01*
X201127Y60963D01*
X203168Y62529D01*
X204734Y64570D01*
X205718Y66947D01*
X206054Y69497D01*
X205718Y72048D01*
X204734Y74424D01*
X203168Y76465D01*
X201127Y78031D01*
X198750Y79015D01*
X196200Y79351D01*
D02*
G37*
G36*
X505625Y79378D02*
X497375D01*
X495172Y78939D01*
X493305Y77692D01*
X492057Y75825D01*
X491619Y73622D01*
Y65372D01*
X492057Y63169D01*
X493305Y61302D01*
X495172Y60054D01*
X497375Y59616D01*
X505625D01*
X507828Y60054D01*
X509695Y61302D01*
X510942Y63169D01*
X511381Y65372D01*
Y73622D01*
X510942Y75825D01*
X509695Y77692D01*
X507828Y78939D01*
X505625Y79378D01*
D02*
G37*
G36*
X327325D02*
X319075D01*
X316872Y78939D01*
X315005Y77692D01*
X313757Y75825D01*
X313319Y73622D01*
Y65372D01*
X313757Y63169D01*
X315005Y61302D01*
X316872Y60054D01*
X319075Y59616D01*
X327325D01*
X329528Y60054D01*
X331395Y61302D01*
X332643Y63169D01*
X333081Y65372D01*
Y73622D01*
X332643Y75825D01*
X331395Y77692D01*
X329528Y78939D01*
X327325Y79378D01*
D02*
G37*
%LPD*%
D17*
X943894Y83058D02*
D03*
X978894D02*
D03*
X943890Y134112D02*
D03*
X978890D02*
D03*
D22*
X330322Y634730D02*
G03*
X333862Y631190I3540J0D01*
G01*
X330322Y692755D02*
G03*
X323242Y692755I-3540J0D01*
G01*
X316162Y630779D02*
G03*
X323242Y630779I3540J0D01*
G01*
X316162Y692755D02*
G03*
X309082Y692755I-3540J0D01*
G01*
X302002Y630779D02*
G03*
X309082Y630779I3540J0D01*
G01*
X302002Y692755D02*
G03*
X294922Y692755I-3540J0D01*
G01*
X287842Y630779D02*
G03*
X294922Y630779I3540J0D01*
G01*
X287842Y692755D02*
G03*
X280762Y692755I-3540J0D01*
G01*
X273682Y630779D02*
G03*
X280762Y630779I3540J0D01*
G01*
X273682Y692755D02*
G03*
X266602Y692755I-3540J0D01*
G01*
X259522Y630779D02*
G03*
X266602Y630779I3540J0D01*
G01*
X259522Y692755D02*
G03*
X252442Y692755I-3540J0D01*
G01*
X245362Y630779D02*
G03*
X252442Y630779I3540J0D01*
G01*
X245362Y692755D02*
G03*
X238282Y692755I-3540J0D01*
G01*
X231202Y633928D02*
G03*
X238282Y633928I3540J0D01*
G01*
X231202Y692755D02*
G03*
X224122Y692755I-3540J0D01*
G01*
X220582Y631190D02*
G03*
X224122Y634730I0J3540D01*
G01*
X484632Y180591D02*
G03*
X480592Y184631I-4040J0D01*
G01*
X458749Y192711D02*
G03*
X458749Y184631I0J-4040D01*
G01*
X480734Y192711D02*
G03*
X480734Y200791I0J4040D01*
G01*
X437268Y208871D02*
G03*
X437268Y200791I0J-4040D01*
G01*
X480734Y208871D02*
G03*
X480734Y216951I0J4040D01*
G01*
X437268Y225031D02*
G03*
X437268Y216951I0J-4040D01*
G01*
X480734Y225031D02*
G03*
X480734Y233111I0J4040D01*
G01*
X437268Y241191D02*
G03*
X437268Y233111I0J-4040D01*
G01*
X480734Y241191D02*
G03*
X480734Y249271I0J4040D01*
G01*
X437268Y257351D02*
G03*
X437268Y249271I0J-4040D01*
G01*
X480734Y257351D02*
G03*
X480734Y265431I0J4040D01*
G01*
X437268Y273511D02*
G03*
X437268Y265431I0J-4040D01*
G01*
X480734Y273511D02*
G03*
X480734Y281591I0J4040D01*
G01*
X437268Y289671D02*
G03*
X437268Y281591I0J-4040D01*
G01*
X480734Y289671D02*
G03*
X480734Y297751I0J4040D01*
G01*
X437268Y305831D02*
G03*
X437268Y297751I0J-4040D01*
G01*
X480734Y305831D02*
G03*
X480734Y313911I0J4040D01*
G01*
X437268Y321991D02*
G03*
X437268Y313911I0J-4040D01*
G01*
X480592Y321991D02*
G03*
X484632Y326031I0J4040D01*
G01*
X632944Y418853D02*
G03*
X628904Y414813I0J-4040D01*
G01*
X632944Y418853D02*
G03*
X632944Y426933I0J4040D01*
G01*
X620833Y435013D02*
G03*
X620833Y426933I0J-4040D01*
G01*
X645517Y435013D02*
G03*
X645517Y443093I0J4040D01*
G01*
X620313Y451173D02*
G03*
X620313Y443093I0J-4040D01*
G01*
X645517Y451173D02*
G03*
X645517Y459253I0J4040D01*
G01*
X620313Y467333D02*
G03*
X620313Y459253I0J-4040D01*
G01*
X645517Y467333D02*
G03*
X645517Y475413I0J4040D01*
G01*
X620313Y483493D02*
G03*
X620313Y475413I0J-4040D01*
G01*
X645517Y483493D02*
G03*
X645517Y491573I0J4040D01*
G01*
X628904Y495613D02*
G03*
X632944Y491573I4040J0D01*
G01*
X460160Y515325D02*
G03*
X464200Y519365I0J4040D01*
G01*
X394221Y515325D02*
G03*
X394221Y507245I0J-4040D01*
G01*
X465702Y499165D02*
G03*
X465702Y507245I0J4040D01*
G01*
X391097Y499165D02*
G03*
X391097Y491086I0J-4040D01*
G01*
X465702Y483005D02*
G03*
X465702Y491086I0J4040D01*
G01*
X391097Y483005D02*
G03*
X391097Y474925I0J-4040D01*
G01*
X465702Y466846D02*
G03*
X465702Y474925I0J4040D01*
G01*
X400264Y466846D02*
G03*
X400264Y458765I0J-4040D01*
G01*
X465702Y450686D02*
G03*
X465702Y458765I0J4040D01*
G01*
X416424Y450686D02*
G03*
X416424Y442606I0J-4040D01*
G01*
X465702Y434525D02*
G03*
X465702Y442606I0J4040D01*
G01*
X432584Y434525D02*
G03*
X432584Y426446I0J-4040D01*
G01*
X465702Y418366D02*
G03*
X465702Y426446I0J4040D01*
G01*
X448744Y418366D02*
G03*
X448744Y410285I0J-4040D01*
G01*
X466765Y408265D02*
G03*
X461888Y410285I-4877J-4877D01*
G01*
X610349Y639826D02*
G03*
X614389Y643866I0J4040D01*
G01*
X622469Y652769D02*
G03*
X614389Y652769I-4040J0D01*
G01*
X622469Y639719D02*
G03*
X630549Y639719I4040J0D01*
G01*
X638629Y701425D02*
G03*
X630549Y701425I-4040J0D01*
G01*
X638629Y639719D02*
G03*
X646709Y639719I4040J0D01*
G01*
X654789Y701425D02*
G03*
X646709Y701425I-4040J0D01*
G01*
X654789Y639719D02*
G03*
X662869Y639719I4040J0D01*
G01*
X670949Y701425D02*
G03*
X662869Y701425I-4040J0D01*
G01*
X670949Y639719D02*
G03*
X679029Y639719I4040J0D01*
G01*
X687109Y701425D02*
G03*
X679029Y701425I-4040J0D01*
G01*
X687109Y639719D02*
G03*
X695189Y639719I4040J0D01*
G01*
X703269Y701425D02*
G03*
X695189Y701425I-4040J0D01*
G01*
X703269Y643866D02*
G03*
X707309Y639826I4040J0D01*
G01*
X543890Y637262D02*
G03*
X547930Y633222I4040J0D01*
G01*
X543890Y640437D02*
G03*
X535810Y640437I-4040J0D01*
G01*
X527730Y636897D02*
G03*
X535810Y636897I4040J0D01*
G01*
X527730Y701616D02*
G03*
X519650Y701616I-4040J0D01*
G01*
X511570Y636897D02*
G03*
X519650Y636897I4040J0D01*
G01*
X511570Y701616D02*
G03*
X503490Y701616I-4040J0D01*
G01*
X495410Y636897D02*
G03*
X503490Y636897I4040J0D01*
G01*
X495410Y701616D02*
G03*
X487330Y701616I-4040J0D01*
G01*
X479250Y636897D02*
G03*
X487330Y636897I4040J0D01*
G01*
X479250Y701616D02*
G03*
X471170Y701616I-4040J0D01*
G01*
X463090Y636897D02*
G03*
X471170Y636897I4040J0D01*
G01*
X463090Y701616D02*
G03*
X455010Y701616I-4040J0D01*
G01*
X446930Y636897D02*
G03*
X455010Y636897I4040J0D01*
G01*
X446930Y701616D02*
G03*
X438850Y701616I-4040J0D01*
G01*
X434810Y633222D02*
G03*
X438850Y637262I0J4040D01*
G01*
X427489Y629549D02*
Y631670D01*
X431546Y633222D02*
X433310D01*
X428741Y630418D02*
X431546Y633222D01*
X425704Y565001D02*
Y627764D01*
X427489Y629549D01*
X413400Y552697D02*
X425704Y565001D01*
X414528Y646938D02*
X418389Y643077D01*
Y640956D02*
Y643077D01*
X418296Y640863D02*
X418389Y640956D01*
X414528Y657814D02*
X414782Y658068D01*
X414528Y646938D02*
Y657814D01*
X660932Y565126D02*
X662432Y563626D01*
X658675Y565658D02*
X659207Y565126D01*
X502412Y565658D02*
X658675D01*
X486915Y550161D02*
X502412Y565658D01*
X659207Y565126D02*
X660932D01*
X668404Y564518D02*
X679196Y575310D01*
X663324Y564518D02*
X668404D01*
X662432Y563626D02*
X663324Y564518D01*
X662813Y525399D02*
Y550245D01*
X662432Y550626D02*
X662813Y550245D01*
Y525399D02*
X662940Y525272D01*
X716889Y639826D02*
X717804D01*
X720879Y636751D01*
Y634265D02*
Y636751D01*
X714756Y628142D02*
X720879Y634265D01*
X689864Y628142D02*
X714756D01*
X679196Y617474D02*
X689864Y628142D01*
X679196Y575310D02*
Y617474D01*
X343469Y631190D02*
X349013D01*
X346981Y631496D02*
X349013D01*
X349250Y620899D02*
X349367Y621016D01*
Y631142D01*
X349013Y631496D02*
X349367Y631142D01*
X349250Y555247D02*
Y620899D01*
X346700Y552697D02*
X349250Y555247D01*
X333862Y631190D02*
X343469D01*
X330322Y634730D02*
Y692755D01*
X323242Y630779D02*
Y692755D01*
X316162Y630779D02*
Y692755D01*
X309082Y630779D02*
Y692755D01*
X302002Y630779D02*
Y692755D01*
X294922Y630779D02*
Y692755D01*
X287842Y630779D02*
Y692755D01*
X280762Y630779D02*
Y692755D01*
X273682Y630779D02*
Y692755D01*
X266602Y630779D02*
Y692755D01*
X259522Y630779D02*
Y692755D01*
X252442Y630779D02*
Y692755D01*
X245362Y630779D02*
Y692755D01*
X238282Y633928D02*
Y692755D01*
X231202Y633928D02*
Y692755D01*
X224122Y634730D02*
Y692755D01*
X219081Y631190D02*
X220582D01*
X883488Y220240D02*
X909074Y245826D01*
X903054Y379654D02*
Y437603D01*
Y251846D02*
X909074Y245826D01*
X903054Y437603D02*
X909574Y444123D01*
Y316615D02*
Y373634D01*
X883488Y129813D02*
Y220240D01*
X903054Y379654D02*
X909074Y373634D01*
X903054Y251846D02*
Y310095D01*
X909074Y373634D02*
X909574D01*
X876504Y83058D02*
Y122829D01*
X903054Y310095D02*
X909574Y316615D01*
X876504Y122829D02*
X883488Y129813D01*
X909574Y444123D02*
Y500842D01*
X596392Y196906D02*
X641218Y152080D01*
X502917Y351790D02*
X596392Y258315D01*
Y196906D02*
Y258315D01*
X581152Y262128D02*
X581152D01*
X499364Y343916D02*
X581152Y262128D01*
X453881Y343916D02*
X499364D01*
X460248Y359410D02*
X490474D01*
X295900Y523758D02*
X460248Y359410D01*
X456946Y351790D02*
X502917D01*
X270500Y538236D02*
X456946Y351790D01*
X245100Y552697D02*
X453881Y343916D01*
X295900Y523758D02*
Y552697D01*
X270500Y538236D02*
Y552697D01*
X476250Y159963D02*
Y165608D01*
X484632Y173990D01*
Y180591D01*
X458749Y184631D02*
X480592D01*
X458749Y192711D02*
X480734D01*
X437268Y200791D02*
X480734D01*
X437268Y208871D02*
X480734D01*
X437268Y216951D02*
X480734D01*
X437268Y225031D02*
X480734D01*
X437268Y233111D02*
X480734D01*
X437268Y241191D02*
X480734D01*
X437268Y249271D02*
X480734D01*
X437268Y257351D02*
X480734D01*
X437268Y265431D02*
X480734D01*
X437268Y273511D02*
X480734D01*
X437268Y281591D02*
X480734D01*
X437268Y289671D02*
X480734D01*
X437268Y297751D02*
X480734D01*
X437268Y305831D02*
X480734D01*
X437268Y313911D02*
X480734D01*
X437268Y321991D02*
X480592D01*
X484632Y326031D02*
Y331999D01*
X483040Y333591D02*
X484632Y331999D01*
X482875Y333756D02*
X483040Y333591D01*
X427228Y331999D02*
X428985Y333756D01*
X482875D01*
X427228Y166690D02*
Y331999D01*
X412618Y152080D02*
X427228Y166690D01*
X399900Y69497D02*
Y71135D01*
X412242Y83477D01*
Y85598D01*
X389334Y94790D02*
X400221D01*
X402696Y94437D02*
X403050Y94790D01*
X400575Y94437D02*
X402696D01*
X400221Y94790D02*
X400575Y94437D01*
X476250Y123574D02*
Y159963D01*
X438628Y85952D02*
X476250Y123574D01*
X412596Y85952D02*
X438628D01*
X412242Y85598D02*
X412596Y85952D01*
X628904Y372845D02*
Y414813D01*
X632944Y418853D02*
X632944D01*
X620833Y426933D02*
X632944D01*
X620833Y435013D02*
X645517D01*
X620313Y443093D02*
X645517D01*
X620313Y451173D02*
X645517D01*
X620313Y459253D02*
X645517D01*
X620313Y467333D02*
X645517D01*
X620313Y475413D02*
X645517D01*
X620313Y483493D02*
X645517D01*
X632944Y491573D02*
X645517D01*
X628904Y495613D02*
Y497113D01*
Y507238D01*
X596138Y539242D02*
X605790Y529590D01*
X553855Y539242D02*
X596138D01*
X540400Y552697D02*
X553855Y539242D01*
X606171Y529971D02*
X628904Y507238D01*
X431800Y528066D02*
X451104D01*
X475742Y407924D02*
Y586742D01*
X464200Y529277D02*
Y552697D01*
Y519365D02*
Y529277D01*
X394221Y515325D02*
X460160D01*
X394221Y507245D02*
X465702D01*
X391097Y499165D02*
X465702D01*
X391097Y491086D02*
X465702D01*
X391097Y483005D02*
X465702D01*
X391097Y474925D02*
X465702D01*
X400264Y466846D02*
X465702D01*
X400264Y458765D02*
X465702D01*
X416424Y450686D02*
X465702D01*
X416424Y442606D02*
X465702D01*
X432584Y434525D02*
X465702D01*
X432584Y426446D02*
X465702D01*
X448744Y418366D02*
X465702D01*
X448744Y410285D02*
X461888D01*
X466765Y408265D02*
X468265Y406765D01*
X470181Y404849D01*
X472667D01*
X475742Y407924D01*
X502560Y597622D02*
X514218Y609280D01*
X486622Y597622D02*
X502560D01*
X475742Y586742D02*
X486622Y597622D01*
X602683Y634179D02*
X608330Y639826D01*
X610349D01*
X614389Y643866D02*
Y652769D01*
X622469Y639719D02*
Y652769D01*
X630549Y639719D02*
Y701425D01*
X638629Y639719D02*
Y701425D01*
X646709Y639719D02*
Y701425D01*
X654789Y639719D02*
Y701425D01*
X662869Y639719D02*
Y701425D01*
X670949Y639719D02*
Y701425D01*
X679029Y639719D02*
Y701425D01*
X687109Y639719D02*
Y701425D01*
X695189Y639719D02*
Y701425D01*
X703269Y643866D02*
Y701425D01*
X707309Y639826D02*
X716889D01*
X547930Y633222D02*
X555901D01*
X543890Y637262D02*
Y640437D01*
X535810Y636897D02*
Y640437D01*
X527730Y636897D02*
Y701616D01*
X519650Y636897D02*
Y701616D01*
X511570Y636897D02*
Y701616D01*
X503490Y636897D02*
Y701616D01*
X495410Y636897D02*
Y701616D01*
X487330Y636897D02*
Y701616D01*
X479250Y636897D02*
Y701616D01*
X471170Y636897D02*
Y701616D01*
X463090Y636897D02*
Y701616D01*
X455010Y636897D02*
Y701616D01*
X446930Y636897D02*
Y701616D01*
X438850Y637262D02*
Y701616D01*
X433310Y633222D02*
X434810D01*
X555901D02*
X576072D01*
X589200Y610497D02*
X590418Y609280D01*
X589200Y610497D02*
Y620094D01*
X576072Y633222D02*
X589200Y620094D01*
X359513Y562967D02*
X362966Y566420D01*
X352573Y538480D02*
X359513Y545421D01*
Y562967D01*
X395158Y566420D02*
X412618Y583880D01*
X362966Y566420D02*
X395158D01*
X335517Y538480D02*
X352573D01*
X321300Y552697D02*
X335517Y538480D01*
X216333Y629433D02*
X218090Y631190D01*
X216333Y626947D02*
X218694Y624586D01*
X229672D01*
X216333Y626947D02*
Y629433D01*
X218090Y631190D02*
X219081D01*
X229672Y624586D02*
X244978Y609280D01*
X602683Y603191D02*
Y634179D01*
X596145Y596653D02*
X602683Y603191D01*
X552245Y596653D02*
X596145D01*
X539618Y609280D02*
X552245Y596653D01*
X628904Y187960D02*
Y372845D01*
X654304Y138994D02*
X666618Y126680D01*
X628904Y187960D02*
X654304Y162560D01*
Y138994D02*
Y162560D01*
X589248Y511278D02*
Y513048D01*
X587248Y509778D02*
X587748D01*
X589248Y513048D02*
X596598Y520398D01*
X587748Y509778D02*
X589248Y511278D01*
D23*
X414782Y658068D02*
D03*
Y671068D02*
D03*
X587248Y509778D02*
D03*
Y496778D02*
D03*
X662432Y550626D02*
D03*
Y563626D02*
D03*
X662940Y525272D02*
D03*
Y512272D02*
D03*
X909574Y245826D02*
D03*
Y258826D02*
D03*
Y373634D02*
D03*
Y386634D02*
D03*
Y500842D02*
D03*
Y513842D02*
D03*
X364490Y653034D02*
D03*
Y666034D02*
D03*
X882904Y399542D02*
D03*
Y386542D02*
D03*
Y526796D02*
D03*
Y513796D02*
D03*
Y272542D02*
D03*
Y259542D02*
D03*
D24*
X418296Y640863D02*
D03*
X427489Y631670D02*
D03*
X403050Y94790D02*
D03*
X412242Y85598D02*
D03*
D25*
X244602Y81788D02*
D03*
D26*
X244856Y110490D02*
D03*
D27*
X605790Y529590D02*
D03*
X596598Y520398D02*
D03*
X358205Y640688D02*
D03*
X349013Y631496D02*
D03*
D28*
X431800Y528066D02*
D03*
X418800D02*
D03*
X464104D02*
D03*
X451104D02*
D03*
X376128Y94996D02*
D03*
X389128D02*
D03*
X889504Y83058D02*
D03*
X876504D02*
D03*
X909574Y272542D02*
D03*
X896574D02*
D03*
X909620Y399542D02*
D03*
X896620D02*
D03*
X909620Y526796D02*
D03*
X896620D02*
D03*
X876508Y133604D02*
D03*
X889508D02*
D03*
D29*
X244856Y110490D02*
Y114883D01*
X234818Y124921D02*
Y126680D01*
Y124921D02*
X244856Y114883D01*
X244602Y81788D02*
X245756Y80634D01*
Y72500D02*
Y80634D01*
X245080Y71823D02*
X245756Y72500D01*
D30*
X363982Y645668D02*
Y652526D01*
X358205Y640688D02*
X359002D01*
X363982Y645668D01*
Y652526D02*
X364490Y653034D01*
D31*
X247000Y69497D02*
X265697Y50800D01*
X591566Y83312D02*
X875792D01*
X265697Y50800D02*
X559054D01*
X591566Y83312D01*
D32*
X247000Y69497D02*
Y69903D01*
D33*
X889508Y133652D02*
X889968Y134112D01*
X943890D01*
X889508Y133604D02*
Y133652D01*
X704328Y139770D02*
X789108D01*
X795274Y133604D02*
X876508D01*
X789108Y139770D02*
X795274Y133604D01*
X909620Y526796D02*
X909649Y526767D01*
X938355D02*
X938384Y526738D01*
X909649Y526767D02*
X938355D01*
X909741Y399663D02*
X938261D01*
X938382Y399784D01*
X909620Y399542D02*
X909741Y399663D01*
X909695Y272163D02*
Y272663D01*
X938261D01*
X938382Y272784D01*
X909574Y272542D02*
X909695Y272663D01*
X866394Y271780D02*
X867156Y272542D01*
X896574D01*
X764794Y400050D02*
X896366D01*
X705104Y459740D02*
X764794Y400050D01*
X774248Y527050D02*
X896874D01*
X717418Y583880D02*
X774248Y527050D01*
X705104Y459740D02*
Y596194D01*
X692018Y609280D02*
X705104Y596194D01*
X692018Y152080D02*
X704328Y139770D01*
X889504Y83058D02*
X943894D01*
X938384Y461738D02*
Y526738D01*
X938382Y207784D02*
Y272784D01*
Y334784D02*
Y399784D01*
X909574Y258826D02*
Y272542D01*
X909597Y399519D02*
X909620Y399542D01*
X909574Y386634D02*
X909597Y386657D01*
Y399519D01*
X909574Y513842D02*
X909597Y513865D01*
Y526773D02*
X909620Y526796D01*
X909597Y513865D02*
Y526773D01*
X938376Y526790D02*
X938382Y526784D01*
D34*
X501500Y69497D02*
D03*
X323200D02*
D03*
X372100Y552697D02*
D03*
X591200D02*
D03*
X41778Y583880D02*
D03*
X361818Y126680D02*
D03*
X133218Y126680D02*
D03*
X311018Y583880D02*
D03*
D35*
X425300Y69497D02*
D03*
X450700D02*
D03*
X476100D02*
D03*
X399900D02*
D03*
X374500D02*
D03*
X196200D02*
D03*
X272400D02*
D03*
X247000D02*
D03*
X221600D02*
D03*
X297800D02*
D03*
X194300Y552697D02*
D03*
X219700D02*
D03*
X245100D02*
D03*
X270500D02*
D03*
X346700D02*
D03*
X321300D02*
D03*
X295900D02*
D03*
X413400D02*
D03*
X438800D02*
D03*
X464200D02*
D03*
X489600D02*
D03*
X565800D02*
D03*
X540400D02*
D03*
X515000D02*
D03*
X117978Y583880D02*
D03*
X92578D02*
D03*
X67178D02*
D03*
X143378D02*
D03*
X168778D02*
D03*
X41778Y609280D02*
D03*
X117978D02*
D03*
X92578D02*
D03*
X67178D02*
D03*
X143378D02*
D03*
X168778D02*
D03*
X194178Y583880D02*
D03*
X244978D02*
D03*
X219578D02*
D03*
X270378D02*
D03*
X194178Y609280D02*
D03*
X244978D02*
D03*
X219578D02*
D03*
X270378D02*
D03*
X692018Y126680D02*
D03*
X641218D02*
D03*
X615818D02*
D03*
X666618D02*
D03*
X717418D02*
D03*
Y152080D02*
D03*
X438018Y126680D02*
D03*
X412618D02*
D03*
X387218D02*
D03*
X463418D02*
D03*
X488818D02*
D03*
X361818Y152080D02*
D03*
X438018D02*
D03*
X412618D02*
D03*
X387218D02*
D03*
X463418D02*
D03*
X488818D02*
D03*
X514218Y126680D02*
D03*
X565018D02*
D03*
X539618D02*
D03*
X590418D02*
D03*
X514218Y152080D02*
D03*
X641218D02*
D03*
X692018D02*
D03*
X615818D02*
D03*
X565018D02*
D03*
X539618D02*
D03*
X590418D02*
D03*
X666618D02*
D03*
X311018Y152080D02*
D03*
X285618D02*
D03*
X311018Y126680D02*
D03*
X285618D02*
D03*
X260218Y152080D02*
D03*
X234818D02*
D03*
X158618D02*
D03*
X184018D02*
D03*
X209418D02*
D03*
X133218D02*
D03*
X260218Y126680D02*
D03*
X234818D02*
D03*
X158618D02*
D03*
X184018D02*
D03*
X209418D02*
D03*
X692018Y583880D02*
D03*
X641218D02*
D03*
X590418D02*
D03*
X565018D02*
D03*
X615818D02*
D03*
X666618D02*
D03*
X717418D02*
D03*
X692018Y609280D02*
D03*
X666618D02*
D03*
X717418D02*
D03*
X387218Y583880D02*
D03*
X361818D02*
D03*
X336418D02*
D03*
X412618D02*
D03*
X438018D02*
D03*
X311018Y609280D02*
D03*
X387218D02*
D03*
X361818D02*
D03*
X336418D02*
D03*
X412618D02*
D03*
X438018D02*
D03*
X463418Y583880D02*
D03*
X514218D02*
D03*
X488818D02*
D03*
X539618D02*
D03*
X463418Y609280D02*
D03*
X590418D02*
D03*
X641218D02*
D03*
X565018D02*
D03*
X514218D02*
D03*
X488818D02*
D03*
X539618D02*
D03*
X615818D02*
D03*
D36*
X938384Y461738D02*
D03*
X938382Y207784D02*
D03*
Y334784D02*
D03*
D37*
X983384Y461738D02*
D03*
Y526738D02*
D03*
X938384D02*
D03*
X983382Y207784D02*
D03*
Y272784D02*
D03*
X938382D02*
D03*
X983382Y334784D02*
D03*
Y399784D02*
D03*
X938382D02*
D03*
D38*
X904240Y141347D02*
D03*
X988060Y703580D02*
D03*
X980440Y688340D02*
D03*
X988060Y673100D02*
D03*
X980440Y657860D02*
D03*
X988060Y642620D02*
D03*
X980440Y627380D02*
D03*
X988060Y612140D02*
D03*
X980440Y596900D02*
D03*
X988060Y581660D02*
D03*
X980440Y566420D02*
D03*
X988060Y551180D02*
D03*
X980440Y505460D02*
D03*
X988060Y490220D02*
D03*
X980440Y474980D02*
D03*
Y444500D02*
D03*
X988060Y429260D02*
D03*
X980440Y414020D02*
D03*
Y383540D02*
D03*
X988060Y368300D02*
D03*
X980440Y353060D02*
D03*
X988060Y307340D02*
D03*
X980440Y292100D02*
D03*
X988060Y246380D02*
D03*
X980440Y231140D02*
D03*
X988060Y185420D02*
D03*
X980440Y170180D02*
D03*
X988060Y154940D02*
D03*
X980440Y109220D02*
D03*
X988060Y63500D02*
D03*
X980440Y48260D02*
D03*
X988060Y33020D02*
D03*
X980440Y17780D02*
D03*
X972820Y703580D02*
D03*
X965200Y688340D02*
D03*
X972820Y673100D02*
D03*
X965200Y657860D02*
D03*
X972820Y642620D02*
D03*
X965200Y627380D02*
D03*
X972820Y612140D02*
D03*
X965200Y596900D02*
D03*
X972820Y581660D02*
D03*
X965200Y566420D02*
D03*
X972820Y551180D02*
D03*
X965200Y535940D02*
D03*
Y505460D02*
D03*
X972820Y490220D02*
D03*
X965200Y474980D02*
D03*
Y444500D02*
D03*
X972820Y429260D02*
D03*
X965200Y414020D02*
D03*
Y383540D02*
D03*
X972820Y368300D02*
D03*
X965200Y353060D02*
D03*
Y322580D02*
D03*
X972820Y307340D02*
D03*
X965200Y292100D02*
D03*
Y261620D02*
D03*
X972820Y246380D02*
D03*
X965200Y231140D02*
D03*
X972820Y215900D02*
D03*
X965200Y200660D02*
D03*
X972820Y185420D02*
D03*
X965200Y170180D02*
D03*
X972820Y154940D02*
D03*
X965200Y139700D02*
D03*
Y109220D02*
D03*
Y78740D02*
D03*
X972820Y63500D02*
D03*
X965200Y48260D02*
D03*
X972820Y33020D02*
D03*
X965200Y17780D02*
D03*
X957580Y703580D02*
D03*
X949960Y688340D02*
D03*
X957580Y673100D02*
D03*
X949960Y657860D02*
D03*
X957580Y642620D02*
D03*
X949960Y627380D02*
D03*
X957580Y612140D02*
D03*
X949960Y596900D02*
D03*
X957580Y581660D02*
D03*
X949960Y566420D02*
D03*
X957580Y551180D02*
D03*
X949960Y535940D02*
D03*
X957580Y520700D02*
D03*
X949960Y505460D02*
D03*
X957580Y490220D02*
D03*
Y459740D02*
D03*
X949960Y444500D02*
D03*
X957580Y429260D02*
D03*
X949960Y414020D02*
D03*
X957580Y398780D02*
D03*
X949960Y383540D02*
D03*
X957580Y368300D02*
D03*
X949960Y353060D02*
D03*
X957580Y337820D02*
D03*
Y307340D02*
D03*
X949960Y292100D02*
D03*
X957580Y276860D02*
D03*
X949960Y261620D02*
D03*
X957580Y246380D02*
D03*
X949960Y231140D02*
D03*
X957580Y215900D02*
D03*
Y185420D02*
D03*
X949960Y170180D02*
D03*
X957580Y154940D02*
D03*
X949960Y109220D02*
D03*
X957580Y63500D02*
D03*
X949960Y48260D02*
D03*
X957580Y33020D02*
D03*
X949960Y17780D02*
D03*
X942340Y703580D02*
D03*
X934720Y688340D02*
D03*
X942340Y673100D02*
D03*
X934720Y657860D02*
D03*
X942340Y642620D02*
D03*
X934720Y627380D02*
D03*
X942340Y612140D02*
D03*
X934720Y596900D02*
D03*
X942340Y581660D02*
D03*
X934720Y566420D02*
D03*
X942340Y551180D02*
D03*
X934720Y444500D02*
D03*
X942340Y429260D02*
D03*
X934720Y414020D02*
D03*
X942340Y307340D02*
D03*
X934720Y292100D02*
D03*
X942340Y185420D02*
D03*
X934720Y170180D02*
D03*
X942340Y154940D02*
D03*
X934720Y109220D02*
D03*
X942340Y63500D02*
D03*
X934720Y48260D02*
D03*
X942340Y33020D02*
D03*
X934720Y17780D02*
D03*
X927100Y703580D02*
D03*
X919480Y688340D02*
D03*
X927100Y673100D02*
D03*
X919480Y657860D02*
D03*
X927100Y642620D02*
D03*
X919480Y627380D02*
D03*
X927100Y612140D02*
D03*
X919480Y596900D02*
D03*
X927100Y581660D02*
D03*
X919480Y566420D02*
D03*
X927100Y551180D02*
D03*
Y490220D02*
D03*
X919480Y474980D02*
D03*
Y444500D02*
D03*
X927100Y429260D02*
D03*
X919480Y414020D02*
D03*
X927100Y368300D02*
D03*
X919480Y353060D02*
D03*
Y322580D02*
D03*
X927100Y307340D02*
D03*
X919480Y292100D02*
D03*
X927100Y246380D02*
D03*
X919480Y231140D02*
D03*
Y200660D02*
D03*
X927100Y185420D02*
D03*
X919480Y170180D02*
D03*
X927100Y154940D02*
D03*
Y124460D02*
D03*
X919480Y109220D02*
D03*
X927100Y93980D02*
D03*
Y63500D02*
D03*
X919480Y48260D02*
D03*
X927100Y33020D02*
D03*
X919480Y17780D02*
D03*
X911860Y703580D02*
D03*
X904240Y688340D02*
D03*
X911860Y673100D02*
D03*
X904240Y657860D02*
D03*
X911860Y642620D02*
D03*
X904240Y627380D02*
D03*
X911860Y612140D02*
D03*
X904240Y596900D02*
D03*
X911860Y581660D02*
D03*
X904240Y566420D02*
D03*
X911860Y551180D02*
D03*
Y429260D02*
D03*
Y215900D02*
D03*
X904240Y200660D02*
D03*
X911860Y185420D02*
D03*
X904240Y170180D02*
D03*
X911860Y154940D02*
D03*
Y124460D02*
D03*
X904240Y109220D02*
D03*
X911860Y93980D02*
D03*
Y63500D02*
D03*
X904240Y48260D02*
D03*
X911860Y33020D02*
D03*
X904240Y17780D02*
D03*
X896620Y703580D02*
D03*
X889000Y688340D02*
D03*
X896620Y673100D02*
D03*
X889000Y657860D02*
D03*
X896620Y642620D02*
D03*
X889000Y627380D02*
D03*
X896620Y612140D02*
D03*
X889000Y596900D02*
D03*
X896620Y581660D02*
D03*
X889000Y566420D02*
D03*
X896620Y551180D02*
D03*
X889000Y505460D02*
D03*
X896620Y490220D02*
D03*
X889000Y474980D02*
D03*
X896620Y459740D02*
D03*
X889000Y444500D02*
D03*
Y414020D02*
D03*
X896620Y368300D02*
D03*
X889000Y353060D02*
D03*
X896620Y337820D02*
D03*
X889000Y322580D02*
D03*
Y292100D02*
D03*
X896620Y246380D02*
D03*
Y215900D02*
D03*
Y185420D02*
D03*
Y154940D02*
D03*
X889000Y109220D02*
D03*
X896620Y93980D02*
D03*
Y63500D02*
D03*
X889000Y48260D02*
D03*
X896620Y33020D02*
D03*
X889000Y17780D02*
D03*
X881380Y703580D02*
D03*
X873760Y688340D02*
D03*
X881380Y673100D02*
D03*
X873760Y657860D02*
D03*
X881380Y642620D02*
D03*
X873760Y627380D02*
D03*
X881380Y612140D02*
D03*
X873760Y596900D02*
D03*
X881380Y581660D02*
D03*
X873760Y566420D02*
D03*
X881380Y551180D02*
D03*
X873760Y505460D02*
D03*
X881380Y490220D02*
D03*
X873760Y474980D02*
D03*
X881380Y459740D02*
D03*
X873760Y444500D02*
D03*
X881380Y429260D02*
D03*
X873760Y414020D02*
D03*
Y383540D02*
D03*
X881380Y368300D02*
D03*
X873760Y353060D02*
D03*
X881380Y337820D02*
D03*
X873760Y322580D02*
D03*
X881380Y307340D02*
D03*
X873760Y292100D02*
D03*
X881380Y246380D02*
D03*
X873760Y231140D02*
D03*
Y200660D02*
D03*
Y170180D02*
D03*
X881380Y63500D02*
D03*
X873760Y48260D02*
D03*
X881380Y33020D02*
D03*
X873760Y17780D02*
D03*
X866140Y703580D02*
D03*
X858520Y688340D02*
D03*
X866140Y673100D02*
D03*
X858520Y657860D02*
D03*
X866140Y642620D02*
D03*
X858520Y627380D02*
D03*
X866140Y612140D02*
D03*
X858520Y596900D02*
D03*
X866140Y581660D02*
D03*
X858520Y566420D02*
D03*
X866140Y551180D02*
D03*
X858520Y505460D02*
D03*
X866140Y490220D02*
D03*
X858520Y474980D02*
D03*
X866140Y459740D02*
D03*
X858520Y444500D02*
D03*
X866140Y429260D02*
D03*
X858520Y414020D02*
D03*
Y383540D02*
D03*
X866140Y368300D02*
D03*
X858520Y353060D02*
D03*
X866140Y337820D02*
D03*
X858520Y322580D02*
D03*
X866140Y307340D02*
D03*
X858520Y292100D02*
D03*
X866140Y215900D02*
D03*
X858520Y200660D02*
D03*
X866140Y185420D02*
D03*
X858520Y170180D02*
D03*
X866140Y154940D02*
D03*
X858520Y109220D02*
D03*
X866140Y93980D02*
D03*
Y63500D02*
D03*
X858520Y48260D02*
D03*
X866140Y33020D02*
D03*
X858520Y17780D02*
D03*
X850900Y703580D02*
D03*
X843280Y688340D02*
D03*
X850900Y673100D02*
D03*
X843280Y657860D02*
D03*
X850900Y642620D02*
D03*
X843280Y627380D02*
D03*
X850900Y612140D02*
D03*
X843280Y596900D02*
D03*
X850900Y581660D02*
D03*
X843280Y566420D02*
D03*
X850900Y551180D02*
D03*
X843280Y505460D02*
D03*
X850900Y490220D02*
D03*
X843280Y474980D02*
D03*
X850900Y459740D02*
D03*
X843280Y444500D02*
D03*
X850900Y429260D02*
D03*
X843280Y414020D02*
D03*
Y383540D02*
D03*
X850900Y368300D02*
D03*
X843280Y353060D02*
D03*
X850900Y337820D02*
D03*
X843280Y322580D02*
D03*
X850900Y307340D02*
D03*
X843280Y292100D02*
D03*
X850900Y276860D02*
D03*
X843280Y261620D02*
D03*
X850900Y246380D02*
D03*
X843280Y231140D02*
D03*
Y200660D02*
D03*
X850900Y185420D02*
D03*
X843280Y170180D02*
D03*
X850900Y154940D02*
D03*
X843280Y109220D02*
D03*
X850900Y93980D02*
D03*
Y63500D02*
D03*
X843280Y48260D02*
D03*
X850900Y33020D02*
D03*
X843280Y17780D02*
D03*
X835660Y703580D02*
D03*
X828040Y688340D02*
D03*
X835660Y673100D02*
D03*
X828040Y657860D02*
D03*
X835660Y642620D02*
D03*
X828040Y627380D02*
D03*
X835660Y612140D02*
D03*
X828040Y596900D02*
D03*
X835660Y581660D02*
D03*
X828040Y566420D02*
D03*
X835660Y551180D02*
D03*
X828040Y505460D02*
D03*
X835660Y490220D02*
D03*
X828040Y474980D02*
D03*
X835660Y459740D02*
D03*
X828040Y444500D02*
D03*
X835660Y429260D02*
D03*
X828040Y414020D02*
D03*
Y383540D02*
D03*
X835660Y368300D02*
D03*
X828040Y353060D02*
D03*
X835660Y337820D02*
D03*
X828040Y322580D02*
D03*
X835660Y307340D02*
D03*
X828040Y292100D02*
D03*
X835660Y276860D02*
D03*
X828040Y261620D02*
D03*
X835660Y246380D02*
D03*
X828040Y231140D02*
D03*
X835660Y185420D02*
D03*
X828040Y170180D02*
D03*
X835660Y154940D02*
D03*
X828040Y109220D02*
D03*
X835660Y93980D02*
D03*
Y63500D02*
D03*
X828040Y48260D02*
D03*
X835660Y33020D02*
D03*
X828040Y17780D02*
D03*
X820420Y703580D02*
D03*
X812800Y688340D02*
D03*
X820420Y673100D02*
D03*
X812800Y657860D02*
D03*
X820420Y642620D02*
D03*
X812800Y627380D02*
D03*
X820420Y612140D02*
D03*
X812800Y596900D02*
D03*
X820420Y581660D02*
D03*
X812800Y566420D02*
D03*
X820420Y551180D02*
D03*
X812800Y505460D02*
D03*
X820420Y490220D02*
D03*
X812800Y474980D02*
D03*
X820420Y459740D02*
D03*
X812800Y444500D02*
D03*
X820420Y429260D02*
D03*
X812800Y414020D02*
D03*
Y383540D02*
D03*
X820420Y368300D02*
D03*
X812800Y353060D02*
D03*
X820420Y337820D02*
D03*
X812800Y322580D02*
D03*
X820420Y307340D02*
D03*
X812800Y292100D02*
D03*
X820420Y276860D02*
D03*
X812800Y261620D02*
D03*
X820420Y246380D02*
D03*
X812800Y231140D02*
D03*
X820420Y215900D02*
D03*
X812800Y200660D02*
D03*
Y170180D02*
D03*
X820420Y154940D02*
D03*
X812800Y109220D02*
D03*
X820420Y93980D02*
D03*
Y63500D02*
D03*
X812800Y48260D02*
D03*
X820420Y33020D02*
D03*
X812800Y17780D02*
D03*
X805180Y703580D02*
D03*
X797560Y688340D02*
D03*
X805180Y673100D02*
D03*
X797560Y657860D02*
D03*
X805180Y642620D02*
D03*
X797560Y627380D02*
D03*
X805180Y612140D02*
D03*
X797560Y596900D02*
D03*
X805180Y581660D02*
D03*
X797560Y566420D02*
D03*
X805180Y551180D02*
D03*
X797560Y505460D02*
D03*
X805180Y490220D02*
D03*
X797560Y474980D02*
D03*
X805180Y459740D02*
D03*
X797560Y444500D02*
D03*
X805180Y429260D02*
D03*
X797560Y414020D02*
D03*
Y383540D02*
D03*
X805180Y368300D02*
D03*
X797560Y353060D02*
D03*
X805180Y337820D02*
D03*
X797560Y322580D02*
D03*
X805180Y307340D02*
D03*
X797560Y292100D02*
D03*
X805180Y276860D02*
D03*
X797560Y261620D02*
D03*
X805180Y246380D02*
D03*
X797560Y231140D02*
D03*
X805180Y215900D02*
D03*
X797560Y200660D02*
D03*
X805180Y154940D02*
D03*
X797560Y109220D02*
D03*
X805180Y93980D02*
D03*
Y63500D02*
D03*
X797560Y48260D02*
D03*
X805180Y33020D02*
D03*
X797560Y17780D02*
D03*
X789940Y703580D02*
D03*
X782320Y688340D02*
D03*
X789940Y673100D02*
D03*
X782320Y657860D02*
D03*
X789940Y642620D02*
D03*
X782320Y627380D02*
D03*
X789940Y612140D02*
D03*
X782320Y596900D02*
D03*
X789940Y581660D02*
D03*
X782320Y566420D02*
D03*
X789940Y551180D02*
D03*
X782320Y505460D02*
D03*
X789940Y490220D02*
D03*
X782320Y474980D02*
D03*
X789940Y459740D02*
D03*
X782320Y444500D02*
D03*
X789940Y429260D02*
D03*
X782320Y414020D02*
D03*
Y383540D02*
D03*
X789940Y368300D02*
D03*
X782320Y353060D02*
D03*
X789940Y337820D02*
D03*
X782320Y322580D02*
D03*
X789940Y307340D02*
D03*
X782320Y292100D02*
D03*
X789940Y276860D02*
D03*
X782320Y261620D02*
D03*
X789940Y246380D02*
D03*
X782320Y231140D02*
D03*
X789940Y215900D02*
D03*
X782320Y200660D02*
D03*
X789940Y185420D02*
D03*
X782320Y170180D02*
D03*
X789940Y124460D02*
D03*
X782320Y109220D02*
D03*
X789940Y93980D02*
D03*
Y63500D02*
D03*
X782320Y48260D02*
D03*
X789940Y33020D02*
D03*
X782320Y17780D02*
D03*
X774700Y703580D02*
D03*
X767080Y688340D02*
D03*
X774700Y673100D02*
D03*
X767080Y657860D02*
D03*
X774700Y642620D02*
D03*
X767080Y627380D02*
D03*
X774700Y612140D02*
D03*
X767080Y596900D02*
D03*
X774700Y581660D02*
D03*
X767080Y566420D02*
D03*
X774700Y551180D02*
D03*
X767080Y505460D02*
D03*
X774700Y490220D02*
D03*
X767080Y474980D02*
D03*
X774700Y459740D02*
D03*
X767080Y444500D02*
D03*
X774700Y429260D02*
D03*
X767080Y414020D02*
D03*
Y383540D02*
D03*
X774700Y368300D02*
D03*
X767080Y353060D02*
D03*
X774700Y337820D02*
D03*
X767080Y322580D02*
D03*
X774700Y307340D02*
D03*
X767080Y292100D02*
D03*
X774700Y276860D02*
D03*
X767080Y261620D02*
D03*
X774700Y246380D02*
D03*
X767080Y231140D02*
D03*
X774700Y215900D02*
D03*
X767080Y200660D02*
D03*
X774700Y185420D02*
D03*
X767080Y170180D02*
D03*
X774700Y124460D02*
D03*
X767080Y109220D02*
D03*
X774700Y93980D02*
D03*
Y63500D02*
D03*
X767080Y48260D02*
D03*
X774700Y33020D02*
D03*
X767080Y17780D02*
D03*
X759460Y703580D02*
D03*
X751840Y688340D02*
D03*
X759460Y673100D02*
D03*
X751840Y657860D02*
D03*
X759460Y642620D02*
D03*
X751840Y627380D02*
D03*
X759460Y612140D02*
D03*
X751840Y596900D02*
D03*
X759460Y581660D02*
D03*
X751840Y566420D02*
D03*
Y535940D02*
D03*
X759460Y520700D02*
D03*
X751840Y505460D02*
D03*
X759460Y490220D02*
D03*
X751840Y474980D02*
D03*
X759460Y459740D02*
D03*
X751840Y444500D02*
D03*
X759460Y429260D02*
D03*
X751840Y383540D02*
D03*
X759460Y368300D02*
D03*
X751840Y353060D02*
D03*
X759460Y337820D02*
D03*
X751840Y322580D02*
D03*
X759460Y307340D02*
D03*
X751840Y292100D02*
D03*
X759460Y276860D02*
D03*
X751840Y261620D02*
D03*
X759460Y246380D02*
D03*
X751840Y231140D02*
D03*
X759460Y215900D02*
D03*
X751840Y200660D02*
D03*
X759460Y185420D02*
D03*
X751840Y170180D02*
D03*
X759460Y154940D02*
D03*
X751840Y109220D02*
D03*
X759460Y93980D02*
D03*
Y63500D02*
D03*
X751840Y48260D02*
D03*
X759460Y33020D02*
D03*
X751840Y17780D02*
D03*
X744220Y703580D02*
D03*
X736600Y688340D02*
D03*
X744220Y673100D02*
D03*
X736600Y657860D02*
D03*
X744220Y642620D02*
D03*
X736600Y627380D02*
D03*
X744220Y612140D02*
D03*
X736600Y596900D02*
D03*
X744220Y581660D02*
D03*
X736600Y535940D02*
D03*
X744220Y520700D02*
D03*
X736600Y505460D02*
D03*
X744220Y490220D02*
D03*
X736600Y474980D02*
D03*
X744220Y459740D02*
D03*
X736600Y444500D02*
D03*
Y414020D02*
D03*
X744220Y398780D02*
D03*
X736600Y383540D02*
D03*
X744220Y368300D02*
D03*
X736600Y353060D02*
D03*
X744220Y337820D02*
D03*
X736600Y322580D02*
D03*
X744220Y307340D02*
D03*
X736600Y292100D02*
D03*
X744220Y276860D02*
D03*
X736600Y261620D02*
D03*
X744220Y246380D02*
D03*
X736600Y231140D02*
D03*
X744220Y215900D02*
D03*
X736600Y200660D02*
D03*
X744220Y185420D02*
D03*
X736600Y170180D02*
D03*
X744220Y154940D02*
D03*
Y93980D02*
D03*
Y63500D02*
D03*
X736600Y48260D02*
D03*
X744220Y33020D02*
D03*
X736600Y17780D02*
D03*
X728980Y703580D02*
D03*
X721360Y688340D02*
D03*
X728980Y673100D02*
D03*
X721360Y657860D02*
D03*
X728980Y642620D02*
D03*
X721360Y566420D02*
D03*
X728980Y551180D02*
D03*
X721360Y535940D02*
D03*
X728980Y520700D02*
D03*
X721360Y505460D02*
D03*
X728980Y490220D02*
D03*
X721360Y474980D02*
D03*
X728980Y459740D02*
D03*
X721360Y414020D02*
D03*
X728980Y398780D02*
D03*
X721360Y383540D02*
D03*
X728980Y368300D02*
D03*
X721360Y353060D02*
D03*
X728980Y337820D02*
D03*
X721360Y322580D02*
D03*
X728980Y307340D02*
D03*
X721360Y292100D02*
D03*
X728980Y276860D02*
D03*
X721360Y261620D02*
D03*
X728980Y246380D02*
D03*
X721360Y231140D02*
D03*
X728980Y215900D02*
D03*
X721360Y200660D02*
D03*
X728980Y185420D02*
D03*
X721360Y170180D02*
D03*
X728980Y93980D02*
D03*
Y63500D02*
D03*
X721360Y48260D02*
D03*
X728980Y33020D02*
D03*
X721360Y17780D02*
D03*
X713740Y703580D02*
D03*
Y673100D02*
D03*
X706120Y444500D02*
D03*
X713740Y429260D02*
D03*
X706120Y414020D02*
D03*
X713740Y398780D02*
D03*
X706120Y383540D02*
D03*
X713740Y368300D02*
D03*
X706120Y353060D02*
D03*
X713740Y337820D02*
D03*
X706120Y322580D02*
D03*
X713740Y307340D02*
D03*
X706120Y292100D02*
D03*
X713740Y276860D02*
D03*
X706120Y261620D02*
D03*
X713740Y246380D02*
D03*
X706120Y231140D02*
D03*
X713740Y215900D02*
D03*
X706120Y200660D02*
D03*
X713740Y185420D02*
D03*
X706120Y170180D02*
D03*
X713740Y93980D02*
D03*
Y63500D02*
D03*
X706120Y48260D02*
D03*
X713740Y33020D02*
D03*
X706120Y17780D02*
D03*
X690880Y566420D02*
D03*
Y535940D02*
D03*
Y505460D02*
D03*
Y474980D02*
D03*
Y444500D02*
D03*
X698500Y429260D02*
D03*
X690880Y414020D02*
D03*
X698500Y398780D02*
D03*
X690880Y383540D02*
D03*
X698500Y368300D02*
D03*
X690880Y353060D02*
D03*
X698500Y337820D02*
D03*
X690880Y322580D02*
D03*
X698500Y307340D02*
D03*
X690880Y292100D02*
D03*
X698500Y276860D02*
D03*
X690880Y261620D02*
D03*
X698500Y246380D02*
D03*
X690880Y231140D02*
D03*
X698500Y215900D02*
D03*
X690880Y200660D02*
D03*
X698500Y185420D02*
D03*
X690880Y170180D02*
D03*
X698500Y93980D02*
D03*
Y63500D02*
D03*
X690880Y48260D02*
D03*
X698500Y33020D02*
D03*
X690880Y17780D02*
D03*
X675640Y627380D02*
D03*
X683260Y551180D02*
D03*
X675640Y535940D02*
D03*
X683260Y520700D02*
D03*
X675640Y505460D02*
D03*
X683260Y490220D02*
D03*
X675640Y474980D02*
D03*
X683260Y459740D02*
D03*
X675640Y444500D02*
D03*
X683260Y429260D02*
D03*
X675640Y414020D02*
D03*
X683260Y398780D02*
D03*
X675640Y383540D02*
D03*
X683260Y368300D02*
D03*
X675640Y353060D02*
D03*
X683260Y337820D02*
D03*
X675640Y322580D02*
D03*
X683260Y307340D02*
D03*
X675640Y292100D02*
D03*
X683260Y276860D02*
D03*
X675640Y261620D02*
D03*
X683260Y246380D02*
D03*
X675640Y231140D02*
D03*
X683260Y215900D02*
D03*
Y93980D02*
D03*
Y63500D02*
D03*
X675640Y48260D02*
D03*
X683260Y33020D02*
D03*
X675640Y17780D02*
D03*
X660400Y627380D02*
D03*
X668020Y490220D02*
D03*
X660400Y474980D02*
D03*
X668020Y459740D02*
D03*
X660400Y444500D02*
D03*
X668020Y429260D02*
D03*
X660400Y414020D02*
D03*
X668020Y398780D02*
D03*
X660400Y383540D02*
D03*
X668020Y368300D02*
D03*
X660400Y353060D02*
D03*
X668020Y337820D02*
D03*
X660400Y322580D02*
D03*
X668020Y307340D02*
D03*
X660400Y292100D02*
D03*
X668020Y276860D02*
D03*
X660400Y261620D02*
D03*
X668020Y246380D02*
D03*
X660400Y200660D02*
D03*
X668020Y93980D02*
D03*
Y63500D02*
D03*
X660400Y48260D02*
D03*
X668020Y33020D02*
D03*
X660400Y17780D02*
D03*
X645160Y627380D02*
D03*
Y535940D02*
D03*
Y505460D02*
D03*
Y414020D02*
D03*
X652780Y398780D02*
D03*
X645160Y383540D02*
D03*
X652780Y368300D02*
D03*
X645160Y353060D02*
D03*
X652780Y337820D02*
D03*
X645160Y322580D02*
D03*
X652780Y307340D02*
D03*
X645160Y292100D02*
D03*
X652780Y276860D02*
D03*
X645160Y261620D02*
D03*
X652780Y246380D02*
D03*
Y215900D02*
D03*
Y93980D02*
D03*
Y63500D02*
D03*
X645160Y48260D02*
D03*
X652780Y33020D02*
D03*
X645160Y17780D02*
D03*
X629920Y627380D02*
D03*
Y596900D02*
D03*
X637540Y551180D02*
D03*
X629920Y535940D02*
D03*
X637540Y520700D02*
D03*
Y398780D02*
D03*
Y368300D02*
D03*
Y337820D02*
D03*
Y307340D02*
D03*
Y276860D02*
D03*
X629920Y139700D02*
D03*
X637540Y93980D02*
D03*
Y63500D02*
D03*
X629920Y48260D02*
D03*
X637540Y33020D02*
D03*
X629920Y17780D02*
D03*
X622300Y703580D02*
D03*
X614680Y688340D02*
D03*
Y627380D02*
D03*
X622300Y551180D02*
D03*
X614680Y535940D02*
D03*
Y505460D02*
D03*
Y414020D02*
D03*
Y383540D02*
D03*
Y353060D02*
D03*
Y322580D02*
D03*
Y292100D02*
D03*
Y200660D02*
D03*
Y109220D02*
D03*
X622300Y93980D02*
D03*
Y63500D02*
D03*
X614680Y48260D02*
D03*
X622300Y33020D02*
D03*
X614680Y17780D02*
D03*
X607060Y703580D02*
D03*
X599440Y688340D02*
D03*
X607060Y673100D02*
D03*
X599440Y657860D02*
D03*
X607060Y551180D02*
D03*
X599440Y505460D02*
D03*
X607060Y490220D02*
D03*
X599440Y474980D02*
D03*
X607060Y459740D02*
D03*
X599440Y444500D02*
D03*
X607060Y429260D02*
D03*
X599440Y414020D02*
D03*
X607060Y398780D02*
D03*
X599440Y383540D02*
D03*
X607060Y368300D02*
D03*
X599440Y353060D02*
D03*
X607060Y337820D02*
D03*
X599440Y322580D02*
D03*
X607060Y307340D02*
D03*
Y215900D02*
D03*
X599440Y170180D02*
D03*
Y139700D02*
D03*
Y109220D02*
D03*
X607060Y93980D02*
D03*
Y63500D02*
D03*
X599440Y48260D02*
D03*
X607060Y33020D02*
D03*
X599440Y17780D02*
D03*
X591820Y703580D02*
D03*
X584200Y688340D02*
D03*
X591820Y673100D02*
D03*
X584200Y657860D02*
D03*
X591820Y642620D02*
D03*
X584200Y474980D02*
D03*
X591820Y459740D02*
D03*
Y429260D02*
D03*
Y398780D02*
D03*
Y368300D02*
D03*
X584200Y353060D02*
D03*
X591820Y337820D02*
D03*
X584200Y322580D02*
D03*
X591820Y307340D02*
D03*
Y276860D02*
D03*
X584200Y231140D02*
D03*
Y200660D02*
D03*
X591820Y185420D02*
D03*
X584200Y170180D02*
D03*
X591820Y33020D02*
D03*
X584200Y17780D02*
D03*
X576580Y703580D02*
D03*
X568960Y688340D02*
D03*
X576580Y673100D02*
D03*
X568960Y657860D02*
D03*
X576580Y642620D02*
D03*
Y520700D02*
D03*
X568960Y505460D02*
D03*
X576580Y490220D02*
D03*
Y368300D02*
D03*
X568960Y353060D02*
D03*
X576580Y337820D02*
D03*
X568960Y261620D02*
D03*
X576580Y246380D02*
D03*
X568960Y231140D02*
D03*
X576580Y215900D02*
D03*
X568960Y200660D02*
D03*
X576580Y185420D02*
D03*
X568960Y170180D02*
D03*
Y109220D02*
D03*
X576580Y93980D02*
D03*
X568960Y78740D02*
D03*
Y17780D02*
D03*
X561340Y703580D02*
D03*
X553720Y688340D02*
D03*
X561340Y673100D02*
D03*
X553720Y657860D02*
D03*
X561340Y642620D02*
D03*
Y307340D02*
D03*
X553720Y261620D02*
D03*
X561340Y246380D02*
D03*
X553720Y231140D02*
D03*
X561340Y215900D02*
D03*
X553720Y200660D02*
D03*
X561340Y185420D02*
D03*
X553720Y170180D02*
D03*
Y139700D02*
D03*
Y109220D02*
D03*
X561340Y93980D02*
D03*
X553720Y78740D02*
D03*
Y17780D02*
D03*
X546100Y703580D02*
D03*
X538480Y688340D02*
D03*
X546100Y673100D02*
D03*
X538480Y657860D02*
D03*
X546100Y490220D02*
D03*
X538480Y474980D02*
D03*
Y353060D02*
D03*
X546100Y337820D02*
D03*
X538480Y292100D02*
D03*
X546100Y276860D02*
D03*
X538480Y261620D02*
D03*
X546100Y246380D02*
D03*
X538480Y231140D02*
D03*
X546100Y215900D02*
D03*
X538480Y200660D02*
D03*
X546100Y185420D02*
D03*
X538480Y170180D02*
D03*
Y109220D02*
D03*
X546100Y93980D02*
D03*
X538480Y78740D02*
D03*
X546100Y63500D02*
D03*
X538480Y17780D02*
D03*
X523240Y596900D02*
D03*
Y109220D02*
D03*
X530860Y93980D02*
D03*
X523240Y78740D02*
D03*
X530860Y63500D02*
D03*
X508000Y505460D02*
D03*
X515620Y490220D02*
D03*
X508000Y474980D02*
D03*
X515620Y459740D02*
D03*
X508000Y444500D02*
D03*
X515620Y429260D02*
D03*
X508000Y414020D02*
D03*
X515620Y398780D02*
D03*
X508000Y383540D02*
D03*
X515620Y368300D02*
D03*
Y307340D02*
D03*
Y276860D02*
D03*
Y246380D02*
D03*
Y215900D02*
D03*
Y185420D02*
D03*
Y93980D02*
D03*
X500380Y520700D02*
D03*
Y490220D02*
D03*
X492760Y474980D02*
D03*
X500380Y459740D02*
D03*
X492760Y444500D02*
D03*
X500380Y429260D02*
D03*
X492760Y414020D02*
D03*
X500380Y398780D02*
D03*
X492760Y383540D02*
D03*
X500380Y368300D02*
D03*
X492760Y109220D02*
D03*
Y17780D02*
D03*
X485140Y459740D02*
D03*
Y429260D02*
D03*
Y398780D02*
D03*
X477520Y383540D02*
D03*
Y109220D02*
D03*
X462280Y383540D02*
D03*
X469900Y368300D02*
D03*
X462280Y170180D02*
D03*
X447040Y596900D02*
D03*
Y566420D02*
D03*
X454660Y398780D02*
D03*
X431800Y414020D02*
D03*
X439420Y398780D02*
D03*
X431800Y353060D02*
D03*
Y109220D02*
D03*
X439420Y33020D02*
D03*
X431800Y17780D02*
D03*
X424180Y703580D02*
D03*
X416560Y688340D02*
D03*
X424180Y673100D02*
D03*
X416560Y627380D02*
D03*
Y353060D02*
D03*
Y322580D02*
D03*
Y292100D02*
D03*
Y170180D02*
D03*
Y109220D02*
D03*
X424180Y33020D02*
D03*
X416560Y17780D02*
D03*
X408940Y703580D02*
D03*
X401320Y688340D02*
D03*
Y657860D02*
D03*
Y627380D02*
D03*
Y596900D02*
D03*
Y535940D02*
D03*
Y444500D02*
D03*
X408940Y429260D02*
D03*
X401320Y383540D02*
D03*
X408940Y368300D02*
D03*
X401320Y353060D02*
D03*
X408940Y337820D02*
D03*
X401320Y322580D02*
D03*
X408940Y307340D02*
D03*
X401320Y292100D02*
D03*
X408940Y185420D02*
D03*
X401320Y170180D02*
D03*
Y109220D02*
D03*
Y17780D02*
D03*
X393700Y703580D02*
D03*
X386080Y688340D02*
D03*
X393700Y673100D02*
D03*
X386080Y657860D02*
D03*
X393700Y642620D02*
D03*
X386080Y627380D02*
D03*
X393700Y551180D02*
D03*
X386080Y535940D02*
D03*
Y383540D02*
D03*
X393700Y368300D02*
D03*
X386080Y353060D02*
D03*
X393700Y337820D02*
D03*
X386080Y322580D02*
D03*
X393700Y307340D02*
D03*
X386080Y292100D02*
D03*
X393700Y185420D02*
D03*
X386080Y170180D02*
D03*
Y109220D02*
D03*
Y17780D02*
D03*
X378460Y703580D02*
D03*
X370840Y688340D02*
D03*
X378460Y673100D02*
D03*
Y642620D02*
D03*
X370840Y627380D02*
D03*
Y596900D02*
D03*
X378460Y520700D02*
D03*
X370840Y505460D02*
D03*
X378460Y490220D02*
D03*
X370840Y474980D02*
D03*
X378460Y459740D02*
D03*
X370840Y414020D02*
D03*
X378460Y398780D02*
D03*
X370840Y383540D02*
D03*
X378460Y368300D02*
D03*
X370840Y353060D02*
D03*
X378460Y337820D02*
D03*
X370840Y322580D02*
D03*
X378460Y307340D02*
D03*
X370840Y292100D02*
D03*
X378460Y185420D02*
D03*
X370840Y170180D02*
D03*
Y109220D02*
D03*
X363220Y703580D02*
D03*
X355600Y688340D02*
D03*
X363220Y490220D02*
D03*
X355600Y414020D02*
D03*
X363220Y398780D02*
D03*
X355600Y383540D02*
D03*
X363220Y368300D02*
D03*
X355600Y353060D02*
D03*
X363220Y337820D02*
D03*
X355600Y322580D02*
D03*
X363220Y307340D02*
D03*
X355600Y292100D02*
D03*
X363220Y185420D02*
D03*
X355600Y170180D02*
D03*
Y109220D02*
D03*
X363220Y93980D02*
D03*
X355600Y78740D02*
D03*
X347980Y703580D02*
D03*
X340360Y688340D02*
D03*
X347980Y673100D02*
D03*
X340360Y657860D02*
D03*
Y566420D02*
D03*
Y444500D02*
D03*
X347980Y429260D02*
D03*
X340360Y414020D02*
D03*
X347980Y398780D02*
D03*
X340360Y383540D02*
D03*
X347980Y368300D02*
D03*
X340360Y353060D02*
D03*
X347980Y337820D02*
D03*
X340360Y322580D02*
D03*
X347980Y307340D02*
D03*
X340360Y292100D02*
D03*
X347980Y185420D02*
D03*
X340360Y170180D02*
D03*
X332740Y703580D02*
D03*
X325120Y596900D02*
D03*
Y444500D02*
D03*
X332740Y429260D02*
D03*
X325120Y414020D02*
D03*
X332740Y398780D02*
D03*
X325120Y383540D02*
D03*
X332740Y368300D02*
D03*
X325120Y353060D02*
D03*
X332740Y337820D02*
D03*
X325120Y322580D02*
D03*
X332740Y307340D02*
D03*
X325120Y292100D02*
D03*
X332740Y185420D02*
D03*
X325120Y170180D02*
D03*
X332740Y154940D02*
D03*
X325120Y139700D02*
D03*
Y109220D02*
D03*
X317500Y703580D02*
D03*
X309880Y566420D02*
D03*
Y444500D02*
D03*
X317500Y429260D02*
D03*
X309880Y414020D02*
D03*
X317500Y398780D02*
D03*
X309880Y383540D02*
D03*
X317500Y368300D02*
D03*
X309880Y353060D02*
D03*
X317500Y337820D02*
D03*
X309880Y322580D02*
D03*
X317500Y307340D02*
D03*
X309880Y292100D02*
D03*
X317500Y185420D02*
D03*
X309880Y170180D02*
D03*
Y109220D02*
D03*
X317500Y93980D02*
D03*
X294640Y596900D02*
D03*
Y444500D02*
D03*
X302260Y429260D02*
D03*
X294640Y414020D02*
D03*
X302260Y398780D02*
D03*
X294640Y383540D02*
D03*
X302260Y368300D02*
D03*
X294640Y353060D02*
D03*
X302260Y337820D02*
D03*
X294640Y322580D02*
D03*
X302260Y307340D02*
D03*
X294640Y292100D02*
D03*
X302260Y276860D02*
D03*
X294640Y261620D02*
D03*
X302260Y246380D02*
D03*
X294640Y231140D02*
D03*
X302260Y215900D02*
D03*
X294640Y200660D02*
D03*
Y170180D02*
D03*
Y139700D02*
D03*
Y109220D02*
D03*
X302260Y93980D02*
D03*
X287020Y612140D02*
D03*
X279400Y596900D02*
D03*
X287020Y581660D02*
D03*
X279400Y566420D02*
D03*
Y444500D02*
D03*
X287020Y429260D02*
D03*
X279400Y414020D02*
D03*
X287020Y398780D02*
D03*
X279400Y383540D02*
D03*
X287020Y368300D02*
D03*
X279400Y353060D02*
D03*
X287020Y337820D02*
D03*
X279400Y322580D02*
D03*
X287020Y307340D02*
D03*
X279400Y292100D02*
D03*
X287020Y276860D02*
D03*
X279400Y261620D02*
D03*
X287020Y246380D02*
D03*
X279400Y231140D02*
D03*
X287020Y215900D02*
D03*
X279400Y200660D02*
D03*
Y109220D02*
D03*
X287020Y93980D02*
D03*
X264160Y566420D02*
D03*
Y444500D02*
D03*
X271780Y429260D02*
D03*
X264160Y414020D02*
D03*
X271780Y398780D02*
D03*
X264160Y383540D02*
D03*
X271780Y368300D02*
D03*
X264160Y353060D02*
D03*
X271780Y337820D02*
D03*
X264160Y322580D02*
D03*
X271780Y307340D02*
D03*
X264160Y292100D02*
D03*
X271780Y276860D02*
D03*
X264160Y261620D02*
D03*
X271780Y246380D02*
D03*
X264160Y231140D02*
D03*
X271780Y215900D02*
D03*
X264160Y200660D02*
D03*
X271780Y185420D02*
D03*
X264160Y170180D02*
D03*
Y109220D02*
D03*
X271780Y93980D02*
D03*
X248920Y444500D02*
D03*
X256540Y429260D02*
D03*
X248920Y414020D02*
D03*
X256540Y398780D02*
D03*
X248920Y383540D02*
D03*
X256540Y368300D02*
D03*
X248920Y353060D02*
D03*
X256540Y337820D02*
D03*
X248920Y322580D02*
D03*
X256540Y307340D02*
D03*
X248920Y292100D02*
D03*
X256540Y276860D02*
D03*
X248920Y261620D02*
D03*
X256540Y246380D02*
D03*
X248920Y231140D02*
D03*
X256540Y215900D02*
D03*
X248920Y200660D02*
D03*
X256540Y185420D02*
D03*
X248920Y170180D02*
D03*
Y139700D02*
D03*
X233680Y596900D02*
D03*
Y566420D02*
D03*
Y444500D02*
D03*
X241300Y429260D02*
D03*
X233680Y414020D02*
D03*
X241300Y398780D02*
D03*
X233680Y383540D02*
D03*
X241300Y368300D02*
D03*
X233680Y353060D02*
D03*
X241300Y337820D02*
D03*
X233680Y322580D02*
D03*
X241300Y307340D02*
D03*
X233680Y292100D02*
D03*
X241300Y276860D02*
D03*
X233680Y261620D02*
D03*
X241300Y246380D02*
D03*
X233680Y231140D02*
D03*
X241300Y215900D02*
D03*
X233680Y200660D02*
D03*
X241300Y185420D02*
D03*
X233680Y170180D02*
D03*
X218440Y535940D02*
D03*
Y505460D02*
D03*
Y474980D02*
D03*
Y444500D02*
D03*
X226060Y429260D02*
D03*
X218440Y414020D02*
D03*
X226060Y398780D02*
D03*
X218440Y383540D02*
D03*
X226060Y368300D02*
D03*
X218440Y353060D02*
D03*
X226060Y337820D02*
D03*
X218440Y322580D02*
D03*
X226060Y307340D02*
D03*
X218440Y292100D02*
D03*
X226060Y276860D02*
D03*
X218440Y261620D02*
D03*
X226060Y246380D02*
D03*
X218440Y231140D02*
D03*
X226060Y215900D02*
D03*
X218440Y200660D02*
D03*
X226060Y185420D02*
D03*
X218440Y170180D02*
D03*
Y139700D02*
D03*
Y109220D02*
D03*
X226060Y93980D02*
D03*
X210820Y703580D02*
D03*
X203200Y688340D02*
D03*
X210820Y673100D02*
D03*
X203200Y657860D02*
D03*
X210820Y642620D02*
D03*
X203200Y627380D02*
D03*
Y505460D02*
D03*
X210820Y490220D02*
D03*
X203200Y474980D02*
D03*
X210820Y459740D02*
D03*
X203200Y444500D02*
D03*
X210820Y429260D02*
D03*
X203200Y414020D02*
D03*
X210820Y398780D02*
D03*
X203200Y383540D02*
D03*
X210820Y368300D02*
D03*
X203200Y353060D02*
D03*
X210820Y337820D02*
D03*
X203200Y322580D02*
D03*
X210820Y307340D02*
D03*
X203200Y292100D02*
D03*
X210820Y276860D02*
D03*
X203200Y261620D02*
D03*
X210820Y246380D02*
D03*
X203200Y231140D02*
D03*
X210820Y215900D02*
D03*
X203200Y200660D02*
D03*
X210820Y185420D02*
D03*
X203200Y170180D02*
D03*
Y109220D02*
D03*
X210820Y93980D02*
D03*
X203200Y48260D02*
D03*
Y17780D02*
D03*
X195580Y703580D02*
D03*
X187960Y688340D02*
D03*
X195580Y673100D02*
D03*
X187960Y657860D02*
D03*
X195580Y642620D02*
D03*
X187960Y627380D02*
D03*
Y566420D02*
D03*
Y535940D02*
D03*
X195580Y520700D02*
D03*
X187960Y505460D02*
D03*
X195580Y490220D02*
D03*
X187960Y474980D02*
D03*
X195580Y459740D02*
D03*
X187960Y444500D02*
D03*
X195580Y429260D02*
D03*
X187960Y414020D02*
D03*
X195580Y398780D02*
D03*
X187960Y383540D02*
D03*
X195580Y368300D02*
D03*
X187960Y353060D02*
D03*
X195580Y337820D02*
D03*
X187960Y322580D02*
D03*
X195580Y307340D02*
D03*
X187960Y292100D02*
D03*
X195580Y276860D02*
D03*
X187960Y261620D02*
D03*
X195580Y246380D02*
D03*
X187960Y231140D02*
D03*
X195580Y215900D02*
D03*
X187960Y200660D02*
D03*
X195580Y185420D02*
D03*
X187960Y170180D02*
D03*
Y109220D02*
D03*
X195580Y93980D02*
D03*
X187960Y48260D02*
D03*
X195580Y33020D02*
D03*
X187960Y17780D02*
D03*
X180340Y703580D02*
D03*
X172720Y688340D02*
D03*
X180340Y673100D02*
D03*
X172720Y657860D02*
D03*
X180340Y642620D02*
D03*
X172720Y627380D02*
D03*
Y566420D02*
D03*
Y535940D02*
D03*
X180340Y520700D02*
D03*
X172720Y505460D02*
D03*
X180340Y490220D02*
D03*
X172720Y474980D02*
D03*
X180340Y459740D02*
D03*
X172720Y444500D02*
D03*
X180340Y429260D02*
D03*
X172720Y414020D02*
D03*
X180340Y398780D02*
D03*
X172720Y383540D02*
D03*
X180340Y368300D02*
D03*
X172720Y353060D02*
D03*
X180340Y337820D02*
D03*
X172720Y322580D02*
D03*
X180340Y307340D02*
D03*
X172720Y292100D02*
D03*
X180340Y276860D02*
D03*
X172720Y261620D02*
D03*
X180340Y246380D02*
D03*
X172720Y231140D02*
D03*
X180340Y215900D02*
D03*
X172720Y200660D02*
D03*
X180340Y185420D02*
D03*
X172720Y170180D02*
D03*
Y139700D02*
D03*
Y109220D02*
D03*
X180340Y93980D02*
D03*
X172720Y78740D02*
D03*
X180340Y63500D02*
D03*
X172720Y48260D02*
D03*
X180340Y33020D02*
D03*
X172720Y17780D02*
D03*
X165100Y703580D02*
D03*
X157480Y688340D02*
D03*
X165100Y673100D02*
D03*
X157480Y657860D02*
D03*
X165100Y642620D02*
D03*
X157480Y627380D02*
D03*
Y596900D02*
D03*
Y566420D02*
D03*
X165100Y551180D02*
D03*
X157480Y535940D02*
D03*
X165100Y520700D02*
D03*
X157480Y505460D02*
D03*
X165100Y490220D02*
D03*
X157480Y474980D02*
D03*
X165100Y459740D02*
D03*
X157480Y444500D02*
D03*
X165100Y429260D02*
D03*
X157480Y414020D02*
D03*
X165100Y398780D02*
D03*
X157480Y383540D02*
D03*
X165100Y368300D02*
D03*
X157480Y353060D02*
D03*
X165100Y337820D02*
D03*
X157480Y322580D02*
D03*
X165100Y307340D02*
D03*
X157480Y292100D02*
D03*
X165100Y276860D02*
D03*
X157480Y261620D02*
D03*
X165100Y246380D02*
D03*
X157480Y231140D02*
D03*
X165100Y215900D02*
D03*
X157480Y200660D02*
D03*
X165100Y185420D02*
D03*
X157480Y170180D02*
D03*
Y109220D02*
D03*
X165100Y93980D02*
D03*
X157480Y78740D02*
D03*
X165100Y63500D02*
D03*
X157480Y48260D02*
D03*
X165100Y33020D02*
D03*
X157480Y17780D02*
D03*
X149860Y703580D02*
D03*
X142240Y688340D02*
D03*
X149860Y673100D02*
D03*
X142240Y657860D02*
D03*
X149860Y642620D02*
D03*
X142240Y627380D02*
D03*
Y566420D02*
D03*
X149860Y551180D02*
D03*
X142240Y535940D02*
D03*
X149860Y520700D02*
D03*
X142240Y505460D02*
D03*
X149860Y490220D02*
D03*
X142240Y474980D02*
D03*
X149860Y459740D02*
D03*
X142240Y444500D02*
D03*
X149860Y429260D02*
D03*
X142240Y414020D02*
D03*
X149860Y398780D02*
D03*
X142240Y383540D02*
D03*
X149860Y368300D02*
D03*
X142240Y353060D02*
D03*
X149860Y337820D02*
D03*
X142240Y322580D02*
D03*
X149860Y307340D02*
D03*
X142240Y292100D02*
D03*
X149860Y276860D02*
D03*
X142240Y261620D02*
D03*
X149860Y246380D02*
D03*
X142240Y231140D02*
D03*
X149860Y215900D02*
D03*
X142240Y200660D02*
D03*
X149860Y185420D02*
D03*
X142240Y170180D02*
D03*
Y109220D02*
D03*
X149860Y93980D02*
D03*
X142240Y78740D02*
D03*
X149860Y63500D02*
D03*
X142240Y48260D02*
D03*
X149860Y33020D02*
D03*
X142240Y17780D02*
D03*
X134620Y703580D02*
D03*
X127000Y688340D02*
D03*
X134620Y673100D02*
D03*
X127000Y657860D02*
D03*
X134620Y642620D02*
D03*
X127000Y627380D02*
D03*
Y596900D02*
D03*
Y566420D02*
D03*
X134620Y551180D02*
D03*
X127000Y535940D02*
D03*
X134620Y520700D02*
D03*
X127000Y505460D02*
D03*
X134620Y490220D02*
D03*
X127000Y474980D02*
D03*
X134620Y459740D02*
D03*
X127000Y444500D02*
D03*
X134620Y429260D02*
D03*
X127000Y414020D02*
D03*
X134620Y398780D02*
D03*
X127000Y383540D02*
D03*
X134620Y368300D02*
D03*
X127000Y353060D02*
D03*
X134620Y337820D02*
D03*
X127000Y322580D02*
D03*
X134620Y307340D02*
D03*
X127000Y292100D02*
D03*
X134620Y276860D02*
D03*
X127000Y261620D02*
D03*
X134620Y246380D02*
D03*
X127000Y231140D02*
D03*
X134620Y215900D02*
D03*
X127000Y200660D02*
D03*
X134620Y185420D02*
D03*
X127000Y170180D02*
D03*
Y109220D02*
D03*
X134620Y93980D02*
D03*
X127000Y78740D02*
D03*
X134620Y63500D02*
D03*
X127000Y48260D02*
D03*
X134620Y33020D02*
D03*
X127000Y17780D02*
D03*
X119380Y703580D02*
D03*
X111760Y688340D02*
D03*
X119380Y673100D02*
D03*
X111760Y657860D02*
D03*
X119380Y642620D02*
D03*
X111760Y627380D02*
D03*
Y566420D02*
D03*
X119380Y551180D02*
D03*
X111760Y535940D02*
D03*
X119380Y520700D02*
D03*
X111760Y505460D02*
D03*
X119380Y490220D02*
D03*
X111760Y474980D02*
D03*
X119380Y459740D02*
D03*
X111760Y444500D02*
D03*
X119380Y429260D02*
D03*
X111760Y414020D02*
D03*
X119380Y398780D02*
D03*
X111760Y383540D02*
D03*
X119380Y368300D02*
D03*
X111760Y353060D02*
D03*
X119380Y337820D02*
D03*
X111760Y322580D02*
D03*
X119380Y307340D02*
D03*
X111760Y292100D02*
D03*
X119380Y276860D02*
D03*
X111760Y261620D02*
D03*
X119380Y246380D02*
D03*
X111760Y231140D02*
D03*
X119380Y215900D02*
D03*
X111760Y200660D02*
D03*
X119380Y185420D02*
D03*
X111760Y170180D02*
D03*
Y139700D02*
D03*
Y109220D02*
D03*
X119380Y93980D02*
D03*
X111760Y78740D02*
D03*
X119380Y63500D02*
D03*
X111760Y48260D02*
D03*
X119380Y33020D02*
D03*
X111760Y17780D02*
D03*
X104140Y703580D02*
D03*
X96520Y688340D02*
D03*
X104140Y673100D02*
D03*
X96520Y657860D02*
D03*
X104140Y642620D02*
D03*
X96520Y627380D02*
D03*
Y566420D02*
D03*
X104140Y551180D02*
D03*
X96520Y535940D02*
D03*
X104140Y520700D02*
D03*
X96520Y505460D02*
D03*
X104140Y490220D02*
D03*
X96520Y474980D02*
D03*
X104140Y459740D02*
D03*
X96520Y444500D02*
D03*
X104140Y429260D02*
D03*
X96520Y414020D02*
D03*
X104140Y398780D02*
D03*
X96520Y383540D02*
D03*
X104140Y368300D02*
D03*
X96520Y353060D02*
D03*
X104140Y337820D02*
D03*
X96520Y322580D02*
D03*
X104140Y307340D02*
D03*
X96520Y292100D02*
D03*
X104140Y276860D02*
D03*
X96520Y261620D02*
D03*
X104140Y246380D02*
D03*
X96520Y231140D02*
D03*
X104140Y215900D02*
D03*
X96520Y200660D02*
D03*
X104140Y185420D02*
D03*
X96520Y170180D02*
D03*
X104140Y154940D02*
D03*
X96520Y139700D02*
D03*
X104140Y124460D02*
D03*
X96520Y109220D02*
D03*
X104140Y93980D02*
D03*
X96520Y78740D02*
D03*
X104140Y63500D02*
D03*
X96520Y48260D02*
D03*
X104140Y33020D02*
D03*
X96520Y17780D02*
D03*
X88900Y703580D02*
D03*
X81280Y688340D02*
D03*
X88900Y673100D02*
D03*
X81280Y657860D02*
D03*
X88900Y642620D02*
D03*
X81280Y627380D02*
D03*
Y596900D02*
D03*
Y566420D02*
D03*
X88900Y551180D02*
D03*
X81280Y535940D02*
D03*
X88900Y520700D02*
D03*
X81280Y505460D02*
D03*
X88900Y490220D02*
D03*
X81280Y474980D02*
D03*
X88900Y459740D02*
D03*
X81280Y444500D02*
D03*
X88900Y429260D02*
D03*
X81280Y414020D02*
D03*
X88900Y398780D02*
D03*
X81280Y383540D02*
D03*
X88900Y368300D02*
D03*
X81280Y353060D02*
D03*
X88900Y337820D02*
D03*
X81280Y322580D02*
D03*
X88900Y307340D02*
D03*
X81280Y292100D02*
D03*
X88900Y276860D02*
D03*
X81280Y261620D02*
D03*
X88900Y246380D02*
D03*
X81280Y231140D02*
D03*
X88900Y215900D02*
D03*
X81280Y200660D02*
D03*
X88900Y185420D02*
D03*
X81280Y170180D02*
D03*
X88900Y154940D02*
D03*
X81280Y139700D02*
D03*
X88900Y124460D02*
D03*
X81280Y109220D02*
D03*
X88900Y93980D02*
D03*
X81280Y78740D02*
D03*
X88900Y63500D02*
D03*
X81280Y48260D02*
D03*
X88900Y33020D02*
D03*
X81280Y17780D02*
D03*
X73660Y703580D02*
D03*
X66040Y688340D02*
D03*
X73660Y673100D02*
D03*
X66040Y657860D02*
D03*
X73660Y642620D02*
D03*
X66040Y627380D02*
D03*
Y566420D02*
D03*
X73660Y551180D02*
D03*
X66040Y535940D02*
D03*
X73660Y520700D02*
D03*
X66040Y505460D02*
D03*
X73660Y490220D02*
D03*
X66040Y474980D02*
D03*
X73660Y459740D02*
D03*
X66040Y444500D02*
D03*
X73660Y429260D02*
D03*
X66040Y414020D02*
D03*
X73660Y398780D02*
D03*
X66040Y383540D02*
D03*
X73660Y368300D02*
D03*
X66040Y353060D02*
D03*
X73660Y337820D02*
D03*
X66040Y322580D02*
D03*
X73660Y307340D02*
D03*
X66040Y292100D02*
D03*
X73660Y276860D02*
D03*
X66040Y261620D02*
D03*
X73660Y246380D02*
D03*
X66040Y231140D02*
D03*
X73660Y215900D02*
D03*
X66040Y200660D02*
D03*
X73660Y185420D02*
D03*
X66040Y170180D02*
D03*
X73660Y154940D02*
D03*
X66040Y139700D02*
D03*
X73660Y124460D02*
D03*
X66040Y109220D02*
D03*
X73660Y93980D02*
D03*
X66040Y78740D02*
D03*
X73660Y63500D02*
D03*
X66040Y48260D02*
D03*
X73660Y33020D02*
D03*
X66040Y17780D02*
D03*
X58420Y703580D02*
D03*
X50800Y688340D02*
D03*
X58420Y673100D02*
D03*
X50800Y657860D02*
D03*
X58420Y642620D02*
D03*
X50800Y627380D02*
D03*
Y566420D02*
D03*
X58420Y551180D02*
D03*
X50800Y535940D02*
D03*
X58420Y520700D02*
D03*
X50800Y505460D02*
D03*
X58420Y490220D02*
D03*
X50800Y474980D02*
D03*
X58420Y459740D02*
D03*
X50800Y444500D02*
D03*
X58420Y429260D02*
D03*
X50800Y414020D02*
D03*
X58420Y398780D02*
D03*
X50800Y383540D02*
D03*
X58420Y368300D02*
D03*
X50800Y353060D02*
D03*
X58420Y337820D02*
D03*
X50800Y322580D02*
D03*
X58420Y307340D02*
D03*
X50800Y292100D02*
D03*
X58420Y276860D02*
D03*
X50800Y261620D02*
D03*
X58420Y246380D02*
D03*
X50800Y231140D02*
D03*
X58420Y215900D02*
D03*
X50800Y200660D02*
D03*
X58420Y185420D02*
D03*
X50800Y170180D02*
D03*
X58420Y154940D02*
D03*
X50800Y139700D02*
D03*
X58420Y124460D02*
D03*
X50800Y109220D02*
D03*
X58420Y93980D02*
D03*
X50800Y78740D02*
D03*
X58420Y63500D02*
D03*
X50800Y48260D02*
D03*
X58420Y33020D02*
D03*
X50800Y17780D02*
D03*
X43180Y703580D02*
D03*
X35560Y688340D02*
D03*
X43180Y673100D02*
D03*
X35560Y657860D02*
D03*
X43180Y642620D02*
D03*
X35560Y627380D02*
D03*
Y566420D02*
D03*
X43180Y551180D02*
D03*
X35560Y535940D02*
D03*
X43180Y520700D02*
D03*
X35560Y505460D02*
D03*
X43180Y490220D02*
D03*
X35560Y474980D02*
D03*
X43180Y459740D02*
D03*
X35560Y444500D02*
D03*
X43180Y429260D02*
D03*
X35560Y414020D02*
D03*
X43180Y398780D02*
D03*
X35560Y383540D02*
D03*
X43180Y368300D02*
D03*
X35560Y353060D02*
D03*
X43180Y337820D02*
D03*
X35560Y322580D02*
D03*
X43180Y307340D02*
D03*
X35560Y292100D02*
D03*
X43180Y276860D02*
D03*
X35560Y261620D02*
D03*
X43180Y246380D02*
D03*
X35560Y231140D02*
D03*
X43180Y215900D02*
D03*
X35560Y200660D02*
D03*
X43180Y185420D02*
D03*
X35560Y170180D02*
D03*
X43180Y154940D02*
D03*
X35560Y139700D02*
D03*
X43180Y124460D02*
D03*
X35560Y109220D02*
D03*
X43180Y93980D02*
D03*
X35560Y78740D02*
D03*
X43180Y63500D02*
D03*
X35560Y48260D02*
D03*
X43180Y33020D02*
D03*
X35560Y17780D02*
D03*
X27940Y703580D02*
D03*
X20320Y688340D02*
D03*
X27940Y673100D02*
D03*
X20320Y657860D02*
D03*
X27940Y642620D02*
D03*
X20320Y627380D02*
D03*
Y596900D02*
D03*
Y566420D02*
D03*
X27940Y551180D02*
D03*
X20320Y535940D02*
D03*
X27940Y520700D02*
D03*
X20320Y505460D02*
D03*
X27940Y490220D02*
D03*
X20320Y474980D02*
D03*
X27940Y459740D02*
D03*
X20320Y444500D02*
D03*
X27940Y429260D02*
D03*
X20320Y414020D02*
D03*
X27940Y398780D02*
D03*
X20320Y383540D02*
D03*
X27940Y368300D02*
D03*
X20320Y353060D02*
D03*
X27940Y337820D02*
D03*
X20320Y322580D02*
D03*
X27940Y307340D02*
D03*
X20320Y292100D02*
D03*
X27940Y276860D02*
D03*
X20320Y261620D02*
D03*
X27940Y246380D02*
D03*
X20320Y231140D02*
D03*
X27940Y215900D02*
D03*
X20320Y200660D02*
D03*
X27940Y185420D02*
D03*
X20320Y170180D02*
D03*
X27940Y154940D02*
D03*
X20320Y139700D02*
D03*
X27940Y124460D02*
D03*
X20320Y109220D02*
D03*
X27940Y93980D02*
D03*
X20320Y78740D02*
D03*
X27940Y63500D02*
D03*
X20320Y48260D02*
D03*
X27940Y33020D02*
D03*
X20320Y17780D02*
D03*
D39*
X490474Y359410D02*
D03*
X581152Y262128D02*
D03*
D40*
X866394Y271780D02*
D03*
M02*
